%TF.GenerationSoftware,KiCad,Pcbnew,8.0.8*%
%TF.CreationDate,2025-01-20T03:53:38+01:00*%
%TF.ProjectId,NANO_MPU_SD_2Layers,4e414e4f-5f4d-4505-955f-53445f324c61,rev?*%
%TF.SameCoordinates,Original*%
%TF.FileFunction,Drillmap*%
%TF.FilePolarity,Positive*%
%FSLAX45Y45*%
G04 Gerber Fmt 4.5, Leading zero omitted, Abs format (unit mm)*
G04 Created by KiCad (PCBNEW 8.0.8) date 2025-01-20 03:53:38*
%MOMM*%
%LPD*%
G01*
G04 APERTURE LIST*
%ADD10C,0.050000*%
%ADD11C,0.200000*%
G04 APERTURE END LIST*
D10*
X5000000Y-5000000D02*
X8500000Y-5000000D01*
X8500000Y-11000000D01*
X5000000Y-11000000D01*
X5000000Y-5000000D01*
D11*
X5258277Y-11313984D02*
X5258277Y-11113984D01*
X5258277Y-11113984D02*
X5305896Y-11113984D01*
X5305896Y-11113984D02*
X5334467Y-11123508D01*
X5334467Y-11123508D02*
X5353515Y-11142555D01*
X5353515Y-11142555D02*
X5363039Y-11161603D01*
X5363039Y-11161603D02*
X5372563Y-11199698D01*
X5372563Y-11199698D02*
X5372563Y-11228269D01*
X5372563Y-11228269D02*
X5363039Y-11266365D01*
X5363039Y-11266365D02*
X5353515Y-11285412D01*
X5353515Y-11285412D02*
X5334467Y-11304460D01*
X5334467Y-11304460D02*
X5305896Y-11313984D01*
X5305896Y-11313984D02*
X5258277Y-11313984D01*
X5458277Y-11313984D02*
X5458277Y-11180650D01*
X5458277Y-11218746D02*
X5467801Y-11199698D01*
X5467801Y-11199698D02*
X5477324Y-11190174D01*
X5477324Y-11190174D02*
X5496372Y-11180650D01*
X5496372Y-11180650D02*
X5515420Y-11180650D01*
X5582086Y-11313984D02*
X5582086Y-11180650D01*
X5582086Y-11113984D02*
X5572563Y-11123508D01*
X5572563Y-11123508D02*
X5582086Y-11133031D01*
X5582086Y-11133031D02*
X5591610Y-11123508D01*
X5591610Y-11123508D02*
X5582086Y-11113984D01*
X5582086Y-11113984D02*
X5582086Y-11133031D01*
X5705896Y-11313984D02*
X5686848Y-11304460D01*
X5686848Y-11304460D02*
X5677324Y-11285412D01*
X5677324Y-11285412D02*
X5677324Y-11113984D01*
X5810658Y-11313984D02*
X5791610Y-11304460D01*
X5791610Y-11304460D02*
X5782086Y-11285412D01*
X5782086Y-11285412D02*
X5782086Y-11113984D01*
X6039229Y-11313984D02*
X6039229Y-11113984D01*
X6039229Y-11113984D02*
X6105896Y-11256841D01*
X6105896Y-11256841D02*
X6172562Y-11113984D01*
X6172562Y-11113984D02*
X6172562Y-11313984D01*
X6353515Y-11313984D02*
X6353515Y-11209222D01*
X6353515Y-11209222D02*
X6343991Y-11190174D01*
X6343991Y-11190174D02*
X6324943Y-11180650D01*
X6324943Y-11180650D02*
X6286848Y-11180650D01*
X6286848Y-11180650D02*
X6267801Y-11190174D01*
X6353515Y-11304460D02*
X6334467Y-11313984D01*
X6334467Y-11313984D02*
X6286848Y-11313984D01*
X6286848Y-11313984D02*
X6267801Y-11304460D01*
X6267801Y-11304460D02*
X6258277Y-11285412D01*
X6258277Y-11285412D02*
X6258277Y-11266365D01*
X6258277Y-11266365D02*
X6267801Y-11247317D01*
X6267801Y-11247317D02*
X6286848Y-11237793D01*
X6286848Y-11237793D02*
X6334467Y-11237793D01*
X6334467Y-11237793D02*
X6353515Y-11228269D01*
X6448753Y-11180650D02*
X6448753Y-11380650D01*
X6448753Y-11190174D02*
X6467801Y-11180650D01*
X6467801Y-11180650D02*
X6505896Y-11180650D01*
X6505896Y-11180650D02*
X6524943Y-11190174D01*
X6524943Y-11190174D02*
X6534467Y-11199698D01*
X6534467Y-11199698D02*
X6543991Y-11218746D01*
X6543991Y-11218746D02*
X6543991Y-11275888D01*
X6543991Y-11275888D02*
X6534467Y-11294936D01*
X6534467Y-11294936D02*
X6524943Y-11304460D01*
X6524943Y-11304460D02*
X6505896Y-11313984D01*
X6505896Y-11313984D02*
X6467801Y-11313984D01*
X6467801Y-11313984D02*
X6448753Y-11304460D01*
X6629705Y-11294936D02*
X6639229Y-11304460D01*
X6639229Y-11304460D02*
X6629705Y-11313984D01*
X6629705Y-11313984D02*
X6620182Y-11304460D01*
X6620182Y-11304460D02*
X6629705Y-11294936D01*
X6629705Y-11294936D02*
X6629705Y-11313984D01*
X6629705Y-11190174D02*
X6639229Y-11199698D01*
X6639229Y-11199698D02*
X6629705Y-11209222D01*
X6629705Y-11209222D02*
X6620182Y-11199698D01*
X6620182Y-11199698D02*
X6629705Y-11190174D01*
X6629705Y-11190174D02*
X6629705Y-11209222D01*
M02*
