%TF.GenerationSoftware,KiCad,Pcbnew,8.0.8*%
%TF.CreationDate,2025-01-20T03:53:25+01:00*%
%TF.ProjectId,NANO_MPU_SD_2Layers,4e414e4f-5f4d-4505-955f-53445f324c61,rev?*%
%TF.SameCoordinates,Original*%
%TF.FileFunction,Copper,L2,Bot*%
%TF.FilePolarity,Positive*%
%FSLAX46Y46*%
G04 Gerber Fmt 4.6, Leading zero omitted, Abs format (unit mm)*
G04 Created by KiCad (PCBNEW 8.0.8) date 2025-01-20 03:53:25*
%MOMM*%
%LPD*%
G01*
G04 APERTURE LIST*
G04 Aperture macros list*
%AMRoundRect*
0 Rectangle with rounded corners*
0 $1 Rounding radius*
0 $2 $3 $4 $5 $6 $7 $8 $9 X,Y pos of 4 corners*
0 Add a 4 corners polygon primitive as box body*
4,1,4,$2,$3,$4,$5,$6,$7,$8,$9,$2,$3,0*
0 Add four circle primitives for the rounded corners*
1,1,$1+$1,$2,$3*
1,1,$1+$1,$4,$5*
1,1,$1+$1,$6,$7*
1,1,$1+$1,$8,$9*
0 Add four rect primitives between the rounded corners*
20,1,$1+$1,$2,$3,$4,$5,0*
20,1,$1+$1,$4,$5,$6,$7,0*
20,1,$1+$1,$6,$7,$8,$9,0*
20,1,$1+$1,$8,$9,$2,$3,0*%
G04 Aperture macros list end*
%TA.AperFunction,ComponentPad*%
%ADD10R,1.600000X1.600000*%
%TD*%
%TA.AperFunction,ComponentPad*%
%ADD11O,1.600000X1.600000*%
%TD*%
%TA.AperFunction,ComponentPad*%
%ADD12C,1.600000*%
%TD*%
%TA.AperFunction,ComponentPad*%
%ADD13R,1.800000X1.800000*%
%TD*%
%TA.AperFunction,ComponentPad*%
%ADD14C,1.800000*%
%TD*%
%TA.AperFunction,ComponentPad*%
%ADD15R,1.700000X1.700000*%
%TD*%
%TA.AperFunction,ComponentPad*%
%ADD16O,1.700000X1.700000*%
%TD*%
%TA.AperFunction,ComponentPad*%
%ADD17RoundRect,0.250000X-0.750000X0.600000X-0.750000X-0.600000X0.750000X-0.600000X0.750000X0.600000X0*%
%TD*%
%TA.AperFunction,ComponentPad*%
%ADD18O,2.000000X1.700000*%
%TD*%
%TA.AperFunction,ViaPad*%
%ADD19C,0.600000*%
%TD*%
%TA.AperFunction,Conductor*%
%ADD20C,0.200000*%
%TD*%
G04 APERTURE END LIST*
D10*
%TO.P,A1,1,D1/TX*%
%TO.N,unconnected-(A1-D1{slash}TX-Pad1)*%
X57560000Y-67660000D03*
D11*
%TO.P,A1,2,D0/RX*%
%TO.N,unconnected-(A1-D0{slash}RX-Pad2)*%
X57560000Y-70200000D03*
%TO.P,A1,3,~{RESET}*%
%TO.N,unconnected-(A1-~{RESET}-Pad3)*%
X57560000Y-72740000D03*
%TO.P,A1,4,GND*%
%TO.N,GND*%
X57560000Y-75280000D03*
%TO.P,A1,5,D2*%
%TO.N,unconnected-(A1-D2-Pad5)*%
X57560000Y-77820000D03*
%TO.P,A1,6,D3*%
%TO.N,Net-(A1-D3)*%
X57560000Y-80360000D03*
%TO.P,A1,7,D4*%
%TO.N,unconnected-(A1-D4-Pad7)*%
X57560000Y-82900000D03*
%TO.P,A1,8,D5*%
%TO.N,Net-(A1-D5)*%
X57560000Y-85440000D03*
%TO.P,A1,9,D6*%
%TO.N,unconnected-(A1-D6-Pad9)*%
X57560000Y-87980000D03*
%TO.P,A1,10,D7*%
%TO.N,unconnected-(A1-D7-Pad10)*%
X57560000Y-90520000D03*
%TO.P,A1,11,D8*%
%TO.N,unconnected-(A1-D8-Pad11)*%
X57560000Y-93060000D03*
%TO.P,A1,12,D9*%
%TO.N,unconnected-(A1-D9-Pad12)*%
X57560000Y-95600000D03*
%TO.P,A1,13,D10*%
%TO.N,Net-(A1-D10)*%
X57560000Y-98140000D03*
%TO.P,A1,14,D11*%
%TO.N,Net-(A1-D11)*%
X57560000Y-100680000D03*
%TO.P,A1,15,D12*%
%TO.N,Net-(A1-D12)*%
X57560000Y-103220000D03*
%TO.P,A1,16,D13*%
%TO.N,Net-(A1-D13)*%
X72800000Y-103220000D03*
%TO.P,A1,17,3V3*%
%TO.N,+3.3V*%
X72800000Y-100680000D03*
%TO.P,A1,18,AREF*%
%TO.N,unconnected-(A1-AREF-Pad18)*%
X72800000Y-98140000D03*
%TO.P,A1,19,A0*%
%TO.N,unconnected-(A1-A0-Pad19)*%
X72800000Y-95600000D03*
%TO.P,A1,20,A1*%
%TO.N,unconnected-(A1-A1-Pad20)*%
X72800000Y-93060000D03*
%TO.P,A1,21,A2*%
%TO.N,unconnected-(A1-A2-Pad21)*%
X72800000Y-90520000D03*
%TO.P,A1,22,A3*%
%TO.N,unconnected-(A1-A3-Pad22)*%
X72800000Y-87980000D03*
%TO.P,A1,23,A4*%
%TO.N,Net-(A1-A4)*%
X72800000Y-85440000D03*
%TO.P,A1,24,A5*%
%TO.N,Net-(A1-A5)*%
X72800000Y-82900000D03*
%TO.P,A1,25,A6*%
%TO.N,unconnected-(A1-A6-Pad25)*%
X72800000Y-80360000D03*
%TO.P,A1,26,A7*%
%TO.N,unconnected-(A1-A7-Pad26)*%
X72800000Y-77820000D03*
%TO.P,A1,27,+5V*%
%TO.N,+5V*%
X72800000Y-75280000D03*
%TO.P,A1,28,~{RESET}*%
%TO.N,unconnected-(A1-~{RESET}-Pad28)*%
X72800000Y-72740000D03*
%TO.P,A1,29,GND*%
%TO.N,GND*%
X72800000Y-70200000D03*
%TO.P,A1,30,VIN*%
%TO.N,Net-(A1-VIN)*%
X72800000Y-67660000D03*
%TD*%
D12*
%TO.P,R1,1*%
%TO.N,Net-(A1-D5)*%
X53100000Y-86720000D03*
D11*
%TO.P,R1,2*%
%TO.N,Net-(D1-A)*%
X53100000Y-96880000D03*
%TD*%
D13*
%TO.P,D2,1,K*%
%TO.N,GND*%
X53100000Y-104430000D03*
D14*
%TO.P,D2,2,A*%
%TO.N,Net-(D2-A)*%
X53100000Y-106970000D03*
%TD*%
D15*
%TO.P,J2,1,ePin_b2*%
%TO.N,GND*%
X58180000Y-51960000D03*
D16*
%TO.P,J2,2,ePin_a2*%
X58180000Y-54500000D03*
%TO.P,J2,3,eePin_b4*%
%TO.N,Net-(A1-D12)*%
X60720000Y-51960000D03*
%TO.P,J2,4,ePin_a4*%
X60720000Y-54500000D03*
%TO.P,J2,5,ePin_b6*%
%TO.N,Net-(A1-D13)*%
X63260000Y-51960000D03*
%TO.P,J2,6,ePin_a6*%
X63260000Y-54500000D03*
%TO.P,J2,7,ePin_b8*%
%TO.N,Net-(A1-D11)*%
X65800000Y-51960000D03*
%TO.P,J2,8,ePin_a8*%
X65800000Y-54500000D03*
%TO.P,J2,9,ePin_b10*%
%TO.N,Net-(A1-D10)*%
X68340000Y-51960000D03*
%TO.P,J2,10,ePin_a10*%
X68340000Y-54500000D03*
%TO.P,J2,11,ePin_b12*%
%TO.N,+5V*%
X70880000Y-51960000D03*
%TO.P,J2,12,ePin_a12*%
X70880000Y-54500000D03*
%TO.P,J2,13,Pin_b14*%
%TO.N,+3.3V*%
X73420000Y-51960000D03*
%TO.P,J2,14,ePin_a14*%
X73420000Y-54500000D03*
%TO.P,J2,15,ePin_b16*%
%TO.N,GND*%
X75960000Y-51960000D03*
%TO.P,J2,16,ePin_a16*%
X75960000Y-54500000D03*
%TD*%
D15*
%TO.P,J3,1,Pin_1*%
%TO.N,+3.3V*%
X82875000Y-82400000D03*
D16*
%TO.P,J3,2,Pin_2*%
%TO.N,GND*%
X82875000Y-79860000D03*
%TO.P,J3,3,Pin_3*%
%TO.N,Net-(A1-A5)*%
X82875000Y-77320000D03*
%TO.P,J3,4,Pin_4*%
%TO.N,Net-(A1-A4)*%
X82875000Y-74780000D03*
%TD*%
D13*
%TO.P,D1,1,K*%
%TO.N,GND*%
X53100000Y-99230000D03*
D14*
%TO.P,D1,2,A*%
%TO.N,Net-(D1-A)*%
X53100000Y-101770000D03*
%TD*%
D15*
%TO.P,J1,1,Pin_1*%
%TO.N,+3.3V*%
X83100000Y-106600000D03*
D16*
%TO.P,J1,2,Pin_2*%
%TO.N,GND*%
X83100000Y-104060000D03*
%TO.P,J1,3,Pin_3*%
%TO.N,Net-(A1-A5)*%
X83100000Y-101520000D03*
%TO.P,J1,4,Pin_4*%
%TO.N,Net-(A1-A4)*%
X83100000Y-98980000D03*
%TO.P,J1,5,Pin_5*%
%TO.N,unconnected-(J1-Pin_5-Pad5)*%
X83100000Y-96440000D03*
%TO.P,J1,6,Pin_6*%
%TO.N,unconnected-(J1-Pin_6-Pad6)*%
X83100000Y-93900000D03*
%TO.P,J1,7,Pin_7*%
%TO.N,unconnected-(J1-Pin_7-Pad7)*%
X83100000Y-91360000D03*
%TO.P,J1,8,Pin_8*%
%TO.N,unconnected-(J1-Pin_8-Pad8)*%
X83100000Y-88820000D03*
%TD*%
D12*
%TO.P,R2,1*%
%TO.N,Net-(D2-A)*%
X53000000Y-84080000D03*
D11*
%TO.P,R2,2*%
%TO.N,Net-(A1-D3)*%
X53000000Y-73920000D03*
%TD*%
D17*
%TO.P,J4,1,Pin_1*%
%TO.N,Net-(A1-VIN)*%
X81600000Y-60200000D03*
D18*
%TO.P,J4,2,Pin_2*%
%TO.N,GND*%
X81600000Y-62700000D03*
%TD*%
D19*
%TO.N,Net-(A1-D10)*%
X59000000Y-63800000D03*
%TO.N,Net-(A1-D11)*%
X60000000Y-60300000D03*
%TD*%
D20*
%TO.N,Net-(A1-D10)*%
X68340000Y-54500000D02*
X59040000Y-63800000D01*
X59040000Y-63800000D02*
X59000000Y-63800000D01*
%TO.N,Net-(A1-D11)*%
X65800000Y-54500000D02*
X60000000Y-60300000D01*
%TO.N,+3.3V*%
X75000000Y-102880000D02*
X75000000Y-98480000D01*
X78720000Y-106600000D02*
X75000000Y-102880000D01*
X75000000Y-56080000D02*
X75000000Y-88200000D01*
X83100000Y-106600000D02*
X78720000Y-106600000D01*
X80800000Y-82400000D02*
X82875000Y-82400000D01*
X73420000Y-54500000D02*
X75000000Y-56080000D01*
X75000000Y-88200000D02*
X80800000Y-82400000D01*
X75000000Y-98480000D02*
X75000000Y-88200000D01*
X72800000Y-100680000D02*
X75000000Y-98480000D01*
%TD*%
%TA.AperFunction,Conductor*%
%TO.N,GND*%
G36*
X56943578Y-50570185D02*
G01*
X56989333Y-50622989D01*
X56999277Y-50692147D01*
X56975805Y-50748811D01*
X56886649Y-50867906D01*
X56886645Y-50867913D01*
X56836403Y-51002620D01*
X56836401Y-51002627D01*
X56830000Y-51062155D01*
X56830000Y-51710000D01*
X57746988Y-51710000D01*
X57714075Y-51767007D01*
X57680000Y-51894174D01*
X57680000Y-52025826D01*
X57714075Y-52152993D01*
X57746988Y-52210000D01*
X56830000Y-52210000D01*
X56830000Y-52857844D01*
X56836401Y-52917372D01*
X56836403Y-52917379D01*
X56886645Y-53052086D01*
X56886649Y-53052093D01*
X56972809Y-53167187D01*
X56972812Y-53167190D01*
X57087906Y-53253350D01*
X57087913Y-53253354D01*
X57219986Y-53302614D01*
X57275920Y-53344485D01*
X57300337Y-53409949D01*
X57285486Y-53478222D01*
X57264335Y-53506477D01*
X57141886Y-53628926D01*
X57006400Y-53822420D01*
X57006399Y-53822422D01*
X56906570Y-54036507D01*
X56906567Y-54036513D01*
X56849364Y-54249999D01*
X56849364Y-54250000D01*
X57746988Y-54250000D01*
X57714075Y-54307007D01*
X57680000Y-54434174D01*
X57680000Y-54565826D01*
X57714075Y-54692993D01*
X57746988Y-54750000D01*
X56849364Y-54750000D01*
X56906567Y-54963486D01*
X56906570Y-54963492D01*
X57006399Y-55177578D01*
X57141894Y-55371082D01*
X57308917Y-55538105D01*
X57502421Y-55673600D01*
X57716507Y-55773429D01*
X57716516Y-55773433D01*
X57930000Y-55830634D01*
X57930000Y-54933012D01*
X57987007Y-54965925D01*
X58114174Y-55000000D01*
X58245826Y-55000000D01*
X58372993Y-54965925D01*
X58430000Y-54933012D01*
X58430000Y-55830633D01*
X58643483Y-55773433D01*
X58643492Y-55773429D01*
X58857578Y-55673600D01*
X59051082Y-55538105D01*
X59218105Y-55371082D01*
X59348119Y-55185405D01*
X59402696Y-55141781D01*
X59472195Y-55134588D01*
X59534549Y-55166110D01*
X59551269Y-55185405D01*
X59681505Y-55371401D01*
X59848599Y-55538495D01*
X59935692Y-55599478D01*
X60042165Y-55674032D01*
X60042167Y-55674033D01*
X60042170Y-55674035D01*
X60256337Y-55773903D01*
X60484592Y-55835063D01*
X60672918Y-55851539D01*
X60719999Y-55855659D01*
X60720000Y-55855659D01*
X60720001Y-55855659D01*
X60759234Y-55852226D01*
X60955408Y-55835063D01*
X61183663Y-55773903D01*
X61397830Y-55674035D01*
X61591401Y-55538495D01*
X61758495Y-55371401D01*
X61888425Y-55185842D01*
X61943002Y-55142217D01*
X62012500Y-55135023D01*
X62074855Y-55166546D01*
X62091575Y-55185842D01*
X62221281Y-55371082D01*
X62221505Y-55371401D01*
X62388599Y-55538495D01*
X62475692Y-55599478D01*
X62582165Y-55674032D01*
X62582167Y-55674033D01*
X62582170Y-55674035D01*
X62796337Y-55773903D01*
X63024592Y-55835063D01*
X63212918Y-55851539D01*
X63259999Y-55855659D01*
X63260000Y-55855659D01*
X63287841Y-55853223D01*
X63356341Y-55866989D01*
X63406524Y-55915604D01*
X63422458Y-55983632D01*
X63399083Y-56049476D01*
X63386330Y-56064432D01*
X59981465Y-59469298D01*
X59920142Y-59502783D01*
X59907668Y-59504837D01*
X59820750Y-59514630D01*
X59650478Y-59574210D01*
X59497737Y-59670184D01*
X59370184Y-59797737D01*
X59274211Y-59950476D01*
X59214631Y-60120745D01*
X59214630Y-60120750D01*
X59194435Y-60299996D01*
X59194435Y-60300003D01*
X59214630Y-60479249D01*
X59214631Y-60479254D01*
X59274211Y-60649523D01*
X59370184Y-60802262D01*
X59497738Y-60929816D01*
X59650478Y-61025789D01*
X59820745Y-61085368D01*
X59820750Y-61085369D01*
X59999996Y-61105565D01*
X60000000Y-61105565D01*
X60000004Y-61105565D01*
X60179249Y-61085369D01*
X60179252Y-61085368D01*
X60179255Y-61085368D01*
X60349522Y-61025789D01*
X60502262Y-60929816D01*
X60629816Y-60802262D01*
X60725789Y-60649522D01*
X60785368Y-60479255D01*
X60795161Y-60392329D01*
X60822226Y-60327918D01*
X60830690Y-60318543D01*
X65316470Y-55832764D01*
X65377791Y-55799281D01*
X65436242Y-55800672D01*
X65491990Y-55815609D01*
X65564592Y-55835063D01*
X65752918Y-55851539D01*
X65799999Y-55855659D01*
X65800000Y-55855659D01*
X65800001Y-55855659D01*
X65814106Y-55854424D01*
X65827842Y-55853223D01*
X65896342Y-55866989D01*
X65946525Y-55915604D01*
X65962459Y-55983633D01*
X65939084Y-56049476D01*
X65926331Y-56064432D01*
X59026544Y-62964219D01*
X58965221Y-62997704D01*
X58952747Y-62999758D01*
X58820752Y-63014630D01*
X58820747Y-63014631D01*
X58650478Y-63074210D01*
X58497737Y-63170184D01*
X58370184Y-63297737D01*
X58274211Y-63450476D01*
X58214631Y-63620745D01*
X58214630Y-63620750D01*
X58194435Y-63799996D01*
X58194435Y-63800003D01*
X58214630Y-63979249D01*
X58214631Y-63979254D01*
X58274211Y-64149523D01*
X58370184Y-64302262D01*
X58497738Y-64429816D01*
X58650478Y-64525789D01*
X58820745Y-64585368D01*
X58820750Y-64585369D01*
X58999996Y-64605565D01*
X59000000Y-64605565D01*
X59000004Y-64605565D01*
X59179249Y-64585369D01*
X59179252Y-64585368D01*
X59179255Y-64585368D01*
X59349522Y-64525789D01*
X59502262Y-64429816D01*
X59629816Y-64302262D01*
X59725789Y-64149522D01*
X59785368Y-63979255D01*
X59790082Y-63937409D01*
X59817146Y-63872998D01*
X59825611Y-63863622D01*
X67856470Y-55832763D01*
X67917791Y-55799280D01*
X67976238Y-55800670D01*
X68104592Y-55835063D01*
X68292918Y-55851539D01*
X68339999Y-55855659D01*
X68340000Y-55855659D01*
X68340001Y-55855659D01*
X68379234Y-55852226D01*
X68575408Y-55835063D01*
X68803663Y-55773903D01*
X69017830Y-55674035D01*
X69211401Y-55538495D01*
X69378495Y-55371401D01*
X69508425Y-55185842D01*
X69563002Y-55142217D01*
X69632500Y-55135023D01*
X69694855Y-55166546D01*
X69711575Y-55185842D01*
X69841281Y-55371082D01*
X69841505Y-55371401D01*
X70008599Y-55538495D01*
X70095692Y-55599478D01*
X70202165Y-55674032D01*
X70202167Y-55674033D01*
X70202170Y-55674035D01*
X70416337Y-55773903D01*
X70644592Y-55835063D01*
X70832918Y-55851539D01*
X70879999Y-55855659D01*
X70880000Y-55855659D01*
X70880001Y-55855659D01*
X70919234Y-55852226D01*
X71115408Y-55835063D01*
X71343663Y-55773903D01*
X71557830Y-55674035D01*
X71751401Y-55538495D01*
X71918495Y-55371401D01*
X72048425Y-55185842D01*
X72103002Y-55142217D01*
X72172500Y-55135023D01*
X72234855Y-55166546D01*
X72251575Y-55185842D01*
X72381281Y-55371082D01*
X72381505Y-55371401D01*
X72548599Y-55538495D01*
X72635692Y-55599478D01*
X72742165Y-55674032D01*
X72742167Y-55674033D01*
X72742170Y-55674035D01*
X72956337Y-55773903D01*
X73184592Y-55835063D01*
X73372918Y-55851539D01*
X73419999Y-55855659D01*
X73420000Y-55855659D01*
X73420001Y-55855659D01*
X73459234Y-55852226D01*
X73655408Y-55835063D01*
X73783757Y-55800672D01*
X73853606Y-55802335D01*
X73903531Y-55832766D01*
X74363181Y-56292416D01*
X74396666Y-56353739D01*
X74399500Y-56380097D01*
X74399500Y-88113330D01*
X74399499Y-88113348D01*
X74399499Y-88289046D01*
X74399500Y-88289059D01*
X74399500Y-98179902D01*
X74379815Y-98246941D01*
X74363180Y-98267584D01*
X74309427Y-98321336D01*
X74248104Y-98354820D01*
X74178412Y-98349835D01*
X74122479Y-98307964D01*
X74098063Y-98242499D01*
X74098218Y-98222857D01*
X74105468Y-98140000D01*
X74085635Y-97913308D01*
X74026739Y-97693504D01*
X73930568Y-97487266D01*
X73800047Y-97300861D01*
X73800045Y-97300858D01*
X73639141Y-97139954D01*
X73452734Y-97009432D01*
X73452728Y-97009429D01*
X73394725Y-96982382D01*
X73342285Y-96936210D01*
X73323133Y-96869017D01*
X73343348Y-96802135D01*
X73394725Y-96757618D01*
X73452734Y-96730568D01*
X73639139Y-96600047D01*
X73800047Y-96439139D01*
X73930568Y-96252734D01*
X74026739Y-96046496D01*
X74085635Y-95826692D01*
X74105468Y-95600000D01*
X74085635Y-95373308D01*
X74026739Y-95153504D01*
X73930568Y-94947266D01*
X73800047Y-94760861D01*
X73800045Y-94760858D01*
X73639141Y-94599954D01*
X73452734Y-94469432D01*
X73452728Y-94469429D01*
X73394725Y-94442382D01*
X73342285Y-94396210D01*
X73323133Y-94329017D01*
X73343348Y-94262135D01*
X73394725Y-94217618D01*
X73452734Y-94190568D01*
X73639139Y-94060047D01*
X73800047Y-93899139D01*
X73930568Y-93712734D01*
X74026739Y-93506496D01*
X74085635Y-93286692D01*
X74105468Y-93060000D01*
X74085635Y-92833308D01*
X74026739Y-92613504D01*
X73930568Y-92407266D01*
X73800047Y-92220861D01*
X73800045Y-92220858D01*
X73639141Y-92059954D01*
X73452734Y-91929432D01*
X73452728Y-91929429D01*
X73394725Y-91902382D01*
X73342285Y-91856210D01*
X73323133Y-91789017D01*
X73343348Y-91722135D01*
X73394725Y-91677618D01*
X73452734Y-91650568D01*
X73639139Y-91520047D01*
X73800047Y-91359139D01*
X73930568Y-91172734D01*
X74026739Y-90966496D01*
X74085635Y-90746692D01*
X74105468Y-90520000D01*
X74085635Y-90293308D01*
X74026739Y-90073504D01*
X73930568Y-89867266D01*
X73800047Y-89680861D01*
X73800045Y-89680858D01*
X73639141Y-89519954D01*
X73452734Y-89389432D01*
X73452728Y-89389429D01*
X73394725Y-89362382D01*
X73342285Y-89316210D01*
X73323133Y-89249017D01*
X73343348Y-89182135D01*
X73394725Y-89137618D01*
X73452734Y-89110568D01*
X73639139Y-88980047D01*
X73800047Y-88819139D01*
X73930568Y-88632734D01*
X74026739Y-88426496D01*
X74085635Y-88206692D01*
X74105468Y-87980000D01*
X74085635Y-87753308D01*
X74030113Y-87546097D01*
X74026741Y-87533511D01*
X74026738Y-87533502D01*
X74004091Y-87484936D01*
X73930568Y-87327266D01*
X73800047Y-87140861D01*
X73800045Y-87140858D01*
X73639141Y-86979954D01*
X73452734Y-86849432D01*
X73452728Y-86849429D01*
X73394725Y-86822382D01*
X73342285Y-86776210D01*
X73323133Y-86709017D01*
X73343348Y-86642135D01*
X73394725Y-86597618D01*
X73452734Y-86570568D01*
X73639139Y-86440047D01*
X73800047Y-86279139D01*
X73930568Y-86092734D01*
X74026739Y-85886496D01*
X74085635Y-85666692D01*
X74105468Y-85440000D01*
X74085635Y-85213308D01*
X74026739Y-84993504D01*
X73930568Y-84787266D01*
X73800047Y-84600861D01*
X73800045Y-84600858D01*
X73639141Y-84439954D01*
X73452734Y-84309432D01*
X73452728Y-84309429D01*
X73394725Y-84282382D01*
X73342285Y-84236210D01*
X73323133Y-84169017D01*
X73343348Y-84102135D01*
X73394725Y-84057618D01*
X73452734Y-84030568D01*
X73639139Y-83900047D01*
X73800047Y-83739139D01*
X73930568Y-83552734D01*
X74026739Y-83346496D01*
X74085635Y-83126692D01*
X74105468Y-82900000D01*
X74085635Y-82673308D01*
X74026739Y-82453504D01*
X73930568Y-82247266D01*
X73800047Y-82060861D01*
X73800045Y-82060858D01*
X73639141Y-81899954D01*
X73452734Y-81769432D01*
X73452728Y-81769429D01*
X73394725Y-81742382D01*
X73342285Y-81696210D01*
X73323133Y-81629017D01*
X73343348Y-81562135D01*
X73394725Y-81517618D01*
X73452734Y-81490568D01*
X73639139Y-81360047D01*
X73800047Y-81199139D01*
X73930568Y-81012734D01*
X74026739Y-80806496D01*
X74085635Y-80586692D01*
X74105468Y-80360000D01*
X74102273Y-80323486D01*
X74085635Y-80133313D01*
X74085635Y-80133308D01*
X74026739Y-79913504D01*
X73930568Y-79707266D01*
X73800047Y-79520861D01*
X73800045Y-79520858D01*
X73639141Y-79359954D01*
X73452734Y-79229432D01*
X73452728Y-79229429D01*
X73394725Y-79202382D01*
X73342285Y-79156210D01*
X73323133Y-79089017D01*
X73343348Y-79022135D01*
X73394725Y-78977618D01*
X73452734Y-78950568D01*
X73639139Y-78820047D01*
X73800047Y-78659139D01*
X73930568Y-78472734D01*
X74026739Y-78266496D01*
X74085635Y-78046692D01*
X74105468Y-77820000D01*
X74085635Y-77593308D01*
X74026739Y-77373504D01*
X73930568Y-77167266D01*
X73800047Y-76980861D01*
X73800045Y-76980858D01*
X73639141Y-76819954D01*
X73452734Y-76689432D01*
X73452728Y-76689429D01*
X73394725Y-76662382D01*
X73342285Y-76616210D01*
X73323133Y-76549017D01*
X73343348Y-76482135D01*
X73394725Y-76437618D01*
X73395319Y-76437341D01*
X73452734Y-76410568D01*
X73639139Y-76280047D01*
X73800047Y-76119139D01*
X73930568Y-75932734D01*
X74026739Y-75726496D01*
X74085635Y-75506692D01*
X74105468Y-75280000D01*
X74085635Y-75053308D01*
X74026739Y-74833504D01*
X73930568Y-74627266D01*
X73800047Y-74440861D01*
X73800045Y-74440858D01*
X73639141Y-74279954D01*
X73452734Y-74149432D01*
X73452728Y-74149429D01*
X73394725Y-74122382D01*
X73342285Y-74076210D01*
X73323133Y-74009017D01*
X73343348Y-73942135D01*
X73394725Y-73897618D01*
X73452734Y-73870568D01*
X73639139Y-73740047D01*
X73800047Y-73579139D01*
X73930568Y-73392734D01*
X74026739Y-73186496D01*
X74085635Y-72966692D01*
X74105468Y-72740000D01*
X74085635Y-72513308D01*
X74026739Y-72293504D01*
X73930568Y-72087266D01*
X73800047Y-71900861D01*
X73800045Y-71900858D01*
X73639141Y-71739954D01*
X73452734Y-71609432D01*
X73452732Y-71609431D01*
X73394725Y-71582382D01*
X73394132Y-71582105D01*
X73341694Y-71535934D01*
X73322542Y-71468740D01*
X73342758Y-71401859D01*
X73394134Y-71357341D01*
X73452484Y-71330132D01*
X73638820Y-71199657D01*
X73799657Y-71038820D01*
X73930134Y-70852482D01*
X74026265Y-70646326D01*
X74026269Y-70646317D01*
X74078872Y-70450000D01*
X73233012Y-70450000D01*
X73265925Y-70392993D01*
X73300000Y-70265826D01*
X73300000Y-70134174D01*
X73265925Y-70007007D01*
X73233012Y-69950000D01*
X74078872Y-69950000D01*
X74078872Y-69949999D01*
X74026269Y-69753682D01*
X74026265Y-69753673D01*
X73930134Y-69547517D01*
X73799657Y-69361179D01*
X73638820Y-69200342D01*
X73452482Y-69069865D01*
X73394133Y-69042657D01*
X73341694Y-68996484D01*
X73322542Y-68929291D01*
X73342758Y-68862410D01*
X73394129Y-68817895D01*
X73452734Y-68790568D01*
X73639139Y-68660047D01*
X73800047Y-68499139D01*
X73930568Y-68312734D01*
X74026739Y-68106496D01*
X74085635Y-67886692D01*
X74105468Y-67660000D01*
X74085635Y-67433308D01*
X74026739Y-67213504D01*
X73930568Y-67007266D01*
X73800047Y-66820861D01*
X73800045Y-66820858D01*
X73639141Y-66659954D01*
X73452734Y-66529432D01*
X73452732Y-66529431D01*
X73246497Y-66433261D01*
X73246488Y-66433258D01*
X73026697Y-66374366D01*
X73026693Y-66374365D01*
X73026692Y-66374365D01*
X73026691Y-66374364D01*
X73026686Y-66374364D01*
X72800002Y-66354532D01*
X72799998Y-66354532D01*
X72573313Y-66374364D01*
X72573302Y-66374366D01*
X72353511Y-66433258D01*
X72353502Y-66433261D01*
X72147267Y-66529431D01*
X72147265Y-66529432D01*
X71960858Y-66659954D01*
X71799954Y-66820858D01*
X71669432Y-67007265D01*
X71669431Y-67007267D01*
X71573261Y-67213502D01*
X71573258Y-67213511D01*
X71514366Y-67433302D01*
X71514364Y-67433313D01*
X71494532Y-67659998D01*
X71494532Y-67660001D01*
X71514364Y-67886686D01*
X71514366Y-67886697D01*
X71573258Y-68106488D01*
X71573261Y-68106497D01*
X71669431Y-68312732D01*
X71669432Y-68312734D01*
X71799954Y-68499141D01*
X71960858Y-68660045D01*
X71960861Y-68660047D01*
X72147266Y-68790568D01*
X72205865Y-68817893D01*
X72258305Y-68864065D01*
X72277457Y-68931258D01*
X72257242Y-68998139D01*
X72205867Y-69042657D01*
X72147515Y-69069867D01*
X71961179Y-69200342D01*
X71800342Y-69361179D01*
X71669865Y-69547517D01*
X71573734Y-69753673D01*
X71573730Y-69753682D01*
X71521127Y-69949999D01*
X71521128Y-69950000D01*
X72366988Y-69950000D01*
X72334075Y-70007007D01*
X72300000Y-70134174D01*
X72300000Y-70265826D01*
X72334075Y-70392993D01*
X72366988Y-70450000D01*
X71521128Y-70450000D01*
X71573730Y-70646317D01*
X71573734Y-70646326D01*
X71669865Y-70852482D01*
X71800342Y-71038820D01*
X71961179Y-71199657D01*
X72147518Y-71330134D01*
X72147520Y-71330135D01*
X72205865Y-71357342D01*
X72258305Y-71403514D01*
X72277457Y-71470707D01*
X72257242Y-71537589D01*
X72205867Y-71582105D01*
X72147268Y-71609431D01*
X72147264Y-71609433D01*
X71960858Y-71739954D01*
X71799954Y-71900858D01*
X71669432Y-72087265D01*
X71669431Y-72087267D01*
X71573261Y-72293502D01*
X71573258Y-72293511D01*
X71514366Y-72513302D01*
X71514364Y-72513313D01*
X71494532Y-72739998D01*
X71494532Y-72740001D01*
X71514364Y-72966686D01*
X71514366Y-72966697D01*
X71573258Y-73186488D01*
X71573261Y-73186497D01*
X71669431Y-73392732D01*
X71669432Y-73392734D01*
X71799954Y-73579141D01*
X71960858Y-73740045D01*
X71962943Y-73741505D01*
X72147266Y-73870568D01*
X72205275Y-73897618D01*
X72257714Y-73943791D01*
X72276866Y-74010984D01*
X72256650Y-74077865D01*
X72205275Y-74122382D01*
X72147267Y-74149431D01*
X72147265Y-74149432D01*
X71960858Y-74279954D01*
X71799954Y-74440858D01*
X71669432Y-74627265D01*
X71669431Y-74627267D01*
X71573261Y-74833502D01*
X71573258Y-74833511D01*
X71514366Y-75053302D01*
X71514364Y-75053313D01*
X71494532Y-75279998D01*
X71494532Y-75280001D01*
X71514364Y-75506686D01*
X71514366Y-75506697D01*
X71573258Y-75726488D01*
X71573261Y-75726497D01*
X71669431Y-75932732D01*
X71669432Y-75932734D01*
X71799954Y-76119141D01*
X71960858Y-76280045D01*
X71962943Y-76281505D01*
X72147266Y-76410568D01*
X72204681Y-76437341D01*
X72205275Y-76437618D01*
X72257714Y-76483791D01*
X72276866Y-76550984D01*
X72256650Y-76617865D01*
X72205275Y-76662382D01*
X72147267Y-76689431D01*
X72147265Y-76689432D01*
X71960858Y-76819954D01*
X71799954Y-76980858D01*
X71669432Y-77167265D01*
X71669431Y-77167267D01*
X71573261Y-77373502D01*
X71573258Y-77373511D01*
X71514366Y-77593302D01*
X71514364Y-77593313D01*
X71494532Y-77819998D01*
X71494532Y-77820001D01*
X71514364Y-78046686D01*
X71514366Y-78046697D01*
X71573258Y-78266488D01*
X71573261Y-78266497D01*
X71669431Y-78472732D01*
X71669432Y-78472734D01*
X71799954Y-78659141D01*
X71960858Y-78820045D01*
X72007693Y-78852839D01*
X72147266Y-78950568D01*
X72205275Y-78977618D01*
X72257714Y-79023791D01*
X72276866Y-79090984D01*
X72256650Y-79157865D01*
X72205275Y-79202382D01*
X72147267Y-79229431D01*
X72147265Y-79229432D01*
X71960858Y-79359954D01*
X71799954Y-79520858D01*
X71669432Y-79707265D01*
X71669431Y-79707267D01*
X71573261Y-79913502D01*
X71573258Y-79913511D01*
X71514366Y-80133302D01*
X71514364Y-80133313D01*
X71494532Y-80359998D01*
X71494532Y-80360001D01*
X71514364Y-80586686D01*
X71514366Y-80586697D01*
X71573258Y-80806488D01*
X71573261Y-80806497D01*
X71669431Y-81012732D01*
X71669432Y-81012734D01*
X71799954Y-81199141D01*
X71960858Y-81360045D01*
X71960861Y-81360047D01*
X72147266Y-81490568D01*
X72205275Y-81517618D01*
X72257714Y-81563791D01*
X72276866Y-81630984D01*
X72256650Y-81697865D01*
X72205275Y-81742382D01*
X72147267Y-81769431D01*
X72147265Y-81769432D01*
X71960858Y-81899954D01*
X71799954Y-82060858D01*
X71669432Y-82247265D01*
X71669431Y-82247267D01*
X71573261Y-82453502D01*
X71573258Y-82453511D01*
X71514366Y-82673302D01*
X71514364Y-82673313D01*
X71494532Y-82899998D01*
X71494532Y-82900001D01*
X71514364Y-83126686D01*
X71514366Y-83126697D01*
X71573258Y-83346488D01*
X71573261Y-83346497D01*
X71669431Y-83552732D01*
X71669432Y-83552734D01*
X71799954Y-83739141D01*
X71960858Y-83900045D01*
X71960861Y-83900047D01*
X72147266Y-84030568D01*
X72205275Y-84057618D01*
X72257714Y-84103791D01*
X72276866Y-84170984D01*
X72256650Y-84237865D01*
X72205275Y-84282382D01*
X72147267Y-84309431D01*
X72147265Y-84309432D01*
X71960858Y-84439954D01*
X71799954Y-84600858D01*
X71669432Y-84787265D01*
X71669431Y-84787267D01*
X71573261Y-84993502D01*
X71573258Y-84993511D01*
X71514366Y-85213302D01*
X71514364Y-85213313D01*
X71494532Y-85439998D01*
X71494532Y-85440001D01*
X71514364Y-85666686D01*
X71514366Y-85666697D01*
X71573258Y-85886488D01*
X71573261Y-85886497D01*
X71669431Y-86092732D01*
X71669432Y-86092734D01*
X71799954Y-86279141D01*
X71960858Y-86440045D01*
X71960861Y-86440047D01*
X72147266Y-86570568D01*
X72205275Y-86597618D01*
X72257714Y-86643791D01*
X72276866Y-86710984D01*
X72256650Y-86777865D01*
X72205275Y-86822382D01*
X72147267Y-86849431D01*
X72147265Y-86849432D01*
X71960858Y-86979954D01*
X71799954Y-87140858D01*
X71669432Y-87327265D01*
X71669431Y-87327267D01*
X71573261Y-87533502D01*
X71573258Y-87533511D01*
X71514366Y-87753302D01*
X71514364Y-87753313D01*
X71494532Y-87979998D01*
X71494532Y-87980001D01*
X71514364Y-88206686D01*
X71514366Y-88206697D01*
X71573258Y-88426488D01*
X71573261Y-88426497D01*
X71669431Y-88632732D01*
X71669432Y-88632734D01*
X71799954Y-88819141D01*
X71960858Y-88980045D01*
X71960861Y-88980047D01*
X72147266Y-89110568D01*
X72205275Y-89137618D01*
X72257714Y-89183791D01*
X72276866Y-89250984D01*
X72256650Y-89317865D01*
X72205275Y-89362382D01*
X72147267Y-89389431D01*
X72147265Y-89389432D01*
X71960858Y-89519954D01*
X71799954Y-89680858D01*
X71669432Y-89867265D01*
X71669431Y-89867267D01*
X71573261Y-90073502D01*
X71573258Y-90073511D01*
X71514366Y-90293302D01*
X71514364Y-90293313D01*
X71494532Y-90519998D01*
X71494532Y-90520001D01*
X71514364Y-90746686D01*
X71514366Y-90746697D01*
X71573258Y-90966488D01*
X71573261Y-90966497D01*
X71669431Y-91172732D01*
X71669432Y-91172734D01*
X71799954Y-91359141D01*
X71960858Y-91520045D01*
X71960861Y-91520047D01*
X72147266Y-91650568D01*
X72205275Y-91677618D01*
X72257714Y-91723791D01*
X72276866Y-91790984D01*
X72256650Y-91857865D01*
X72205275Y-91902382D01*
X72147267Y-91929431D01*
X72147265Y-91929432D01*
X71960858Y-92059954D01*
X71799954Y-92220858D01*
X71669432Y-92407265D01*
X71669431Y-92407267D01*
X71573261Y-92613502D01*
X71573258Y-92613511D01*
X71514366Y-92833302D01*
X71514364Y-92833313D01*
X71494532Y-93059998D01*
X71494532Y-93060001D01*
X71514364Y-93286686D01*
X71514366Y-93286697D01*
X71573258Y-93506488D01*
X71573261Y-93506497D01*
X71669431Y-93712732D01*
X71669432Y-93712734D01*
X71799954Y-93899141D01*
X71960858Y-94060045D01*
X71960861Y-94060047D01*
X72147266Y-94190568D01*
X72205275Y-94217618D01*
X72257714Y-94263791D01*
X72276866Y-94330984D01*
X72256650Y-94397865D01*
X72205275Y-94442382D01*
X72147267Y-94469431D01*
X72147265Y-94469432D01*
X71960858Y-94599954D01*
X71799954Y-94760858D01*
X71669432Y-94947265D01*
X71669431Y-94947267D01*
X71573261Y-95153502D01*
X71573258Y-95153511D01*
X71514366Y-95373302D01*
X71514364Y-95373313D01*
X71494532Y-95599998D01*
X71494532Y-95600001D01*
X71514364Y-95826686D01*
X71514366Y-95826697D01*
X71573258Y-96046488D01*
X71573261Y-96046497D01*
X71669431Y-96252732D01*
X71669432Y-96252734D01*
X71799954Y-96439141D01*
X71960858Y-96600045D01*
X71960861Y-96600047D01*
X72147266Y-96730568D01*
X72205275Y-96757618D01*
X72257714Y-96803791D01*
X72276866Y-96870984D01*
X72256650Y-96937865D01*
X72205275Y-96982382D01*
X72147267Y-97009431D01*
X72147265Y-97009432D01*
X71960858Y-97139954D01*
X71799954Y-97300858D01*
X71669432Y-97487265D01*
X71669431Y-97487267D01*
X71573261Y-97693502D01*
X71573258Y-97693511D01*
X71514366Y-97913302D01*
X71514364Y-97913313D01*
X71494532Y-98139998D01*
X71494532Y-98140001D01*
X71514364Y-98366686D01*
X71514366Y-98366697D01*
X71573258Y-98586488D01*
X71573261Y-98586497D01*
X71669431Y-98792732D01*
X71669432Y-98792734D01*
X71799954Y-98979141D01*
X71960858Y-99140045D01*
X71960861Y-99140047D01*
X72147266Y-99270568D01*
X72187317Y-99289244D01*
X72205275Y-99297618D01*
X72257714Y-99343791D01*
X72276866Y-99410984D01*
X72256650Y-99477865D01*
X72205275Y-99522382D01*
X72147267Y-99549431D01*
X72147265Y-99549432D01*
X71960858Y-99679954D01*
X71799954Y-99840858D01*
X71669432Y-100027265D01*
X71669431Y-100027267D01*
X71573261Y-100233502D01*
X71573258Y-100233511D01*
X71514366Y-100453302D01*
X71514364Y-100453313D01*
X71494532Y-100679998D01*
X71494532Y-100680001D01*
X71514364Y-100906686D01*
X71514366Y-100906697D01*
X71573258Y-101126488D01*
X71573261Y-101126497D01*
X71669431Y-101332732D01*
X71669432Y-101332734D01*
X71799954Y-101519141D01*
X71960858Y-101680045D01*
X71960861Y-101680047D01*
X72147266Y-101810568D01*
X72205275Y-101837618D01*
X72257714Y-101883791D01*
X72276866Y-101950984D01*
X72256650Y-102017865D01*
X72205275Y-102062382D01*
X72147267Y-102089431D01*
X72147265Y-102089432D01*
X71960858Y-102219954D01*
X71799954Y-102380858D01*
X71669432Y-102567265D01*
X71669431Y-102567267D01*
X71573261Y-102773502D01*
X71573258Y-102773511D01*
X71514366Y-102993302D01*
X71514364Y-102993313D01*
X71494532Y-103219998D01*
X71494532Y-103220001D01*
X71514364Y-103446686D01*
X71514366Y-103446697D01*
X71573258Y-103666488D01*
X71573261Y-103666497D01*
X71669431Y-103872732D01*
X71669432Y-103872734D01*
X71799954Y-104059141D01*
X71960858Y-104220045D01*
X71960861Y-104220047D01*
X72147266Y-104350568D01*
X72353504Y-104446739D01*
X72573308Y-104505635D01*
X72735230Y-104519801D01*
X72799998Y-104525468D01*
X72800000Y-104525468D01*
X72800002Y-104525468D01*
X72856673Y-104520509D01*
X73026692Y-104505635D01*
X73246496Y-104446739D01*
X73452734Y-104350568D01*
X73639139Y-104220047D01*
X73800047Y-104059139D01*
X73930568Y-103872734D01*
X74026739Y-103666496D01*
X74085635Y-103446692D01*
X74105468Y-103220000D01*
X74085635Y-102993308D01*
X74026739Y-102773504D01*
X73930568Y-102567266D01*
X73800047Y-102380861D01*
X73800045Y-102380858D01*
X73639141Y-102219954D01*
X73452734Y-102089432D01*
X73452728Y-102089429D01*
X73394725Y-102062382D01*
X73342285Y-102016210D01*
X73323133Y-101949017D01*
X73343348Y-101882135D01*
X73394725Y-101837618D01*
X73452734Y-101810568D01*
X73639139Y-101680047D01*
X73800047Y-101519139D01*
X73930568Y-101332734D01*
X74026739Y-101126496D01*
X74085635Y-100906692D01*
X74105468Y-100680000D01*
X74104716Y-100671409D01*
X74088102Y-100481505D01*
X74085635Y-100453308D01*
X74059847Y-100357066D01*
X74061510Y-100287217D01*
X74091937Y-100237296D01*
X74187822Y-100141412D01*
X74249143Y-100107930D01*
X74318834Y-100112914D01*
X74374768Y-100154786D01*
X74399184Y-100220251D01*
X74399500Y-100229096D01*
X74399500Y-102793330D01*
X74399499Y-102793348D01*
X74399499Y-102959054D01*
X74399498Y-102959054D01*
X74440423Y-103111785D01*
X74469358Y-103161900D01*
X74469359Y-103161904D01*
X74469360Y-103161904D01*
X74519479Y-103248714D01*
X74519481Y-103248717D01*
X74638349Y-103367585D01*
X74638355Y-103367590D01*
X78235139Y-106964374D01*
X78235149Y-106964385D01*
X78239479Y-106968715D01*
X78239480Y-106968716D01*
X78351284Y-107080520D01*
X78351286Y-107080521D01*
X78351290Y-107080524D01*
X78488209Y-107159573D01*
X78488216Y-107159577D01*
X78600019Y-107189534D01*
X78640942Y-107200500D01*
X78640943Y-107200500D01*
X81625501Y-107200500D01*
X81692540Y-107220185D01*
X81738295Y-107272989D01*
X81749501Y-107324500D01*
X81749501Y-107497876D01*
X81755908Y-107557483D01*
X81806202Y-107692328D01*
X81806206Y-107692335D01*
X81892452Y-107807544D01*
X81892455Y-107807547D01*
X82007664Y-107893793D01*
X82007671Y-107893797D01*
X82142517Y-107944091D01*
X82142516Y-107944091D01*
X82149444Y-107944835D01*
X82202127Y-107950500D01*
X83997872Y-107950499D01*
X84057483Y-107944091D01*
X84192331Y-107893796D01*
X84251189Y-107849734D01*
X84316652Y-107825317D01*
X84384925Y-107840168D01*
X84434331Y-107889573D01*
X84449500Y-107949001D01*
X84449500Y-109325500D01*
X84429815Y-109392539D01*
X84377011Y-109438294D01*
X84325500Y-109449500D01*
X50674500Y-109449500D01*
X50607461Y-109429815D01*
X50561706Y-109377011D01*
X50550500Y-109325500D01*
X50550500Y-101769993D01*
X51694700Y-101769993D01*
X51694700Y-101770006D01*
X51713864Y-102001297D01*
X51713866Y-102001308D01*
X51770842Y-102226300D01*
X51864075Y-102438848D01*
X51991016Y-102633147D01*
X51991019Y-102633151D01*
X51991021Y-102633153D01*
X52148216Y-102803913D01*
X52161443Y-102814208D01*
X52161912Y-102814573D01*
X52202725Y-102871283D01*
X52206399Y-102941056D01*
X52171767Y-103001739D01*
X52109826Y-103034066D01*
X52099012Y-103035715D01*
X52092624Y-103036402D01*
X52092620Y-103036403D01*
X51957913Y-103086645D01*
X51957906Y-103086649D01*
X51842812Y-103172809D01*
X51842809Y-103172812D01*
X51756649Y-103287906D01*
X51756645Y-103287913D01*
X51706403Y-103422620D01*
X51706401Y-103422627D01*
X51700000Y-103482155D01*
X51700000Y-104180000D01*
X52724722Y-104180000D01*
X52680667Y-104256306D01*
X52650000Y-104370756D01*
X52650000Y-104489244D01*
X52680667Y-104603694D01*
X52724722Y-104680000D01*
X51700000Y-104680000D01*
X51700000Y-105377844D01*
X51706401Y-105437372D01*
X51706403Y-105437379D01*
X51756645Y-105572086D01*
X51756649Y-105572093D01*
X51842809Y-105687187D01*
X51842812Y-105687190D01*
X51957906Y-105773350D01*
X51957913Y-105773354D01*
X52038270Y-105803325D01*
X52094204Y-105845196D01*
X52118621Y-105910660D01*
X52103770Y-105978933D01*
X52086168Y-106003489D01*
X51991021Y-106106847D01*
X51991019Y-106106848D01*
X51991016Y-106106853D01*
X51864075Y-106301151D01*
X51770842Y-106513699D01*
X51713866Y-106738691D01*
X51713864Y-106738702D01*
X51694700Y-106969993D01*
X51694700Y-106970006D01*
X51713864Y-107201297D01*
X51713866Y-107201308D01*
X51770842Y-107426300D01*
X51864075Y-107638848D01*
X51991016Y-107833147D01*
X51991019Y-107833151D01*
X51991021Y-107833153D01*
X52148216Y-108003913D01*
X52148219Y-108003915D01*
X52148222Y-108003918D01*
X52331365Y-108146464D01*
X52331371Y-108146468D01*
X52331374Y-108146470D01*
X52535497Y-108256936D01*
X52649487Y-108296068D01*
X52755015Y-108332297D01*
X52755017Y-108332297D01*
X52755019Y-108332298D01*
X52983951Y-108370500D01*
X52983952Y-108370500D01*
X53216048Y-108370500D01*
X53216049Y-108370500D01*
X53444981Y-108332298D01*
X53664503Y-108256936D01*
X53868626Y-108146470D01*
X54051784Y-108003913D01*
X54208979Y-107833153D01*
X54335924Y-107638849D01*
X54429157Y-107426300D01*
X54486134Y-107201305D01*
X54486201Y-107200500D01*
X54505300Y-106970006D01*
X54505300Y-106969993D01*
X54486135Y-106738702D01*
X54486133Y-106738691D01*
X54429157Y-106513699D01*
X54335924Y-106301151D01*
X54208981Y-106106849D01*
X54113832Y-106003489D01*
X54082910Y-105940835D01*
X54090770Y-105871409D01*
X54134918Y-105817253D01*
X54161730Y-105803325D01*
X54242084Y-105773355D01*
X54242093Y-105773350D01*
X54357187Y-105687190D01*
X54357190Y-105687187D01*
X54443350Y-105572093D01*
X54443354Y-105572086D01*
X54493596Y-105437379D01*
X54493598Y-105437372D01*
X54499999Y-105377844D01*
X54500000Y-105377827D01*
X54500000Y-104680000D01*
X53475278Y-104680000D01*
X53519333Y-104603694D01*
X53550000Y-104489244D01*
X53550000Y-104370756D01*
X53519333Y-104256306D01*
X53475278Y-104180000D01*
X54500000Y-104180000D01*
X54500000Y-103482172D01*
X54499999Y-103482155D01*
X54493598Y-103422627D01*
X54493596Y-103422620D01*
X54443354Y-103287913D01*
X54443350Y-103287906D01*
X54357190Y-103172812D01*
X54357187Y-103172809D01*
X54242093Y-103086649D01*
X54242086Y-103086645D01*
X54107379Y-103036403D01*
X54107374Y-103036402D01*
X54100988Y-103035715D01*
X54036438Y-103008973D01*
X53996593Y-102951578D01*
X53994104Y-102881753D01*
X54029760Y-102821666D01*
X54038088Y-102814573D01*
X54051784Y-102803913D01*
X54208979Y-102633153D01*
X54210213Y-102631265D01*
X54257757Y-102558493D01*
X54335924Y-102438849D01*
X54429157Y-102226300D01*
X54486134Y-102001305D01*
X54487596Y-101983663D01*
X54505300Y-101770006D01*
X54505300Y-101769993D01*
X54486135Y-101538702D01*
X54486133Y-101538691D01*
X54429157Y-101313699D01*
X54335924Y-101101151D01*
X54208981Y-100906849D01*
X54113832Y-100803489D01*
X54082910Y-100740835D01*
X54090770Y-100671409D01*
X54134918Y-100617253D01*
X54161730Y-100603325D01*
X54242084Y-100573355D01*
X54242093Y-100573350D01*
X54357187Y-100487190D01*
X54357190Y-100487187D01*
X54443350Y-100372093D01*
X54443354Y-100372086D01*
X54493596Y-100237379D01*
X54493598Y-100237372D01*
X54499999Y-100177844D01*
X54500000Y-100177827D01*
X54500000Y-99480000D01*
X53475278Y-99480000D01*
X53519333Y-99403694D01*
X53550000Y-99289244D01*
X53550000Y-99170756D01*
X53519333Y-99056306D01*
X53475278Y-98980000D01*
X54500000Y-98980000D01*
X54500000Y-98282172D01*
X54499999Y-98282155D01*
X54493598Y-98222627D01*
X54493596Y-98222620D01*
X54443354Y-98087913D01*
X54443350Y-98087906D01*
X54357190Y-97972812D01*
X54357187Y-97972809D01*
X54242093Y-97886649D01*
X54242086Y-97886645D01*
X54186633Y-97865963D01*
X54130699Y-97824092D01*
X54106282Y-97758628D01*
X54121133Y-97690355D01*
X54128384Y-97678668D01*
X54230568Y-97532734D01*
X54326739Y-97326496D01*
X54385635Y-97106692D01*
X54405468Y-96880000D01*
X54385635Y-96653308D01*
X54328479Y-96439999D01*
X54326741Y-96433511D01*
X54326738Y-96433502D01*
X54230568Y-96227267D01*
X54230567Y-96227265D01*
X54214691Y-96204592D01*
X54100047Y-96040861D01*
X54100045Y-96040858D01*
X53939141Y-95879954D01*
X53752734Y-95749432D01*
X53752732Y-95749431D01*
X53546497Y-95653261D01*
X53546488Y-95653258D01*
X53326697Y-95594366D01*
X53326693Y-95594365D01*
X53326692Y-95594365D01*
X53326691Y-95594364D01*
X53326686Y-95594364D01*
X53100002Y-95574532D01*
X53099998Y-95574532D01*
X52873313Y-95594364D01*
X52873302Y-95594366D01*
X52653511Y-95653258D01*
X52653502Y-95653261D01*
X52447267Y-95749431D01*
X52447265Y-95749432D01*
X52260858Y-95879954D01*
X52099954Y-96040858D01*
X51969432Y-96227265D01*
X51969431Y-96227267D01*
X51873261Y-96433502D01*
X51873258Y-96433511D01*
X51814366Y-96653302D01*
X51814364Y-96653313D01*
X51794532Y-96879998D01*
X51794532Y-96880001D01*
X51814364Y-97106686D01*
X51814366Y-97106697D01*
X51873258Y-97326488D01*
X51873261Y-97326497D01*
X51969431Y-97532732D01*
X51969432Y-97532734D01*
X52071608Y-97678658D01*
X52093935Y-97744864D01*
X52076924Y-97812632D01*
X52025976Y-97860444D01*
X52013366Y-97865963D01*
X51957913Y-97886645D01*
X51957906Y-97886649D01*
X51842812Y-97972809D01*
X51842809Y-97972812D01*
X51756649Y-98087906D01*
X51756645Y-98087913D01*
X51706403Y-98222620D01*
X51706401Y-98222627D01*
X51700000Y-98282155D01*
X51700000Y-98980000D01*
X52724722Y-98980000D01*
X52680667Y-99056306D01*
X52650000Y-99170756D01*
X52650000Y-99289244D01*
X52680667Y-99403694D01*
X52724722Y-99480000D01*
X51700000Y-99480000D01*
X51700000Y-100177844D01*
X51706401Y-100237372D01*
X51706403Y-100237379D01*
X51756645Y-100372086D01*
X51756649Y-100372093D01*
X51842809Y-100487187D01*
X51842812Y-100487190D01*
X51957906Y-100573350D01*
X51957913Y-100573354D01*
X52038270Y-100603325D01*
X52094204Y-100645196D01*
X52118621Y-100710660D01*
X52103770Y-100778933D01*
X52086168Y-100803489D01*
X51991021Y-100906847D01*
X51991019Y-100906848D01*
X51991016Y-100906853D01*
X51864075Y-101101151D01*
X51770842Y-101313699D01*
X51713866Y-101538691D01*
X51713864Y-101538702D01*
X51694700Y-101769993D01*
X50550500Y-101769993D01*
X50550500Y-84079998D01*
X51694532Y-84079998D01*
X51694532Y-84080001D01*
X51714364Y-84306686D01*
X51714366Y-84306697D01*
X51773258Y-84526488D01*
X51773261Y-84526497D01*
X51869431Y-84732732D01*
X51869432Y-84732734D01*
X51999954Y-84919141D01*
X52160858Y-85080045D01*
X52160861Y-85080047D01*
X52347266Y-85210568D01*
X52553504Y-85306739D01*
X52558411Y-85309027D01*
X52557886Y-85310151D01*
X52609267Y-85347978D01*
X52634207Y-85413245D01*
X52619902Y-85481634D01*
X52570894Y-85531433D01*
X52563004Y-85535462D01*
X52447264Y-85589433D01*
X52260858Y-85719954D01*
X52099954Y-85880858D01*
X51969432Y-86067265D01*
X51969431Y-86067267D01*
X51873261Y-86273502D01*
X51873258Y-86273511D01*
X51814366Y-86493302D01*
X51814364Y-86493313D01*
X51794532Y-86719998D01*
X51794532Y-86720001D01*
X51814364Y-86946686D01*
X51814366Y-86946697D01*
X51873258Y-87166488D01*
X51873261Y-87166497D01*
X51969431Y-87372732D01*
X51969432Y-87372734D01*
X52099954Y-87559141D01*
X52260858Y-87720045D01*
X52260861Y-87720047D01*
X52447266Y-87850568D01*
X52653504Y-87946739D01*
X52653509Y-87946740D01*
X52653511Y-87946741D01*
X52706415Y-87960916D01*
X52873308Y-88005635D01*
X53035230Y-88019801D01*
X53099998Y-88025468D01*
X53100000Y-88025468D01*
X53100002Y-88025468D01*
X53156673Y-88020509D01*
X53326692Y-88005635D01*
X53546496Y-87946739D01*
X53752734Y-87850568D01*
X53939139Y-87720047D01*
X54100047Y-87559139D01*
X54230568Y-87372734D01*
X54326739Y-87166496D01*
X54385635Y-86946692D01*
X54405468Y-86720000D01*
X54385635Y-86493308D01*
X54340916Y-86326415D01*
X54326741Y-86273511D01*
X54326738Y-86273502D01*
X54230568Y-86067267D01*
X54230567Y-86067265D01*
X54100045Y-85880858D01*
X53939141Y-85719954D01*
X53752734Y-85589432D01*
X53752732Y-85589431D01*
X53636996Y-85535462D01*
X53546496Y-85493261D01*
X53546495Y-85493260D01*
X53541589Y-85490973D01*
X53542112Y-85489851D01*
X53490722Y-85452009D01*
X53465790Y-85386739D01*
X53480104Y-85318351D01*
X53529119Y-85268558D01*
X53536987Y-85264541D01*
X53652734Y-85210568D01*
X53839139Y-85080047D01*
X54000047Y-84919139D01*
X54130568Y-84732734D01*
X54226739Y-84526496D01*
X54285635Y-84306692D01*
X54305468Y-84080000D01*
X54285635Y-83853308D01*
X54226739Y-83633504D01*
X54130568Y-83427266D01*
X54000047Y-83240861D01*
X54000045Y-83240858D01*
X53839141Y-83079954D01*
X53652734Y-82949432D01*
X53652732Y-82949431D01*
X53446497Y-82853261D01*
X53446488Y-82853258D01*
X53226697Y-82794366D01*
X53226693Y-82794365D01*
X53226692Y-82794365D01*
X53226691Y-82794364D01*
X53226686Y-82794364D01*
X53000002Y-82774532D01*
X52999998Y-82774532D01*
X52773313Y-82794364D01*
X52773302Y-82794366D01*
X52553511Y-82853258D01*
X52553502Y-82853261D01*
X52347267Y-82949431D01*
X52347265Y-82949432D01*
X52160858Y-83079954D01*
X51999954Y-83240858D01*
X51869432Y-83427265D01*
X51869431Y-83427267D01*
X51773261Y-83633502D01*
X51773258Y-83633511D01*
X51714366Y-83853302D01*
X51714364Y-83853313D01*
X51694532Y-84079998D01*
X50550500Y-84079998D01*
X50550500Y-73919998D01*
X51694532Y-73919998D01*
X51694532Y-73920001D01*
X51714364Y-74146686D01*
X51714366Y-74146697D01*
X51773258Y-74366488D01*
X51773261Y-74366497D01*
X51869431Y-74572732D01*
X51869432Y-74572734D01*
X51999954Y-74759141D01*
X52160858Y-74920045D01*
X52203212Y-74949701D01*
X52347266Y-75050568D01*
X52553504Y-75146739D01*
X52773308Y-75205635D01*
X52935230Y-75219801D01*
X52999998Y-75225468D01*
X53000000Y-75225468D01*
X53000002Y-75225468D01*
X53056673Y-75220509D01*
X53226692Y-75205635D01*
X53446496Y-75146739D01*
X53652734Y-75050568D01*
X53839139Y-74920047D01*
X54000047Y-74759139D01*
X54130568Y-74572734D01*
X54226739Y-74366496D01*
X54285635Y-74146692D01*
X54305468Y-73920000D01*
X54304470Y-73908597D01*
X54299801Y-73855230D01*
X54285635Y-73693308D01*
X54240916Y-73526415D01*
X54226741Y-73473511D01*
X54226738Y-73473502D01*
X54130568Y-73267267D01*
X54130567Y-73267265D01*
X54000045Y-73080858D01*
X53839141Y-72919954D01*
X53652734Y-72789432D01*
X53652732Y-72789431D01*
X53446497Y-72693261D01*
X53446488Y-72693258D01*
X53226697Y-72634366D01*
X53226693Y-72634365D01*
X53226692Y-72634365D01*
X53226691Y-72634364D01*
X53226686Y-72634364D01*
X53000002Y-72614532D01*
X52999998Y-72614532D01*
X52773313Y-72634364D01*
X52773302Y-72634366D01*
X52553511Y-72693258D01*
X52553502Y-72693261D01*
X52347267Y-72789431D01*
X52347265Y-72789432D01*
X52160858Y-72919954D01*
X51999954Y-73080858D01*
X51869432Y-73267265D01*
X51869431Y-73267267D01*
X51773261Y-73473502D01*
X51773258Y-73473511D01*
X51714366Y-73693302D01*
X51714364Y-73693313D01*
X51694532Y-73919998D01*
X50550500Y-73919998D01*
X50550500Y-70199998D01*
X56254532Y-70199998D01*
X56254532Y-70200001D01*
X56274364Y-70426686D01*
X56274366Y-70426697D01*
X56333258Y-70646488D01*
X56333261Y-70646497D01*
X56429431Y-70852732D01*
X56429432Y-70852734D01*
X56559954Y-71039141D01*
X56720858Y-71200045D01*
X56720861Y-71200047D01*
X56907266Y-71330568D01*
X56964681Y-71357341D01*
X56965275Y-71357618D01*
X57017714Y-71403791D01*
X57036866Y-71470984D01*
X57016650Y-71537865D01*
X56965275Y-71582382D01*
X56907267Y-71609431D01*
X56907265Y-71609432D01*
X56720858Y-71739954D01*
X56559954Y-71900858D01*
X56429432Y-72087265D01*
X56429431Y-72087267D01*
X56333261Y-72293502D01*
X56333258Y-72293511D01*
X56274366Y-72513302D01*
X56274364Y-72513313D01*
X56254532Y-72739998D01*
X56254532Y-72740001D01*
X56274364Y-72966686D01*
X56274366Y-72966697D01*
X56333258Y-73186488D01*
X56333261Y-73186497D01*
X56429431Y-73392732D01*
X56429432Y-73392734D01*
X56559954Y-73579141D01*
X56720858Y-73740045D01*
X56722943Y-73741505D01*
X56907266Y-73870568D01*
X56965865Y-73897893D01*
X57018305Y-73944065D01*
X57037457Y-74011258D01*
X57017242Y-74078139D01*
X56965867Y-74122657D01*
X56907515Y-74149867D01*
X56721179Y-74280342D01*
X56560342Y-74441179D01*
X56429865Y-74627517D01*
X56333734Y-74833673D01*
X56333730Y-74833682D01*
X56281127Y-75029999D01*
X56281128Y-75030000D01*
X57126988Y-75030000D01*
X57094075Y-75087007D01*
X57060000Y-75214174D01*
X57060000Y-75345826D01*
X57094075Y-75472993D01*
X57126988Y-75530000D01*
X56281128Y-75530000D01*
X56333730Y-75726317D01*
X56333734Y-75726326D01*
X56429865Y-75932482D01*
X56560342Y-76118820D01*
X56721179Y-76279657D01*
X56907518Y-76410134D01*
X56907520Y-76410135D01*
X56965865Y-76437342D01*
X57018305Y-76483514D01*
X57037457Y-76550707D01*
X57017242Y-76617589D01*
X56965867Y-76662105D01*
X56907268Y-76689431D01*
X56907264Y-76689433D01*
X56720858Y-76819954D01*
X56559954Y-76980858D01*
X56429432Y-77167265D01*
X56429431Y-77167267D01*
X56333261Y-77373502D01*
X56333258Y-77373511D01*
X56274366Y-77593302D01*
X56274364Y-77593313D01*
X56254532Y-77819998D01*
X56254532Y-77820001D01*
X56274364Y-78046686D01*
X56274366Y-78046697D01*
X56333258Y-78266488D01*
X56333261Y-78266497D01*
X56429431Y-78472732D01*
X56429432Y-78472734D01*
X56559954Y-78659141D01*
X56720858Y-78820045D01*
X56767693Y-78852839D01*
X56907266Y-78950568D01*
X56965275Y-78977618D01*
X57017714Y-79023791D01*
X57036866Y-79090984D01*
X57016650Y-79157865D01*
X56965275Y-79202382D01*
X56907267Y-79229431D01*
X56907265Y-79229432D01*
X56720858Y-79359954D01*
X56559954Y-79520858D01*
X56429432Y-79707265D01*
X56429431Y-79707267D01*
X56333261Y-79913502D01*
X56333258Y-79913511D01*
X56274366Y-80133302D01*
X56274364Y-80133313D01*
X56254532Y-80359998D01*
X56254532Y-80360001D01*
X56274364Y-80586686D01*
X56274366Y-80586697D01*
X56333258Y-80806488D01*
X56333261Y-80806497D01*
X56429431Y-81012732D01*
X56429432Y-81012734D01*
X56559954Y-81199141D01*
X56720858Y-81360045D01*
X56720861Y-81360047D01*
X56907266Y-81490568D01*
X56965275Y-81517618D01*
X57017714Y-81563791D01*
X57036866Y-81630984D01*
X57016650Y-81697865D01*
X56965275Y-81742382D01*
X56907267Y-81769431D01*
X56907265Y-81769432D01*
X56720858Y-81899954D01*
X56559954Y-82060858D01*
X56429432Y-82247265D01*
X56429431Y-82247267D01*
X56333261Y-82453502D01*
X56333258Y-82453511D01*
X56274366Y-82673302D01*
X56274364Y-82673313D01*
X56254532Y-82899998D01*
X56254532Y-82900001D01*
X56274364Y-83126686D01*
X56274366Y-83126697D01*
X56333258Y-83346488D01*
X56333261Y-83346497D01*
X56429431Y-83552732D01*
X56429432Y-83552734D01*
X56559954Y-83739141D01*
X56720858Y-83900045D01*
X56720861Y-83900047D01*
X56907266Y-84030568D01*
X56965275Y-84057618D01*
X57017714Y-84103791D01*
X57036866Y-84170984D01*
X57016650Y-84237865D01*
X56965275Y-84282382D01*
X56907267Y-84309431D01*
X56907265Y-84309432D01*
X56720858Y-84439954D01*
X56559954Y-84600858D01*
X56429432Y-84787265D01*
X56429431Y-84787267D01*
X56333261Y-84993502D01*
X56333258Y-84993511D01*
X56274366Y-85213302D01*
X56274364Y-85213313D01*
X56254532Y-85439998D01*
X56254532Y-85440001D01*
X56274364Y-85666686D01*
X56274366Y-85666697D01*
X56333258Y-85886488D01*
X56333261Y-85886497D01*
X56429431Y-86092732D01*
X56429432Y-86092734D01*
X56559954Y-86279141D01*
X56720858Y-86440045D01*
X56720861Y-86440047D01*
X56907266Y-86570568D01*
X56965275Y-86597618D01*
X57017714Y-86643791D01*
X57036866Y-86710984D01*
X57016650Y-86777865D01*
X56965275Y-86822382D01*
X56907267Y-86849431D01*
X56907265Y-86849432D01*
X56720858Y-86979954D01*
X56559954Y-87140858D01*
X56429432Y-87327265D01*
X56429431Y-87327267D01*
X56333261Y-87533502D01*
X56333258Y-87533511D01*
X56274366Y-87753302D01*
X56274364Y-87753313D01*
X56254532Y-87979998D01*
X56254532Y-87980001D01*
X56274364Y-88206686D01*
X56274366Y-88206697D01*
X56333258Y-88426488D01*
X56333261Y-88426497D01*
X56429431Y-88632732D01*
X56429432Y-88632734D01*
X56559954Y-88819141D01*
X56720858Y-88980045D01*
X56720861Y-88980047D01*
X56907266Y-89110568D01*
X56965275Y-89137618D01*
X57017714Y-89183791D01*
X57036866Y-89250984D01*
X57016650Y-89317865D01*
X56965275Y-89362382D01*
X56907267Y-89389431D01*
X56907265Y-89389432D01*
X56720858Y-89519954D01*
X56559954Y-89680858D01*
X56429432Y-89867265D01*
X56429431Y-89867267D01*
X56333261Y-90073502D01*
X56333258Y-90073511D01*
X56274366Y-90293302D01*
X56274364Y-90293313D01*
X56254532Y-90519998D01*
X56254532Y-90520001D01*
X56274364Y-90746686D01*
X56274366Y-90746697D01*
X56333258Y-90966488D01*
X56333261Y-90966497D01*
X56429431Y-91172732D01*
X56429432Y-91172734D01*
X56559954Y-91359141D01*
X56720858Y-91520045D01*
X56720861Y-91520047D01*
X56907266Y-91650568D01*
X56965275Y-91677618D01*
X57017714Y-91723791D01*
X57036866Y-91790984D01*
X57016650Y-91857865D01*
X56965275Y-91902382D01*
X56907267Y-91929431D01*
X56907265Y-91929432D01*
X56720858Y-92059954D01*
X56559954Y-92220858D01*
X56429432Y-92407265D01*
X56429431Y-92407267D01*
X56333261Y-92613502D01*
X56333258Y-92613511D01*
X56274366Y-92833302D01*
X56274364Y-92833313D01*
X56254532Y-93059998D01*
X56254532Y-93060001D01*
X56274364Y-93286686D01*
X56274366Y-93286697D01*
X56333258Y-93506488D01*
X56333261Y-93506497D01*
X56429431Y-93712732D01*
X56429432Y-93712734D01*
X56559954Y-93899141D01*
X56720858Y-94060045D01*
X56720861Y-94060047D01*
X56907266Y-94190568D01*
X56965275Y-94217618D01*
X57017714Y-94263791D01*
X57036866Y-94330984D01*
X57016650Y-94397865D01*
X56965275Y-94442382D01*
X56907267Y-94469431D01*
X56907265Y-94469432D01*
X56720858Y-94599954D01*
X56559954Y-94760858D01*
X56429432Y-94947265D01*
X56429431Y-94947267D01*
X56333261Y-95153502D01*
X56333258Y-95153511D01*
X56274366Y-95373302D01*
X56274364Y-95373313D01*
X56254532Y-95599998D01*
X56254532Y-95600001D01*
X56274364Y-95826686D01*
X56274366Y-95826697D01*
X56333258Y-96046488D01*
X56333261Y-96046497D01*
X56429431Y-96252732D01*
X56429432Y-96252734D01*
X56559954Y-96439141D01*
X56720858Y-96600045D01*
X56720861Y-96600047D01*
X56907266Y-96730568D01*
X56965275Y-96757618D01*
X57017714Y-96803791D01*
X57036866Y-96870984D01*
X57016650Y-96937865D01*
X56965275Y-96982382D01*
X56907267Y-97009431D01*
X56907265Y-97009432D01*
X56720858Y-97139954D01*
X56559954Y-97300858D01*
X56429432Y-97487265D01*
X56429431Y-97487267D01*
X56333261Y-97693502D01*
X56333258Y-97693511D01*
X56274366Y-97913302D01*
X56274364Y-97913313D01*
X56254532Y-98139998D01*
X56254532Y-98140001D01*
X56274364Y-98366686D01*
X56274366Y-98366697D01*
X56333258Y-98586488D01*
X56333261Y-98586497D01*
X56429431Y-98792732D01*
X56429432Y-98792734D01*
X56559954Y-98979141D01*
X56720858Y-99140045D01*
X56720861Y-99140047D01*
X56907266Y-99270568D01*
X56947317Y-99289244D01*
X56965275Y-99297618D01*
X57017714Y-99343791D01*
X57036866Y-99410984D01*
X57016650Y-99477865D01*
X56965275Y-99522382D01*
X56907267Y-99549431D01*
X56907265Y-99549432D01*
X56720858Y-99679954D01*
X56559954Y-99840858D01*
X56429432Y-100027265D01*
X56429431Y-100027267D01*
X56333261Y-100233502D01*
X56333258Y-100233511D01*
X56274366Y-100453302D01*
X56274364Y-100453313D01*
X56254532Y-100679998D01*
X56254532Y-100680001D01*
X56274364Y-100906686D01*
X56274366Y-100906697D01*
X56333258Y-101126488D01*
X56333261Y-101126497D01*
X56429431Y-101332732D01*
X56429432Y-101332734D01*
X56559954Y-101519141D01*
X56720858Y-101680045D01*
X56720861Y-101680047D01*
X56907266Y-101810568D01*
X56965275Y-101837618D01*
X57017714Y-101883791D01*
X57036866Y-101950984D01*
X57016650Y-102017865D01*
X56965275Y-102062382D01*
X56907267Y-102089431D01*
X56907265Y-102089432D01*
X56720858Y-102219954D01*
X56559954Y-102380858D01*
X56429432Y-102567265D01*
X56429431Y-102567267D01*
X56333261Y-102773502D01*
X56333258Y-102773511D01*
X56274366Y-102993302D01*
X56274364Y-102993313D01*
X56254532Y-103219998D01*
X56254532Y-103220001D01*
X56274364Y-103446686D01*
X56274366Y-103446697D01*
X56333258Y-103666488D01*
X56333261Y-103666497D01*
X56429431Y-103872732D01*
X56429432Y-103872734D01*
X56559954Y-104059141D01*
X56720858Y-104220045D01*
X56720861Y-104220047D01*
X56907266Y-104350568D01*
X57113504Y-104446739D01*
X57333308Y-104505635D01*
X57495230Y-104519801D01*
X57559998Y-104525468D01*
X57560000Y-104525468D01*
X57560002Y-104525468D01*
X57616673Y-104520509D01*
X57786692Y-104505635D01*
X58006496Y-104446739D01*
X58212734Y-104350568D01*
X58399139Y-104220047D01*
X58560047Y-104059139D01*
X58690568Y-103872734D01*
X58786739Y-103666496D01*
X58845635Y-103446692D01*
X58865468Y-103220000D01*
X58845635Y-102993308D01*
X58786739Y-102773504D01*
X58690568Y-102567266D01*
X58560047Y-102380861D01*
X58560045Y-102380858D01*
X58399141Y-102219954D01*
X58212734Y-102089432D01*
X58212728Y-102089429D01*
X58154725Y-102062382D01*
X58102285Y-102016210D01*
X58083133Y-101949017D01*
X58103348Y-101882135D01*
X58154725Y-101837618D01*
X58212734Y-101810568D01*
X58399139Y-101680047D01*
X58560047Y-101519139D01*
X58690568Y-101332734D01*
X58786739Y-101126496D01*
X58845635Y-100906692D01*
X58865468Y-100680000D01*
X58864716Y-100671409D01*
X58848102Y-100481505D01*
X58845635Y-100453308D01*
X58787777Y-100237379D01*
X58786741Y-100233511D01*
X58786738Y-100233502D01*
X58690568Y-100027266D01*
X58560047Y-99840861D01*
X58560045Y-99840858D01*
X58399141Y-99679954D01*
X58212734Y-99549432D01*
X58212728Y-99549429D01*
X58154725Y-99522382D01*
X58102285Y-99476210D01*
X58083133Y-99409017D01*
X58103348Y-99342135D01*
X58154725Y-99297618D01*
X58172683Y-99289244D01*
X58212734Y-99270568D01*
X58399139Y-99140047D01*
X58560047Y-98979139D01*
X58690568Y-98792734D01*
X58786739Y-98586496D01*
X58845635Y-98366692D01*
X58865468Y-98140000D01*
X58845635Y-97913308D01*
X58786739Y-97693504D01*
X58690568Y-97487266D01*
X58560047Y-97300861D01*
X58560045Y-97300858D01*
X58399141Y-97139954D01*
X58212734Y-97009432D01*
X58212728Y-97009429D01*
X58154725Y-96982382D01*
X58102285Y-96936210D01*
X58083133Y-96869017D01*
X58103348Y-96802135D01*
X58154725Y-96757618D01*
X58212734Y-96730568D01*
X58399139Y-96600047D01*
X58560047Y-96439139D01*
X58690568Y-96252734D01*
X58786739Y-96046496D01*
X58845635Y-95826692D01*
X58865468Y-95600000D01*
X58845635Y-95373308D01*
X58786739Y-95153504D01*
X58690568Y-94947266D01*
X58560047Y-94760861D01*
X58560045Y-94760858D01*
X58399141Y-94599954D01*
X58212734Y-94469432D01*
X58212728Y-94469429D01*
X58154725Y-94442382D01*
X58102285Y-94396210D01*
X58083133Y-94329017D01*
X58103348Y-94262135D01*
X58154725Y-94217618D01*
X58212734Y-94190568D01*
X58399139Y-94060047D01*
X58560047Y-93899139D01*
X58690568Y-93712734D01*
X58786739Y-93506496D01*
X58845635Y-93286692D01*
X58865468Y-93060000D01*
X58845635Y-92833308D01*
X58786739Y-92613504D01*
X58690568Y-92407266D01*
X58560047Y-92220861D01*
X58560045Y-92220858D01*
X58399141Y-92059954D01*
X58212734Y-91929432D01*
X58212728Y-91929429D01*
X58154725Y-91902382D01*
X58102285Y-91856210D01*
X58083133Y-91789017D01*
X58103348Y-91722135D01*
X58154725Y-91677618D01*
X58212734Y-91650568D01*
X58399139Y-91520047D01*
X58560047Y-91359139D01*
X58690568Y-91172734D01*
X58786739Y-90966496D01*
X58845635Y-90746692D01*
X58865468Y-90520000D01*
X58845635Y-90293308D01*
X58786739Y-90073504D01*
X58690568Y-89867266D01*
X58560047Y-89680861D01*
X58560045Y-89680858D01*
X58399141Y-89519954D01*
X58212734Y-89389432D01*
X58212728Y-89389429D01*
X58154725Y-89362382D01*
X58102285Y-89316210D01*
X58083133Y-89249017D01*
X58103348Y-89182135D01*
X58154725Y-89137618D01*
X58212734Y-89110568D01*
X58399139Y-88980047D01*
X58560047Y-88819139D01*
X58690568Y-88632734D01*
X58786739Y-88426496D01*
X58845635Y-88206692D01*
X58865468Y-87980000D01*
X58845635Y-87753308D01*
X58790113Y-87546097D01*
X58786741Y-87533511D01*
X58786738Y-87533502D01*
X58764091Y-87484936D01*
X58690568Y-87327266D01*
X58560047Y-87140861D01*
X58560045Y-87140858D01*
X58399141Y-86979954D01*
X58212734Y-86849432D01*
X58212728Y-86849429D01*
X58154725Y-86822382D01*
X58102285Y-86776210D01*
X58083133Y-86709017D01*
X58103348Y-86642135D01*
X58154725Y-86597618D01*
X58212734Y-86570568D01*
X58399139Y-86440047D01*
X58560047Y-86279139D01*
X58690568Y-86092734D01*
X58786739Y-85886496D01*
X58845635Y-85666692D01*
X58865468Y-85440000D01*
X58845635Y-85213308D01*
X58786739Y-84993504D01*
X58690568Y-84787266D01*
X58560047Y-84600861D01*
X58560045Y-84600858D01*
X58399141Y-84439954D01*
X58212734Y-84309432D01*
X58212728Y-84309429D01*
X58154725Y-84282382D01*
X58102285Y-84236210D01*
X58083133Y-84169017D01*
X58103348Y-84102135D01*
X58154725Y-84057618D01*
X58212734Y-84030568D01*
X58399139Y-83900047D01*
X58560047Y-83739139D01*
X58690568Y-83552734D01*
X58786739Y-83346496D01*
X58845635Y-83126692D01*
X58865468Y-82900000D01*
X58845635Y-82673308D01*
X58786739Y-82453504D01*
X58690568Y-82247266D01*
X58560047Y-82060861D01*
X58560045Y-82060858D01*
X58399141Y-81899954D01*
X58212734Y-81769432D01*
X58212728Y-81769429D01*
X58154725Y-81742382D01*
X58102285Y-81696210D01*
X58083133Y-81629017D01*
X58103348Y-81562135D01*
X58154725Y-81517618D01*
X58212734Y-81490568D01*
X58399139Y-81360047D01*
X58560047Y-81199139D01*
X58690568Y-81012734D01*
X58786739Y-80806496D01*
X58845635Y-80586692D01*
X58865468Y-80360000D01*
X58862273Y-80323486D01*
X58845635Y-80133313D01*
X58845635Y-80133308D01*
X58786739Y-79913504D01*
X58690568Y-79707266D01*
X58560047Y-79520861D01*
X58560045Y-79520858D01*
X58399141Y-79359954D01*
X58212734Y-79229432D01*
X58212728Y-79229429D01*
X58154725Y-79202382D01*
X58102285Y-79156210D01*
X58083133Y-79089017D01*
X58103348Y-79022135D01*
X58154725Y-78977618D01*
X58212734Y-78950568D01*
X58399139Y-78820047D01*
X58560047Y-78659139D01*
X58690568Y-78472734D01*
X58786739Y-78266496D01*
X58845635Y-78046692D01*
X58865468Y-77820000D01*
X58845635Y-77593308D01*
X58786739Y-77373504D01*
X58690568Y-77167266D01*
X58560047Y-76980861D01*
X58560045Y-76980858D01*
X58399141Y-76819954D01*
X58212734Y-76689432D01*
X58212732Y-76689431D01*
X58154725Y-76662382D01*
X58154132Y-76662105D01*
X58101694Y-76615934D01*
X58082542Y-76548740D01*
X58102758Y-76481859D01*
X58154134Y-76437341D01*
X58212484Y-76410132D01*
X58398820Y-76279657D01*
X58559657Y-76118820D01*
X58690134Y-75932482D01*
X58786265Y-75726326D01*
X58786269Y-75726317D01*
X58838872Y-75530000D01*
X57993012Y-75530000D01*
X58025925Y-75472993D01*
X58060000Y-75345826D01*
X58060000Y-75214174D01*
X58025925Y-75087007D01*
X57993012Y-75030000D01*
X58838872Y-75030000D01*
X58838872Y-75029999D01*
X58786269Y-74833682D01*
X58786265Y-74833673D01*
X58690134Y-74627517D01*
X58559657Y-74441179D01*
X58398820Y-74280342D01*
X58212482Y-74149865D01*
X58154133Y-74122657D01*
X58101694Y-74076484D01*
X58082542Y-74009291D01*
X58102758Y-73942410D01*
X58154129Y-73897895D01*
X58212734Y-73870568D01*
X58399139Y-73740047D01*
X58560047Y-73579139D01*
X58690568Y-73392734D01*
X58786739Y-73186496D01*
X58845635Y-72966692D01*
X58865468Y-72740000D01*
X58845635Y-72513308D01*
X58786739Y-72293504D01*
X58690568Y-72087266D01*
X58560047Y-71900861D01*
X58560045Y-71900858D01*
X58399141Y-71739954D01*
X58212734Y-71609432D01*
X58212728Y-71609429D01*
X58154725Y-71582382D01*
X58102285Y-71536210D01*
X58083133Y-71469017D01*
X58103348Y-71402135D01*
X58154725Y-71357618D01*
X58155319Y-71357341D01*
X58212734Y-71330568D01*
X58399139Y-71200047D01*
X58560047Y-71039139D01*
X58690568Y-70852734D01*
X58786739Y-70646496D01*
X58845635Y-70426692D01*
X58865468Y-70200000D01*
X58845635Y-69973308D01*
X58786739Y-69753504D01*
X58690568Y-69547266D01*
X58560047Y-69360861D01*
X58560045Y-69360858D01*
X58399143Y-69199956D01*
X58374536Y-69182726D01*
X58330912Y-69128149D01*
X58323719Y-69058650D01*
X58355241Y-68996296D01*
X58415471Y-68960882D01*
X58432404Y-68957861D01*
X58467483Y-68954091D01*
X58602331Y-68903796D01*
X58717546Y-68817546D01*
X58803796Y-68702331D01*
X58854091Y-68567483D01*
X58860500Y-68507873D01*
X58860499Y-66812128D01*
X58854091Y-66752517D01*
X58819567Y-66659954D01*
X58803797Y-66617671D01*
X58803793Y-66617664D01*
X58717547Y-66502455D01*
X58717544Y-66502452D01*
X58602335Y-66416206D01*
X58602328Y-66416202D01*
X58467482Y-66365908D01*
X58467483Y-66365908D01*
X58407883Y-66359501D01*
X58407881Y-66359500D01*
X58407873Y-66359500D01*
X58407864Y-66359500D01*
X56712129Y-66359500D01*
X56712123Y-66359501D01*
X56652516Y-66365908D01*
X56517671Y-66416202D01*
X56517664Y-66416206D01*
X56402455Y-66502452D01*
X56402452Y-66502455D01*
X56316206Y-66617664D01*
X56316202Y-66617671D01*
X56265908Y-66752517D01*
X56259501Y-66812116D01*
X56259501Y-66812123D01*
X56259500Y-66812135D01*
X56259500Y-68507870D01*
X56259501Y-68507876D01*
X56265908Y-68567483D01*
X56316202Y-68702328D01*
X56316206Y-68702335D01*
X56402452Y-68817544D01*
X56402455Y-68817547D01*
X56517664Y-68903793D01*
X56517671Y-68903797D01*
X56562618Y-68920561D01*
X56652517Y-68954091D01*
X56687596Y-68957862D01*
X56752144Y-68984599D01*
X56791993Y-69041991D01*
X56794488Y-69111816D01*
X56758836Y-69171905D01*
X56745464Y-69182725D01*
X56720858Y-69199954D01*
X56559954Y-69360858D01*
X56429432Y-69547265D01*
X56429431Y-69547267D01*
X56333261Y-69753502D01*
X56333258Y-69753511D01*
X56274366Y-69973302D01*
X56274364Y-69973313D01*
X56254532Y-70199998D01*
X50550500Y-70199998D01*
X50550500Y-50674500D01*
X50570185Y-50607461D01*
X50622989Y-50561706D01*
X50674500Y-50550500D01*
X56876539Y-50550500D01*
X56943578Y-50570185D01*
G37*
%TD.AperFunction*%
%TA.AperFunction,Conductor*%
G36*
X81467540Y-83020185D02*
G01*
X81513295Y-83072989D01*
X81524501Y-83124500D01*
X81524501Y-83297876D01*
X81530908Y-83357483D01*
X81581202Y-83492328D01*
X81581206Y-83492335D01*
X81667452Y-83607544D01*
X81667455Y-83607547D01*
X81782664Y-83693793D01*
X81782671Y-83693797D01*
X81917517Y-83744091D01*
X81917516Y-83744091D01*
X81924444Y-83744835D01*
X81977127Y-83750500D01*
X83772872Y-83750499D01*
X83832483Y-83744091D01*
X83967331Y-83693796D01*
X84082546Y-83607546D01*
X84168796Y-83492331D01*
X84209318Y-83383686D01*
X84251189Y-83327752D01*
X84316653Y-83303335D01*
X84384926Y-83318186D01*
X84434332Y-83367591D01*
X84449500Y-83427019D01*
X84449500Y-87999482D01*
X84429815Y-88066521D01*
X84377011Y-88112276D01*
X84307853Y-88122220D01*
X84244297Y-88093195D01*
X84223925Y-88070606D01*
X84178430Y-88005633D01*
X84138495Y-87948599D01*
X84138493Y-87948597D01*
X84138491Y-87948594D01*
X83971402Y-87781506D01*
X83971395Y-87781501D01*
X83777834Y-87645967D01*
X83777830Y-87645965D01*
X83777828Y-87645964D01*
X83563663Y-87546097D01*
X83563659Y-87546096D01*
X83563655Y-87546094D01*
X83335413Y-87484938D01*
X83335403Y-87484936D01*
X83100001Y-87464341D01*
X83099999Y-87464341D01*
X82864596Y-87484936D01*
X82864586Y-87484938D01*
X82636344Y-87546094D01*
X82636335Y-87546098D01*
X82422171Y-87645964D01*
X82422169Y-87645965D01*
X82228597Y-87781505D01*
X82061505Y-87948597D01*
X81925965Y-88142169D01*
X81925964Y-88142171D01*
X81826098Y-88356335D01*
X81826094Y-88356344D01*
X81764938Y-88584586D01*
X81764936Y-88584596D01*
X81744341Y-88819999D01*
X81744341Y-88820000D01*
X81764936Y-89055403D01*
X81764938Y-89055413D01*
X81826094Y-89283655D01*
X81826096Y-89283659D01*
X81826097Y-89283663D01*
X81875417Y-89389429D01*
X81925965Y-89497830D01*
X81925967Y-89497834D01*
X82004736Y-89610327D01*
X82061501Y-89691396D01*
X82061506Y-89691402D01*
X82228597Y-89858493D01*
X82228603Y-89858498D01*
X82414158Y-89988425D01*
X82457783Y-90043002D01*
X82464977Y-90112500D01*
X82433454Y-90174855D01*
X82414158Y-90191575D01*
X82228597Y-90321505D01*
X82061505Y-90488597D01*
X81925965Y-90682169D01*
X81925964Y-90682171D01*
X81826098Y-90896335D01*
X81826094Y-90896344D01*
X81764938Y-91124586D01*
X81764936Y-91124596D01*
X81744341Y-91359999D01*
X81744341Y-91360000D01*
X81764936Y-91595403D01*
X81764938Y-91595413D01*
X81826094Y-91823655D01*
X81826096Y-91823659D01*
X81826097Y-91823663D01*
X81875417Y-91929429D01*
X81925965Y-92037830D01*
X81925967Y-92037834D01*
X82004736Y-92150327D01*
X82061501Y-92231396D01*
X82061506Y-92231402D01*
X82228597Y-92398493D01*
X82228603Y-92398498D01*
X82414158Y-92528425D01*
X82457783Y-92583002D01*
X82464977Y-92652500D01*
X82433454Y-92714855D01*
X82414158Y-92731575D01*
X82228597Y-92861505D01*
X82061505Y-93028597D01*
X81925965Y-93222169D01*
X81925964Y-93222171D01*
X81826098Y-93436335D01*
X81826094Y-93436344D01*
X81764938Y-93664586D01*
X81764936Y-93664596D01*
X81744341Y-93899999D01*
X81744341Y-93900000D01*
X81764936Y-94135403D01*
X81764938Y-94135413D01*
X81826094Y-94363655D01*
X81826096Y-94363659D01*
X81826097Y-94363663D01*
X81875417Y-94469429D01*
X81925965Y-94577830D01*
X81925967Y-94577834D01*
X82004736Y-94690327D01*
X82061501Y-94771396D01*
X82061506Y-94771402D01*
X82228597Y-94938493D01*
X82228603Y-94938498D01*
X82414158Y-95068425D01*
X82457783Y-95123002D01*
X82464977Y-95192500D01*
X82433454Y-95254855D01*
X82414158Y-95271575D01*
X82228597Y-95401505D01*
X82061505Y-95568597D01*
X81925965Y-95762169D01*
X81925964Y-95762171D01*
X81826098Y-95976335D01*
X81826094Y-95976344D01*
X81764938Y-96204586D01*
X81764936Y-96204596D01*
X81744341Y-96439999D01*
X81744341Y-96440000D01*
X81764936Y-96675403D01*
X81764938Y-96675413D01*
X81826094Y-96903655D01*
X81826096Y-96903659D01*
X81826097Y-96903663D01*
X81875417Y-97009429D01*
X81925965Y-97117830D01*
X81925967Y-97117834D01*
X82004736Y-97230327D01*
X82061501Y-97311396D01*
X82061506Y-97311402D01*
X82228597Y-97478493D01*
X82228603Y-97478498D01*
X82414158Y-97608425D01*
X82457783Y-97663002D01*
X82464977Y-97732500D01*
X82433454Y-97794855D01*
X82414158Y-97811575D01*
X82228597Y-97941505D01*
X82061505Y-98108597D01*
X81925965Y-98302169D01*
X81925964Y-98302171D01*
X81826098Y-98516335D01*
X81826094Y-98516344D01*
X81764938Y-98744586D01*
X81764936Y-98744596D01*
X81744341Y-98979999D01*
X81744341Y-98980000D01*
X81764936Y-99215403D01*
X81764938Y-99215413D01*
X81826094Y-99443655D01*
X81826096Y-99443659D01*
X81826097Y-99443663D01*
X81875417Y-99549429D01*
X81925965Y-99657830D01*
X81925967Y-99657834D01*
X82004736Y-99770327D01*
X82061501Y-99851396D01*
X82061506Y-99851402D01*
X82228597Y-100018493D01*
X82228603Y-100018498D01*
X82414158Y-100148425D01*
X82457783Y-100203002D01*
X82464977Y-100272500D01*
X82433454Y-100334855D01*
X82414158Y-100351575D01*
X82228597Y-100481505D01*
X82061505Y-100648597D01*
X81925965Y-100842169D01*
X81925964Y-100842171D01*
X81826098Y-101056335D01*
X81826094Y-101056344D01*
X81764938Y-101284586D01*
X81764936Y-101284596D01*
X81744341Y-101519999D01*
X81744341Y-101520000D01*
X81764936Y-101755403D01*
X81764938Y-101755413D01*
X81826094Y-101983655D01*
X81826096Y-101983659D01*
X81826097Y-101983663D01*
X81875417Y-102089429D01*
X81925965Y-102197830D01*
X81925967Y-102197834D01*
X82004736Y-102310327D01*
X82061501Y-102391396D01*
X82061506Y-102391402D01*
X82228597Y-102558493D01*
X82228603Y-102558498D01*
X82414594Y-102688730D01*
X82458219Y-102743307D01*
X82465413Y-102812805D01*
X82433890Y-102875160D01*
X82414595Y-102891880D01*
X82228922Y-103021890D01*
X82228920Y-103021891D01*
X82061891Y-103188920D01*
X82061886Y-103188926D01*
X81926400Y-103382420D01*
X81926399Y-103382422D01*
X81826570Y-103596507D01*
X81826567Y-103596513D01*
X81769364Y-103809999D01*
X81769364Y-103810000D01*
X82666988Y-103810000D01*
X82634075Y-103867007D01*
X82600000Y-103994174D01*
X82600000Y-104125826D01*
X82634075Y-104252993D01*
X82666988Y-104310000D01*
X81769364Y-104310000D01*
X81826567Y-104523486D01*
X81826570Y-104523492D01*
X81926399Y-104737578D01*
X82061894Y-104931082D01*
X82183946Y-105053134D01*
X82217431Y-105114457D01*
X82212447Y-105184149D01*
X82170575Y-105240082D01*
X82139598Y-105256997D01*
X82007671Y-105306202D01*
X82007664Y-105306206D01*
X81892455Y-105392452D01*
X81892452Y-105392455D01*
X81806206Y-105507664D01*
X81806202Y-105507671D01*
X81755908Y-105642517D01*
X81749501Y-105702116D01*
X81749500Y-105702135D01*
X81749500Y-105875500D01*
X81729815Y-105942539D01*
X81677011Y-105988294D01*
X81625500Y-105999500D01*
X79020097Y-105999500D01*
X78953058Y-105979815D01*
X78932416Y-105963181D01*
X75636819Y-102667584D01*
X75603334Y-102606261D01*
X75600500Y-102579903D01*
X75600500Y-98569059D01*
X75600501Y-98569046D01*
X75600501Y-98393348D01*
X75600500Y-98393330D01*
X75600500Y-88500097D01*
X75620185Y-88433058D01*
X75636819Y-88412416D01*
X81012417Y-83036819D01*
X81073740Y-83003334D01*
X81100098Y-83000500D01*
X81400501Y-83000500D01*
X81467540Y-83020185D01*
G37*
%TD.AperFunction*%
%TA.AperFunction,Conductor*%
G36*
X84392539Y-50570185D02*
G01*
X84438294Y-50622989D01*
X84449500Y-50674500D01*
X84449500Y-74496309D01*
X84429815Y-74563348D01*
X84377011Y-74609103D01*
X84307853Y-74619047D01*
X84244297Y-74590022D01*
X84206523Y-74531244D01*
X84205725Y-74528402D01*
X84148905Y-74316344D01*
X84148904Y-74316343D01*
X84148903Y-74316337D01*
X84049035Y-74102171D01*
X84009332Y-74045468D01*
X83913494Y-73908597D01*
X83746402Y-73741506D01*
X83746395Y-73741501D01*
X83744318Y-73740047D01*
X83677560Y-73693302D01*
X83552834Y-73605967D01*
X83552830Y-73605965D01*
X83495306Y-73579141D01*
X83338663Y-73506097D01*
X83338659Y-73506096D01*
X83338655Y-73506094D01*
X83110413Y-73444938D01*
X83110403Y-73444936D01*
X82875001Y-73424341D01*
X82874999Y-73424341D01*
X82639596Y-73444936D01*
X82639586Y-73444938D01*
X82411344Y-73506094D01*
X82411335Y-73506098D01*
X82197171Y-73605964D01*
X82197169Y-73605965D01*
X82003597Y-73741505D01*
X81836505Y-73908597D01*
X81700965Y-74102169D01*
X81700964Y-74102171D01*
X81601098Y-74316335D01*
X81601094Y-74316344D01*
X81539938Y-74544586D01*
X81539936Y-74544596D01*
X81519341Y-74779999D01*
X81519341Y-74780000D01*
X81539936Y-75015403D01*
X81539938Y-75015413D01*
X81601094Y-75243655D01*
X81601096Y-75243659D01*
X81601097Y-75243663D01*
X81618042Y-75280001D01*
X81700965Y-75457830D01*
X81700967Y-75457834D01*
X81836501Y-75651395D01*
X81836506Y-75651402D01*
X82003597Y-75818493D01*
X82003603Y-75818498D01*
X82189158Y-75948425D01*
X82232783Y-76003002D01*
X82239977Y-76072500D01*
X82208454Y-76134855D01*
X82189158Y-76151575D01*
X82003597Y-76281505D01*
X81836505Y-76448597D01*
X81700965Y-76642169D01*
X81700964Y-76642171D01*
X81601098Y-76856335D01*
X81601094Y-76856344D01*
X81539938Y-77084586D01*
X81539936Y-77084596D01*
X81519341Y-77319999D01*
X81519341Y-77320000D01*
X81539936Y-77555403D01*
X81539938Y-77555413D01*
X81601094Y-77783655D01*
X81601096Y-77783659D01*
X81601097Y-77783663D01*
X81618042Y-77820001D01*
X81700965Y-77997830D01*
X81700967Y-77997834D01*
X81836501Y-78191395D01*
X81836506Y-78191402D01*
X82003597Y-78358493D01*
X82003603Y-78358498D01*
X82189594Y-78488730D01*
X82233219Y-78543307D01*
X82240413Y-78612805D01*
X82208890Y-78675160D01*
X82189595Y-78691880D01*
X82003922Y-78821890D01*
X82003920Y-78821891D01*
X81836891Y-78988920D01*
X81836886Y-78988926D01*
X81701400Y-79182420D01*
X81701399Y-79182422D01*
X81601570Y-79396507D01*
X81601567Y-79396513D01*
X81544364Y-79609999D01*
X81544364Y-79610000D01*
X82441988Y-79610000D01*
X82409075Y-79667007D01*
X82375000Y-79794174D01*
X82375000Y-79925826D01*
X82409075Y-80052993D01*
X82441988Y-80110000D01*
X81544364Y-80110000D01*
X81601567Y-80323486D01*
X81601570Y-80323492D01*
X81701399Y-80537578D01*
X81836894Y-80731082D01*
X81958946Y-80853134D01*
X81992431Y-80914457D01*
X81987447Y-80984149D01*
X81945575Y-81040082D01*
X81914598Y-81056997D01*
X81782671Y-81106202D01*
X81782664Y-81106206D01*
X81667455Y-81192452D01*
X81667452Y-81192455D01*
X81581206Y-81307664D01*
X81581202Y-81307671D01*
X81530908Y-81442517D01*
X81524501Y-81502116D01*
X81524500Y-81502135D01*
X81524500Y-81675500D01*
X81504815Y-81742539D01*
X81452011Y-81788294D01*
X81400500Y-81799500D01*
X80886670Y-81799500D01*
X80886654Y-81799499D01*
X80879058Y-81799499D01*
X80720943Y-81799499D01*
X80644579Y-81819961D01*
X80568214Y-81840423D01*
X80568209Y-81840426D01*
X80431290Y-81919475D01*
X80431282Y-81919481D01*
X75812181Y-86538583D01*
X75750858Y-86572068D01*
X75681166Y-86567084D01*
X75625233Y-86525212D01*
X75600816Y-86459748D01*
X75600500Y-86450902D01*
X75600500Y-59549983D01*
X80099500Y-59549983D01*
X80099500Y-60850001D01*
X80099501Y-60850018D01*
X80110000Y-60952796D01*
X80110001Y-60952799D01*
X80165185Y-61119331D01*
X80165187Y-61119336D01*
X80257289Y-61268657D01*
X80381344Y-61392712D01*
X80536558Y-61488448D01*
X80583283Y-61540396D01*
X80594506Y-61609358D01*
X80566663Y-61673441D01*
X80559144Y-61681668D01*
X80420271Y-61820541D01*
X80295379Y-61992442D01*
X80198904Y-62181782D01*
X80133242Y-62383870D01*
X80133242Y-62383873D01*
X80122769Y-62450000D01*
X81166988Y-62450000D01*
X81134075Y-62507007D01*
X81100000Y-62634174D01*
X81100000Y-62765826D01*
X81134075Y-62892993D01*
X81166988Y-62950000D01*
X80122769Y-62950000D01*
X80133242Y-63016126D01*
X80133242Y-63016129D01*
X80198904Y-63218217D01*
X80295379Y-63407557D01*
X80420272Y-63579459D01*
X80420276Y-63579464D01*
X80570535Y-63729723D01*
X80570540Y-63729727D01*
X80742442Y-63854620D01*
X80931782Y-63951095D01*
X81133870Y-64016757D01*
X81343754Y-64050000D01*
X81350000Y-64050000D01*
X81350000Y-63133012D01*
X81407007Y-63165925D01*
X81534174Y-63200000D01*
X81665826Y-63200000D01*
X81792993Y-63165925D01*
X81850000Y-63133012D01*
X81850000Y-64050000D01*
X81856246Y-64050000D01*
X82066127Y-64016757D01*
X82066130Y-64016757D01*
X82268217Y-63951095D01*
X82457557Y-63854620D01*
X82629459Y-63729727D01*
X82629464Y-63729723D01*
X82779723Y-63579464D01*
X82779727Y-63579459D01*
X82904620Y-63407557D01*
X83001095Y-63218217D01*
X83066757Y-63016129D01*
X83066757Y-63016126D01*
X83077231Y-62950000D01*
X82033012Y-62950000D01*
X82065925Y-62892993D01*
X82100000Y-62765826D01*
X82100000Y-62634174D01*
X82065925Y-62507007D01*
X82033012Y-62450000D01*
X83077231Y-62450000D01*
X83066757Y-62383873D01*
X83066757Y-62383870D01*
X83001095Y-62181782D01*
X82904620Y-61992442D01*
X82779727Y-61820540D01*
X82779723Y-61820535D01*
X82640856Y-61681668D01*
X82607371Y-61620345D01*
X82612355Y-61550653D01*
X82654227Y-61494720D01*
X82663441Y-61488448D01*
X82669331Y-61484814D01*
X82669334Y-61484814D01*
X82818656Y-61392712D01*
X82942712Y-61268656D01*
X83034814Y-61119334D01*
X83089999Y-60952797D01*
X83100500Y-60850009D01*
X83100499Y-59549992D01*
X83089999Y-59447203D01*
X83034814Y-59280666D01*
X82942712Y-59131344D01*
X82818656Y-59007288D01*
X82669334Y-58915186D01*
X82502797Y-58860001D01*
X82502795Y-58860000D01*
X82400010Y-58849500D01*
X80799998Y-58849500D01*
X80799981Y-58849501D01*
X80697203Y-58860000D01*
X80697200Y-58860001D01*
X80530668Y-58915185D01*
X80530663Y-58915187D01*
X80381342Y-59007289D01*
X80257289Y-59131342D01*
X80165187Y-59280663D01*
X80165186Y-59280666D01*
X80110001Y-59447203D01*
X80110001Y-59447204D01*
X80110000Y-59447204D01*
X80099500Y-59549983D01*
X75600500Y-59549983D01*
X75600500Y-56000945D01*
X75600500Y-56000943D01*
X75598454Y-55993307D01*
X75600115Y-55923459D01*
X75639277Y-55865595D01*
X75696216Y-55841211D01*
X75710000Y-55830634D01*
X75710000Y-54933012D01*
X75767007Y-54965925D01*
X75894174Y-55000000D01*
X76025826Y-55000000D01*
X76152993Y-54965925D01*
X76210000Y-54933012D01*
X76210000Y-55830633D01*
X76423483Y-55773433D01*
X76423492Y-55773429D01*
X76637578Y-55673600D01*
X76831082Y-55538105D01*
X76998105Y-55371082D01*
X77133600Y-55177578D01*
X77233429Y-54963492D01*
X77233432Y-54963486D01*
X77290636Y-54750000D01*
X76393012Y-54750000D01*
X76425925Y-54692993D01*
X76460000Y-54565826D01*
X76460000Y-54434174D01*
X76425925Y-54307007D01*
X76393012Y-54250000D01*
X77290636Y-54250000D01*
X77290635Y-54249999D01*
X77233432Y-54036513D01*
X77233429Y-54036507D01*
X77133600Y-53822422D01*
X77133599Y-53822420D01*
X76998113Y-53628926D01*
X76998108Y-53628920D01*
X76831082Y-53461894D01*
X76644968Y-53331575D01*
X76601344Y-53276998D01*
X76594151Y-53207499D01*
X76625673Y-53145145D01*
X76644968Y-53128425D01*
X76831082Y-52998105D01*
X76998105Y-52831082D01*
X77133600Y-52637578D01*
X77233429Y-52423492D01*
X77233432Y-52423486D01*
X77290636Y-52210000D01*
X76393012Y-52210000D01*
X76425925Y-52152993D01*
X76460000Y-52025826D01*
X76460000Y-51894174D01*
X76425925Y-51767007D01*
X76393012Y-51710000D01*
X77290636Y-51710000D01*
X77290635Y-51709999D01*
X77233432Y-51496513D01*
X77233429Y-51496507D01*
X77133600Y-51282422D01*
X77133599Y-51282420D01*
X76998113Y-51088926D01*
X76998108Y-51088920D01*
X76831082Y-50921894D01*
X76637577Y-50786399D01*
X76632893Y-50783695D01*
X76633600Y-50782468D01*
X76586173Y-50740710D01*
X76567021Y-50673517D01*
X76587237Y-50606635D01*
X76640402Y-50561301D01*
X76691017Y-50550500D01*
X84325500Y-50550500D01*
X84392539Y-50570185D01*
G37*
%TD.AperFunction*%
%TA.AperFunction,Conductor*%
G36*
X58430000Y-54066988D02*
G01*
X58372993Y-54034075D01*
X58245826Y-54000000D01*
X58114174Y-54000000D01*
X57987007Y-54034075D01*
X57930000Y-54066988D01*
X57930000Y-52393012D01*
X57987007Y-52425925D01*
X58114174Y-52460000D01*
X58245826Y-52460000D01*
X58372993Y-52425925D01*
X58430000Y-52393012D01*
X58430000Y-54066988D01*
G37*
%TD.AperFunction*%
%TA.AperFunction,Conductor*%
G36*
X76210000Y-54066988D02*
G01*
X76152993Y-54034075D01*
X76025826Y-54000000D01*
X75894174Y-54000000D01*
X75767007Y-54034075D01*
X75710000Y-54066988D01*
X75710000Y-52393012D01*
X75767007Y-52425925D01*
X75894174Y-52460000D01*
X76025826Y-52460000D01*
X76152993Y-52425925D01*
X76210000Y-52393012D01*
X76210000Y-54066988D01*
G37*
%TD.AperFunction*%
%TD*%
M02*
