%TF.GenerationSoftware,KiCad,Pcbnew,8.0.8*%
%TF.CreationDate,2025-01-20T03:53:25+01:00*%
%TF.ProjectId,NANO_MPU_SD_2Layers,4e414e4f-5f4d-4505-955f-53445f324c61,rev?*%
%TF.SameCoordinates,Original*%
%TF.FileFunction,Copper,L1,Top*%
%TF.FilePolarity,Positive*%
%FSLAX46Y46*%
G04 Gerber Fmt 4.6, Leading zero omitted, Abs format (unit mm)*
G04 Created by KiCad (PCBNEW 8.0.8) date 2025-01-20 03:53:25*
%MOMM*%
%LPD*%
G01*
G04 APERTURE LIST*
G04 Aperture macros list*
%AMRoundRect*
0 Rectangle with rounded corners*
0 $1 Rounding radius*
0 $2 $3 $4 $5 $6 $7 $8 $9 X,Y pos of 4 corners*
0 Add a 4 corners polygon primitive as box body*
4,1,4,$2,$3,$4,$5,$6,$7,$8,$9,$2,$3,0*
0 Add four circle primitives for the rounded corners*
1,1,$1+$1,$2,$3*
1,1,$1+$1,$4,$5*
1,1,$1+$1,$6,$7*
1,1,$1+$1,$8,$9*
0 Add four rect primitives between the rounded corners*
20,1,$1+$1,$2,$3,$4,$5,0*
20,1,$1+$1,$4,$5,$6,$7,0*
20,1,$1+$1,$6,$7,$8,$9,0*
20,1,$1+$1,$8,$9,$2,$3,0*%
G04 Aperture macros list end*
%TA.AperFunction,ComponentPad*%
%ADD10R,1.600000X1.600000*%
%TD*%
%TA.AperFunction,ComponentPad*%
%ADD11O,1.600000X1.600000*%
%TD*%
%TA.AperFunction,ComponentPad*%
%ADD12C,1.600000*%
%TD*%
%TA.AperFunction,ComponentPad*%
%ADD13R,1.800000X1.800000*%
%TD*%
%TA.AperFunction,ComponentPad*%
%ADD14C,1.800000*%
%TD*%
%TA.AperFunction,ComponentPad*%
%ADD15R,1.700000X1.700000*%
%TD*%
%TA.AperFunction,ComponentPad*%
%ADD16O,1.700000X1.700000*%
%TD*%
%TA.AperFunction,ComponentPad*%
%ADD17RoundRect,0.250000X-0.750000X0.600000X-0.750000X-0.600000X0.750000X-0.600000X0.750000X0.600000X0*%
%TD*%
%TA.AperFunction,ComponentPad*%
%ADD18O,2.000000X1.700000*%
%TD*%
%TA.AperFunction,ViaPad*%
%ADD19C,0.600000*%
%TD*%
%TA.AperFunction,Conductor*%
%ADD20C,0.200000*%
%TD*%
G04 APERTURE END LIST*
D10*
%TO.P,A1,1,D1/TX*%
%TO.N,unconnected-(A1-D1{slash}TX-Pad1)*%
X57560000Y-67660000D03*
D11*
%TO.P,A1,2,D0/RX*%
%TO.N,unconnected-(A1-D0{slash}RX-Pad2)*%
X57560000Y-70200000D03*
%TO.P,A1,3,~{RESET}*%
%TO.N,unconnected-(A1-~{RESET}-Pad3)*%
X57560000Y-72740000D03*
%TO.P,A1,4,GND*%
%TO.N,GND*%
X57560000Y-75280000D03*
%TO.P,A1,5,D2*%
%TO.N,unconnected-(A1-D2-Pad5)*%
X57560000Y-77820000D03*
%TO.P,A1,6,D3*%
%TO.N,Net-(A1-D3)*%
X57560000Y-80360000D03*
%TO.P,A1,7,D4*%
%TO.N,unconnected-(A1-D4-Pad7)*%
X57560000Y-82900000D03*
%TO.P,A1,8,D5*%
%TO.N,Net-(A1-D5)*%
X57560000Y-85440000D03*
%TO.P,A1,9,D6*%
%TO.N,unconnected-(A1-D6-Pad9)*%
X57560000Y-87980000D03*
%TO.P,A1,10,D7*%
%TO.N,unconnected-(A1-D7-Pad10)*%
X57560000Y-90520000D03*
%TO.P,A1,11,D8*%
%TO.N,unconnected-(A1-D8-Pad11)*%
X57560000Y-93060000D03*
%TO.P,A1,12,D9*%
%TO.N,unconnected-(A1-D9-Pad12)*%
X57560000Y-95600000D03*
%TO.P,A1,13,D10*%
%TO.N,Net-(A1-D10)*%
X57560000Y-98140000D03*
%TO.P,A1,14,D11*%
%TO.N,Net-(A1-D11)*%
X57560000Y-100680000D03*
%TO.P,A1,15,D12*%
%TO.N,Net-(A1-D12)*%
X57560000Y-103220000D03*
%TO.P,A1,16,D13*%
%TO.N,Net-(A1-D13)*%
X72800000Y-103220000D03*
%TO.P,A1,17,3V3*%
%TO.N,+3.3V*%
X72800000Y-100680000D03*
%TO.P,A1,18,AREF*%
%TO.N,unconnected-(A1-AREF-Pad18)*%
X72800000Y-98140000D03*
%TO.P,A1,19,A0*%
%TO.N,unconnected-(A1-A0-Pad19)*%
X72800000Y-95600000D03*
%TO.P,A1,20,A1*%
%TO.N,unconnected-(A1-A1-Pad20)*%
X72800000Y-93060000D03*
%TO.P,A1,21,A2*%
%TO.N,unconnected-(A1-A2-Pad21)*%
X72800000Y-90520000D03*
%TO.P,A1,22,A3*%
%TO.N,unconnected-(A1-A3-Pad22)*%
X72800000Y-87980000D03*
%TO.P,A1,23,A4*%
%TO.N,Net-(A1-A4)*%
X72800000Y-85440000D03*
%TO.P,A1,24,A5*%
%TO.N,Net-(A1-A5)*%
X72800000Y-82900000D03*
%TO.P,A1,25,A6*%
%TO.N,unconnected-(A1-A6-Pad25)*%
X72800000Y-80360000D03*
%TO.P,A1,26,A7*%
%TO.N,unconnected-(A1-A7-Pad26)*%
X72800000Y-77820000D03*
%TO.P,A1,27,+5V*%
%TO.N,+5V*%
X72800000Y-75280000D03*
%TO.P,A1,28,~{RESET}*%
%TO.N,unconnected-(A1-~{RESET}-Pad28)*%
X72800000Y-72740000D03*
%TO.P,A1,29,GND*%
%TO.N,GND*%
X72800000Y-70200000D03*
%TO.P,A1,30,VIN*%
%TO.N,Net-(A1-VIN)*%
X72800000Y-67660000D03*
%TD*%
D12*
%TO.P,R1,1*%
%TO.N,Net-(A1-D5)*%
X53100000Y-86720000D03*
D11*
%TO.P,R1,2*%
%TO.N,Net-(D1-A)*%
X53100000Y-96880000D03*
%TD*%
D13*
%TO.P,D2,1,K*%
%TO.N,GND*%
X53100000Y-104430000D03*
D14*
%TO.P,D2,2,A*%
%TO.N,Net-(D2-A)*%
X53100000Y-106970000D03*
%TD*%
D15*
%TO.P,J2,1,ePin_b2*%
%TO.N,GND*%
X58180000Y-51960000D03*
D16*
%TO.P,J2,2,ePin_a2*%
X58180000Y-54500000D03*
%TO.P,J2,3,eePin_b4*%
%TO.N,Net-(A1-D12)*%
X60720000Y-51960000D03*
%TO.P,J2,4,ePin_a4*%
X60720000Y-54500000D03*
%TO.P,J2,5,ePin_b6*%
%TO.N,Net-(A1-D13)*%
X63260000Y-51960000D03*
%TO.P,J2,6,ePin_a6*%
X63260000Y-54500000D03*
%TO.P,J2,7,ePin_b8*%
%TO.N,Net-(A1-D11)*%
X65800000Y-51960000D03*
%TO.P,J2,8,ePin_a8*%
X65800000Y-54500000D03*
%TO.P,J2,9,ePin_b10*%
%TO.N,Net-(A1-D10)*%
X68340000Y-51960000D03*
%TO.P,J2,10,ePin_a10*%
X68340000Y-54500000D03*
%TO.P,J2,11,ePin_b12*%
%TO.N,+5V*%
X70880000Y-51960000D03*
%TO.P,J2,12,ePin_a12*%
X70880000Y-54500000D03*
%TO.P,J2,13,Pin_b14*%
%TO.N,+3.3V*%
X73420000Y-51960000D03*
%TO.P,J2,14,ePin_a14*%
X73420000Y-54500000D03*
%TO.P,J2,15,ePin_b16*%
%TO.N,GND*%
X75960000Y-51960000D03*
%TO.P,J2,16,ePin_a16*%
X75960000Y-54500000D03*
%TD*%
D15*
%TO.P,J3,1,Pin_1*%
%TO.N,+3.3V*%
X82875000Y-82400000D03*
D16*
%TO.P,J3,2,Pin_2*%
%TO.N,GND*%
X82875000Y-79860000D03*
%TO.P,J3,3,Pin_3*%
%TO.N,Net-(A1-A5)*%
X82875000Y-77320000D03*
%TO.P,J3,4,Pin_4*%
%TO.N,Net-(A1-A4)*%
X82875000Y-74780000D03*
%TD*%
D13*
%TO.P,D1,1,K*%
%TO.N,GND*%
X53100000Y-99230000D03*
D14*
%TO.P,D1,2,A*%
%TO.N,Net-(D1-A)*%
X53100000Y-101770000D03*
%TD*%
D15*
%TO.P,J1,1,Pin_1*%
%TO.N,+3.3V*%
X83100000Y-106600000D03*
D16*
%TO.P,J1,2,Pin_2*%
%TO.N,GND*%
X83100000Y-104060000D03*
%TO.P,J1,3,Pin_3*%
%TO.N,Net-(A1-A5)*%
X83100000Y-101520000D03*
%TO.P,J1,4,Pin_4*%
%TO.N,Net-(A1-A4)*%
X83100000Y-98980000D03*
%TO.P,J1,5,Pin_5*%
%TO.N,unconnected-(J1-Pin_5-Pad5)*%
X83100000Y-96440000D03*
%TO.P,J1,6,Pin_6*%
%TO.N,unconnected-(J1-Pin_6-Pad6)*%
X83100000Y-93900000D03*
%TO.P,J1,7,Pin_7*%
%TO.N,unconnected-(J1-Pin_7-Pad7)*%
X83100000Y-91360000D03*
%TO.P,J1,8,Pin_8*%
%TO.N,unconnected-(J1-Pin_8-Pad8)*%
X83100000Y-88820000D03*
%TD*%
D12*
%TO.P,R2,1*%
%TO.N,Net-(D2-A)*%
X53000000Y-84080000D03*
D11*
%TO.P,R2,2*%
%TO.N,Net-(A1-D3)*%
X53000000Y-73920000D03*
%TD*%
D17*
%TO.P,J4,1,Pin_1*%
%TO.N,Net-(A1-VIN)*%
X81600000Y-60200000D03*
D18*
%TO.P,J4,2,Pin_2*%
%TO.N,GND*%
X81600000Y-62700000D03*
%TD*%
D19*
%TO.N,Net-(A1-D10)*%
X59000000Y-63800000D03*
%TO.N,Net-(A1-D11)*%
X60000000Y-60300000D03*
%TD*%
D20*
%TO.N,Net-(A1-D10)*%
X59000000Y-96700000D02*
X59000000Y-63800000D01*
X57560000Y-98140000D02*
X59000000Y-96700000D01*
X68340000Y-54500000D02*
X68340000Y-51960000D01*
%TO.N,Net-(A1-D11)*%
X60000000Y-98240000D02*
X60000000Y-60300000D01*
X57560000Y-100680000D02*
X60000000Y-98240000D01*
X65800000Y-54500000D02*
X65800000Y-51960000D01*
%TO.N,Net-(A1-VIN)*%
X72800000Y-67660000D02*
X72800000Y-65500000D01*
X72800000Y-65500000D02*
X78100000Y-60200000D01*
X81600000Y-60200000D02*
X78100000Y-60200000D01*
%TO.N,Net-(A1-D3)*%
X55400000Y-76320000D02*
X55400000Y-76900000D01*
X57560000Y-80360000D02*
X55400000Y-78200000D01*
X55400000Y-78200000D02*
X55400000Y-76900000D01*
X53000000Y-73920000D02*
X55400000Y-76320000D01*
%TO.N,+3.3V*%
X73420000Y-51960000D02*
X73420000Y-54500000D01*
%TO.N,Net-(A1-D13)*%
X63260000Y-51960000D02*
X63260000Y-54500000D01*
X63260000Y-93680000D02*
X72800000Y-103220000D01*
X63260000Y-54500000D02*
X63260000Y-93680000D01*
%TO.N,+5V*%
X70880000Y-54500000D02*
X70880000Y-51960000D01*
X70880000Y-73360000D02*
X72800000Y-75280000D01*
X70880000Y-54500000D02*
X70880000Y-73360000D01*
%TO.N,Net-(A1-A5)*%
X82875000Y-77320000D02*
X81000000Y-79195000D01*
X81000000Y-99400000D02*
X81000000Y-88000000D01*
X71400000Y-84300000D02*
X71400000Y-85800000D01*
X72264365Y-86800000D02*
X79800000Y-86800000D01*
X81000000Y-79195000D02*
X81000000Y-84600000D01*
X83100000Y-101520000D02*
X81000000Y-99420000D01*
X71400000Y-85935635D02*
X71400000Y-85800000D01*
X72264365Y-86800000D02*
X71400000Y-85935635D01*
X72800000Y-82900000D02*
X71700000Y-84000000D01*
X81000000Y-99420000D02*
X81000000Y-99400000D01*
X79800000Y-86800000D02*
X81000000Y-88000000D01*
X71700000Y-84000000D02*
X71400000Y-84300000D01*
X71700000Y-86235635D02*
X72264365Y-86800000D01*
X81000000Y-84500000D02*
X81000000Y-84600000D01*
X81000000Y-84600000D02*
X81000000Y-88000000D01*
X83100000Y-82400000D02*
X81000000Y-84500000D01*
%TO.N,Net-(A1-D5)*%
X53100000Y-86720000D02*
X56280000Y-86720000D01*
X56280000Y-86720000D02*
X57560000Y-85440000D01*
%TO.N,Net-(A1-A4)*%
X80300000Y-83200000D02*
X78060000Y-85440000D01*
X82875000Y-74780000D02*
X84350000Y-76255000D01*
X78060000Y-85440000D02*
X72800000Y-85440000D01*
X84350000Y-97730000D02*
X83100000Y-98980000D01*
X82875000Y-74780000D02*
X80300000Y-77355000D01*
X80300000Y-77355000D02*
X80300000Y-83200000D01*
X84350000Y-76255000D02*
X84350000Y-97730000D01*
%TO.N,Net-(A1-D12)*%
X57560000Y-103220000D02*
X60720000Y-100060000D01*
X60720000Y-100060000D02*
X60720000Y-54500000D01*
X60720000Y-54500000D02*
X60720000Y-51960000D01*
%TO.N,Net-(D1-A)*%
X53100000Y-96700000D02*
X54500000Y-98100000D01*
X53100000Y-101770000D02*
X54500000Y-100370000D01*
X54500000Y-98100000D02*
X54500000Y-98900000D01*
X54500000Y-100370000D02*
X54500000Y-98900000D01*
%TO.N,Net-(D2-A)*%
X53000000Y-84080000D02*
X51200000Y-85880000D01*
X53100000Y-106970000D02*
X51200000Y-105070000D01*
X51200000Y-85880000D02*
X51200000Y-104800000D01*
X51200000Y-105070000D02*
X51200000Y-104800000D01*
%TD*%
%TA.AperFunction,Conductor*%
%TO.N,GND*%
G36*
X62074855Y-55166546D02*
G01*
X62091575Y-55185842D01*
X62221281Y-55371082D01*
X62221505Y-55371401D01*
X62388599Y-55538495D01*
X62485384Y-55606265D01*
X62582165Y-55674032D01*
X62582167Y-55674033D01*
X62582170Y-55674035D01*
X62587898Y-55676706D01*
X62640339Y-55722872D01*
X62659500Y-55789090D01*
X62659500Y-93593330D01*
X62659499Y-93593348D01*
X62659499Y-93759054D01*
X62659498Y-93759054D01*
X62700424Y-93911789D01*
X62700425Y-93911790D01*
X62720541Y-93946631D01*
X62720542Y-93946632D01*
X62779477Y-94048712D01*
X62779481Y-94048717D01*
X62898349Y-94167585D01*
X62898355Y-94167590D01*
X71508058Y-102777293D01*
X71541543Y-102838616D01*
X71540152Y-102897067D01*
X71514366Y-102993302D01*
X71514364Y-102993313D01*
X71494532Y-103219998D01*
X71494532Y-103220001D01*
X71514364Y-103446686D01*
X71514366Y-103446697D01*
X71573258Y-103666488D01*
X71573261Y-103666497D01*
X71669431Y-103872732D01*
X71669432Y-103872734D01*
X71799954Y-104059141D01*
X71960858Y-104220045D01*
X71960861Y-104220047D01*
X72147266Y-104350568D01*
X72353504Y-104446739D01*
X72573308Y-104505635D01*
X72735230Y-104519801D01*
X72799998Y-104525468D01*
X72800000Y-104525468D01*
X72800002Y-104525468D01*
X72856673Y-104520509D01*
X73026692Y-104505635D01*
X73246496Y-104446739D01*
X73452734Y-104350568D01*
X73639139Y-104220047D01*
X73800047Y-104059139D01*
X73930568Y-103872734D01*
X74026739Y-103666496D01*
X74085635Y-103446692D01*
X74105468Y-103220000D01*
X74085635Y-102993308D01*
X74026739Y-102773504D01*
X73930568Y-102567266D01*
X73800047Y-102380861D01*
X73800045Y-102380858D01*
X73639141Y-102219954D01*
X73452734Y-102089432D01*
X73452728Y-102089429D01*
X73394725Y-102062382D01*
X73342285Y-102016210D01*
X73323133Y-101949017D01*
X73343348Y-101882135D01*
X73394725Y-101837618D01*
X73452734Y-101810568D01*
X73639139Y-101680047D01*
X73800047Y-101519139D01*
X73930568Y-101332734D01*
X74026739Y-101126496D01*
X74085635Y-100906692D01*
X74105468Y-100680000D01*
X74085635Y-100453308D01*
X74026739Y-100233504D01*
X73930568Y-100027266D01*
X73800047Y-99840861D01*
X73800045Y-99840858D01*
X73639140Y-99679953D01*
X73452734Y-99549432D01*
X73452728Y-99549429D01*
X73394725Y-99522382D01*
X73342285Y-99476210D01*
X73323133Y-99409017D01*
X73343348Y-99342135D01*
X73394725Y-99297618D01*
X73412683Y-99289244D01*
X73452734Y-99270568D01*
X73639139Y-99140047D01*
X73800047Y-98979139D01*
X73930568Y-98792734D01*
X74026739Y-98586496D01*
X74085635Y-98366692D01*
X74105468Y-98140000D01*
X74085635Y-97913308D01*
X74026739Y-97693504D01*
X73930568Y-97487266D01*
X73800047Y-97300861D01*
X73800045Y-97300858D01*
X73639141Y-97139954D01*
X73452734Y-97009432D01*
X73452728Y-97009429D01*
X73394725Y-96982382D01*
X73342285Y-96936210D01*
X73323133Y-96869017D01*
X73343348Y-96802135D01*
X73394725Y-96757618D01*
X73452734Y-96730568D01*
X73639139Y-96600047D01*
X73800047Y-96439139D01*
X73930568Y-96252734D01*
X74026739Y-96046496D01*
X74085635Y-95826692D01*
X74105468Y-95600000D01*
X74085635Y-95373308D01*
X74026739Y-95153504D01*
X73930568Y-94947266D01*
X73800047Y-94760861D01*
X73800045Y-94760858D01*
X73639141Y-94599954D01*
X73452734Y-94469432D01*
X73452728Y-94469429D01*
X73394725Y-94442382D01*
X73342285Y-94396210D01*
X73323133Y-94329017D01*
X73343348Y-94262135D01*
X73394725Y-94217618D01*
X73452734Y-94190568D01*
X73639139Y-94060047D01*
X73800047Y-93899139D01*
X73930568Y-93712734D01*
X74026739Y-93506496D01*
X74085635Y-93286692D01*
X74105468Y-93060000D01*
X74085635Y-92833308D01*
X74026739Y-92613504D01*
X73930568Y-92407266D01*
X73800047Y-92220861D01*
X73800045Y-92220858D01*
X73639141Y-92059954D01*
X73452734Y-91929432D01*
X73452728Y-91929429D01*
X73394725Y-91902382D01*
X73342285Y-91856210D01*
X73323133Y-91789017D01*
X73343348Y-91722135D01*
X73394725Y-91677618D01*
X73452734Y-91650568D01*
X73639139Y-91520047D01*
X73800047Y-91359139D01*
X73930568Y-91172734D01*
X74026739Y-90966496D01*
X74085635Y-90746692D01*
X74105468Y-90520000D01*
X74085635Y-90293308D01*
X74026739Y-90073504D01*
X73930568Y-89867266D01*
X73800047Y-89680861D01*
X73800045Y-89680858D01*
X73639141Y-89519954D01*
X73452734Y-89389432D01*
X73452728Y-89389429D01*
X73394725Y-89362382D01*
X73342285Y-89316210D01*
X73323133Y-89249017D01*
X73343348Y-89182135D01*
X73394725Y-89137618D01*
X73452734Y-89110568D01*
X73639139Y-88980047D01*
X73800047Y-88819139D01*
X73930568Y-88632734D01*
X74026739Y-88426496D01*
X74085635Y-88206692D01*
X74105468Y-87980000D01*
X74085635Y-87753308D01*
X74034067Y-87560851D01*
X74032926Y-87556593D01*
X74034589Y-87486743D01*
X74073752Y-87428881D01*
X74137980Y-87401377D01*
X74152701Y-87400500D01*
X79499903Y-87400500D01*
X79566942Y-87420185D01*
X79587584Y-87436819D01*
X80363181Y-88212416D01*
X80396666Y-88273739D01*
X80399500Y-88300097D01*
X80399500Y-99333330D01*
X80399499Y-99333348D01*
X80399499Y-99499054D01*
X80399498Y-99499054D01*
X80440423Y-99651785D01*
X80456686Y-99679953D01*
X80456685Y-99679953D01*
X80456686Y-99679954D01*
X80519475Y-99788709D01*
X80519481Y-99788717D01*
X80638349Y-99907585D01*
X80638355Y-99907590D01*
X81767233Y-101036468D01*
X81800718Y-101097791D01*
X81799327Y-101156241D01*
X81764939Y-101284583D01*
X81764936Y-101284596D01*
X81744341Y-101519999D01*
X81744341Y-101520000D01*
X81764936Y-101755403D01*
X81764938Y-101755413D01*
X81826094Y-101983655D01*
X81826096Y-101983659D01*
X81826097Y-101983663D01*
X81875417Y-102089429D01*
X81925965Y-102197830D01*
X81925967Y-102197834D01*
X81993241Y-102293910D01*
X82061501Y-102391396D01*
X82061506Y-102391402D01*
X82228597Y-102558493D01*
X82228603Y-102558498D01*
X82414594Y-102688730D01*
X82458219Y-102743307D01*
X82465413Y-102812805D01*
X82433890Y-102875160D01*
X82414595Y-102891880D01*
X82228922Y-103021890D01*
X82228920Y-103021891D01*
X82061891Y-103188920D01*
X82061886Y-103188926D01*
X81926400Y-103382420D01*
X81926399Y-103382422D01*
X81826570Y-103596507D01*
X81826567Y-103596513D01*
X81769364Y-103809999D01*
X81769364Y-103810000D01*
X82666988Y-103810000D01*
X82634075Y-103867007D01*
X82600000Y-103994174D01*
X82600000Y-104125826D01*
X82634075Y-104252993D01*
X82666988Y-104310000D01*
X81769364Y-104310000D01*
X81826567Y-104523486D01*
X81826570Y-104523492D01*
X81926399Y-104737578D01*
X82061894Y-104931082D01*
X82183946Y-105053134D01*
X82217431Y-105114457D01*
X82212447Y-105184149D01*
X82170575Y-105240082D01*
X82139598Y-105256997D01*
X82007671Y-105306202D01*
X82007664Y-105306206D01*
X81892455Y-105392452D01*
X81892452Y-105392455D01*
X81806206Y-105507664D01*
X81806202Y-105507671D01*
X81755908Y-105642517D01*
X81749501Y-105702116D01*
X81749500Y-105702135D01*
X81749500Y-107497870D01*
X81749501Y-107497876D01*
X81755908Y-107557483D01*
X81806202Y-107692328D01*
X81806206Y-107692335D01*
X81892452Y-107807544D01*
X81892455Y-107807547D01*
X82007664Y-107893793D01*
X82007671Y-107893797D01*
X82142517Y-107944091D01*
X82142516Y-107944091D01*
X82149444Y-107944835D01*
X82202127Y-107950500D01*
X83997872Y-107950499D01*
X84057483Y-107944091D01*
X84192331Y-107893796D01*
X84251189Y-107849734D01*
X84316652Y-107825317D01*
X84384925Y-107840168D01*
X84434331Y-107889573D01*
X84449500Y-107949001D01*
X84449500Y-109325500D01*
X84429815Y-109392539D01*
X84377011Y-109438294D01*
X84325500Y-109449500D01*
X50674500Y-109449500D01*
X50607461Y-109429815D01*
X50561706Y-109377011D01*
X50550500Y-109325500D01*
X50550500Y-105569098D01*
X50570185Y-105502059D01*
X50622989Y-105456304D01*
X50692147Y-105446360D01*
X50755703Y-105475385D01*
X50762181Y-105481417D01*
X50838349Y-105557585D01*
X50838355Y-105557590D01*
X51725795Y-106445030D01*
X51759280Y-106506353D01*
X51758320Y-106563151D01*
X51713866Y-106738691D01*
X51713864Y-106738702D01*
X51694700Y-106969993D01*
X51694700Y-106970006D01*
X51713864Y-107201297D01*
X51713866Y-107201308D01*
X51770842Y-107426300D01*
X51864075Y-107638848D01*
X51991016Y-107833147D01*
X51991019Y-107833151D01*
X51991021Y-107833153D01*
X52148216Y-108003913D01*
X52148219Y-108003915D01*
X52148222Y-108003918D01*
X52331365Y-108146464D01*
X52331371Y-108146468D01*
X52331374Y-108146470D01*
X52535497Y-108256936D01*
X52649487Y-108296068D01*
X52755015Y-108332297D01*
X52755017Y-108332297D01*
X52755019Y-108332298D01*
X52983951Y-108370500D01*
X52983952Y-108370500D01*
X53216048Y-108370500D01*
X53216049Y-108370500D01*
X53444981Y-108332298D01*
X53664503Y-108256936D01*
X53868626Y-108146470D01*
X54051784Y-108003913D01*
X54208979Y-107833153D01*
X54335924Y-107638849D01*
X54429157Y-107426300D01*
X54486134Y-107201305D01*
X54505300Y-106970000D01*
X54505300Y-106969993D01*
X54486135Y-106738702D01*
X54486133Y-106738691D01*
X54429157Y-106513699D01*
X54335924Y-106301151D01*
X54208981Y-106106849D01*
X54113832Y-106003489D01*
X54082910Y-105940835D01*
X54090770Y-105871409D01*
X54134918Y-105817253D01*
X54161730Y-105803325D01*
X54242084Y-105773355D01*
X54242093Y-105773350D01*
X54357187Y-105687190D01*
X54357190Y-105687187D01*
X54443350Y-105572093D01*
X54443354Y-105572086D01*
X54493596Y-105437379D01*
X54493598Y-105437372D01*
X54499999Y-105377844D01*
X54500000Y-105377827D01*
X54500000Y-104680000D01*
X53475278Y-104680000D01*
X53519333Y-104603694D01*
X53550000Y-104489244D01*
X53550000Y-104370756D01*
X53519333Y-104256306D01*
X53475278Y-104180000D01*
X54500000Y-104180000D01*
X54500000Y-103482172D01*
X54499999Y-103482155D01*
X54493598Y-103422627D01*
X54493596Y-103422620D01*
X54443354Y-103287913D01*
X54443350Y-103287906D01*
X54357190Y-103172812D01*
X54357187Y-103172809D01*
X54242093Y-103086649D01*
X54242086Y-103086645D01*
X54107379Y-103036403D01*
X54107374Y-103036402D01*
X54100988Y-103035715D01*
X54036438Y-103008973D01*
X53996593Y-102951578D01*
X53994104Y-102881753D01*
X54029760Y-102821666D01*
X54038084Y-102814575D01*
X54051784Y-102803913D01*
X54208979Y-102633153D01*
X54335924Y-102438849D01*
X54429157Y-102226300D01*
X54486134Y-102001305D01*
X54487596Y-101983663D01*
X54505300Y-101770006D01*
X54505300Y-101769993D01*
X54486135Y-101538702D01*
X54486131Y-101538682D01*
X54441680Y-101363151D01*
X54444304Y-101293331D01*
X54474202Y-101245031D01*
X54858506Y-100860728D01*
X54858511Y-100860724D01*
X54868714Y-100850520D01*
X54868716Y-100850520D01*
X54980520Y-100738716D01*
X55041342Y-100633368D01*
X55059577Y-100601785D01*
X55100501Y-100449057D01*
X55100501Y-100290943D01*
X55100501Y-100283348D01*
X55100500Y-100283330D01*
X55100500Y-98189059D01*
X55100501Y-98189046D01*
X55100501Y-98020945D01*
X55100501Y-98020943D01*
X55059577Y-97868215D01*
X55023637Y-97805965D01*
X55017223Y-97794855D01*
X54980522Y-97731287D01*
X54980521Y-97731286D01*
X54980520Y-97731284D01*
X54868716Y-97619480D01*
X54868715Y-97619479D01*
X54864385Y-97615149D01*
X54864374Y-97615139D01*
X54424131Y-97174896D01*
X54390646Y-97113573D01*
X54388284Y-97076410D01*
X54405468Y-96880000D01*
X54385635Y-96653308D01*
X54328480Y-96440000D01*
X54326741Y-96433511D01*
X54326738Y-96433502D01*
X54230568Y-96227267D01*
X54230567Y-96227265D01*
X54214691Y-96204592D01*
X54100047Y-96040861D01*
X54100045Y-96040858D01*
X53939141Y-95879954D01*
X53752734Y-95749432D01*
X53752732Y-95749431D01*
X53546497Y-95653261D01*
X53546488Y-95653258D01*
X53326697Y-95594366D01*
X53326693Y-95594365D01*
X53326692Y-95594365D01*
X53326691Y-95594364D01*
X53326686Y-95594364D01*
X53100002Y-95574532D01*
X53099998Y-95574532D01*
X52873313Y-95594364D01*
X52873302Y-95594366D01*
X52653511Y-95653258D01*
X52653502Y-95653261D01*
X52447267Y-95749431D01*
X52447265Y-95749432D01*
X52260858Y-95879954D01*
X52099954Y-96040858D01*
X52026075Y-96146370D01*
X51971498Y-96189995D01*
X51902000Y-96197189D01*
X51839645Y-96165666D01*
X51804231Y-96105437D01*
X51800500Y-96075247D01*
X51800500Y-87524752D01*
X51820185Y-87457713D01*
X51872989Y-87411958D01*
X51942147Y-87402014D01*
X52005703Y-87431039D01*
X52026073Y-87453627D01*
X52032040Y-87462148D01*
X52099954Y-87559141D01*
X52260858Y-87720045D01*
X52260861Y-87720047D01*
X52447266Y-87850568D01*
X52653504Y-87946739D01*
X52653509Y-87946740D01*
X52653511Y-87946741D01*
X52706415Y-87960916D01*
X52873308Y-88005635D01*
X53035230Y-88019801D01*
X53099998Y-88025468D01*
X53100000Y-88025468D01*
X53100002Y-88025468D01*
X53156673Y-88020509D01*
X53326692Y-88005635D01*
X53546496Y-87946739D01*
X53752734Y-87850568D01*
X53939139Y-87720047D01*
X54100047Y-87559139D01*
X54230118Y-87373375D01*
X54284693Y-87329752D01*
X54331692Y-87320500D01*
X56193331Y-87320500D01*
X56193347Y-87320501D01*
X56237945Y-87320501D01*
X56304984Y-87340186D01*
X56350739Y-87392990D01*
X56360683Y-87462148D01*
X56350327Y-87496905D01*
X56333263Y-87533497D01*
X56333258Y-87533511D01*
X56274366Y-87753302D01*
X56274364Y-87753313D01*
X56254532Y-87979998D01*
X56254532Y-87980001D01*
X56274364Y-88206686D01*
X56274366Y-88206697D01*
X56333258Y-88426488D01*
X56333261Y-88426497D01*
X56429431Y-88632732D01*
X56429432Y-88632734D01*
X56559954Y-88819141D01*
X56720858Y-88980045D01*
X56720861Y-88980047D01*
X56907266Y-89110568D01*
X56965275Y-89137618D01*
X57017714Y-89183791D01*
X57036866Y-89250984D01*
X57016650Y-89317865D01*
X56965275Y-89362382D01*
X56907267Y-89389431D01*
X56907265Y-89389432D01*
X56720858Y-89519954D01*
X56559954Y-89680858D01*
X56429432Y-89867265D01*
X56429431Y-89867267D01*
X56333261Y-90073502D01*
X56333258Y-90073511D01*
X56274366Y-90293302D01*
X56274364Y-90293313D01*
X56254532Y-90519998D01*
X56254532Y-90520001D01*
X56274364Y-90746686D01*
X56274366Y-90746697D01*
X56333258Y-90966488D01*
X56333261Y-90966497D01*
X56429431Y-91172732D01*
X56429432Y-91172734D01*
X56559954Y-91359141D01*
X56720858Y-91520045D01*
X56720861Y-91520047D01*
X56907266Y-91650568D01*
X56965275Y-91677618D01*
X57017714Y-91723791D01*
X57036866Y-91790984D01*
X57016650Y-91857865D01*
X56965275Y-91902382D01*
X56907267Y-91929431D01*
X56907265Y-91929432D01*
X56720858Y-92059954D01*
X56559954Y-92220858D01*
X56429432Y-92407265D01*
X56429431Y-92407267D01*
X56333261Y-92613502D01*
X56333258Y-92613511D01*
X56274366Y-92833302D01*
X56274364Y-92833313D01*
X56254532Y-93059998D01*
X56254532Y-93060001D01*
X56274364Y-93286686D01*
X56274366Y-93286697D01*
X56333258Y-93506488D01*
X56333261Y-93506497D01*
X56429431Y-93712732D01*
X56429432Y-93712734D01*
X56559954Y-93899141D01*
X56720858Y-94060045D01*
X56720861Y-94060047D01*
X56907266Y-94190568D01*
X56965275Y-94217618D01*
X57017714Y-94263791D01*
X57036866Y-94330984D01*
X57016650Y-94397865D01*
X56965275Y-94442382D01*
X56907267Y-94469431D01*
X56907265Y-94469432D01*
X56720858Y-94599954D01*
X56559954Y-94760858D01*
X56429432Y-94947265D01*
X56429431Y-94947267D01*
X56333261Y-95153502D01*
X56333258Y-95153511D01*
X56274366Y-95373302D01*
X56274364Y-95373313D01*
X56254532Y-95599998D01*
X56254532Y-95600001D01*
X56274364Y-95826686D01*
X56274366Y-95826697D01*
X56333258Y-96046488D01*
X56333261Y-96046497D01*
X56429431Y-96252732D01*
X56429432Y-96252734D01*
X56559954Y-96439141D01*
X56720858Y-96600045D01*
X56720861Y-96600047D01*
X56907266Y-96730568D01*
X56965275Y-96757618D01*
X57017714Y-96803791D01*
X57036866Y-96870984D01*
X57016650Y-96937865D01*
X56965275Y-96982382D01*
X56907267Y-97009431D01*
X56907265Y-97009432D01*
X56720858Y-97139954D01*
X56559954Y-97300858D01*
X56429432Y-97487265D01*
X56429431Y-97487267D01*
X56333261Y-97693502D01*
X56333258Y-97693511D01*
X56274366Y-97913302D01*
X56274364Y-97913313D01*
X56254532Y-98139998D01*
X56254532Y-98140001D01*
X56274364Y-98366686D01*
X56274366Y-98366697D01*
X56333258Y-98586488D01*
X56333261Y-98586497D01*
X56429431Y-98792732D01*
X56429432Y-98792734D01*
X56559954Y-98979141D01*
X56720858Y-99140045D01*
X56720861Y-99140047D01*
X56907266Y-99270568D01*
X56947317Y-99289244D01*
X56965275Y-99297618D01*
X57017714Y-99343791D01*
X57036866Y-99410984D01*
X57016650Y-99477865D01*
X56965275Y-99522382D01*
X56907267Y-99549431D01*
X56907265Y-99549432D01*
X56720860Y-99679953D01*
X56559954Y-99840858D01*
X56429432Y-100027265D01*
X56429431Y-100027267D01*
X56333261Y-100233502D01*
X56333258Y-100233511D01*
X56274366Y-100453302D01*
X56274364Y-100453313D01*
X56254532Y-100679998D01*
X56254532Y-100680001D01*
X56274364Y-100906686D01*
X56274366Y-100906697D01*
X56333258Y-101126488D01*
X56333261Y-101126497D01*
X56429431Y-101332732D01*
X56429432Y-101332734D01*
X56559954Y-101519141D01*
X56720858Y-101680045D01*
X56720861Y-101680047D01*
X56907266Y-101810568D01*
X56965275Y-101837618D01*
X57017714Y-101883791D01*
X57036866Y-101950984D01*
X57016650Y-102017865D01*
X56965275Y-102062382D01*
X56907267Y-102089431D01*
X56907265Y-102089432D01*
X56720858Y-102219954D01*
X56559954Y-102380858D01*
X56429432Y-102567265D01*
X56429431Y-102567267D01*
X56333261Y-102773502D01*
X56333258Y-102773511D01*
X56274366Y-102993302D01*
X56274364Y-102993313D01*
X56254532Y-103219998D01*
X56254532Y-103220001D01*
X56274364Y-103446686D01*
X56274366Y-103446697D01*
X56333258Y-103666488D01*
X56333261Y-103666497D01*
X56429431Y-103872732D01*
X56429432Y-103872734D01*
X56559954Y-104059141D01*
X56720858Y-104220045D01*
X56720861Y-104220047D01*
X56907266Y-104350568D01*
X57113504Y-104446739D01*
X57333308Y-104505635D01*
X57495230Y-104519801D01*
X57559998Y-104525468D01*
X57560000Y-104525468D01*
X57560002Y-104525468D01*
X57616673Y-104520509D01*
X57786692Y-104505635D01*
X58006496Y-104446739D01*
X58212734Y-104350568D01*
X58399139Y-104220047D01*
X58560047Y-104059139D01*
X58690568Y-103872734D01*
X58786739Y-103666496D01*
X58845635Y-103446692D01*
X58865468Y-103220000D01*
X58845635Y-102993308D01*
X58819847Y-102897066D01*
X58821510Y-102827217D01*
X58851939Y-102777294D01*
X61078506Y-100550728D01*
X61078511Y-100550724D01*
X61088714Y-100540520D01*
X61088716Y-100540520D01*
X61200520Y-100428716D01*
X61268319Y-100311284D01*
X61279577Y-100291785D01*
X61320501Y-100139057D01*
X61320501Y-99980943D01*
X61320501Y-99973348D01*
X61320500Y-99973330D01*
X61320500Y-55789090D01*
X61340185Y-55722051D01*
X61392101Y-55676706D01*
X61397830Y-55674035D01*
X61591401Y-55538495D01*
X61758495Y-55371401D01*
X61888425Y-55185842D01*
X61943002Y-55142217D01*
X62012500Y-55135023D01*
X62074855Y-55166546D01*
G37*
%TD.AperFunction*%
%TA.AperFunction,Conductor*%
G36*
X56943578Y-50570185D02*
G01*
X56989333Y-50622989D01*
X56999277Y-50692147D01*
X56975805Y-50748811D01*
X56886649Y-50867906D01*
X56886645Y-50867913D01*
X56836403Y-51002620D01*
X56836401Y-51002627D01*
X56830000Y-51062155D01*
X56830000Y-51710000D01*
X57746988Y-51710000D01*
X57714075Y-51767007D01*
X57680000Y-51894174D01*
X57680000Y-52025826D01*
X57714075Y-52152993D01*
X57746988Y-52210000D01*
X56830000Y-52210000D01*
X56830000Y-52857844D01*
X56836401Y-52917372D01*
X56836403Y-52917379D01*
X56886645Y-53052086D01*
X56886649Y-53052093D01*
X56972809Y-53167187D01*
X56972812Y-53167190D01*
X57087906Y-53253350D01*
X57087913Y-53253354D01*
X57219986Y-53302614D01*
X57275920Y-53344485D01*
X57300337Y-53409949D01*
X57285486Y-53478222D01*
X57264335Y-53506477D01*
X57141886Y-53628926D01*
X57006400Y-53822420D01*
X57006399Y-53822422D01*
X56906570Y-54036507D01*
X56906567Y-54036513D01*
X56849364Y-54249999D01*
X56849364Y-54250000D01*
X57746988Y-54250000D01*
X57714075Y-54307007D01*
X57680000Y-54434174D01*
X57680000Y-54565826D01*
X57714075Y-54692993D01*
X57746988Y-54750000D01*
X56849364Y-54750000D01*
X56906567Y-54963486D01*
X56906570Y-54963492D01*
X57006399Y-55177578D01*
X57141894Y-55371082D01*
X57308917Y-55538105D01*
X57502421Y-55673600D01*
X57716507Y-55773429D01*
X57716516Y-55773433D01*
X57930000Y-55830634D01*
X57930000Y-54933012D01*
X57987007Y-54965925D01*
X58114174Y-55000000D01*
X58245826Y-55000000D01*
X58372993Y-54965925D01*
X58430000Y-54933012D01*
X58430000Y-55830633D01*
X58643483Y-55773433D01*
X58643492Y-55773429D01*
X58857578Y-55673600D01*
X59051082Y-55538105D01*
X59218105Y-55371082D01*
X59348119Y-55185405D01*
X59402696Y-55141781D01*
X59472195Y-55134588D01*
X59534549Y-55166110D01*
X59551269Y-55185405D01*
X59681505Y-55371401D01*
X59848599Y-55538495D01*
X59945384Y-55606265D01*
X60042165Y-55674032D01*
X60042167Y-55674033D01*
X60042170Y-55674035D01*
X60047898Y-55676706D01*
X60100339Y-55722872D01*
X60119500Y-55789090D01*
X60119500Y-59370435D01*
X60099815Y-59437474D01*
X60047011Y-59483229D01*
X60006731Y-59491991D01*
X60006919Y-59493655D01*
X59820750Y-59514630D01*
X59820745Y-59514631D01*
X59650476Y-59574211D01*
X59497737Y-59670184D01*
X59370184Y-59797737D01*
X59274211Y-59950476D01*
X59214631Y-60120745D01*
X59214630Y-60120750D01*
X59194435Y-60299996D01*
X59194435Y-60300003D01*
X59214630Y-60479249D01*
X59214631Y-60479254D01*
X59274211Y-60649523D01*
X59370185Y-60802263D01*
X59372445Y-60805097D01*
X59373334Y-60807275D01*
X59373889Y-60808158D01*
X59373734Y-60808255D01*
X59398855Y-60869783D01*
X59399500Y-60882412D01*
X59399500Y-62916936D01*
X59379815Y-62983975D01*
X59327011Y-63029730D01*
X59257853Y-63039674D01*
X59234547Y-63033978D01*
X59179260Y-63014633D01*
X59179249Y-63014630D01*
X59000004Y-62994435D01*
X58999996Y-62994435D01*
X58820750Y-63014630D01*
X58820745Y-63014631D01*
X58650476Y-63074211D01*
X58497737Y-63170184D01*
X58370184Y-63297737D01*
X58274211Y-63450476D01*
X58214631Y-63620745D01*
X58214630Y-63620750D01*
X58194435Y-63799996D01*
X58194435Y-63800003D01*
X58214630Y-63979249D01*
X58214631Y-63979254D01*
X58274211Y-64149523D01*
X58370185Y-64302263D01*
X58372445Y-64305097D01*
X58373334Y-64307275D01*
X58373889Y-64308158D01*
X58373734Y-64308255D01*
X58398855Y-64369783D01*
X58399500Y-64382412D01*
X58399500Y-66235500D01*
X58379815Y-66302539D01*
X58327011Y-66348294D01*
X58275500Y-66359500D01*
X56712129Y-66359500D01*
X56712123Y-66359501D01*
X56652516Y-66365908D01*
X56517671Y-66416202D01*
X56517664Y-66416206D01*
X56402455Y-66502452D01*
X56402452Y-66502455D01*
X56316206Y-66617664D01*
X56316202Y-66617671D01*
X56265908Y-66752517D01*
X56259501Y-66812116D01*
X56259500Y-66812135D01*
X56259500Y-68507870D01*
X56259501Y-68507876D01*
X56265908Y-68567483D01*
X56316202Y-68702328D01*
X56316206Y-68702335D01*
X56402452Y-68817544D01*
X56402455Y-68817547D01*
X56517664Y-68903793D01*
X56517671Y-68903797D01*
X56562618Y-68920561D01*
X56652517Y-68954091D01*
X56687596Y-68957862D01*
X56752144Y-68984599D01*
X56791993Y-69041991D01*
X56794488Y-69111816D01*
X56758836Y-69171905D01*
X56745464Y-69182725D01*
X56720858Y-69199954D01*
X56559954Y-69360858D01*
X56429432Y-69547265D01*
X56429431Y-69547267D01*
X56333261Y-69753502D01*
X56333258Y-69753511D01*
X56274366Y-69973302D01*
X56274364Y-69973313D01*
X56254532Y-70199998D01*
X56254532Y-70200001D01*
X56274364Y-70426686D01*
X56274366Y-70426697D01*
X56333258Y-70646488D01*
X56333261Y-70646497D01*
X56429431Y-70852732D01*
X56429432Y-70852734D01*
X56559954Y-71039141D01*
X56720858Y-71200045D01*
X56720861Y-71200047D01*
X56907266Y-71330568D01*
X56964681Y-71357341D01*
X56965275Y-71357618D01*
X57017714Y-71403791D01*
X57036866Y-71470984D01*
X57016650Y-71537865D01*
X56965275Y-71582382D01*
X56907267Y-71609431D01*
X56907265Y-71609432D01*
X56720858Y-71739954D01*
X56559954Y-71900858D01*
X56429432Y-72087265D01*
X56429431Y-72087267D01*
X56333261Y-72293502D01*
X56333258Y-72293511D01*
X56274366Y-72513302D01*
X56274364Y-72513313D01*
X56254532Y-72739998D01*
X56254532Y-72740001D01*
X56274364Y-72966686D01*
X56274366Y-72966697D01*
X56333258Y-73186488D01*
X56333261Y-73186497D01*
X56429431Y-73392732D01*
X56429432Y-73392734D01*
X56559954Y-73579141D01*
X56720858Y-73740045D01*
X56722943Y-73741505D01*
X56907266Y-73870568D01*
X56965865Y-73897893D01*
X57018305Y-73944065D01*
X57037457Y-74011258D01*
X57017242Y-74078139D01*
X56965867Y-74122657D01*
X56907515Y-74149867D01*
X56721179Y-74280342D01*
X56560342Y-74441179D01*
X56429865Y-74627517D01*
X56333734Y-74833673D01*
X56333730Y-74833682D01*
X56281127Y-75029999D01*
X56281128Y-75030000D01*
X57126988Y-75030000D01*
X57094075Y-75087007D01*
X57060000Y-75214174D01*
X57060000Y-75345826D01*
X57094075Y-75472993D01*
X57126988Y-75530000D01*
X56281128Y-75530000D01*
X56333730Y-75726317D01*
X56333734Y-75726326D01*
X56429865Y-75932482D01*
X56560342Y-76118820D01*
X56721179Y-76279657D01*
X56907518Y-76410134D01*
X56907520Y-76410135D01*
X56965865Y-76437342D01*
X57018305Y-76483514D01*
X57037457Y-76550707D01*
X57017242Y-76617589D01*
X56965867Y-76662105D01*
X56907268Y-76689431D01*
X56907264Y-76689433D01*
X56720858Y-76819954D01*
X56559954Y-76980858D01*
X56429432Y-77167265D01*
X56429431Y-77167267D01*
X56333261Y-77373502D01*
X56333258Y-77373511D01*
X56274366Y-77593302D01*
X56274364Y-77593313D01*
X56254532Y-77819998D01*
X56254532Y-77820002D01*
X56261780Y-77902848D01*
X56248013Y-77971348D01*
X56199398Y-78021531D01*
X56131369Y-78037464D01*
X56065526Y-78014089D01*
X56050571Y-78001336D01*
X56036819Y-77987584D01*
X56003334Y-77926261D01*
X56000500Y-77899903D01*
X56000500Y-76409060D01*
X56000501Y-76409047D01*
X56000501Y-76240944D01*
X56000501Y-76240943D01*
X55959577Y-76088216D01*
X55959573Y-76088209D01*
X55880524Y-75951290D01*
X55880518Y-75951282D01*
X55090554Y-75161318D01*
X54291940Y-74362705D01*
X54258456Y-74301383D01*
X54259847Y-74242931D01*
X54284784Y-74149867D01*
X54285635Y-74146692D01*
X54305468Y-73920000D01*
X54304470Y-73908597D01*
X54299133Y-73847590D01*
X54285635Y-73693308D01*
X54240916Y-73526415D01*
X54226741Y-73473511D01*
X54226738Y-73473502D01*
X54210676Y-73439057D01*
X54130568Y-73267266D01*
X54000047Y-73080861D01*
X54000045Y-73080858D01*
X53839141Y-72919954D01*
X53652734Y-72789432D01*
X53652732Y-72789431D01*
X53446497Y-72693261D01*
X53446488Y-72693258D01*
X53226697Y-72634366D01*
X53226693Y-72634365D01*
X53226692Y-72634365D01*
X53226691Y-72634364D01*
X53226686Y-72634364D01*
X53000002Y-72614532D01*
X52999998Y-72614532D01*
X52773313Y-72634364D01*
X52773302Y-72634366D01*
X52553511Y-72693258D01*
X52553502Y-72693261D01*
X52347267Y-72789431D01*
X52347265Y-72789432D01*
X52160858Y-72919954D01*
X51999954Y-73080858D01*
X51869432Y-73267265D01*
X51869431Y-73267267D01*
X51773261Y-73473502D01*
X51773258Y-73473511D01*
X51714366Y-73693302D01*
X51714364Y-73693313D01*
X51694532Y-73919998D01*
X51694532Y-73920001D01*
X51714364Y-74146686D01*
X51714366Y-74146697D01*
X51773258Y-74366488D01*
X51773261Y-74366497D01*
X51869431Y-74572732D01*
X51869432Y-74572734D01*
X51999954Y-74759141D01*
X52160858Y-74920045D01*
X52160861Y-74920047D01*
X52347266Y-75050568D01*
X52553504Y-75146739D01*
X52553509Y-75146740D01*
X52553511Y-75146741D01*
X52606415Y-75160916D01*
X52773308Y-75205635D01*
X52935230Y-75219801D01*
X52999998Y-75225468D01*
X53000000Y-75225468D01*
X53000002Y-75225468D01*
X53056673Y-75220509D01*
X53226692Y-75205635D01*
X53322932Y-75179847D01*
X53392781Y-75181510D01*
X53442706Y-75211941D01*
X54763181Y-76532416D01*
X54796666Y-76593739D01*
X54799500Y-76620097D01*
X54799500Y-78113330D01*
X54799499Y-78113348D01*
X54799499Y-78279054D01*
X54799498Y-78279054D01*
X54799499Y-78279057D01*
X54840423Y-78431785D01*
X54855433Y-78457782D01*
X54898131Y-78531738D01*
X54919479Y-78568715D01*
X55038349Y-78687585D01*
X55038355Y-78687590D01*
X56268058Y-79917293D01*
X56301543Y-79978616D01*
X56300152Y-80037067D01*
X56274366Y-80133302D01*
X56274364Y-80133313D01*
X56254532Y-80359998D01*
X56254532Y-80360001D01*
X56274364Y-80586686D01*
X56274366Y-80586697D01*
X56333258Y-80806488D01*
X56333261Y-80806497D01*
X56429431Y-81012732D01*
X56429432Y-81012734D01*
X56559954Y-81199141D01*
X56720858Y-81360045D01*
X56720861Y-81360047D01*
X56907266Y-81490568D01*
X56965275Y-81517618D01*
X57017714Y-81563791D01*
X57036866Y-81630984D01*
X57016650Y-81697865D01*
X56965275Y-81742382D01*
X56907267Y-81769431D01*
X56907265Y-81769432D01*
X56720858Y-81899954D01*
X56559954Y-82060858D01*
X56429432Y-82247265D01*
X56429431Y-82247267D01*
X56333261Y-82453502D01*
X56333258Y-82453511D01*
X56274366Y-82673302D01*
X56274364Y-82673313D01*
X56254532Y-82899998D01*
X56254532Y-82900001D01*
X56274364Y-83126686D01*
X56274366Y-83126697D01*
X56333258Y-83346488D01*
X56333261Y-83346497D01*
X56429431Y-83552732D01*
X56429432Y-83552734D01*
X56559954Y-83739141D01*
X56720858Y-83900045D01*
X56720861Y-83900047D01*
X56907266Y-84030568D01*
X56965275Y-84057618D01*
X57017714Y-84103791D01*
X57036866Y-84170984D01*
X57016650Y-84237865D01*
X56965275Y-84282382D01*
X56907267Y-84309431D01*
X56907265Y-84309432D01*
X56720858Y-84439954D01*
X56559954Y-84600858D01*
X56429432Y-84787265D01*
X56429431Y-84787267D01*
X56333261Y-84993502D01*
X56333258Y-84993511D01*
X56274366Y-85213302D01*
X56274364Y-85213313D01*
X56254532Y-85439998D01*
X56254532Y-85440001D01*
X56274364Y-85666686D01*
X56274366Y-85666697D01*
X56300152Y-85762931D01*
X56298489Y-85832781D01*
X56268058Y-85882705D01*
X56067582Y-86083182D01*
X56006262Y-86116666D01*
X55979903Y-86119500D01*
X54331692Y-86119500D01*
X54264653Y-86099815D01*
X54230119Y-86066625D01*
X54100047Y-85880861D01*
X54100045Y-85880858D01*
X53939141Y-85719954D01*
X53752734Y-85589432D01*
X53752732Y-85589431D01*
X53585146Y-85511284D01*
X53546496Y-85493261D01*
X53546495Y-85493260D01*
X53541589Y-85490973D01*
X53542112Y-85489851D01*
X53490722Y-85452009D01*
X53465790Y-85386739D01*
X53480104Y-85318351D01*
X53529119Y-85268558D01*
X53536987Y-85264541D01*
X53652734Y-85210568D01*
X53839139Y-85080047D01*
X54000047Y-84919139D01*
X54130568Y-84732734D01*
X54226739Y-84526496D01*
X54285635Y-84306692D01*
X54305468Y-84080000D01*
X54285635Y-83853308D01*
X54226739Y-83633504D01*
X54130568Y-83427266D01*
X54000047Y-83240861D01*
X54000045Y-83240858D01*
X53839141Y-83079954D01*
X53652734Y-82949432D01*
X53652732Y-82949431D01*
X53446497Y-82853261D01*
X53446488Y-82853258D01*
X53226697Y-82794366D01*
X53226693Y-82794365D01*
X53226692Y-82794365D01*
X53226691Y-82794364D01*
X53226686Y-82794364D01*
X53000002Y-82774532D01*
X52999998Y-82774532D01*
X52773313Y-82794364D01*
X52773302Y-82794366D01*
X52553511Y-82853258D01*
X52553502Y-82853261D01*
X52347267Y-82949431D01*
X52347265Y-82949432D01*
X52160858Y-83079954D01*
X51999954Y-83240858D01*
X51869432Y-83427265D01*
X51869431Y-83427267D01*
X51773261Y-83633502D01*
X51773258Y-83633511D01*
X51714366Y-83853302D01*
X51714364Y-83853313D01*
X51694532Y-84079998D01*
X51694532Y-84080001D01*
X51714364Y-84306686D01*
X51714366Y-84306697D01*
X51740152Y-84402931D01*
X51738489Y-84472781D01*
X51708058Y-84522705D01*
X50831286Y-85399478D01*
X50762181Y-85468583D01*
X50700858Y-85502068D01*
X50631166Y-85497084D01*
X50575233Y-85455212D01*
X50550816Y-85389748D01*
X50550500Y-85380902D01*
X50550500Y-50674500D01*
X50570185Y-50607461D01*
X50622989Y-50561706D01*
X50674500Y-50550500D01*
X56876539Y-50550500D01*
X56943578Y-50570185D01*
G37*
%TD.AperFunction*%
%TA.AperFunction,Conductor*%
G36*
X84392539Y-50570185D02*
G01*
X84438294Y-50622989D01*
X84449500Y-50674500D01*
X84449500Y-74496309D01*
X84429815Y-74563348D01*
X84377011Y-74609103D01*
X84307853Y-74619047D01*
X84244297Y-74590022D01*
X84206523Y-74531244D01*
X84205725Y-74528402D01*
X84148905Y-74316344D01*
X84148904Y-74316343D01*
X84148903Y-74316337D01*
X84049035Y-74102171D01*
X84009332Y-74045468D01*
X83913494Y-73908597D01*
X83746402Y-73741506D01*
X83746395Y-73741501D01*
X83744318Y-73740047D01*
X83677560Y-73693302D01*
X83552832Y-73605966D01*
X83522419Y-73591784D01*
X83338663Y-73506097D01*
X83338659Y-73506096D01*
X83338655Y-73506094D01*
X83110413Y-73444938D01*
X83110403Y-73444936D01*
X82875001Y-73424341D01*
X82874999Y-73424341D01*
X82639596Y-73444936D01*
X82639586Y-73444938D01*
X82411344Y-73506094D01*
X82411335Y-73506098D01*
X82197171Y-73605964D01*
X82197169Y-73605965D01*
X82003597Y-73741505D01*
X81836505Y-73908597D01*
X81700965Y-74102169D01*
X81700964Y-74102171D01*
X81601098Y-74316335D01*
X81601094Y-74316344D01*
X81539938Y-74544586D01*
X81539936Y-74544596D01*
X81519341Y-74779999D01*
X81519341Y-74780000D01*
X81539936Y-75015403D01*
X81539938Y-75015413D01*
X81574327Y-75143756D01*
X81572664Y-75213606D01*
X81542233Y-75263530D01*
X79931286Y-76874478D01*
X79819481Y-76986282D01*
X79819479Y-76986285D01*
X79786817Y-77042859D01*
X79786816Y-77042861D01*
X79740423Y-77123214D01*
X79740423Y-77123215D01*
X79699499Y-77275943D01*
X79699499Y-77275945D01*
X79699499Y-77444046D01*
X79699500Y-77444059D01*
X79699500Y-82899903D01*
X79679815Y-82966942D01*
X79663181Y-82987584D01*
X77847584Y-84803181D01*
X77786261Y-84836666D01*
X77759903Y-84839500D01*
X74031692Y-84839500D01*
X73964653Y-84819815D01*
X73930119Y-84786625D01*
X73800047Y-84600861D01*
X73800045Y-84600858D01*
X73639141Y-84439954D01*
X73452734Y-84309432D01*
X73452728Y-84309429D01*
X73394725Y-84282382D01*
X73342285Y-84236210D01*
X73323133Y-84169017D01*
X73343348Y-84102135D01*
X73394725Y-84057618D01*
X73452734Y-84030568D01*
X73639139Y-83900047D01*
X73800047Y-83739139D01*
X73930568Y-83552734D01*
X74026739Y-83346496D01*
X74085635Y-83126692D01*
X74105468Y-82900000D01*
X74085635Y-82673308D01*
X74026739Y-82453504D01*
X73930568Y-82247266D01*
X73800047Y-82060861D01*
X73800045Y-82060858D01*
X73639141Y-81899954D01*
X73452734Y-81769432D01*
X73452728Y-81769429D01*
X73394725Y-81742382D01*
X73342285Y-81696210D01*
X73323133Y-81629017D01*
X73343348Y-81562135D01*
X73394725Y-81517618D01*
X73452734Y-81490568D01*
X73639139Y-81360047D01*
X73800047Y-81199139D01*
X73930568Y-81012734D01*
X74026739Y-80806496D01*
X74085635Y-80586692D01*
X74105468Y-80360000D01*
X74085635Y-80133308D01*
X74026739Y-79913504D01*
X73930568Y-79707266D01*
X73800047Y-79520861D01*
X73800045Y-79520858D01*
X73639141Y-79359954D01*
X73452734Y-79229432D01*
X73452728Y-79229429D01*
X73394725Y-79202382D01*
X73342285Y-79156210D01*
X73323133Y-79089017D01*
X73343348Y-79022135D01*
X73394725Y-78977618D01*
X73452734Y-78950568D01*
X73639139Y-78820047D01*
X73800047Y-78659139D01*
X73930568Y-78472734D01*
X74026739Y-78266496D01*
X74085635Y-78046692D01*
X74105468Y-77820000D01*
X74085635Y-77593308D01*
X74026739Y-77373504D01*
X73930568Y-77167266D01*
X73800047Y-76980861D01*
X73800045Y-76980858D01*
X73639141Y-76819954D01*
X73452734Y-76689432D01*
X73452728Y-76689429D01*
X73394725Y-76662382D01*
X73342285Y-76616210D01*
X73323133Y-76549017D01*
X73343348Y-76482135D01*
X73394725Y-76437618D01*
X73395317Y-76437342D01*
X73452734Y-76410568D01*
X73639139Y-76280047D01*
X73800047Y-76119139D01*
X73930568Y-75932734D01*
X74026739Y-75726496D01*
X74085635Y-75506692D01*
X74105468Y-75280000D01*
X74085635Y-75053308D01*
X74026739Y-74833504D01*
X73930568Y-74627266D01*
X73800047Y-74440861D01*
X73800045Y-74440858D01*
X73639141Y-74279954D01*
X73452734Y-74149432D01*
X73452728Y-74149429D01*
X73394725Y-74122382D01*
X73342285Y-74076210D01*
X73323133Y-74009017D01*
X73343348Y-73942135D01*
X73394725Y-73897618D01*
X73452734Y-73870568D01*
X73639139Y-73740047D01*
X73800047Y-73579139D01*
X73930568Y-73392734D01*
X74026739Y-73186496D01*
X74085635Y-72966692D01*
X74105468Y-72740000D01*
X74085635Y-72513308D01*
X74026739Y-72293504D01*
X73930568Y-72087266D01*
X73800047Y-71900861D01*
X73800045Y-71900858D01*
X73639141Y-71739954D01*
X73452734Y-71609432D01*
X73452732Y-71609431D01*
X73394725Y-71582382D01*
X73394132Y-71582105D01*
X73341694Y-71535934D01*
X73322542Y-71468740D01*
X73342758Y-71401859D01*
X73394134Y-71357341D01*
X73452484Y-71330132D01*
X73638820Y-71199657D01*
X73799657Y-71038820D01*
X73930134Y-70852482D01*
X74026265Y-70646326D01*
X74026269Y-70646317D01*
X74078872Y-70450000D01*
X73233012Y-70450000D01*
X73265925Y-70392993D01*
X73300000Y-70265826D01*
X73300000Y-70134174D01*
X73265925Y-70007007D01*
X73233012Y-69950000D01*
X74078872Y-69950000D01*
X74078872Y-69949999D01*
X74026269Y-69753682D01*
X74026265Y-69753673D01*
X73930134Y-69547517D01*
X73799657Y-69361179D01*
X73638820Y-69200342D01*
X73452482Y-69069865D01*
X73394133Y-69042657D01*
X73341694Y-68996484D01*
X73322542Y-68929291D01*
X73342758Y-68862410D01*
X73394129Y-68817895D01*
X73452734Y-68790568D01*
X73639139Y-68660047D01*
X73800047Y-68499139D01*
X73930568Y-68312734D01*
X74026739Y-68106496D01*
X74085635Y-67886692D01*
X74105468Y-67660000D01*
X74085635Y-67433308D01*
X74026739Y-67213504D01*
X73930568Y-67007266D01*
X73800047Y-66820861D01*
X73800045Y-66820858D01*
X73639140Y-66659953D01*
X73453377Y-66529881D01*
X73409752Y-66475304D01*
X73400500Y-66428306D01*
X73400500Y-65800097D01*
X73420185Y-65733058D01*
X73436819Y-65712416D01*
X78312416Y-60836819D01*
X78373739Y-60803334D01*
X78400097Y-60800500D01*
X79982465Y-60800500D01*
X80049504Y-60820185D01*
X80095259Y-60872989D01*
X80105823Y-60911898D01*
X80110001Y-60952797D01*
X80110001Y-60952799D01*
X80165185Y-61119331D01*
X80165187Y-61119336D01*
X80257289Y-61268657D01*
X80381344Y-61392712D01*
X80536558Y-61488448D01*
X80583283Y-61540396D01*
X80594506Y-61609358D01*
X80566663Y-61673441D01*
X80559144Y-61681668D01*
X80420271Y-61820541D01*
X80295379Y-61992442D01*
X80198904Y-62181782D01*
X80133242Y-62383870D01*
X80133242Y-62383873D01*
X80122769Y-62450000D01*
X81166988Y-62450000D01*
X81134075Y-62507007D01*
X81100000Y-62634174D01*
X81100000Y-62765826D01*
X81134075Y-62892993D01*
X81166988Y-62950000D01*
X80122769Y-62950000D01*
X80133242Y-63016126D01*
X80133242Y-63016129D01*
X80198904Y-63218217D01*
X80295379Y-63407557D01*
X80420272Y-63579459D01*
X80420276Y-63579464D01*
X80570535Y-63729723D01*
X80570540Y-63729727D01*
X80742442Y-63854620D01*
X80931782Y-63951095D01*
X81133870Y-64016757D01*
X81343754Y-64050000D01*
X81350000Y-64050000D01*
X81350000Y-63133012D01*
X81407007Y-63165925D01*
X81534174Y-63200000D01*
X81665826Y-63200000D01*
X81792993Y-63165925D01*
X81850000Y-63133012D01*
X81850000Y-64050000D01*
X81856246Y-64050000D01*
X82066127Y-64016757D01*
X82066130Y-64016757D01*
X82268217Y-63951095D01*
X82457557Y-63854620D01*
X82629459Y-63729727D01*
X82629464Y-63729723D01*
X82779723Y-63579464D01*
X82779727Y-63579459D01*
X82904620Y-63407557D01*
X83001095Y-63218217D01*
X83066757Y-63016129D01*
X83066757Y-63016126D01*
X83077231Y-62950000D01*
X82033012Y-62950000D01*
X82065925Y-62892993D01*
X82100000Y-62765826D01*
X82100000Y-62634174D01*
X82065925Y-62507007D01*
X82033012Y-62450000D01*
X83077231Y-62450000D01*
X83066757Y-62383873D01*
X83066757Y-62383870D01*
X83001095Y-62181782D01*
X82904620Y-61992442D01*
X82779727Y-61820540D01*
X82779723Y-61820535D01*
X82640856Y-61681668D01*
X82607371Y-61620345D01*
X82612355Y-61550653D01*
X82654227Y-61494720D01*
X82663441Y-61488448D01*
X82669331Y-61484814D01*
X82669334Y-61484814D01*
X82818656Y-61392712D01*
X82942712Y-61268656D01*
X83034814Y-61119334D01*
X83089999Y-60952797D01*
X83100500Y-60850009D01*
X83100499Y-59549992D01*
X83089999Y-59447203D01*
X83034814Y-59280666D01*
X82942712Y-59131344D01*
X82818656Y-59007288D01*
X82669334Y-58915186D01*
X82502797Y-58860001D01*
X82502795Y-58860000D01*
X82400010Y-58849500D01*
X80799998Y-58849500D01*
X80799981Y-58849501D01*
X80697203Y-58860000D01*
X80697200Y-58860001D01*
X80530668Y-58915185D01*
X80530663Y-58915187D01*
X80381342Y-59007289D01*
X80257289Y-59131342D01*
X80165187Y-59280663D01*
X80165185Y-59280668D01*
X80110001Y-59447204D01*
X80110000Y-59447205D01*
X80105823Y-59488102D01*
X80079427Y-59552793D01*
X80022247Y-59592945D01*
X79982465Y-59599500D01*
X78186669Y-59599500D01*
X78186653Y-59599499D01*
X78179057Y-59599499D01*
X78020943Y-59599499D01*
X77913587Y-59628265D01*
X77868210Y-59640424D01*
X77868209Y-59640425D01*
X77818096Y-59669359D01*
X77818095Y-59669360D01*
X77816668Y-59670184D01*
X77731285Y-59719479D01*
X77731282Y-59719481D01*
X72319481Y-65131282D01*
X72319479Y-65131285D01*
X72269361Y-65218094D01*
X72269359Y-65218096D01*
X72240425Y-65268209D01*
X72240424Y-65268210D01*
X72240423Y-65268215D01*
X72199499Y-65420943D01*
X72199499Y-65420945D01*
X72199499Y-65589046D01*
X72199500Y-65589059D01*
X72199500Y-66428306D01*
X72179815Y-66495345D01*
X72146623Y-66529881D01*
X71960859Y-66659953D01*
X71799954Y-66820858D01*
X71706075Y-66954934D01*
X71651499Y-66998559D01*
X71582000Y-67005753D01*
X71519645Y-66974231D01*
X71484231Y-66914001D01*
X71480500Y-66883811D01*
X71480500Y-55789090D01*
X71500185Y-55722051D01*
X71552101Y-55676706D01*
X71557830Y-55674035D01*
X71751401Y-55538495D01*
X71918495Y-55371401D01*
X72048425Y-55185842D01*
X72103002Y-55142217D01*
X72172500Y-55135023D01*
X72234855Y-55166546D01*
X72251575Y-55185842D01*
X72381281Y-55371082D01*
X72381505Y-55371401D01*
X72548599Y-55538495D01*
X72645384Y-55606265D01*
X72742165Y-55674032D01*
X72742167Y-55674033D01*
X72742170Y-55674035D01*
X72956337Y-55773903D01*
X73184592Y-55835063D01*
X73372918Y-55851539D01*
X73419999Y-55855659D01*
X73420000Y-55855659D01*
X73420001Y-55855659D01*
X73459234Y-55852226D01*
X73655408Y-55835063D01*
X73883663Y-55773903D01*
X74097830Y-55674035D01*
X74291401Y-55538495D01*
X74458495Y-55371401D01*
X74588730Y-55185405D01*
X74643307Y-55141781D01*
X74712805Y-55134587D01*
X74775160Y-55166110D01*
X74791879Y-55185405D01*
X74921890Y-55371078D01*
X75088917Y-55538105D01*
X75282421Y-55673600D01*
X75496507Y-55773429D01*
X75496516Y-55773433D01*
X75710000Y-55830634D01*
X75710000Y-54933012D01*
X75767007Y-54965925D01*
X75894174Y-55000000D01*
X76025826Y-55000000D01*
X76152993Y-54965925D01*
X76210000Y-54933012D01*
X76210000Y-55830633D01*
X76423483Y-55773433D01*
X76423492Y-55773429D01*
X76637578Y-55673600D01*
X76831082Y-55538105D01*
X76998105Y-55371082D01*
X77133600Y-55177578D01*
X77233429Y-54963492D01*
X77233432Y-54963486D01*
X77290636Y-54750000D01*
X76393012Y-54750000D01*
X76425925Y-54692993D01*
X76460000Y-54565826D01*
X76460000Y-54434174D01*
X76425925Y-54307007D01*
X76393012Y-54250000D01*
X77290636Y-54250000D01*
X77290635Y-54249999D01*
X77233432Y-54036513D01*
X77233429Y-54036507D01*
X77133600Y-53822422D01*
X77133599Y-53822420D01*
X76998113Y-53628926D01*
X76998108Y-53628920D01*
X76831082Y-53461894D01*
X76644968Y-53331575D01*
X76601344Y-53276998D01*
X76594151Y-53207499D01*
X76625673Y-53145145D01*
X76644968Y-53128425D01*
X76831082Y-52998105D01*
X76998105Y-52831082D01*
X77133600Y-52637578D01*
X77233429Y-52423492D01*
X77233432Y-52423486D01*
X77290636Y-52210000D01*
X76393012Y-52210000D01*
X76425925Y-52152993D01*
X76460000Y-52025826D01*
X76460000Y-51894174D01*
X76425925Y-51767007D01*
X76393012Y-51710000D01*
X77290636Y-51710000D01*
X77290635Y-51709999D01*
X77233432Y-51496513D01*
X77233429Y-51496507D01*
X77133600Y-51282422D01*
X77133599Y-51282420D01*
X76998113Y-51088926D01*
X76998108Y-51088920D01*
X76831082Y-50921894D01*
X76637577Y-50786399D01*
X76632893Y-50783695D01*
X76633600Y-50782468D01*
X76586173Y-50740710D01*
X76567021Y-50673517D01*
X76587237Y-50606635D01*
X76640402Y-50561301D01*
X76691017Y-50550500D01*
X84325500Y-50550500D01*
X84392539Y-50570185D01*
G37*
%TD.AperFunction*%
%TA.AperFunction,Conductor*%
G36*
X58430000Y-54066988D02*
G01*
X58372993Y-54034075D01*
X58245826Y-54000000D01*
X58114174Y-54000000D01*
X57987007Y-54034075D01*
X57930000Y-54066988D01*
X57930000Y-52393012D01*
X57987007Y-52425925D01*
X58114174Y-52460000D01*
X58245826Y-52460000D01*
X58372993Y-52425925D01*
X58430000Y-52393012D01*
X58430000Y-54066988D01*
G37*
%TD.AperFunction*%
%TA.AperFunction,Conductor*%
G36*
X76210000Y-54066988D02*
G01*
X76152993Y-54034075D01*
X76025826Y-54000000D01*
X75894174Y-54000000D01*
X75767007Y-54034075D01*
X75710000Y-54066988D01*
X75710000Y-52393012D01*
X75767007Y-52425925D01*
X75894174Y-52460000D01*
X76025826Y-52460000D01*
X76152993Y-52425925D01*
X76210000Y-52393012D01*
X76210000Y-54066988D01*
G37*
%TD.AperFunction*%
%TD*%
M02*
