M48
; DRILL file {KiCad 8.0.8} date 2025-01-20T03:53:35+0100
; FORMAT={-:-/ absolute / inch / decimal}
; #@! TF.CreationDate,2025-01-20T03:53:35+01:00
; #@! TF.GenerationSoftware,Kicad,Pcbnew,8.0.8
; #@! TF.FileFunction,Plated,1,2,PTH
FMAT,2
INCH
; #@! TA.AperFunction,Plated,PTH,ViaDrill
T1C0.0118
; #@! TA.AperFunction,Plated,PTH,ComponentDrill
T2C0.0315
; #@! TA.AperFunction,Plated,PTH,ComponentDrill
T3C0.0354
; #@! TA.AperFunction,Plated,PTH,ComponentDrill
T4C0.0394
%
G90
G05
T1
X2.3228Y-2.5118
X2.3622Y-2.374
T2
X2.0866Y-2.9102
X2.0866Y-3.3102
X2.0906Y-3.4142
X2.0906Y-3.8142
T3
X2.0906Y-3.9067
X2.0906Y-4.0067
X2.0906Y-4.1114
X2.0906Y-4.2114
T4
X2.2661Y-2.6638
X2.2661Y-2.7638
X2.2661Y-2.8638
X2.2661Y-2.9638
X2.2661Y-3.0638
X2.2661Y-3.1638
X2.2661Y-3.2638
X2.2661Y-3.3638
X2.2661Y-3.4638
X2.2661Y-3.5638
X2.2661Y-3.6638
X2.2661Y-3.7638
X2.2661Y-3.8638
X2.2661Y-3.9638
X2.2661Y-4.0638
X2.2906Y-2.0457
X2.2906Y-2.1457
X2.3906Y-2.0457
X2.3906Y-2.1457
X2.4906Y-2.0457
X2.4906Y-2.1457
X2.5906Y-2.0457
X2.5906Y-2.1457
X2.6906Y-2.0457
X2.6906Y-2.1457
X2.7906Y-2.0457
X2.7906Y-2.1457
X2.8661Y-2.6638
X2.8661Y-2.7638
X2.8661Y-2.8638
X2.8661Y-2.9638
X2.8661Y-3.0638
X2.8661Y-3.1638
X2.8661Y-3.2638
X2.8661Y-3.3638
X2.8661Y-3.4638
X2.8661Y-3.5638
X2.8661Y-3.6638
X2.8661Y-3.7638
X2.8661Y-3.8638
X2.8661Y-3.9638
X2.8661Y-4.0638
X2.8906Y-2.0457
X2.8906Y-2.1457
X2.9906Y-2.0457
X2.9906Y-2.1457
X3.2126Y-2.3701
X3.2126Y-2.4685
X3.2628Y-2.9441
X3.2628Y-3.0441
X3.2628Y-3.1441
X3.2628Y-3.2441
X3.2717Y-3.4969
X3.2717Y-3.5969
X3.2717Y-3.6969
X3.2717Y-3.7969
X3.2717Y-3.8969
X3.2717Y-3.9969
X3.2717Y-4.0969
X3.2717Y-4.1969
M30
