%TF.GenerationSoftware,KiCad,Pcbnew,8.0.8*%
%TF.CreationDate,2025-01-20T03:53:38+01:00*%
%TF.ProjectId,NANO_MPU_SD_2Layers,4e414e4f-5f4d-4505-955f-53445f324c61,rev?*%
%TF.SameCoordinates,Original*%
%TF.FileFunction,Drillmap*%
%TF.FilePolarity,Positive*%
%FSLAX45Y45*%
G04 Gerber Fmt 4.5, Leading zero omitted, Abs format (unit mm)*
G04 Created by KiCad (PCBNEW 8.0.8) date 2025-01-20 03:53:38*
%MOMM*%
%LPD*%
G01*
G04 APERTURE LIST*
%ADD10C,0.050000*%
%ADD11C,0.200000*%
%ADD12C,0.100000*%
G04 APERTURE END LIST*
D10*
X5000000Y-5000000D02*
X8500000Y-5000000D01*
X8500000Y-11000000D01*
X5000000Y-11000000D01*
X5000000Y-5000000D01*
D11*
D12*
X5885000Y-6365000D02*
X5915000Y-6395000D01*
X5915000Y-6365000D02*
X5885000Y-6395000D01*
X5985000Y-6015000D02*
X6015000Y-6045000D01*
X6015000Y-6015000D02*
X5985000Y-6045000D01*
X5340000Y-7392000D02*
G75*
G02*
X5260000Y-7392000I-40000J0D01*
G01*
X5260000Y-7392000D02*
G75*
G02*
X5340000Y-7392000I40000J0D01*
G01*
X5340000Y-8408000D02*
G75*
G02*
X5260000Y-8408000I-40000J0D01*
G01*
X5260000Y-8408000D02*
G75*
G02*
X5340000Y-8408000I40000J0D01*
G01*
X5350000Y-8672000D02*
G75*
G02*
X5270000Y-8672000I-40000J0D01*
G01*
X5270000Y-8672000D02*
G75*
G02*
X5350000Y-8672000I40000J0D01*
G01*
X5350000Y-9688000D02*
G75*
G02*
X5270000Y-9688000I-40000J0D01*
G01*
X5270000Y-9688000D02*
G75*
G02*
X5350000Y-9688000I40000J0D01*
G01*
X5310000Y-9878000D02*
X5310000Y-9968000D01*
X5265000Y-9923000D02*
X5355000Y-9923000D01*
X5310000Y-10132000D02*
X5310000Y-10222000D01*
X5265000Y-10177000D02*
X5355000Y-10177000D01*
X5310000Y-10398000D02*
X5310000Y-10488000D01*
X5265000Y-10443000D02*
X5355000Y-10443000D01*
X5310000Y-10652000D02*
X5310000Y-10742000D01*
X5265000Y-10697000D02*
X5355000Y-10697000D01*
X5791356Y-6801356D02*
X5791356Y-6730644D01*
X5720644Y-6730644D01*
X5720644Y-6801356D01*
X5791356Y-6801356D01*
X5791356Y-7055356D02*
X5791356Y-6984644D01*
X5720644Y-6984644D01*
X5720644Y-7055356D01*
X5791356Y-7055356D01*
X5791356Y-7309356D02*
X5791356Y-7238644D01*
X5720644Y-7238644D01*
X5720644Y-7309356D01*
X5791356Y-7309356D01*
X5791356Y-7563356D02*
X5791356Y-7492644D01*
X5720644Y-7492644D01*
X5720644Y-7563356D01*
X5791356Y-7563356D01*
X5791356Y-7817356D02*
X5791356Y-7746644D01*
X5720644Y-7746644D01*
X5720644Y-7817356D01*
X5791356Y-7817356D01*
X5791356Y-8071356D02*
X5791356Y-8000644D01*
X5720644Y-8000644D01*
X5720644Y-8071356D01*
X5791356Y-8071356D01*
X5791356Y-8325356D02*
X5791356Y-8254644D01*
X5720644Y-8254644D01*
X5720644Y-8325356D01*
X5791356Y-8325356D01*
X5791356Y-8579356D02*
X5791356Y-8508644D01*
X5720644Y-8508644D01*
X5720644Y-8579356D01*
X5791356Y-8579356D01*
X5791356Y-8833356D02*
X5791356Y-8762644D01*
X5720644Y-8762644D01*
X5720644Y-8833356D01*
X5791356Y-8833356D01*
X5791356Y-9087356D02*
X5791356Y-9016644D01*
X5720644Y-9016644D01*
X5720644Y-9087356D01*
X5791356Y-9087356D01*
X5791356Y-9341356D02*
X5791356Y-9270644D01*
X5720644Y-9270644D01*
X5720644Y-9341356D01*
X5791356Y-9341356D01*
X5791356Y-9595356D02*
X5791356Y-9524644D01*
X5720644Y-9524644D01*
X5720644Y-9595356D01*
X5791356Y-9595356D01*
X5791356Y-9849356D02*
X5791356Y-9778644D01*
X5720644Y-9778644D01*
X5720644Y-9849356D01*
X5791356Y-9849356D01*
X5791356Y-10103356D02*
X5791356Y-10032644D01*
X5720644Y-10032644D01*
X5720644Y-10103356D01*
X5791356Y-10103356D01*
X5791356Y-10357356D02*
X5791356Y-10286644D01*
X5720644Y-10286644D01*
X5720644Y-10357356D01*
X5791356Y-10357356D01*
X5853356Y-5231356D02*
X5853356Y-5160644D01*
X5782644Y-5160644D01*
X5782644Y-5231356D01*
X5853356Y-5231356D01*
X5853356Y-5485356D02*
X5853356Y-5414644D01*
X5782644Y-5414644D01*
X5782644Y-5485356D01*
X5853356Y-5485356D01*
X6107356Y-5231356D02*
X6107356Y-5160644D01*
X6036644Y-5160644D01*
X6036644Y-5231356D01*
X6107356Y-5231356D01*
X6107356Y-5485356D02*
X6107356Y-5414644D01*
X6036644Y-5414644D01*
X6036644Y-5485356D01*
X6107356Y-5485356D01*
X6361356Y-5231356D02*
X6361356Y-5160644D01*
X6290644Y-5160644D01*
X6290644Y-5231356D01*
X6361356Y-5231356D01*
X6361356Y-5485356D02*
X6361356Y-5414644D01*
X6290644Y-5414644D01*
X6290644Y-5485356D01*
X6361356Y-5485356D01*
X6615356Y-5231356D02*
X6615356Y-5160644D01*
X6544644Y-5160644D01*
X6544644Y-5231356D01*
X6615356Y-5231356D01*
X6615356Y-5485356D02*
X6615356Y-5414644D01*
X6544644Y-5414644D01*
X6544644Y-5485356D01*
X6615356Y-5485356D01*
X6869356Y-5231356D02*
X6869356Y-5160644D01*
X6798644Y-5160644D01*
X6798644Y-5231356D01*
X6869356Y-5231356D01*
X6869356Y-5485356D02*
X6869356Y-5414644D01*
X6798644Y-5414644D01*
X6798644Y-5485356D01*
X6869356Y-5485356D01*
X7123356Y-5231356D02*
X7123356Y-5160644D01*
X7052644Y-5160644D01*
X7052644Y-5231356D01*
X7123356Y-5231356D01*
X7123356Y-5485356D02*
X7123356Y-5414644D01*
X7052644Y-5414644D01*
X7052644Y-5485356D01*
X7123356Y-5485356D01*
X7315356Y-6801356D02*
X7315356Y-6730644D01*
X7244644Y-6730644D01*
X7244644Y-6801356D01*
X7315356Y-6801356D01*
X7315356Y-7055356D02*
X7315356Y-6984644D01*
X7244644Y-6984644D01*
X7244644Y-7055356D01*
X7315356Y-7055356D01*
X7315356Y-7309356D02*
X7315356Y-7238644D01*
X7244644Y-7238644D01*
X7244644Y-7309356D01*
X7315356Y-7309356D01*
X7315356Y-7563356D02*
X7315356Y-7492644D01*
X7244644Y-7492644D01*
X7244644Y-7563356D01*
X7315356Y-7563356D01*
X7315356Y-7817356D02*
X7315356Y-7746644D01*
X7244644Y-7746644D01*
X7244644Y-7817356D01*
X7315356Y-7817356D01*
X7315356Y-8071356D02*
X7315356Y-8000644D01*
X7244644Y-8000644D01*
X7244644Y-8071356D01*
X7315356Y-8071356D01*
X7315356Y-8325356D02*
X7315356Y-8254644D01*
X7244644Y-8254644D01*
X7244644Y-8325356D01*
X7315356Y-8325356D01*
X7315356Y-8579356D02*
X7315356Y-8508644D01*
X7244644Y-8508644D01*
X7244644Y-8579356D01*
X7315356Y-8579356D01*
X7315356Y-8833356D02*
X7315356Y-8762644D01*
X7244644Y-8762644D01*
X7244644Y-8833356D01*
X7315356Y-8833356D01*
X7315356Y-9087356D02*
X7315356Y-9016644D01*
X7244644Y-9016644D01*
X7244644Y-9087356D01*
X7315356Y-9087356D01*
X7315356Y-9341356D02*
X7315356Y-9270644D01*
X7244644Y-9270644D01*
X7244644Y-9341356D01*
X7315356Y-9341356D01*
X7315356Y-9595356D02*
X7315356Y-9524644D01*
X7244644Y-9524644D01*
X7244644Y-9595356D01*
X7315356Y-9595356D01*
X7315356Y-9849356D02*
X7315356Y-9778644D01*
X7244644Y-9778644D01*
X7244644Y-9849356D01*
X7315356Y-9849356D01*
X7315356Y-10103356D02*
X7315356Y-10032644D01*
X7244644Y-10032644D01*
X7244644Y-10103356D01*
X7315356Y-10103356D01*
X7315356Y-10357356D02*
X7315356Y-10286644D01*
X7244644Y-10286644D01*
X7244644Y-10357356D01*
X7315356Y-10357356D01*
X7377356Y-5231356D02*
X7377356Y-5160644D01*
X7306644Y-5160644D01*
X7306644Y-5231356D01*
X7377356Y-5231356D01*
X7377356Y-5485356D02*
X7377356Y-5414644D01*
X7306644Y-5414644D01*
X7306644Y-5485356D01*
X7377356Y-5485356D01*
X7631356Y-5231356D02*
X7631356Y-5160644D01*
X7560644Y-5160644D01*
X7560644Y-5231356D01*
X7631356Y-5231356D01*
X7631356Y-5485356D02*
X7631356Y-5414644D01*
X7560644Y-5414644D01*
X7560644Y-5485356D01*
X7631356Y-5485356D01*
X8195356Y-6055356D02*
X8195356Y-5984644D01*
X8124644Y-5984644D01*
X8124644Y-6055356D01*
X8195356Y-6055356D01*
X8195356Y-6305356D02*
X8195356Y-6234644D01*
X8124644Y-6234644D01*
X8124644Y-6305356D01*
X8195356Y-6305356D01*
X8322856Y-7513356D02*
X8322856Y-7442644D01*
X8252144Y-7442644D01*
X8252144Y-7513356D01*
X8322856Y-7513356D01*
X8322856Y-7767356D02*
X8322856Y-7696644D01*
X8252144Y-7696644D01*
X8252144Y-7767356D01*
X8322856Y-7767356D01*
X8322856Y-8021356D02*
X8322856Y-7950644D01*
X8252144Y-7950644D01*
X8252144Y-8021356D01*
X8322856Y-8021356D01*
X8322856Y-8275356D02*
X8322856Y-8204644D01*
X8252144Y-8204644D01*
X8252144Y-8275356D01*
X8322856Y-8275356D01*
X8345356Y-8917356D02*
X8345356Y-8846644D01*
X8274644Y-8846644D01*
X8274644Y-8917356D01*
X8345356Y-8917356D01*
X8345356Y-9171356D02*
X8345356Y-9100644D01*
X8274644Y-9100644D01*
X8274644Y-9171356D01*
X8345356Y-9171356D01*
X8345356Y-9425356D02*
X8345356Y-9354644D01*
X8274644Y-9354644D01*
X8274644Y-9425356D01*
X8345356Y-9425356D01*
X8345356Y-9679356D02*
X8345356Y-9608644D01*
X8274644Y-9608644D01*
X8274644Y-9679356D01*
X8345356Y-9679356D01*
X8345356Y-9933356D02*
X8345356Y-9862644D01*
X8274644Y-9862644D01*
X8274644Y-9933356D01*
X8345356Y-9933356D01*
X8345356Y-10187356D02*
X8345356Y-10116644D01*
X8274644Y-10116644D01*
X8274644Y-10187356D01*
X8345356Y-10187356D01*
X8345356Y-10441356D02*
X8345356Y-10370644D01*
X8274644Y-10370644D01*
X8274644Y-10441356D01*
X8345356Y-10441356D01*
X8345356Y-10695356D02*
X8345356Y-10624644D01*
X8274644Y-10624644D01*
X8274644Y-10695356D01*
X8345356Y-10695356D01*
D11*
X5258277Y-11313984D02*
X5258277Y-11113984D01*
X5258277Y-11113984D02*
X5305896Y-11113984D01*
X5305896Y-11113984D02*
X5334467Y-11123508D01*
X5334467Y-11123508D02*
X5353515Y-11142555D01*
X5353515Y-11142555D02*
X5363039Y-11161603D01*
X5363039Y-11161603D02*
X5372563Y-11199698D01*
X5372563Y-11199698D02*
X5372563Y-11228269D01*
X5372563Y-11228269D02*
X5363039Y-11266365D01*
X5363039Y-11266365D02*
X5353515Y-11285412D01*
X5353515Y-11285412D02*
X5334467Y-11304460D01*
X5334467Y-11304460D02*
X5305896Y-11313984D01*
X5305896Y-11313984D02*
X5258277Y-11313984D01*
X5458277Y-11313984D02*
X5458277Y-11180650D01*
X5458277Y-11218746D02*
X5467801Y-11199698D01*
X5467801Y-11199698D02*
X5477324Y-11190174D01*
X5477324Y-11190174D02*
X5496372Y-11180650D01*
X5496372Y-11180650D02*
X5515420Y-11180650D01*
X5582086Y-11313984D02*
X5582086Y-11180650D01*
X5582086Y-11113984D02*
X5572563Y-11123508D01*
X5572563Y-11123508D02*
X5582086Y-11133031D01*
X5582086Y-11133031D02*
X5591610Y-11123508D01*
X5591610Y-11123508D02*
X5582086Y-11113984D01*
X5582086Y-11113984D02*
X5582086Y-11133031D01*
X5705896Y-11313984D02*
X5686848Y-11304460D01*
X5686848Y-11304460D02*
X5677324Y-11285412D01*
X5677324Y-11285412D02*
X5677324Y-11113984D01*
X5810658Y-11313984D02*
X5791610Y-11304460D01*
X5791610Y-11304460D02*
X5782086Y-11285412D01*
X5782086Y-11285412D02*
X5782086Y-11113984D01*
X6039229Y-11313984D02*
X6039229Y-11113984D01*
X6039229Y-11113984D02*
X6105896Y-11256841D01*
X6105896Y-11256841D02*
X6172562Y-11113984D01*
X6172562Y-11113984D02*
X6172562Y-11313984D01*
X6353515Y-11313984D02*
X6353515Y-11209222D01*
X6353515Y-11209222D02*
X6343991Y-11190174D01*
X6343991Y-11190174D02*
X6324943Y-11180650D01*
X6324943Y-11180650D02*
X6286848Y-11180650D01*
X6286848Y-11180650D02*
X6267801Y-11190174D01*
X6353515Y-11304460D02*
X6334467Y-11313984D01*
X6334467Y-11313984D02*
X6286848Y-11313984D01*
X6286848Y-11313984D02*
X6267801Y-11304460D01*
X6267801Y-11304460D02*
X6258277Y-11285412D01*
X6258277Y-11285412D02*
X6258277Y-11266365D01*
X6258277Y-11266365D02*
X6267801Y-11247317D01*
X6267801Y-11247317D02*
X6286848Y-11237793D01*
X6286848Y-11237793D02*
X6334467Y-11237793D01*
X6334467Y-11237793D02*
X6353515Y-11228269D01*
X6448753Y-11180650D02*
X6448753Y-11380650D01*
X6448753Y-11190174D02*
X6467801Y-11180650D01*
X6467801Y-11180650D02*
X6505896Y-11180650D01*
X6505896Y-11180650D02*
X6524943Y-11190174D01*
X6524943Y-11190174D02*
X6534467Y-11199698D01*
X6534467Y-11199698D02*
X6543991Y-11218746D01*
X6543991Y-11218746D02*
X6543991Y-11275888D01*
X6543991Y-11275888D02*
X6534467Y-11294936D01*
X6534467Y-11294936D02*
X6524943Y-11304460D01*
X6524943Y-11304460D02*
X6505896Y-11313984D01*
X6505896Y-11313984D02*
X6467801Y-11313984D01*
X6467801Y-11313984D02*
X6448753Y-11304460D01*
X6629705Y-11294936D02*
X6639229Y-11304460D01*
X6639229Y-11304460D02*
X6629705Y-11313984D01*
X6629705Y-11313984D02*
X6620182Y-11304460D01*
X6620182Y-11304460D02*
X6629705Y-11294936D01*
X6629705Y-11294936D02*
X6629705Y-11313984D01*
X6629705Y-11190174D02*
X6639229Y-11199698D01*
X6639229Y-11199698D02*
X6629705Y-11209222D01*
X6629705Y-11209222D02*
X6620182Y-11199698D01*
X6620182Y-11199698D02*
X6629705Y-11190174D01*
X6629705Y-11190174D02*
X6629705Y-11209222D01*
D12*
X4967500Y-11627500D02*
X4997500Y-11657500D01*
X4997500Y-11627500D02*
X4967500Y-11657500D01*
D11*
X5296372Y-11533984D02*
X5315420Y-11533984D01*
X5315420Y-11533984D02*
X5334467Y-11543508D01*
X5334467Y-11543508D02*
X5343991Y-11553031D01*
X5343991Y-11553031D02*
X5353515Y-11572079D01*
X5353515Y-11572079D02*
X5363039Y-11610174D01*
X5363039Y-11610174D02*
X5363039Y-11657793D01*
X5363039Y-11657793D02*
X5353515Y-11695888D01*
X5353515Y-11695888D02*
X5343991Y-11714936D01*
X5343991Y-11714936D02*
X5334467Y-11724460D01*
X5334467Y-11724460D02*
X5315420Y-11733984D01*
X5315420Y-11733984D02*
X5296372Y-11733984D01*
X5296372Y-11733984D02*
X5277324Y-11724460D01*
X5277324Y-11724460D02*
X5267801Y-11714936D01*
X5267801Y-11714936D02*
X5258277Y-11695888D01*
X5258277Y-11695888D02*
X5248753Y-11657793D01*
X5248753Y-11657793D02*
X5248753Y-11610174D01*
X5248753Y-11610174D02*
X5258277Y-11572079D01*
X5258277Y-11572079D02*
X5267801Y-11553031D01*
X5267801Y-11553031D02*
X5277324Y-11543508D01*
X5277324Y-11543508D02*
X5296372Y-11533984D01*
X5448753Y-11714936D02*
X5458277Y-11724460D01*
X5458277Y-11724460D02*
X5448753Y-11733984D01*
X5448753Y-11733984D02*
X5439229Y-11724460D01*
X5439229Y-11724460D02*
X5448753Y-11714936D01*
X5448753Y-11714936D02*
X5448753Y-11733984D01*
X5524944Y-11533984D02*
X5648753Y-11533984D01*
X5648753Y-11533984D02*
X5582086Y-11610174D01*
X5582086Y-11610174D02*
X5610658Y-11610174D01*
X5610658Y-11610174D02*
X5629705Y-11619698D01*
X5629705Y-11619698D02*
X5639229Y-11629222D01*
X5639229Y-11629222D02*
X5648753Y-11648269D01*
X5648753Y-11648269D02*
X5648753Y-11695888D01*
X5648753Y-11695888D02*
X5639229Y-11714936D01*
X5639229Y-11714936D02*
X5629705Y-11724460D01*
X5629705Y-11724460D02*
X5610658Y-11733984D01*
X5610658Y-11733984D02*
X5553515Y-11733984D01*
X5553515Y-11733984D02*
X5534467Y-11724460D01*
X5534467Y-11724460D02*
X5524944Y-11714936D01*
X5772562Y-11533984D02*
X5791610Y-11533984D01*
X5791610Y-11533984D02*
X5810658Y-11543508D01*
X5810658Y-11543508D02*
X5820182Y-11553031D01*
X5820182Y-11553031D02*
X5829705Y-11572079D01*
X5829705Y-11572079D02*
X5839229Y-11610174D01*
X5839229Y-11610174D02*
X5839229Y-11657793D01*
X5839229Y-11657793D02*
X5829705Y-11695888D01*
X5829705Y-11695888D02*
X5820182Y-11714936D01*
X5820182Y-11714936D02*
X5810658Y-11724460D01*
X5810658Y-11724460D02*
X5791610Y-11733984D01*
X5791610Y-11733984D02*
X5772562Y-11733984D01*
X5772562Y-11733984D02*
X5753515Y-11724460D01*
X5753515Y-11724460D02*
X5743991Y-11714936D01*
X5743991Y-11714936D02*
X5734467Y-11695888D01*
X5734467Y-11695888D02*
X5724943Y-11657793D01*
X5724943Y-11657793D02*
X5724943Y-11610174D01*
X5724943Y-11610174D02*
X5734467Y-11572079D01*
X5734467Y-11572079D02*
X5743991Y-11553031D01*
X5743991Y-11553031D02*
X5753515Y-11543508D01*
X5753515Y-11543508D02*
X5772562Y-11533984D01*
X5963039Y-11533984D02*
X5982086Y-11533984D01*
X5982086Y-11533984D02*
X6001134Y-11543508D01*
X6001134Y-11543508D02*
X6010658Y-11553031D01*
X6010658Y-11553031D02*
X6020182Y-11572079D01*
X6020182Y-11572079D02*
X6029705Y-11610174D01*
X6029705Y-11610174D02*
X6029705Y-11657793D01*
X6029705Y-11657793D02*
X6020182Y-11695888D01*
X6020182Y-11695888D02*
X6010658Y-11714936D01*
X6010658Y-11714936D02*
X6001134Y-11724460D01*
X6001134Y-11724460D02*
X5982086Y-11733984D01*
X5982086Y-11733984D02*
X5963039Y-11733984D01*
X5963039Y-11733984D02*
X5943991Y-11724460D01*
X5943991Y-11724460D02*
X5934467Y-11714936D01*
X5934467Y-11714936D02*
X5924943Y-11695888D01*
X5924943Y-11695888D02*
X5915420Y-11657793D01*
X5915420Y-11657793D02*
X5915420Y-11610174D01*
X5915420Y-11610174D02*
X5924943Y-11572079D01*
X5924943Y-11572079D02*
X5934467Y-11553031D01*
X5934467Y-11553031D02*
X5943991Y-11543508D01*
X5943991Y-11543508D02*
X5963039Y-11533984D01*
X6115420Y-11733984D02*
X6115420Y-11600650D01*
X6115420Y-11619698D02*
X6124943Y-11610174D01*
X6124943Y-11610174D02*
X6143991Y-11600650D01*
X6143991Y-11600650D02*
X6172563Y-11600650D01*
X6172563Y-11600650D02*
X6191610Y-11610174D01*
X6191610Y-11610174D02*
X6201134Y-11629222D01*
X6201134Y-11629222D02*
X6201134Y-11733984D01*
X6201134Y-11629222D02*
X6210658Y-11610174D01*
X6210658Y-11610174D02*
X6229705Y-11600650D01*
X6229705Y-11600650D02*
X6258277Y-11600650D01*
X6258277Y-11600650D02*
X6277324Y-11610174D01*
X6277324Y-11610174D02*
X6286848Y-11629222D01*
X6286848Y-11629222D02*
X6286848Y-11733984D01*
X6382086Y-11733984D02*
X6382086Y-11600650D01*
X6382086Y-11619698D02*
X6391610Y-11610174D01*
X6391610Y-11610174D02*
X6410658Y-11600650D01*
X6410658Y-11600650D02*
X6439229Y-11600650D01*
X6439229Y-11600650D02*
X6458277Y-11610174D01*
X6458277Y-11610174D02*
X6467801Y-11629222D01*
X6467801Y-11629222D02*
X6467801Y-11733984D01*
X6467801Y-11629222D02*
X6477324Y-11610174D01*
X6477324Y-11610174D02*
X6496372Y-11600650D01*
X6496372Y-11600650D02*
X6524943Y-11600650D01*
X6524943Y-11600650D02*
X6543991Y-11610174D01*
X6543991Y-11610174D02*
X6553515Y-11629222D01*
X6553515Y-11629222D02*
X6553515Y-11733984D01*
X6943991Y-11524460D02*
X6772563Y-11781603D01*
X7201134Y-11533984D02*
X7220182Y-11533984D01*
X7220182Y-11533984D02*
X7239229Y-11543508D01*
X7239229Y-11543508D02*
X7248753Y-11553031D01*
X7248753Y-11553031D02*
X7258277Y-11572079D01*
X7258277Y-11572079D02*
X7267801Y-11610174D01*
X7267801Y-11610174D02*
X7267801Y-11657793D01*
X7267801Y-11657793D02*
X7258277Y-11695888D01*
X7258277Y-11695888D02*
X7248753Y-11714936D01*
X7248753Y-11714936D02*
X7239229Y-11724460D01*
X7239229Y-11724460D02*
X7220182Y-11733984D01*
X7220182Y-11733984D02*
X7201134Y-11733984D01*
X7201134Y-11733984D02*
X7182086Y-11724460D01*
X7182086Y-11724460D02*
X7172563Y-11714936D01*
X7172563Y-11714936D02*
X7163039Y-11695888D01*
X7163039Y-11695888D02*
X7153515Y-11657793D01*
X7153515Y-11657793D02*
X7153515Y-11610174D01*
X7153515Y-11610174D02*
X7163039Y-11572079D01*
X7163039Y-11572079D02*
X7172563Y-11553031D01*
X7172563Y-11553031D02*
X7182086Y-11543508D01*
X7182086Y-11543508D02*
X7201134Y-11533984D01*
X7353515Y-11714936D02*
X7363039Y-11724460D01*
X7363039Y-11724460D02*
X7353515Y-11733984D01*
X7353515Y-11733984D02*
X7343991Y-11724460D01*
X7343991Y-11724460D02*
X7353515Y-11714936D01*
X7353515Y-11714936D02*
X7353515Y-11733984D01*
X7486848Y-11533984D02*
X7505896Y-11533984D01*
X7505896Y-11533984D02*
X7524944Y-11543508D01*
X7524944Y-11543508D02*
X7534467Y-11553031D01*
X7534467Y-11553031D02*
X7543991Y-11572079D01*
X7543991Y-11572079D02*
X7553515Y-11610174D01*
X7553515Y-11610174D02*
X7553515Y-11657793D01*
X7553515Y-11657793D02*
X7543991Y-11695888D01*
X7543991Y-11695888D02*
X7534467Y-11714936D01*
X7534467Y-11714936D02*
X7524944Y-11724460D01*
X7524944Y-11724460D02*
X7505896Y-11733984D01*
X7505896Y-11733984D02*
X7486848Y-11733984D01*
X7486848Y-11733984D02*
X7467801Y-11724460D01*
X7467801Y-11724460D02*
X7458277Y-11714936D01*
X7458277Y-11714936D02*
X7448753Y-11695888D01*
X7448753Y-11695888D02*
X7439229Y-11657793D01*
X7439229Y-11657793D02*
X7439229Y-11610174D01*
X7439229Y-11610174D02*
X7448753Y-11572079D01*
X7448753Y-11572079D02*
X7458277Y-11553031D01*
X7458277Y-11553031D02*
X7467801Y-11543508D01*
X7467801Y-11543508D02*
X7486848Y-11533984D01*
X7743991Y-11733984D02*
X7629706Y-11733984D01*
X7686848Y-11733984D02*
X7686848Y-11533984D01*
X7686848Y-11533984D02*
X7667801Y-11562555D01*
X7667801Y-11562555D02*
X7648753Y-11581603D01*
X7648753Y-11581603D02*
X7629706Y-11591127D01*
X7934467Y-11733984D02*
X7820182Y-11733984D01*
X7877325Y-11733984D02*
X7877325Y-11533984D01*
X7877325Y-11533984D02*
X7858277Y-11562555D01*
X7858277Y-11562555D02*
X7839229Y-11581603D01*
X7839229Y-11581603D02*
X7820182Y-11591127D01*
X8048753Y-11619698D02*
X8029706Y-11610174D01*
X8029706Y-11610174D02*
X8020182Y-11600650D01*
X8020182Y-11600650D02*
X8010658Y-11581603D01*
X8010658Y-11581603D02*
X8010658Y-11572079D01*
X8010658Y-11572079D02*
X8020182Y-11553031D01*
X8020182Y-11553031D02*
X8029706Y-11543508D01*
X8029706Y-11543508D02*
X8048753Y-11533984D01*
X8048753Y-11533984D02*
X8086848Y-11533984D01*
X8086848Y-11533984D02*
X8105896Y-11543508D01*
X8105896Y-11543508D02*
X8115420Y-11553031D01*
X8115420Y-11553031D02*
X8124944Y-11572079D01*
X8124944Y-11572079D02*
X8124944Y-11581603D01*
X8124944Y-11581603D02*
X8115420Y-11600650D01*
X8115420Y-11600650D02*
X8105896Y-11610174D01*
X8105896Y-11610174D02*
X8086848Y-11619698D01*
X8086848Y-11619698D02*
X8048753Y-11619698D01*
X8048753Y-11619698D02*
X8029706Y-11629222D01*
X8029706Y-11629222D02*
X8020182Y-11638746D01*
X8020182Y-11638746D02*
X8010658Y-11657793D01*
X8010658Y-11657793D02*
X8010658Y-11695888D01*
X8010658Y-11695888D02*
X8020182Y-11714936D01*
X8020182Y-11714936D02*
X8029706Y-11724460D01*
X8029706Y-11724460D02*
X8048753Y-11733984D01*
X8048753Y-11733984D02*
X8086848Y-11733984D01*
X8086848Y-11733984D02*
X8105896Y-11724460D01*
X8105896Y-11724460D02*
X8115420Y-11714936D01*
X8115420Y-11714936D02*
X8124944Y-11695888D01*
X8124944Y-11695888D02*
X8124944Y-11657793D01*
X8124944Y-11657793D02*
X8115420Y-11638746D01*
X8115420Y-11638746D02*
X8105896Y-11629222D01*
X8105896Y-11629222D02*
X8086848Y-11619698D01*
X8201134Y-11533984D02*
X8201134Y-11572079D01*
X8277325Y-11533984D02*
X8277325Y-11572079D01*
X8572563Y-11810174D02*
X8563039Y-11800650D01*
X8563039Y-11800650D02*
X8543991Y-11772079D01*
X8543991Y-11772079D02*
X8534468Y-11753031D01*
X8534468Y-11753031D02*
X8524944Y-11724460D01*
X8524944Y-11724460D02*
X8515420Y-11676841D01*
X8515420Y-11676841D02*
X8515420Y-11638746D01*
X8515420Y-11638746D02*
X8524944Y-11591127D01*
X8524944Y-11591127D02*
X8534468Y-11562555D01*
X8534468Y-11562555D02*
X8543991Y-11543508D01*
X8543991Y-11543508D02*
X8563039Y-11514936D01*
X8563039Y-11514936D02*
X8572563Y-11505412D01*
X8639230Y-11553031D02*
X8648753Y-11543508D01*
X8648753Y-11543508D02*
X8667801Y-11533984D01*
X8667801Y-11533984D02*
X8715420Y-11533984D01*
X8715420Y-11533984D02*
X8734468Y-11543508D01*
X8734468Y-11543508D02*
X8743991Y-11553031D01*
X8743991Y-11553031D02*
X8753515Y-11572079D01*
X8753515Y-11572079D02*
X8753515Y-11591127D01*
X8753515Y-11591127D02*
X8743991Y-11619698D01*
X8743991Y-11619698D02*
X8629706Y-11733984D01*
X8629706Y-11733984D02*
X8753515Y-11733984D01*
X8991611Y-11733984D02*
X8991611Y-11533984D01*
X9077325Y-11733984D02*
X9077325Y-11629222D01*
X9077325Y-11629222D02*
X9067801Y-11610174D01*
X9067801Y-11610174D02*
X9048753Y-11600650D01*
X9048753Y-11600650D02*
X9020182Y-11600650D01*
X9020182Y-11600650D02*
X9001134Y-11610174D01*
X9001134Y-11610174D02*
X8991611Y-11619698D01*
X9201134Y-11733984D02*
X9182087Y-11724460D01*
X9182087Y-11724460D02*
X9172563Y-11714936D01*
X9172563Y-11714936D02*
X9163039Y-11695888D01*
X9163039Y-11695888D02*
X9163039Y-11638746D01*
X9163039Y-11638746D02*
X9172563Y-11619698D01*
X9172563Y-11619698D02*
X9182087Y-11610174D01*
X9182087Y-11610174D02*
X9201134Y-11600650D01*
X9201134Y-11600650D02*
X9229706Y-11600650D01*
X9229706Y-11600650D02*
X9248753Y-11610174D01*
X9248753Y-11610174D02*
X9258277Y-11619698D01*
X9258277Y-11619698D02*
X9267801Y-11638746D01*
X9267801Y-11638746D02*
X9267801Y-11695888D01*
X9267801Y-11695888D02*
X9258277Y-11714936D01*
X9258277Y-11714936D02*
X9248753Y-11724460D01*
X9248753Y-11724460D02*
X9229706Y-11733984D01*
X9229706Y-11733984D02*
X9201134Y-11733984D01*
X9382087Y-11733984D02*
X9363039Y-11724460D01*
X9363039Y-11724460D02*
X9353515Y-11705412D01*
X9353515Y-11705412D02*
X9353515Y-11533984D01*
X9534468Y-11724460D02*
X9515420Y-11733984D01*
X9515420Y-11733984D02*
X9477325Y-11733984D01*
X9477325Y-11733984D02*
X9458277Y-11724460D01*
X9458277Y-11724460D02*
X9448753Y-11705412D01*
X9448753Y-11705412D02*
X9448753Y-11629222D01*
X9448753Y-11629222D02*
X9458277Y-11610174D01*
X9458277Y-11610174D02*
X9477325Y-11600650D01*
X9477325Y-11600650D02*
X9515420Y-11600650D01*
X9515420Y-11600650D02*
X9534468Y-11610174D01*
X9534468Y-11610174D02*
X9543992Y-11629222D01*
X9543992Y-11629222D02*
X9543992Y-11648269D01*
X9543992Y-11648269D02*
X9448753Y-11667317D01*
X9620182Y-11724460D02*
X9639230Y-11733984D01*
X9639230Y-11733984D02*
X9677325Y-11733984D01*
X9677325Y-11733984D02*
X9696373Y-11724460D01*
X9696373Y-11724460D02*
X9705896Y-11705412D01*
X9705896Y-11705412D02*
X9705896Y-11695888D01*
X9705896Y-11695888D02*
X9696373Y-11676841D01*
X9696373Y-11676841D02*
X9677325Y-11667317D01*
X9677325Y-11667317D02*
X9648753Y-11667317D01*
X9648753Y-11667317D02*
X9629706Y-11657793D01*
X9629706Y-11657793D02*
X9620182Y-11638746D01*
X9620182Y-11638746D02*
X9620182Y-11629222D01*
X9620182Y-11629222D02*
X9629706Y-11610174D01*
X9629706Y-11610174D02*
X9648753Y-11600650D01*
X9648753Y-11600650D02*
X9677325Y-11600650D01*
X9677325Y-11600650D02*
X9696373Y-11610174D01*
X9772563Y-11810174D02*
X9782087Y-11800650D01*
X9782087Y-11800650D02*
X9801134Y-11772079D01*
X9801134Y-11772079D02*
X9810658Y-11753031D01*
X9810658Y-11753031D02*
X9820182Y-11724460D01*
X9820182Y-11724460D02*
X9829706Y-11676841D01*
X9829706Y-11676841D02*
X9829706Y-11638746D01*
X9829706Y-11638746D02*
X9820182Y-11591127D01*
X9820182Y-11591127D02*
X9810658Y-11562555D01*
X9810658Y-11562555D02*
X9801134Y-11543508D01*
X9801134Y-11543508D02*
X9782087Y-11514936D01*
X9782087Y-11514936D02*
X9772563Y-11505412D01*
D12*
X4997500Y-11906500D02*
G75*
G02*
X4917500Y-11906500I-40000J0D01*
G01*
X4917500Y-11906500D02*
G75*
G02*
X4997500Y-11906500I40000J0D01*
G01*
D11*
X5296372Y-11797984D02*
X5315420Y-11797984D01*
X5315420Y-11797984D02*
X5334467Y-11807508D01*
X5334467Y-11807508D02*
X5343991Y-11817031D01*
X5343991Y-11817031D02*
X5353515Y-11836079D01*
X5353515Y-11836079D02*
X5363039Y-11874174D01*
X5363039Y-11874174D02*
X5363039Y-11921793D01*
X5363039Y-11921793D02*
X5353515Y-11959888D01*
X5353515Y-11959888D02*
X5343991Y-11978936D01*
X5343991Y-11978936D02*
X5334467Y-11988460D01*
X5334467Y-11988460D02*
X5315420Y-11997984D01*
X5315420Y-11997984D02*
X5296372Y-11997984D01*
X5296372Y-11997984D02*
X5277324Y-11988460D01*
X5277324Y-11988460D02*
X5267801Y-11978936D01*
X5267801Y-11978936D02*
X5258277Y-11959888D01*
X5258277Y-11959888D02*
X5248753Y-11921793D01*
X5248753Y-11921793D02*
X5248753Y-11874174D01*
X5248753Y-11874174D02*
X5258277Y-11836079D01*
X5258277Y-11836079D02*
X5267801Y-11817031D01*
X5267801Y-11817031D02*
X5277324Y-11807508D01*
X5277324Y-11807508D02*
X5296372Y-11797984D01*
X5448753Y-11978936D02*
X5458277Y-11988460D01*
X5458277Y-11988460D02*
X5448753Y-11997984D01*
X5448753Y-11997984D02*
X5439229Y-11988460D01*
X5439229Y-11988460D02*
X5448753Y-11978936D01*
X5448753Y-11978936D02*
X5448753Y-11997984D01*
X5572563Y-11883698D02*
X5553515Y-11874174D01*
X5553515Y-11874174D02*
X5543991Y-11864650D01*
X5543991Y-11864650D02*
X5534467Y-11845603D01*
X5534467Y-11845603D02*
X5534467Y-11836079D01*
X5534467Y-11836079D02*
X5543991Y-11817031D01*
X5543991Y-11817031D02*
X5553515Y-11807508D01*
X5553515Y-11807508D02*
X5572563Y-11797984D01*
X5572563Y-11797984D02*
X5610658Y-11797984D01*
X5610658Y-11797984D02*
X5629705Y-11807508D01*
X5629705Y-11807508D02*
X5639229Y-11817031D01*
X5639229Y-11817031D02*
X5648753Y-11836079D01*
X5648753Y-11836079D02*
X5648753Y-11845603D01*
X5648753Y-11845603D02*
X5639229Y-11864650D01*
X5639229Y-11864650D02*
X5629705Y-11874174D01*
X5629705Y-11874174D02*
X5610658Y-11883698D01*
X5610658Y-11883698D02*
X5572563Y-11883698D01*
X5572563Y-11883698D02*
X5553515Y-11893222D01*
X5553515Y-11893222D02*
X5543991Y-11902746D01*
X5543991Y-11902746D02*
X5534467Y-11921793D01*
X5534467Y-11921793D02*
X5534467Y-11959888D01*
X5534467Y-11959888D02*
X5543991Y-11978936D01*
X5543991Y-11978936D02*
X5553515Y-11988460D01*
X5553515Y-11988460D02*
X5572563Y-11997984D01*
X5572563Y-11997984D02*
X5610658Y-11997984D01*
X5610658Y-11997984D02*
X5629705Y-11988460D01*
X5629705Y-11988460D02*
X5639229Y-11978936D01*
X5639229Y-11978936D02*
X5648753Y-11959888D01*
X5648753Y-11959888D02*
X5648753Y-11921793D01*
X5648753Y-11921793D02*
X5639229Y-11902746D01*
X5639229Y-11902746D02*
X5629705Y-11893222D01*
X5629705Y-11893222D02*
X5610658Y-11883698D01*
X5772562Y-11797984D02*
X5791610Y-11797984D01*
X5791610Y-11797984D02*
X5810658Y-11807508D01*
X5810658Y-11807508D02*
X5820182Y-11817031D01*
X5820182Y-11817031D02*
X5829705Y-11836079D01*
X5829705Y-11836079D02*
X5839229Y-11874174D01*
X5839229Y-11874174D02*
X5839229Y-11921793D01*
X5839229Y-11921793D02*
X5829705Y-11959888D01*
X5829705Y-11959888D02*
X5820182Y-11978936D01*
X5820182Y-11978936D02*
X5810658Y-11988460D01*
X5810658Y-11988460D02*
X5791610Y-11997984D01*
X5791610Y-11997984D02*
X5772562Y-11997984D01*
X5772562Y-11997984D02*
X5753515Y-11988460D01*
X5753515Y-11988460D02*
X5743991Y-11978936D01*
X5743991Y-11978936D02*
X5734467Y-11959888D01*
X5734467Y-11959888D02*
X5724943Y-11921793D01*
X5724943Y-11921793D02*
X5724943Y-11874174D01*
X5724943Y-11874174D02*
X5734467Y-11836079D01*
X5734467Y-11836079D02*
X5743991Y-11817031D01*
X5743991Y-11817031D02*
X5753515Y-11807508D01*
X5753515Y-11807508D02*
X5772562Y-11797984D01*
X5963039Y-11797984D02*
X5982086Y-11797984D01*
X5982086Y-11797984D02*
X6001134Y-11807508D01*
X6001134Y-11807508D02*
X6010658Y-11817031D01*
X6010658Y-11817031D02*
X6020182Y-11836079D01*
X6020182Y-11836079D02*
X6029705Y-11874174D01*
X6029705Y-11874174D02*
X6029705Y-11921793D01*
X6029705Y-11921793D02*
X6020182Y-11959888D01*
X6020182Y-11959888D02*
X6010658Y-11978936D01*
X6010658Y-11978936D02*
X6001134Y-11988460D01*
X6001134Y-11988460D02*
X5982086Y-11997984D01*
X5982086Y-11997984D02*
X5963039Y-11997984D01*
X5963039Y-11997984D02*
X5943991Y-11988460D01*
X5943991Y-11988460D02*
X5934467Y-11978936D01*
X5934467Y-11978936D02*
X5924943Y-11959888D01*
X5924943Y-11959888D02*
X5915420Y-11921793D01*
X5915420Y-11921793D02*
X5915420Y-11874174D01*
X5915420Y-11874174D02*
X5924943Y-11836079D01*
X5924943Y-11836079D02*
X5934467Y-11817031D01*
X5934467Y-11817031D02*
X5943991Y-11807508D01*
X5943991Y-11807508D02*
X5963039Y-11797984D01*
X6115420Y-11997984D02*
X6115420Y-11864650D01*
X6115420Y-11883698D02*
X6124943Y-11874174D01*
X6124943Y-11874174D02*
X6143991Y-11864650D01*
X6143991Y-11864650D02*
X6172563Y-11864650D01*
X6172563Y-11864650D02*
X6191610Y-11874174D01*
X6191610Y-11874174D02*
X6201134Y-11893222D01*
X6201134Y-11893222D02*
X6201134Y-11997984D01*
X6201134Y-11893222D02*
X6210658Y-11874174D01*
X6210658Y-11874174D02*
X6229705Y-11864650D01*
X6229705Y-11864650D02*
X6258277Y-11864650D01*
X6258277Y-11864650D02*
X6277324Y-11874174D01*
X6277324Y-11874174D02*
X6286848Y-11893222D01*
X6286848Y-11893222D02*
X6286848Y-11997984D01*
X6382086Y-11997984D02*
X6382086Y-11864650D01*
X6382086Y-11883698D02*
X6391610Y-11874174D01*
X6391610Y-11874174D02*
X6410658Y-11864650D01*
X6410658Y-11864650D02*
X6439229Y-11864650D01*
X6439229Y-11864650D02*
X6458277Y-11874174D01*
X6458277Y-11874174D02*
X6467801Y-11893222D01*
X6467801Y-11893222D02*
X6467801Y-11997984D01*
X6467801Y-11893222D02*
X6477324Y-11874174D01*
X6477324Y-11874174D02*
X6496372Y-11864650D01*
X6496372Y-11864650D02*
X6524943Y-11864650D01*
X6524943Y-11864650D02*
X6543991Y-11874174D01*
X6543991Y-11874174D02*
X6553515Y-11893222D01*
X6553515Y-11893222D02*
X6553515Y-11997984D01*
X6943991Y-11788460D02*
X6772563Y-12045603D01*
X7201134Y-11797984D02*
X7220182Y-11797984D01*
X7220182Y-11797984D02*
X7239229Y-11807508D01*
X7239229Y-11807508D02*
X7248753Y-11817031D01*
X7248753Y-11817031D02*
X7258277Y-11836079D01*
X7258277Y-11836079D02*
X7267801Y-11874174D01*
X7267801Y-11874174D02*
X7267801Y-11921793D01*
X7267801Y-11921793D02*
X7258277Y-11959888D01*
X7258277Y-11959888D02*
X7248753Y-11978936D01*
X7248753Y-11978936D02*
X7239229Y-11988460D01*
X7239229Y-11988460D02*
X7220182Y-11997984D01*
X7220182Y-11997984D02*
X7201134Y-11997984D01*
X7201134Y-11997984D02*
X7182086Y-11988460D01*
X7182086Y-11988460D02*
X7172563Y-11978936D01*
X7172563Y-11978936D02*
X7163039Y-11959888D01*
X7163039Y-11959888D02*
X7153515Y-11921793D01*
X7153515Y-11921793D02*
X7153515Y-11874174D01*
X7153515Y-11874174D02*
X7163039Y-11836079D01*
X7163039Y-11836079D02*
X7172563Y-11817031D01*
X7172563Y-11817031D02*
X7182086Y-11807508D01*
X7182086Y-11807508D02*
X7201134Y-11797984D01*
X7353515Y-11978936D02*
X7363039Y-11988460D01*
X7363039Y-11988460D02*
X7353515Y-11997984D01*
X7353515Y-11997984D02*
X7343991Y-11988460D01*
X7343991Y-11988460D02*
X7353515Y-11978936D01*
X7353515Y-11978936D02*
X7353515Y-11997984D01*
X7486848Y-11797984D02*
X7505896Y-11797984D01*
X7505896Y-11797984D02*
X7524944Y-11807508D01*
X7524944Y-11807508D02*
X7534467Y-11817031D01*
X7534467Y-11817031D02*
X7543991Y-11836079D01*
X7543991Y-11836079D02*
X7553515Y-11874174D01*
X7553515Y-11874174D02*
X7553515Y-11921793D01*
X7553515Y-11921793D02*
X7543991Y-11959888D01*
X7543991Y-11959888D02*
X7534467Y-11978936D01*
X7534467Y-11978936D02*
X7524944Y-11988460D01*
X7524944Y-11988460D02*
X7505896Y-11997984D01*
X7505896Y-11997984D02*
X7486848Y-11997984D01*
X7486848Y-11997984D02*
X7467801Y-11988460D01*
X7467801Y-11988460D02*
X7458277Y-11978936D01*
X7458277Y-11978936D02*
X7448753Y-11959888D01*
X7448753Y-11959888D02*
X7439229Y-11921793D01*
X7439229Y-11921793D02*
X7439229Y-11874174D01*
X7439229Y-11874174D02*
X7448753Y-11836079D01*
X7448753Y-11836079D02*
X7458277Y-11817031D01*
X7458277Y-11817031D02*
X7467801Y-11807508D01*
X7467801Y-11807508D02*
X7486848Y-11797984D01*
X7620182Y-11797984D02*
X7743991Y-11797984D01*
X7743991Y-11797984D02*
X7677325Y-11874174D01*
X7677325Y-11874174D02*
X7705896Y-11874174D01*
X7705896Y-11874174D02*
X7724944Y-11883698D01*
X7724944Y-11883698D02*
X7734467Y-11893222D01*
X7734467Y-11893222D02*
X7743991Y-11912269D01*
X7743991Y-11912269D02*
X7743991Y-11959888D01*
X7743991Y-11959888D02*
X7734467Y-11978936D01*
X7734467Y-11978936D02*
X7724944Y-11988460D01*
X7724944Y-11988460D02*
X7705896Y-11997984D01*
X7705896Y-11997984D02*
X7648753Y-11997984D01*
X7648753Y-11997984D02*
X7629706Y-11988460D01*
X7629706Y-11988460D02*
X7620182Y-11978936D01*
X7934467Y-11997984D02*
X7820182Y-11997984D01*
X7877325Y-11997984D02*
X7877325Y-11797984D01*
X7877325Y-11797984D02*
X7858277Y-11826555D01*
X7858277Y-11826555D02*
X7839229Y-11845603D01*
X7839229Y-11845603D02*
X7820182Y-11855127D01*
X8115420Y-11797984D02*
X8020182Y-11797984D01*
X8020182Y-11797984D02*
X8010658Y-11893222D01*
X8010658Y-11893222D02*
X8020182Y-11883698D01*
X8020182Y-11883698D02*
X8039229Y-11874174D01*
X8039229Y-11874174D02*
X8086848Y-11874174D01*
X8086848Y-11874174D02*
X8105896Y-11883698D01*
X8105896Y-11883698D02*
X8115420Y-11893222D01*
X8115420Y-11893222D02*
X8124944Y-11912269D01*
X8124944Y-11912269D02*
X8124944Y-11959888D01*
X8124944Y-11959888D02*
X8115420Y-11978936D01*
X8115420Y-11978936D02*
X8105896Y-11988460D01*
X8105896Y-11988460D02*
X8086848Y-11997984D01*
X8086848Y-11997984D02*
X8039229Y-11997984D01*
X8039229Y-11997984D02*
X8020182Y-11988460D01*
X8020182Y-11988460D02*
X8010658Y-11978936D01*
X8201134Y-11797984D02*
X8201134Y-11836079D01*
X8277325Y-11797984D02*
X8277325Y-11836079D01*
X8572563Y-12074174D02*
X8563039Y-12064650D01*
X8563039Y-12064650D02*
X8543991Y-12036079D01*
X8543991Y-12036079D02*
X8534468Y-12017031D01*
X8534468Y-12017031D02*
X8524944Y-11988460D01*
X8524944Y-11988460D02*
X8515420Y-11940841D01*
X8515420Y-11940841D02*
X8515420Y-11902746D01*
X8515420Y-11902746D02*
X8524944Y-11855127D01*
X8524944Y-11855127D02*
X8534468Y-11826555D01*
X8534468Y-11826555D02*
X8543991Y-11807508D01*
X8543991Y-11807508D02*
X8563039Y-11778936D01*
X8563039Y-11778936D02*
X8572563Y-11769412D01*
X8734468Y-11864650D02*
X8734468Y-11997984D01*
X8686849Y-11788460D02*
X8639230Y-11931317D01*
X8639230Y-11931317D02*
X8763039Y-11931317D01*
X8991611Y-11997984D02*
X8991611Y-11797984D01*
X9077325Y-11997984D02*
X9077325Y-11893222D01*
X9077325Y-11893222D02*
X9067801Y-11874174D01*
X9067801Y-11874174D02*
X9048753Y-11864650D01*
X9048753Y-11864650D02*
X9020182Y-11864650D01*
X9020182Y-11864650D02*
X9001134Y-11874174D01*
X9001134Y-11874174D02*
X8991611Y-11883698D01*
X9201134Y-11997984D02*
X9182087Y-11988460D01*
X9182087Y-11988460D02*
X9172563Y-11978936D01*
X9172563Y-11978936D02*
X9163039Y-11959888D01*
X9163039Y-11959888D02*
X9163039Y-11902746D01*
X9163039Y-11902746D02*
X9172563Y-11883698D01*
X9172563Y-11883698D02*
X9182087Y-11874174D01*
X9182087Y-11874174D02*
X9201134Y-11864650D01*
X9201134Y-11864650D02*
X9229706Y-11864650D01*
X9229706Y-11864650D02*
X9248753Y-11874174D01*
X9248753Y-11874174D02*
X9258277Y-11883698D01*
X9258277Y-11883698D02*
X9267801Y-11902746D01*
X9267801Y-11902746D02*
X9267801Y-11959888D01*
X9267801Y-11959888D02*
X9258277Y-11978936D01*
X9258277Y-11978936D02*
X9248753Y-11988460D01*
X9248753Y-11988460D02*
X9229706Y-11997984D01*
X9229706Y-11997984D02*
X9201134Y-11997984D01*
X9382087Y-11997984D02*
X9363039Y-11988460D01*
X9363039Y-11988460D02*
X9353515Y-11969412D01*
X9353515Y-11969412D02*
X9353515Y-11797984D01*
X9534468Y-11988460D02*
X9515420Y-11997984D01*
X9515420Y-11997984D02*
X9477325Y-11997984D01*
X9477325Y-11997984D02*
X9458277Y-11988460D01*
X9458277Y-11988460D02*
X9448753Y-11969412D01*
X9448753Y-11969412D02*
X9448753Y-11893222D01*
X9448753Y-11893222D02*
X9458277Y-11874174D01*
X9458277Y-11874174D02*
X9477325Y-11864650D01*
X9477325Y-11864650D02*
X9515420Y-11864650D01*
X9515420Y-11864650D02*
X9534468Y-11874174D01*
X9534468Y-11874174D02*
X9543992Y-11893222D01*
X9543992Y-11893222D02*
X9543992Y-11912269D01*
X9543992Y-11912269D02*
X9448753Y-11931317D01*
X9620182Y-11988460D02*
X9639230Y-11997984D01*
X9639230Y-11997984D02*
X9677325Y-11997984D01*
X9677325Y-11997984D02*
X9696373Y-11988460D01*
X9696373Y-11988460D02*
X9705896Y-11969412D01*
X9705896Y-11969412D02*
X9705896Y-11959888D01*
X9705896Y-11959888D02*
X9696373Y-11940841D01*
X9696373Y-11940841D02*
X9677325Y-11931317D01*
X9677325Y-11931317D02*
X9648753Y-11931317D01*
X9648753Y-11931317D02*
X9629706Y-11921793D01*
X9629706Y-11921793D02*
X9620182Y-11902746D01*
X9620182Y-11902746D02*
X9620182Y-11893222D01*
X9620182Y-11893222D02*
X9629706Y-11874174D01*
X9629706Y-11874174D02*
X9648753Y-11864650D01*
X9648753Y-11864650D02*
X9677325Y-11864650D01*
X9677325Y-11864650D02*
X9696373Y-11874174D01*
X9772563Y-12074174D02*
X9782087Y-12064650D01*
X9782087Y-12064650D02*
X9801134Y-12036079D01*
X9801134Y-12036079D02*
X9810658Y-12017031D01*
X9810658Y-12017031D02*
X9820182Y-11988460D01*
X9820182Y-11988460D02*
X9829706Y-11940841D01*
X9829706Y-11940841D02*
X9829706Y-11902746D01*
X9829706Y-11902746D02*
X9820182Y-11855127D01*
X9820182Y-11855127D02*
X9810658Y-11826555D01*
X9810658Y-11826555D02*
X9801134Y-11807508D01*
X9801134Y-11807508D02*
X9782087Y-11778936D01*
X9782087Y-11778936D02*
X9772563Y-11769412D01*
D12*
X4952500Y-12125500D02*
X4952500Y-12215500D01*
X4907500Y-12170500D02*
X4997500Y-12170500D01*
D11*
X5296372Y-12061984D02*
X5315420Y-12061984D01*
X5315420Y-12061984D02*
X5334467Y-12071508D01*
X5334467Y-12071508D02*
X5343991Y-12081031D01*
X5343991Y-12081031D02*
X5353515Y-12100079D01*
X5353515Y-12100079D02*
X5363039Y-12138174D01*
X5363039Y-12138174D02*
X5363039Y-12185793D01*
X5363039Y-12185793D02*
X5353515Y-12223888D01*
X5353515Y-12223888D02*
X5343991Y-12242936D01*
X5343991Y-12242936D02*
X5334467Y-12252460D01*
X5334467Y-12252460D02*
X5315420Y-12261984D01*
X5315420Y-12261984D02*
X5296372Y-12261984D01*
X5296372Y-12261984D02*
X5277324Y-12252460D01*
X5277324Y-12252460D02*
X5267801Y-12242936D01*
X5267801Y-12242936D02*
X5258277Y-12223888D01*
X5258277Y-12223888D02*
X5248753Y-12185793D01*
X5248753Y-12185793D02*
X5248753Y-12138174D01*
X5248753Y-12138174D02*
X5258277Y-12100079D01*
X5258277Y-12100079D02*
X5267801Y-12081031D01*
X5267801Y-12081031D02*
X5277324Y-12071508D01*
X5277324Y-12071508D02*
X5296372Y-12061984D01*
X5448753Y-12242936D02*
X5458277Y-12252460D01*
X5458277Y-12252460D02*
X5448753Y-12261984D01*
X5448753Y-12261984D02*
X5439229Y-12252460D01*
X5439229Y-12252460D02*
X5448753Y-12242936D01*
X5448753Y-12242936D02*
X5448753Y-12261984D01*
X5553515Y-12261984D02*
X5591610Y-12261984D01*
X5591610Y-12261984D02*
X5610658Y-12252460D01*
X5610658Y-12252460D02*
X5620182Y-12242936D01*
X5620182Y-12242936D02*
X5639229Y-12214365D01*
X5639229Y-12214365D02*
X5648753Y-12176269D01*
X5648753Y-12176269D02*
X5648753Y-12100079D01*
X5648753Y-12100079D02*
X5639229Y-12081031D01*
X5639229Y-12081031D02*
X5629705Y-12071508D01*
X5629705Y-12071508D02*
X5610658Y-12061984D01*
X5610658Y-12061984D02*
X5572563Y-12061984D01*
X5572563Y-12061984D02*
X5553515Y-12071508D01*
X5553515Y-12071508D02*
X5543991Y-12081031D01*
X5543991Y-12081031D02*
X5534467Y-12100079D01*
X5534467Y-12100079D02*
X5534467Y-12147698D01*
X5534467Y-12147698D02*
X5543991Y-12166746D01*
X5543991Y-12166746D02*
X5553515Y-12176269D01*
X5553515Y-12176269D02*
X5572563Y-12185793D01*
X5572563Y-12185793D02*
X5610658Y-12185793D01*
X5610658Y-12185793D02*
X5629705Y-12176269D01*
X5629705Y-12176269D02*
X5639229Y-12166746D01*
X5639229Y-12166746D02*
X5648753Y-12147698D01*
X5772562Y-12061984D02*
X5791610Y-12061984D01*
X5791610Y-12061984D02*
X5810658Y-12071508D01*
X5810658Y-12071508D02*
X5820182Y-12081031D01*
X5820182Y-12081031D02*
X5829705Y-12100079D01*
X5829705Y-12100079D02*
X5839229Y-12138174D01*
X5839229Y-12138174D02*
X5839229Y-12185793D01*
X5839229Y-12185793D02*
X5829705Y-12223888D01*
X5829705Y-12223888D02*
X5820182Y-12242936D01*
X5820182Y-12242936D02*
X5810658Y-12252460D01*
X5810658Y-12252460D02*
X5791610Y-12261984D01*
X5791610Y-12261984D02*
X5772562Y-12261984D01*
X5772562Y-12261984D02*
X5753515Y-12252460D01*
X5753515Y-12252460D02*
X5743991Y-12242936D01*
X5743991Y-12242936D02*
X5734467Y-12223888D01*
X5734467Y-12223888D02*
X5724943Y-12185793D01*
X5724943Y-12185793D02*
X5724943Y-12138174D01*
X5724943Y-12138174D02*
X5734467Y-12100079D01*
X5734467Y-12100079D02*
X5743991Y-12081031D01*
X5743991Y-12081031D02*
X5753515Y-12071508D01*
X5753515Y-12071508D02*
X5772562Y-12061984D01*
X5963039Y-12061984D02*
X5982086Y-12061984D01*
X5982086Y-12061984D02*
X6001134Y-12071508D01*
X6001134Y-12071508D02*
X6010658Y-12081031D01*
X6010658Y-12081031D02*
X6020182Y-12100079D01*
X6020182Y-12100079D02*
X6029705Y-12138174D01*
X6029705Y-12138174D02*
X6029705Y-12185793D01*
X6029705Y-12185793D02*
X6020182Y-12223888D01*
X6020182Y-12223888D02*
X6010658Y-12242936D01*
X6010658Y-12242936D02*
X6001134Y-12252460D01*
X6001134Y-12252460D02*
X5982086Y-12261984D01*
X5982086Y-12261984D02*
X5963039Y-12261984D01*
X5963039Y-12261984D02*
X5943991Y-12252460D01*
X5943991Y-12252460D02*
X5934467Y-12242936D01*
X5934467Y-12242936D02*
X5924943Y-12223888D01*
X5924943Y-12223888D02*
X5915420Y-12185793D01*
X5915420Y-12185793D02*
X5915420Y-12138174D01*
X5915420Y-12138174D02*
X5924943Y-12100079D01*
X5924943Y-12100079D02*
X5934467Y-12081031D01*
X5934467Y-12081031D02*
X5943991Y-12071508D01*
X5943991Y-12071508D02*
X5963039Y-12061984D01*
X6115420Y-12261984D02*
X6115420Y-12128650D01*
X6115420Y-12147698D02*
X6124943Y-12138174D01*
X6124943Y-12138174D02*
X6143991Y-12128650D01*
X6143991Y-12128650D02*
X6172563Y-12128650D01*
X6172563Y-12128650D02*
X6191610Y-12138174D01*
X6191610Y-12138174D02*
X6201134Y-12157222D01*
X6201134Y-12157222D02*
X6201134Y-12261984D01*
X6201134Y-12157222D02*
X6210658Y-12138174D01*
X6210658Y-12138174D02*
X6229705Y-12128650D01*
X6229705Y-12128650D02*
X6258277Y-12128650D01*
X6258277Y-12128650D02*
X6277324Y-12138174D01*
X6277324Y-12138174D02*
X6286848Y-12157222D01*
X6286848Y-12157222D02*
X6286848Y-12261984D01*
X6382086Y-12261984D02*
X6382086Y-12128650D01*
X6382086Y-12147698D02*
X6391610Y-12138174D01*
X6391610Y-12138174D02*
X6410658Y-12128650D01*
X6410658Y-12128650D02*
X6439229Y-12128650D01*
X6439229Y-12128650D02*
X6458277Y-12138174D01*
X6458277Y-12138174D02*
X6467801Y-12157222D01*
X6467801Y-12157222D02*
X6467801Y-12261984D01*
X6467801Y-12157222D02*
X6477324Y-12138174D01*
X6477324Y-12138174D02*
X6496372Y-12128650D01*
X6496372Y-12128650D02*
X6524943Y-12128650D01*
X6524943Y-12128650D02*
X6543991Y-12138174D01*
X6543991Y-12138174D02*
X6553515Y-12157222D01*
X6553515Y-12157222D02*
X6553515Y-12261984D01*
X6943991Y-12052460D02*
X6772563Y-12309603D01*
X7201134Y-12061984D02*
X7220182Y-12061984D01*
X7220182Y-12061984D02*
X7239229Y-12071508D01*
X7239229Y-12071508D02*
X7248753Y-12081031D01*
X7248753Y-12081031D02*
X7258277Y-12100079D01*
X7258277Y-12100079D02*
X7267801Y-12138174D01*
X7267801Y-12138174D02*
X7267801Y-12185793D01*
X7267801Y-12185793D02*
X7258277Y-12223888D01*
X7258277Y-12223888D02*
X7248753Y-12242936D01*
X7248753Y-12242936D02*
X7239229Y-12252460D01*
X7239229Y-12252460D02*
X7220182Y-12261984D01*
X7220182Y-12261984D02*
X7201134Y-12261984D01*
X7201134Y-12261984D02*
X7182086Y-12252460D01*
X7182086Y-12252460D02*
X7172563Y-12242936D01*
X7172563Y-12242936D02*
X7163039Y-12223888D01*
X7163039Y-12223888D02*
X7153515Y-12185793D01*
X7153515Y-12185793D02*
X7153515Y-12138174D01*
X7153515Y-12138174D02*
X7163039Y-12100079D01*
X7163039Y-12100079D02*
X7172563Y-12081031D01*
X7172563Y-12081031D02*
X7182086Y-12071508D01*
X7182086Y-12071508D02*
X7201134Y-12061984D01*
X7353515Y-12242936D02*
X7363039Y-12252460D01*
X7363039Y-12252460D02*
X7353515Y-12261984D01*
X7353515Y-12261984D02*
X7343991Y-12252460D01*
X7343991Y-12252460D02*
X7353515Y-12242936D01*
X7353515Y-12242936D02*
X7353515Y-12261984D01*
X7486848Y-12061984D02*
X7505896Y-12061984D01*
X7505896Y-12061984D02*
X7524944Y-12071508D01*
X7524944Y-12071508D02*
X7534467Y-12081031D01*
X7534467Y-12081031D02*
X7543991Y-12100079D01*
X7543991Y-12100079D02*
X7553515Y-12138174D01*
X7553515Y-12138174D02*
X7553515Y-12185793D01*
X7553515Y-12185793D02*
X7543991Y-12223888D01*
X7543991Y-12223888D02*
X7534467Y-12242936D01*
X7534467Y-12242936D02*
X7524944Y-12252460D01*
X7524944Y-12252460D02*
X7505896Y-12261984D01*
X7505896Y-12261984D02*
X7486848Y-12261984D01*
X7486848Y-12261984D02*
X7467801Y-12252460D01*
X7467801Y-12252460D02*
X7458277Y-12242936D01*
X7458277Y-12242936D02*
X7448753Y-12223888D01*
X7448753Y-12223888D02*
X7439229Y-12185793D01*
X7439229Y-12185793D02*
X7439229Y-12138174D01*
X7439229Y-12138174D02*
X7448753Y-12100079D01*
X7448753Y-12100079D02*
X7458277Y-12081031D01*
X7458277Y-12081031D02*
X7467801Y-12071508D01*
X7467801Y-12071508D02*
X7486848Y-12061984D01*
X7620182Y-12061984D02*
X7743991Y-12061984D01*
X7743991Y-12061984D02*
X7677325Y-12138174D01*
X7677325Y-12138174D02*
X7705896Y-12138174D01*
X7705896Y-12138174D02*
X7724944Y-12147698D01*
X7724944Y-12147698D02*
X7734467Y-12157222D01*
X7734467Y-12157222D02*
X7743991Y-12176269D01*
X7743991Y-12176269D02*
X7743991Y-12223888D01*
X7743991Y-12223888D02*
X7734467Y-12242936D01*
X7734467Y-12242936D02*
X7724944Y-12252460D01*
X7724944Y-12252460D02*
X7705896Y-12261984D01*
X7705896Y-12261984D02*
X7648753Y-12261984D01*
X7648753Y-12261984D02*
X7629706Y-12252460D01*
X7629706Y-12252460D02*
X7620182Y-12242936D01*
X7924944Y-12061984D02*
X7829706Y-12061984D01*
X7829706Y-12061984D02*
X7820182Y-12157222D01*
X7820182Y-12157222D02*
X7829706Y-12147698D01*
X7829706Y-12147698D02*
X7848753Y-12138174D01*
X7848753Y-12138174D02*
X7896372Y-12138174D01*
X7896372Y-12138174D02*
X7915420Y-12147698D01*
X7915420Y-12147698D02*
X7924944Y-12157222D01*
X7924944Y-12157222D02*
X7934467Y-12176269D01*
X7934467Y-12176269D02*
X7934467Y-12223888D01*
X7934467Y-12223888D02*
X7924944Y-12242936D01*
X7924944Y-12242936D02*
X7915420Y-12252460D01*
X7915420Y-12252460D02*
X7896372Y-12261984D01*
X7896372Y-12261984D02*
X7848753Y-12261984D01*
X7848753Y-12261984D02*
X7829706Y-12252460D01*
X7829706Y-12252460D02*
X7820182Y-12242936D01*
X8105896Y-12128650D02*
X8105896Y-12261984D01*
X8058277Y-12052460D02*
X8010658Y-12195317D01*
X8010658Y-12195317D02*
X8134467Y-12195317D01*
X8201134Y-12061984D02*
X8201134Y-12100079D01*
X8277325Y-12061984D02*
X8277325Y-12100079D01*
X8572563Y-12338174D02*
X8563039Y-12328650D01*
X8563039Y-12328650D02*
X8543991Y-12300079D01*
X8543991Y-12300079D02*
X8534468Y-12281031D01*
X8534468Y-12281031D02*
X8524944Y-12252460D01*
X8524944Y-12252460D02*
X8515420Y-12204841D01*
X8515420Y-12204841D02*
X8515420Y-12166746D01*
X8515420Y-12166746D02*
X8524944Y-12119127D01*
X8524944Y-12119127D02*
X8534468Y-12090555D01*
X8534468Y-12090555D02*
X8543991Y-12071508D01*
X8543991Y-12071508D02*
X8563039Y-12042936D01*
X8563039Y-12042936D02*
X8572563Y-12033412D01*
X8734468Y-12128650D02*
X8734468Y-12261984D01*
X8686849Y-12052460D02*
X8639230Y-12195317D01*
X8639230Y-12195317D02*
X8763039Y-12195317D01*
X8991611Y-12261984D02*
X8991611Y-12061984D01*
X9077325Y-12261984D02*
X9077325Y-12157222D01*
X9077325Y-12157222D02*
X9067801Y-12138174D01*
X9067801Y-12138174D02*
X9048753Y-12128650D01*
X9048753Y-12128650D02*
X9020182Y-12128650D01*
X9020182Y-12128650D02*
X9001134Y-12138174D01*
X9001134Y-12138174D02*
X8991611Y-12147698D01*
X9201134Y-12261984D02*
X9182087Y-12252460D01*
X9182087Y-12252460D02*
X9172563Y-12242936D01*
X9172563Y-12242936D02*
X9163039Y-12223888D01*
X9163039Y-12223888D02*
X9163039Y-12166746D01*
X9163039Y-12166746D02*
X9172563Y-12147698D01*
X9172563Y-12147698D02*
X9182087Y-12138174D01*
X9182087Y-12138174D02*
X9201134Y-12128650D01*
X9201134Y-12128650D02*
X9229706Y-12128650D01*
X9229706Y-12128650D02*
X9248753Y-12138174D01*
X9248753Y-12138174D02*
X9258277Y-12147698D01*
X9258277Y-12147698D02*
X9267801Y-12166746D01*
X9267801Y-12166746D02*
X9267801Y-12223888D01*
X9267801Y-12223888D02*
X9258277Y-12242936D01*
X9258277Y-12242936D02*
X9248753Y-12252460D01*
X9248753Y-12252460D02*
X9229706Y-12261984D01*
X9229706Y-12261984D02*
X9201134Y-12261984D01*
X9382087Y-12261984D02*
X9363039Y-12252460D01*
X9363039Y-12252460D02*
X9353515Y-12233412D01*
X9353515Y-12233412D02*
X9353515Y-12061984D01*
X9534468Y-12252460D02*
X9515420Y-12261984D01*
X9515420Y-12261984D02*
X9477325Y-12261984D01*
X9477325Y-12261984D02*
X9458277Y-12252460D01*
X9458277Y-12252460D02*
X9448753Y-12233412D01*
X9448753Y-12233412D02*
X9448753Y-12157222D01*
X9448753Y-12157222D02*
X9458277Y-12138174D01*
X9458277Y-12138174D02*
X9477325Y-12128650D01*
X9477325Y-12128650D02*
X9515420Y-12128650D01*
X9515420Y-12128650D02*
X9534468Y-12138174D01*
X9534468Y-12138174D02*
X9543992Y-12157222D01*
X9543992Y-12157222D02*
X9543992Y-12176269D01*
X9543992Y-12176269D02*
X9448753Y-12195317D01*
X9620182Y-12252460D02*
X9639230Y-12261984D01*
X9639230Y-12261984D02*
X9677325Y-12261984D01*
X9677325Y-12261984D02*
X9696373Y-12252460D01*
X9696373Y-12252460D02*
X9705896Y-12233412D01*
X9705896Y-12233412D02*
X9705896Y-12223888D01*
X9705896Y-12223888D02*
X9696373Y-12204841D01*
X9696373Y-12204841D02*
X9677325Y-12195317D01*
X9677325Y-12195317D02*
X9648753Y-12195317D01*
X9648753Y-12195317D02*
X9629706Y-12185793D01*
X9629706Y-12185793D02*
X9620182Y-12166746D01*
X9620182Y-12166746D02*
X9620182Y-12157222D01*
X9620182Y-12157222D02*
X9629706Y-12138174D01*
X9629706Y-12138174D02*
X9648753Y-12128650D01*
X9648753Y-12128650D02*
X9677325Y-12128650D01*
X9677325Y-12128650D02*
X9696373Y-12138174D01*
X9772563Y-12338174D02*
X9782087Y-12328650D01*
X9782087Y-12328650D02*
X9801134Y-12300079D01*
X9801134Y-12300079D02*
X9810658Y-12281031D01*
X9810658Y-12281031D02*
X9820182Y-12252460D01*
X9820182Y-12252460D02*
X9829706Y-12204841D01*
X9829706Y-12204841D02*
X9829706Y-12166746D01*
X9829706Y-12166746D02*
X9820182Y-12119127D01*
X9820182Y-12119127D02*
X9810658Y-12090555D01*
X9810658Y-12090555D02*
X9801134Y-12071508D01*
X9801134Y-12071508D02*
X9782087Y-12042936D01*
X9782087Y-12042936D02*
X9772563Y-12033412D01*
D12*
X4982856Y-12469856D02*
X4982856Y-12399144D01*
X4912144Y-12399144D01*
X4912144Y-12469856D01*
X4982856Y-12469856D01*
D11*
X5363039Y-12525984D02*
X5248753Y-12525984D01*
X5305896Y-12525984D02*
X5305896Y-12325984D01*
X5305896Y-12325984D02*
X5286848Y-12354555D01*
X5286848Y-12354555D02*
X5267801Y-12373603D01*
X5267801Y-12373603D02*
X5248753Y-12383127D01*
X5448753Y-12506936D02*
X5458277Y-12516460D01*
X5458277Y-12516460D02*
X5448753Y-12525984D01*
X5448753Y-12525984D02*
X5439229Y-12516460D01*
X5439229Y-12516460D02*
X5448753Y-12506936D01*
X5448753Y-12506936D02*
X5448753Y-12525984D01*
X5582086Y-12325984D02*
X5601134Y-12325984D01*
X5601134Y-12325984D02*
X5620182Y-12335508D01*
X5620182Y-12335508D02*
X5629705Y-12345031D01*
X5629705Y-12345031D02*
X5639229Y-12364079D01*
X5639229Y-12364079D02*
X5648753Y-12402174D01*
X5648753Y-12402174D02*
X5648753Y-12449793D01*
X5648753Y-12449793D02*
X5639229Y-12487888D01*
X5639229Y-12487888D02*
X5629705Y-12506936D01*
X5629705Y-12506936D02*
X5620182Y-12516460D01*
X5620182Y-12516460D02*
X5601134Y-12525984D01*
X5601134Y-12525984D02*
X5582086Y-12525984D01*
X5582086Y-12525984D02*
X5563039Y-12516460D01*
X5563039Y-12516460D02*
X5553515Y-12506936D01*
X5553515Y-12506936D02*
X5543991Y-12487888D01*
X5543991Y-12487888D02*
X5534467Y-12449793D01*
X5534467Y-12449793D02*
X5534467Y-12402174D01*
X5534467Y-12402174D02*
X5543991Y-12364079D01*
X5543991Y-12364079D02*
X5553515Y-12345031D01*
X5553515Y-12345031D02*
X5563039Y-12335508D01*
X5563039Y-12335508D02*
X5582086Y-12325984D01*
X5772562Y-12325984D02*
X5791610Y-12325984D01*
X5791610Y-12325984D02*
X5810658Y-12335508D01*
X5810658Y-12335508D02*
X5820182Y-12345031D01*
X5820182Y-12345031D02*
X5829705Y-12364079D01*
X5829705Y-12364079D02*
X5839229Y-12402174D01*
X5839229Y-12402174D02*
X5839229Y-12449793D01*
X5839229Y-12449793D02*
X5829705Y-12487888D01*
X5829705Y-12487888D02*
X5820182Y-12506936D01*
X5820182Y-12506936D02*
X5810658Y-12516460D01*
X5810658Y-12516460D02*
X5791610Y-12525984D01*
X5791610Y-12525984D02*
X5772562Y-12525984D01*
X5772562Y-12525984D02*
X5753515Y-12516460D01*
X5753515Y-12516460D02*
X5743991Y-12506936D01*
X5743991Y-12506936D02*
X5734467Y-12487888D01*
X5734467Y-12487888D02*
X5724943Y-12449793D01*
X5724943Y-12449793D02*
X5724943Y-12402174D01*
X5724943Y-12402174D02*
X5734467Y-12364079D01*
X5734467Y-12364079D02*
X5743991Y-12345031D01*
X5743991Y-12345031D02*
X5753515Y-12335508D01*
X5753515Y-12335508D02*
X5772562Y-12325984D01*
X5963039Y-12325984D02*
X5982086Y-12325984D01*
X5982086Y-12325984D02*
X6001134Y-12335508D01*
X6001134Y-12335508D02*
X6010658Y-12345031D01*
X6010658Y-12345031D02*
X6020182Y-12364079D01*
X6020182Y-12364079D02*
X6029705Y-12402174D01*
X6029705Y-12402174D02*
X6029705Y-12449793D01*
X6029705Y-12449793D02*
X6020182Y-12487888D01*
X6020182Y-12487888D02*
X6010658Y-12506936D01*
X6010658Y-12506936D02*
X6001134Y-12516460D01*
X6001134Y-12516460D02*
X5982086Y-12525984D01*
X5982086Y-12525984D02*
X5963039Y-12525984D01*
X5963039Y-12525984D02*
X5943991Y-12516460D01*
X5943991Y-12516460D02*
X5934467Y-12506936D01*
X5934467Y-12506936D02*
X5924943Y-12487888D01*
X5924943Y-12487888D02*
X5915420Y-12449793D01*
X5915420Y-12449793D02*
X5915420Y-12402174D01*
X5915420Y-12402174D02*
X5924943Y-12364079D01*
X5924943Y-12364079D02*
X5934467Y-12345031D01*
X5934467Y-12345031D02*
X5943991Y-12335508D01*
X5943991Y-12335508D02*
X5963039Y-12325984D01*
X6115420Y-12525984D02*
X6115420Y-12392650D01*
X6115420Y-12411698D02*
X6124943Y-12402174D01*
X6124943Y-12402174D02*
X6143991Y-12392650D01*
X6143991Y-12392650D02*
X6172563Y-12392650D01*
X6172563Y-12392650D02*
X6191610Y-12402174D01*
X6191610Y-12402174D02*
X6201134Y-12421222D01*
X6201134Y-12421222D02*
X6201134Y-12525984D01*
X6201134Y-12421222D02*
X6210658Y-12402174D01*
X6210658Y-12402174D02*
X6229705Y-12392650D01*
X6229705Y-12392650D02*
X6258277Y-12392650D01*
X6258277Y-12392650D02*
X6277324Y-12402174D01*
X6277324Y-12402174D02*
X6286848Y-12421222D01*
X6286848Y-12421222D02*
X6286848Y-12525984D01*
X6382086Y-12525984D02*
X6382086Y-12392650D01*
X6382086Y-12411698D02*
X6391610Y-12402174D01*
X6391610Y-12402174D02*
X6410658Y-12392650D01*
X6410658Y-12392650D02*
X6439229Y-12392650D01*
X6439229Y-12392650D02*
X6458277Y-12402174D01*
X6458277Y-12402174D02*
X6467801Y-12421222D01*
X6467801Y-12421222D02*
X6467801Y-12525984D01*
X6467801Y-12421222D02*
X6477324Y-12402174D01*
X6477324Y-12402174D02*
X6496372Y-12392650D01*
X6496372Y-12392650D02*
X6524943Y-12392650D01*
X6524943Y-12392650D02*
X6543991Y-12402174D01*
X6543991Y-12402174D02*
X6553515Y-12421222D01*
X6553515Y-12421222D02*
X6553515Y-12525984D01*
X6943991Y-12316460D02*
X6772563Y-12573603D01*
X7201134Y-12325984D02*
X7220182Y-12325984D01*
X7220182Y-12325984D02*
X7239229Y-12335508D01*
X7239229Y-12335508D02*
X7248753Y-12345031D01*
X7248753Y-12345031D02*
X7258277Y-12364079D01*
X7258277Y-12364079D02*
X7267801Y-12402174D01*
X7267801Y-12402174D02*
X7267801Y-12449793D01*
X7267801Y-12449793D02*
X7258277Y-12487888D01*
X7258277Y-12487888D02*
X7248753Y-12506936D01*
X7248753Y-12506936D02*
X7239229Y-12516460D01*
X7239229Y-12516460D02*
X7220182Y-12525984D01*
X7220182Y-12525984D02*
X7201134Y-12525984D01*
X7201134Y-12525984D02*
X7182086Y-12516460D01*
X7182086Y-12516460D02*
X7172563Y-12506936D01*
X7172563Y-12506936D02*
X7163039Y-12487888D01*
X7163039Y-12487888D02*
X7153515Y-12449793D01*
X7153515Y-12449793D02*
X7153515Y-12402174D01*
X7153515Y-12402174D02*
X7163039Y-12364079D01*
X7163039Y-12364079D02*
X7172563Y-12345031D01*
X7172563Y-12345031D02*
X7182086Y-12335508D01*
X7182086Y-12335508D02*
X7201134Y-12325984D01*
X7353515Y-12506936D02*
X7363039Y-12516460D01*
X7363039Y-12516460D02*
X7353515Y-12525984D01*
X7353515Y-12525984D02*
X7343991Y-12516460D01*
X7343991Y-12516460D02*
X7353515Y-12506936D01*
X7353515Y-12506936D02*
X7353515Y-12525984D01*
X7486848Y-12325984D02*
X7505896Y-12325984D01*
X7505896Y-12325984D02*
X7524944Y-12335508D01*
X7524944Y-12335508D02*
X7534467Y-12345031D01*
X7534467Y-12345031D02*
X7543991Y-12364079D01*
X7543991Y-12364079D02*
X7553515Y-12402174D01*
X7553515Y-12402174D02*
X7553515Y-12449793D01*
X7553515Y-12449793D02*
X7543991Y-12487888D01*
X7543991Y-12487888D02*
X7534467Y-12506936D01*
X7534467Y-12506936D02*
X7524944Y-12516460D01*
X7524944Y-12516460D02*
X7505896Y-12525984D01*
X7505896Y-12525984D02*
X7486848Y-12525984D01*
X7486848Y-12525984D02*
X7467801Y-12516460D01*
X7467801Y-12516460D02*
X7458277Y-12506936D01*
X7458277Y-12506936D02*
X7448753Y-12487888D01*
X7448753Y-12487888D02*
X7439229Y-12449793D01*
X7439229Y-12449793D02*
X7439229Y-12402174D01*
X7439229Y-12402174D02*
X7448753Y-12364079D01*
X7448753Y-12364079D02*
X7458277Y-12345031D01*
X7458277Y-12345031D02*
X7467801Y-12335508D01*
X7467801Y-12335508D02*
X7486848Y-12325984D01*
X7620182Y-12325984D02*
X7743991Y-12325984D01*
X7743991Y-12325984D02*
X7677325Y-12402174D01*
X7677325Y-12402174D02*
X7705896Y-12402174D01*
X7705896Y-12402174D02*
X7724944Y-12411698D01*
X7724944Y-12411698D02*
X7734467Y-12421222D01*
X7734467Y-12421222D02*
X7743991Y-12440269D01*
X7743991Y-12440269D02*
X7743991Y-12487888D01*
X7743991Y-12487888D02*
X7734467Y-12506936D01*
X7734467Y-12506936D02*
X7724944Y-12516460D01*
X7724944Y-12516460D02*
X7705896Y-12525984D01*
X7705896Y-12525984D02*
X7648753Y-12525984D01*
X7648753Y-12525984D02*
X7629706Y-12516460D01*
X7629706Y-12516460D02*
X7620182Y-12506936D01*
X7839229Y-12525984D02*
X7877325Y-12525984D01*
X7877325Y-12525984D02*
X7896372Y-12516460D01*
X7896372Y-12516460D02*
X7905896Y-12506936D01*
X7905896Y-12506936D02*
X7924944Y-12478365D01*
X7924944Y-12478365D02*
X7934467Y-12440269D01*
X7934467Y-12440269D02*
X7934467Y-12364079D01*
X7934467Y-12364079D02*
X7924944Y-12345031D01*
X7924944Y-12345031D02*
X7915420Y-12335508D01*
X7915420Y-12335508D02*
X7896372Y-12325984D01*
X7896372Y-12325984D02*
X7858277Y-12325984D01*
X7858277Y-12325984D02*
X7839229Y-12335508D01*
X7839229Y-12335508D02*
X7829706Y-12345031D01*
X7829706Y-12345031D02*
X7820182Y-12364079D01*
X7820182Y-12364079D02*
X7820182Y-12411698D01*
X7820182Y-12411698D02*
X7829706Y-12430746D01*
X7829706Y-12430746D02*
X7839229Y-12440269D01*
X7839229Y-12440269D02*
X7858277Y-12449793D01*
X7858277Y-12449793D02*
X7896372Y-12449793D01*
X7896372Y-12449793D02*
X7915420Y-12440269D01*
X7915420Y-12440269D02*
X7924944Y-12430746D01*
X7924944Y-12430746D02*
X7934467Y-12411698D01*
X8105896Y-12392650D02*
X8105896Y-12525984D01*
X8058277Y-12316460D02*
X8010658Y-12459317D01*
X8010658Y-12459317D02*
X8134467Y-12459317D01*
X8201134Y-12325984D02*
X8201134Y-12364079D01*
X8277325Y-12325984D02*
X8277325Y-12364079D01*
X8572563Y-12602174D02*
X8563039Y-12592650D01*
X8563039Y-12592650D02*
X8543991Y-12564079D01*
X8543991Y-12564079D02*
X8534468Y-12545031D01*
X8534468Y-12545031D02*
X8524944Y-12516460D01*
X8524944Y-12516460D02*
X8515420Y-12468841D01*
X8515420Y-12468841D02*
X8515420Y-12430746D01*
X8515420Y-12430746D02*
X8524944Y-12383127D01*
X8524944Y-12383127D02*
X8534468Y-12354555D01*
X8534468Y-12354555D02*
X8543991Y-12335508D01*
X8543991Y-12335508D02*
X8563039Y-12306936D01*
X8563039Y-12306936D02*
X8572563Y-12297412D01*
X8734468Y-12325984D02*
X8696372Y-12325984D01*
X8696372Y-12325984D02*
X8677325Y-12335508D01*
X8677325Y-12335508D02*
X8667801Y-12345031D01*
X8667801Y-12345031D02*
X8648753Y-12373603D01*
X8648753Y-12373603D02*
X8639230Y-12411698D01*
X8639230Y-12411698D02*
X8639230Y-12487888D01*
X8639230Y-12487888D02*
X8648753Y-12506936D01*
X8648753Y-12506936D02*
X8658277Y-12516460D01*
X8658277Y-12516460D02*
X8677325Y-12525984D01*
X8677325Y-12525984D02*
X8715420Y-12525984D01*
X8715420Y-12525984D02*
X8734468Y-12516460D01*
X8734468Y-12516460D02*
X8743991Y-12506936D01*
X8743991Y-12506936D02*
X8753515Y-12487888D01*
X8753515Y-12487888D02*
X8753515Y-12440269D01*
X8753515Y-12440269D02*
X8743991Y-12421222D01*
X8743991Y-12421222D02*
X8734468Y-12411698D01*
X8734468Y-12411698D02*
X8715420Y-12402174D01*
X8715420Y-12402174D02*
X8677325Y-12402174D01*
X8677325Y-12402174D02*
X8658277Y-12411698D01*
X8658277Y-12411698D02*
X8648753Y-12421222D01*
X8648753Y-12421222D02*
X8639230Y-12440269D01*
X8877325Y-12325984D02*
X8896372Y-12325984D01*
X8896372Y-12325984D02*
X8915420Y-12335508D01*
X8915420Y-12335508D02*
X8924944Y-12345031D01*
X8924944Y-12345031D02*
X8934468Y-12364079D01*
X8934468Y-12364079D02*
X8943991Y-12402174D01*
X8943991Y-12402174D02*
X8943991Y-12449793D01*
X8943991Y-12449793D02*
X8934468Y-12487888D01*
X8934468Y-12487888D02*
X8924944Y-12506936D01*
X8924944Y-12506936D02*
X8915420Y-12516460D01*
X8915420Y-12516460D02*
X8896372Y-12525984D01*
X8896372Y-12525984D02*
X8877325Y-12525984D01*
X8877325Y-12525984D02*
X8858277Y-12516460D01*
X8858277Y-12516460D02*
X8848753Y-12506936D01*
X8848753Y-12506936D02*
X8839230Y-12487888D01*
X8839230Y-12487888D02*
X8829706Y-12449793D01*
X8829706Y-12449793D02*
X8829706Y-12402174D01*
X8829706Y-12402174D02*
X8839230Y-12364079D01*
X8839230Y-12364079D02*
X8848753Y-12345031D01*
X8848753Y-12345031D02*
X8858277Y-12335508D01*
X8858277Y-12335508D02*
X8877325Y-12325984D01*
X9182087Y-12525984D02*
X9182087Y-12325984D01*
X9267801Y-12525984D02*
X9267801Y-12421222D01*
X9267801Y-12421222D02*
X9258277Y-12402174D01*
X9258277Y-12402174D02*
X9239230Y-12392650D01*
X9239230Y-12392650D02*
X9210658Y-12392650D01*
X9210658Y-12392650D02*
X9191611Y-12402174D01*
X9191611Y-12402174D02*
X9182087Y-12411698D01*
X9391611Y-12525984D02*
X9372563Y-12516460D01*
X9372563Y-12516460D02*
X9363039Y-12506936D01*
X9363039Y-12506936D02*
X9353515Y-12487888D01*
X9353515Y-12487888D02*
X9353515Y-12430746D01*
X9353515Y-12430746D02*
X9363039Y-12411698D01*
X9363039Y-12411698D02*
X9372563Y-12402174D01*
X9372563Y-12402174D02*
X9391611Y-12392650D01*
X9391611Y-12392650D02*
X9420182Y-12392650D01*
X9420182Y-12392650D02*
X9439230Y-12402174D01*
X9439230Y-12402174D02*
X9448753Y-12411698D01*
X9448753Y-12411698D02*
X9458277Y-12430746D01*
X9458277Y-12430746D02*
X9458277Y-12487888D01*
X9458277Y-12487888D02*
X9448753Y-12506936D01*
X9448753Y-12506936D02*
X9439230Y-12516460D01*
X9439230Y-12516460D02*
X9420182Y-12525984D01*
X9420182Y-12525984D02*
X9391611Y-12525984D01*
X9572563Y-12525984D02*
X9553515Y-12516460D01*
X9553515Y-12516460D02*
X9543992Y-12497412D01*
X9543992Y-12497412D02*
X9543992Y-12325984D01*
X9724944Y-12516460D02*
X9705896Y-12525984D01*
X9705896Y-12525984D02*
X9667801Y-12525984D01*
X9667801Y-12525984D02*
X9648753Y-12516460D01*
X9648753Y-12516460D02*
X9639230Y-12497412D01*
X9639230Y-12497412D02*
X9639230Y-12421222D01*
X9639230Y-12421222D02*
X9648753Y-12402174D01*
X9648753Y-12402174D02*
X9667801Y-12392650D01*
X9667801Y-12392650D02*
X9705896Y-12392650D01*
X9705896Y-12392650D02*
X9724944Y-12402174D01*
X9724944Y-12402174D02*
X9734468Y-12421222D01*
X9734468Y-12421222D02*
X9734468Y-12440269D01*
X9734468Y-12440269D02*
X9639230Y-12459317D01*
X9810658Y-12516460D02*
X9829706Y-12525984D01*
X9829706Y-12525984D02*
X9867801Y-12525984D01*
X9867801Y-12525984D02*
X9886849Y-12516460D01*
X9886849Y-12516460D02*
X9896373Y-12497412D01*
X9896373Y-12497412D02*
X9896373Y-12487888D01*
X9896373Y-12487888D02*
X9886849Y-12468841D01*
X9886849Y-12468841D02*
X9867801Y-12459317D01*
X9867801Y-12459317D02*
X9839230Y-12459317D01*
X9839230Y-12459317D02*
X9820182Y-12449793D01*
X9820182Y-12449793D02*
X9810658Y-12430746D01*
X9810658Y-12430746D02*
X9810658Y-12421222D01*
X9810658Y-12421222D02*
X9820182Y-12402174D01*
X9820182Y-12402174D02*
X9839230Y-12392650D01*
X9839230Y-12392650D02*
X9867801Y-12392650D01*
X9867801Y-12392650D02*
X9886849Y-12402174D01*
X9963039Y-12602174D02*
X9972563Y-12592650D01*
X9972563Y-12592650D02*
X9991611Y-12564079D01*
X9991611Y-12564079D02*
X10001134Y-12545031D01*
X10001134Y-12545031D02*
X10010658Y-12516460D01*
X10010658Y-12516460D02*
X10020182Y-12468841D01*
X10020182Y-12468841D02*
X10020182Y-12430746D01*
X10020182Y-12430746D02*
X10010658Y-12383127D01*
X10010658Y-12383127D02*
X10001134Y-12354555D01*
X10001134Y-12354555D02*
X9991611Y-12335508D01*
X9991611Y-12335508D02*
X9972563Y-12306936D01*
X9972563Y-12306936D02*
X9963039Y-12297412D01*
M02*
