%TF.GenerationSoftware,KiCad,Pcbnew,8.0.8*%
%TF.CreationDate,2025-01-20T03:53:26+01:00*%
%TF.ProjectId,NANO_MPU_SD_2Layers,4e414e4f-5f4d-4505-955f-53445f324c61,rev?*%
%TF.SameCoordinates,Original*%
%TF.FileFunction,Legend,Bot*%
%TF.FilePolarity,Positive*%
%FSLAX46Y46*%
G04 Gerber Fmt 4.6, Leading zero omitted, Abs format (unit mm)*
G04 Created by KiCad (PCBNEW 8.0.8) date 2025-01-20 03:53:26*
%MOMM*%
%LPD*%
G01*
G04 APERTURE LIST*
%ADD10C,0.100000*%
%ADD11C,0.000000*%
G04 APERTURE END LIST*
D10*
G36*
X72171563Y-105718492D02*
G01*
X72171563Y-105696510D01*
X72163747Y-105663049D01*
X72142742Y-105652791D01*
X72121737Y-105662316D01*
X72113677Y-105693091D01*
X72113677Y-105846964D01*
X72121737Y-105877983D01*
X72142742Y-105887264D01*
X72163014Y-105878960D01*
X72171563Y-105851605D01*
X72184606Y-105802771D01*
X72214717Y-105761445D01*
X72230914Y-105746580D01*
X72273465Y-105719881D01*
X72324213Y-105704265D01*
X72377459Y-105699685D01*
X72428086Y-105703260D01*
X72477088Y-105715615D01*
X72522173Y-105739399D01*
X72529378Y-105744870D01*
X72563611Y-105780877D01*
X72583579Y-105828702D01*
X72585554Y-105851116D01*
X72574426Y-105900285D01*
X72569923Y-105908513D01*
X72535829Y-105945009D01*
X72527913Y-105950279D01*
X72482905Y-105971590D01*
X72468806Y-105976168D01*
X72419965Y-105987468D01*
X72370081Y-105996014D01*
X72365736Y-105996685D01*
X72311651Y-106006485D01*
X72261645Y-106017583D01*
X72212821Y-106032501D01*
X72203803Y-106036252D01*
X72160020Y-106061746D01*
X72123689Y-106096956D01*
X72113433Y-106111479D01*
X72092562Y-106156686D01*
X72083380Y-106208531D01*
X72082903Y-106224563D01*
X72089162Y-106278554D01*
X72107941Y-106327869D01*
X72139240Y-106372509D01*
X72162037Y-106395289D01*
X72204917Y-106426064D01*
X72254666Y-106448046D01*
X72303832Y-106460067D01*
X72358257Y-106465356D01*
X72374773Y-106465631D01*
X72429063Y-106462248D01*
X72479095Y-106452098D01*
X72532082Y-106431706D01*
X72579273Y-106402103D01*
X72615108Y-106369399D01*
X72615108Y-106406524D01*
X72623168Y-106439986D01*
X72644173Y-106450000D01*
X72664689Y-106441207D01*
X72672993Y-106411898D01*
X72672993Y-106254361D01*
X72665177Y-106224319D01*
X72644173Y-106215526D01*
X72623900Y-106223342D01*
X72615108Y-106248255D01*
X72600475Y-106297536D01*
X72569403Y-106336576D01*
X72547452Y-106354989D01*
X72502988Y-106380363D01*
X72455587Y-106395164D01*
X72401193Y-106402353D01*
X72374773Y-106403105D01*
X72323405Y-106399792D01*
X72272441Y-106388147D01*
X72224289Y-106365373D01*
X72203558Y-106350104D01*
X72167682Y-106311218D01*
X72145528Y-106263597D01*
X72140544Y-106224319D01*
X72149068Y-106175266D01*
X72164724Y-106145673D01*
X72201414Y-106109568D01*
X72236043Y-106090718D01*
X72286845Y-106075758D01*
X72336705Y-106065602D01*
X72373307Y-106059211D01*
X72424338Y-106049634D01*
X72476732Y-106036247D01*
X72527195Y-106018028D01*
X72571960Y-105993809D01*
X72580181Y-105987892D01*
X72616197Y-105950189D01*
X72637262Y-105902905D01*
X72643440Y-105851605D01*
X72636380Y-105799059D01*
X72615199Y-105751331D01*
X72584064Y-105712496D01*
X72571144Y-105700418D01*
X72526669Y-105669839D01*
X72480973Y-105651059D01*
X72429476Y-105640186D01*
X72379658Y-105637159D01*
X72328377Y-105641051D01*
X72280321Y-105652727D01*
X72235492Y-105672186D01*
X72193888Y-105699430D01*
X72171563Y-105718492D01*
G37*
G36*
X71283740Y-105737299D02*
G01*
X71283740Y-105693824D01*
X71275924Y-105662316D01*
X71254919Y-105652791D01*
X71234159Y-105661584D01*
X71226099Y-105690648D01*
X71226099Y-105848674D01*
X71234159Y-105878471D01*
X71254919Y-105887264D01*
X71274459Y-105879448D01*
X71283740Y-105854047D01*
X71299357Y-105805668D01*
X71332600Y-105768081D01*
X71346510Y-105757327D01*
X71393037Y-105729463D01*
X71443042Y-105710718D01*
X71496524Y-105701093D01*
X71527739Y-105699685D01*
X71576682Y-105703429D01*
X71627302Y-105715935D01*
X71653524Y-105726308D01*
X71697341Y-105750797D01*
X71723621Y-105773691D01*
X71755048Y-105814586D01*
X71781186Y-105858504D01*
X71795673Y-105889462D01*
X71810144Y-105939288D01*
X71814949Y-105991323D01*
X71814968Y-105994975D01*
X71814968Y-106092916D01*
X71810504Y-106146251D01*
X71797110Y-106196407D01*
X71774787Y-106243383D01*
X71743535Y-106287181D01*
X71721667Y-106310781D01*
X71679304Y-106346755D01*
X71634065Y-106373893D01*
X71585952Y-106392196D01*
X71534963Y-106401662D01*
X71504535Y-106403105D01*
X71455336Y-106399382D01*
X71405877Y-106386828D01*
X71371667Y-106371598D01*
X71328070Y-106343468D01*
X71289071Y-106309777D01*
X71257850Y-106276587D01*
X71231716Y-106262421D01*
X71211688Y-106269993D01*
X71204117Y-106289288D01*
X71228389Y-106331703D01*
X71233670Y-106337648D01*
X71270292Y-106374413D01*
X71309633Y-106405024D01*
X71356049Y-106431589D01*
X71360432Y-106433635D01*
X71409023Y-106451852D01*
X71458076Y-106462506D01*
X71503070Y-106465631D01*
X71554195Y-106461721D01*
X71601960Y-106451171D01*
X71630076Y-106441939D01*
X71675322Y-106422339D01*
X71711898Y-106399685D01*
X71750358Y-106364429D01*
X71785442Y-106324910D01*
X71791277Y-106317864D01*
X71822292Y-106275870D01*
X71846511Y-106233166D01*
X71855512Y-106211374D01*
X71867784Y-106163432D01*
X71872543Y-106111197D01*
X71872609Y-106103907D01*
X71872609Y-105988869D01*
X71868149Y-105936304D01*
X71856508Y-105888384D01*
X71837641Y-105839885D01*
X71826936Y-105818143D01*
X71798579Y-105772185D01*
X71764889Y-105732680D01*
X71725867Y-105699628D01*
X71701884Y-105684054D01*
X71656170Y-105661385D01*
X71608332Y-105646135D01*
X71558368Y-105638304D01*
X71529692Y-105637159D01*
X71477511Y-105640680D01*
X71428129Y-105651241D01*
X71381547Y-105668844D01*
X71337763Y-105693488D01*
X71296779Y-105725173D01*
X71283740Y-105737299D01*
G37*
G36*
X69563049Y-106012316D02*
G01*
X69563049Y-106090474D01*
X70151674Y-106090474D01*
X70151674Y-106012316D01*
X69563049Y-106012316D01*
G37*
G36*
X67894138Y-106450000D02*
G01*
X67968387Y-106450000D01*
X68393614Y-105746580D01*
X68393614Y-106387473D01*
X68287124Y-106387473D01*
X68257083Y-106396022D01*
X68248046Y-106418736D01*
X68257083Y-106441207D01*
X68287124Y-106450000D01*
X68499371Y-106450000D01*
X68529658Y-106441207D01*
X68538450Y-106418736D01*
X68529658Y-106396022D01*
X68499371Y-106387473D01*
X68451256Y-106387473D01*
X68451256Y-105715317D01*
X68528925Y-105715317D01*
X68558722Y-105706769D01*
X68567515Y-105684054D01*
X68558722Y-105661339D01*
X68528925Y-105652791D01*
X68377739Y-105652791D01*
X67952023Y-106356210D01*
X67952023Y-105715317D01*
X68058513Y-105715317D01*
X68088066Y-105706769D01*
X68096859Y-105684054D01*
X68088311Y-105661339D01*
X68058513Y-105652791D01*
X67845533Y-105652791D01*
X67815980Y-105661339D01*
X67806943Y-105684054D01*
X67815980Y-105706769D01*
X67845533Y-105715317D01*
X67894138Y-105715317D01*
X67894138Y-106450000D01*
G37*
G36*
X67354622Y-105840636D02*
G01*
X67406863Y-105847024D01*
X67455691Y-105857405D01*
X67506036Y-105870655D01*
X67536352Y-105879463D01*
X67583705Y-105900209D01*
X67590544Y-105919504D01*
X67582728Y-105941242D01*
X67563677Y-105949790D01*
X67535589Y-105942707D01*
X67506028Y-105933376D01*
X67451989Y-105918447D01*
X67399297Y-105907600D01*
X67346545Y-105902896D01*
X67310181Y-105904450D01*
X67261537Y-105913174D01*
X67214654Y-105935380D01*
X67186189Y-105963469D01*
X67170690Y-106011339D01*
X67170690Y-106097801D01*
X67174072Y-106097060D01*
X67223080Y-106087482D01*
X67271807Y-106080460D01*
X67308582Y-106076823D01*
X67358269Y-106074842D01*
X67385353Y-106075394D01*
X67435785Y-106079808D01*
X67488328Y-106090535D01*
X67540077Y-106110151D01*
X67582972Y-106137613D01*
X67596722Y-106149523D01*
X67629855Y-106187496D01*
X67652395Y-106233630D01*
X67659909Y-106283914D01*
X67655291Y-106325042D01*
X67634769Y-106374049D01*
X67601535Y-106413119D01*
X67582184Y-106428247D01*
X67536827Y-106450811D01*
X67488420Y-106462349D01*
X67439357Y-106465631D01*
X67412717Y-106464674D01*
X67360339Y-106457014D01*
X67309162Y-106441696D01*
X67259188Y-106418718D01*
X67210416Y-106388081D01*
X67170690Y-106356699D01*
X67170690Y-106450000D01*
X67035380Y-106450000D01*
X67005338Y-106441207D01*
X66996301Y-106418736D01*
X67005338Y-106396022D01*
X67035380Y-106387473D01*
X67112316Y-106387473D01*
X67112316Y-106159351D01*
X67170690Y-106159351D01*
X67170690Y-106282205D01*
X67179193Y-106289949D01*
X67217077Y-106321516D01*
X67258446Y-106350290D01*
X67303070Y-106374284D01*
X67340033Y-106388216D01*
X67391903Y-106399699D01*
X67442044Y-106403105D01*
X67470131Y-106401894D01*
X67518423Y-106392208D01*
X67561479Y-106368667D01*
X67590756Y-106332663D01*
X67602267Y-106283426D01*
X67601797Y-106273349D01*
X67585343Y-106227020D01*
X67548778Y-106189881D01*
X67504589Y-106164497D01*
X67458011Y-106148907D01*
X67404564Y-106139881D01*
X67352163Y-106137369D01*
X67306120Y-106138549D01*
X67256664Y-106142742D01*
X67220559Y-106148075D01*
X67170690Y-106159351D01*
X67112316Y-106159351D01*
X67112316Y-106012805D01*
X67117166Y-105976400D01*
X67138718Y-105931285D01*
X67173621Y-105893370D01*
X67193877Y-105878101D01*
X67241438Y-105855328D01*
X67292278Y-105843682D01*
X67343859Y-105840369D01*
X67354622Y-105840636D01*
G37*
G36*
X66682937Y-105856001D02*
G01*
X66682937Y-105949790D01*
X66646248Y-105914761D01*
X66605307Y-105882613D01*
X66573761Y-105864061D01*
X66525282Y-105847056D01*
X66475193Y-105840578D01*
X66463852Y-105840369D01*
X66412165Y-105844924D01*
X66364268Y-105858589D01*
X66343440Y-105867969D01*
X66302542Y-105899198D01*
X66273831Y-105935136D01*
X66251391Y-105979461D01*
X66242598Y-106028042D01*
X66242568Y-106031123D01*
X66242568Y-106387473D01*
X66193963Y-106387473D01*
X66164410Y-106396022D01*
X66155373Y-106418736D01*
X66164410Y-106441207D01*
X66193963Y-106450000D01*
X66348569Y-106450000D01*
X66378855Y-106441207D01*
X66387648Y-106418736D01*
X66378855Y-106396022D01*
X66348569Y-106387473D01*
X66300453Y-106387473D01*
X66300453Y-106044312D01*
X66309008Y-105995886D01*
X66337162Y-105951783D01*
X66345150Y-105943928D01*
X66386306Y-105917361D01*
X66437539Y-105904338D01*
X66464584Y-105902896D01*
X66514662Y-105908101D01*
X66560862Y-105925129D01*
X66563503Y-105926587D01*
X66603363Y-105957207D01*
X66637900Y-105991959D01*
X66673369Y-106032160D01*
X66682937Y-106043579D01*
X66682937Y-106387473D01*
X66617725Y-106387473D01*
X66588415Y-106396022D01*
X66579378Y-106418736D01*
X66588415Y-106441207D01*
X66617725Y-106450000D01*
X66806036Y-106450000D01*
X66835589Y-106441207D01*
X66844382Y-106418736D01*
X66835589Y-106396022D01*
X66806036Y-106387473D01*
X66740823Y-106387473D01*
X66740823Y-105918527D01*
X66789427Y-105918527D01*
X66819225Y-105909979D01*
X66828018Y-105887264D01*
X66819225Y-105865038D01*
X66789427Y-105856001D01*
X66682937Y-105856001D01*
G37*
G36*
X65688911Y-105841804D02*
G01*
X65743656Y-105851221D01*
X65794545Y-105869427D01*
X65841577Y-105896421D01*
X65884752Y-105932205D01*
X65906791Y-105955747D01*
X65938288Y-105999757D01*
X65960787Y-106047343D01*
X65974286Y-106098506D01*
X65978785Y-106153244D01*
X65977316Y-106184847D01*
X65967674Y-106237379D01*
X65949032Y-106286381D01*
X65921392Y-106331853D01*
X65884752Y-106373796D01*
X65854306Y-106400252D01*
X65808376Y-106429758D01*
X65758590Y-106450475D01*
X65704946Y-106462402D01*
X65655896Y-106465631D01*
X65623168Y-106464200D01*
X65568831Y-106454808D01*
X65518235Y-106436651D01*
X65471378Y-106409728D01*
X65428262Y-106374040D01*
X65406108Y-106350554D01*
X65374447Y-106306627D01*
X65351832Y-106259099D01*
X65338263Y-106207972D01*
X65333740Y-106153244D01*
X65333751Y-106153000D01*
X65392114Y-106153000D01*
X65394836Y-106190696D01*
X65409126Y-106243310D01*
X65435665Y-106291211D01*
X65469539Y-106329832D01*
X65510175Y-106361889D01*
X65554902Y-106384787D01*
X65603720Y-106398525D01*
X65656629Y-106403105D01*
X65709553Y-106398495D01*
X65758417Y-106384665D01*
X65803220Y-106361614D01*
X65843963Y-106329344D01*
X65874037Y-106295694D01*
X65899361Y-106253860D01*
X65916320Y-106202490D01*
X65921144Y-106153000D01*
X65918431Y-106115313D01*
X65904185Y-106062744D01*
X65877730Y-106014927D01*
X65843963Y-105976413D01*
X65803220Y-105944249D01*
X65758417Y-105921275D01*
X65709553Y-105907490D01*
X65656629Y-105902896D01*
X65603720Y-105907460D01*
X65554902Y-105921153D01*
X65510175Y-105943974D01*
X65469539Y-105975924D01*
X65439370Y-106009358D01*
X65413965Y-106051204D01*
X65396953Y-106102915D01*
X65392114Y-106153000D01*
X65333751Y-106153000D01*
X65335217Y-106121417D01*
X65344909Y-106068583D01*
X65363647Y-106019396D01*
X65391432Y-105973855D01*
X65428262Y-105931960D01*
X65452442Y-105910494D01*
X65497696Y-105879814D01*
X65546689Y-105857900D01*
X65599423Y-105844752D01*
X65655896Y-105840369D01*
X65688911Y-105841804D01*
G37*
G36*
X64521877Y-106012316D02*
G01*
X64521877Y-106090474D01*
X65110502Y-106090474D01*
X65110502Y-106012316D01*
X64521877Y-106012316D01*
G37*
G36*
X63937892Y-106215526D02*
G01*
X64003838Y-106215526D01*
X64225610Y-105715317D01*
X64236601Y-105715317D01*
X64236601Y-106387473D01*
X64130111Y-106387473D01*
X64100802Y-106396022D01*
X64091765Y-106418736D01*
X64100802Y-106441207D01*
X64130111Y-106450000D01*
X64343091Y-106450000D01*
X64372644Y-106441207D01*
X64381437Y-106418736D01*
X64372644Y-106396022D01*
X64343091Y-106387473D01*
X64294242Y-106387473D01*
X64294242Y-105715317D01*
X64330635Y-105715317D01*
X64360432Y-105706769D01*
X64369225Y-105684054D01*
X64360432Y-105661339D01*
X64330635Y-105652791D01*
X64189218Y-105652791D01*
X63970865Y-106145917D01*
X63755687Y-105652791D01*
X63614270Y-105652791D01*
X63584228Y-105661339D01*
X63575191Y-105684054D01*
X63584228Y-105706769D01*
X63614270Y-105715317D01*
X63649930Y-105715317D01*
X63649930Y-106387473D01*
X63601814Y-106387473D01*
X63571772Y-106396022D01*
X63562735Y-106418736D01*
X63571772Y-106441207D01*
X63601814Y-106450000D01*
X63814061Y-106450000D01*
X63844103Y-106441207D01*
X63853384Y-106418736D01*
X63844591Y-106396022D01*
X63814061Y-106387473D01*
X63707571Y-106387473D01*
X63707571Y-105715317D01*
X63720027Y-105715317D01*
X63937892Y-106215526D01*
G37*
G36*
X63426203Y-105661339D02*
G01*
X63434996Y-105684054D01*
X63426203Y-105706769D01*
X63396406Y-105715317D01*
X63318736Y-105715317D01*
X63318736Y-106387473D01*
X63396406Y-106387473D01*
X63426203Y-106396022D01*
X63434996Y-106418736D01*
X63426203Y-106441207D01*
X63396406Y-106450000D01*
X63063258Y-106450000D01*
X63033705Y-106441207D01*
X63024668Y-106418736D01*
X63033705Y-106396022D01*
X63063258Y-106387473D01*
X63261095Y-106387473D01*
X63261095Y-106121737D01*
X63080355Y-106121737D01*
X63032330Y-106119259D01*
X62981437Y-106108792D01*
X62964347Y-106102796D01*
X62917384Y-106080677D01*
X62874947Y-106053105D01*
X62845037Y-106025334D01*
X62816329Y-105983740D01*
X62814826Y-105980966D01*
X62797271Y-105933736D01*
X62791905Y-105884577D01*
X62849546Y-105884577D01*
X62854501Y-105920034D01*
X62875436Y-105964933D01*
X62878761Y-105969831D01*
X62913947Y-106005582D01*
X62957257Y-106031856D01*
X62978506Y-106041152D01*
X63026431Y-106054696D01*
X63076936Y-106059211D01*
X63261095Y-106059211D01*
X63261095Y-105715317D01*
X63055687Y-105715317D01*
X63050130Y-105715368D01*
X62997895Y-105721464D01*
X62951717Y-105737722D01*
X62907920Y-105767341D01*
X62885175Y-105790732D01*
X62859180Y-105833769D01*
X62849546Y-105884577D01*
X62791905Y-105884577D01*
X62794549Y-105850514D01*
X62808434Y-105802542D01*
X62834220Y-105758319D01*
X62867131Y-105722156D01*
X62871876Y-105717888D01*
X62912885Y-105688625D01*
X62959330Y-105668032D01*
X63011208Y-105656110D01*
X63061060Y-105652791D01*
X63396406Y-105652791D01*
X63426203Y-105661339D01*
G37*
G36*
X62016189Y-105715317D02*
G01*
X62016189Y-106185973D01*
X62020070Y-106236082D01*
X62034007Y-106288884D01*
X62058080Y-106336924D01*
X62092289Y-106380200D01*
X62097278Y-106385275D01*
X62139914Y-106420431D01*
X62186732Y-106445542D01*
X62237733Y-106460609D01*
X62292916Y-106465631D01*
X62343790Y-106461764D01*
X62394680Y-106448723D01*
X62429692Y-106432903D01*
X62472065Y-106403433D01*
X62506501Y-106368092D01*
X62531542Y-106333251D01*
X62555320Y-106285765D01*
X62569229Y-106234989D01*
X62573307Y-106185973D01*
X62573307Y-105715317D01*
X62622156Y-105715317D01*
X62651953Y-105706769D01*
X62660746Y-105684054D01*
X62651221Y-105660118D01*
X62622156Y-105652791D01*
X62409176Y-105652791D01*
X62379867Y-105661339D01*
X62370830Y-105684054D01*
X62379867Y-105706769D01*
X62409176Y-105715317D01*
X62515666Y-105715317D01*
X62515666Y-106181821D01*
X62510507Y-106231551D01*
X62492676Y-106281639D01*
X62462107Y-106326290D01*
X62450453Y-106338625D01*
X62411858Y-106369794D01*
X62364488Y-106392463D01*
X62312396Y-106402538D01*
X62295847Y-106403105D01*
X62244696Y-106397577D01*
X62197945Y-106380994D01*
X62192044Y-106377948D01*
X62150427Y-106348177D01*
X62116233Y-106309642D01*
X62109490Y-106300034D01*
X62086560Y-106255192D01*
X62075320Y-106205995D01*
X62074075Y-106181821D01*
X62074075Y-105715317D01*
X62180565Y-105715317D01*
X62210118Y-105706769D01*
X62218911Y-105684054D01*
X62210118Y-105661339D01*
X62180565Y-105652791D01*
X61967585Y-105652791D01*
X61938032Y-105661339D01*
X61928995Y-105684054D01*
X61938032Y-105706769D01*
X61967585Y-105715317D01*
X62016189Y-105715317D01*
G37*
G36*
X61161095Y-106012316D02*
G01*
X61161095Y-106090474D01*
X61749720Y-106090474D01*
X61749720Y-106012316D01*
X61161095Y-106012316D01*
G37*
G36*
X60408827Y-105718492D02*
G01*
X60408827Y-105696510D01*
X60401011Y-105663049D01*
X60380006Y-105652791D01*
X60359002Y-105662316D01*
X60350942Y-105693091D01*
X60350942Y-105846964D01*
X60359002Y-105877983D01*
X60380006Y-105887264D01*
X60400279Y-105878960D01*
X60408827Y-105851605D01*
X60421870Y-105802771D01*
X60451982Y-105761445D01*
X60468178Y-105746580D01*
X60510729Y-105719881D01*
X60561477Y-105704265D01*
X60614724Y-105699685D01*
X60665351Y-105703260D01*
X60714352Y-105715615D01*
X60759438Y-105739399D01*
X60766643Y-105744870D01*
X60800875Y-105780877D01*
X60820844Y-105828702D01*
X60822819Y-105851116D01*
X60811690Y-105900285D01*
X60807187Y-105908513D01*
X60773094Y-105945009D01*
X60765177Y-105950279D01*
X60720169Y-105971590D01*
X60706071Y-105976168D01*
X60657230Y-105987468D01*
X60607345Y-105996014D01*
X60603000Y-105996685D01*
X60548916Y-106006485D01*
X60498909Y-106017583D01*
X60450085Y-106032501D01*
X60441067Y-106036252D01*
X60397285Y-106061746D01*
X60360954Y-106096956D01*
X60350697Y-106111479D01*
X60329827Y-106156686D01*
X60320644Y-106208531D01*
X60320167Y-106224563D01*
X60326427Y-106278554D01*
X60345206Y-106327869D01*
X60376504Y-106372509D01*
X60399302Y-106395289D01*
X60442182Y-106426064D01*
X60491931Y-106448046D01*
X60541096Y-106460067D01*
X60595521Y-106465356D01*
X60612037Y-106465631D01*
X60666328Y-106462248D01*
X60716359Y-106452098D01*
X60769347Y-106431706D01*
X60816537Y-106402103D01*
X60852372Y-106369399D01*
X60852372Y-106406524D01*
X60860432Y-106439986D01*
X60881437Y-106450000D01*
X60901953Y-106441207D01*
X60910258Y-106411898D01*
X60910258Y-106254361D01*
X60902442Y-106224319D01*
X60881437Y-106215526D01*
X60861165Y-106223342D01*
X60852372Y-106248255D01*
X60837740Y-106297536D01*
X60806667Y-106336576D01*
X60784717Y-106354989D01*
X60740252Y-106380363D01*
X60692852Y-106395164D01*
X60638457Y-106402353D01*
X60612037Y-106403105D01*
X60560670Y-106399792D01*
X60509706Y-106388147D01*
X60461554Y-106365373D01*
X60440823Y-106350104D01*
X60404946Y-106311218D01*
X60382793Y-106263597D01*
X60377808Y-106224319D01*
X60386333Y-106175266D01*
X60401988Y-106145673D01*
X60438678Y-106109568D01*
X60473307Y-106090718D01*
X60524110Y-106075758D01*
X60573970Y-106065602D01*
X60610572Y-106059211D01*
X60661602Y-106049634D01*
X60713997Y-106036247D01*
X60764460Y-106018028D01*
X60809224Y-105993809D01*
X60817445Y-105987892D01*
X60853461Y-105950189D01*
X60874527Y-105902905D01*
X60880704Y-105851605D01*
X60873644Y-105799059D01*
X60852464Y-105751331D01*
X60821328Y-105712496D01*
X60808408Y-105700418D01*
X60763934Y-105669839D01*
X60718238Y-105651059D01*
X60666740Y-105640186D01*
X60616922Y-105637159D01*
X60565641Y-105641051D01*
X60517586Y-105652727D01*
X60472756Y-105672186D01*
X60431152Y-105699430D01*
X60408827Y-105718492D01*
G37*
G36*
X60079832Y-105661339D02*
G01*
X60088625Y-105684054D01*
X60079832Y-105706769D01*
X60050034Y-105715317D01*
X60001186Y-105715317D01*
X60001186Y-106387473D01*
X60050034Y-106387473D01*
X60079832Y-106396022D01*
X60088625Y-106418736D01*
X60079832Y-106441207D01*
X60050034Y-106450000D01*
X59739602Y-106450000D01*
X59728512Y-106449824D01*
X59675580Y-106443680D01*
X59626845Y-106428758D01*
X59582309Y-106405059D01*
X59549892Y-106381331D01*
X59512385Y-106347397D01*
X59478000Y-106306082D01*
X59451884Y-106261444D01*
X59440555Y-106235515D01*
X59425003Y-106188181D01*
X59415671Y-106139997D01*
X59412561Y-106090963D01*
X59412561Y-106011828D01*
X59412817Y-106000348D01*
X59470202Y-106000348D01*
X59470202Y-106102442D01*
X59472202Y-106134056D01*
X59482700Y-106181878D01*
X59502198Y-106230181D01*
X59525272Y-106268845D01*
X59557761Y-106307243D01*
X59597697Y-106341311D01*
X59638292Y-106365655D01*
X59685042Y-106382019D01*
X59733984Y-106387473D01*
X59943545Y-106387473D01*
X59943545Y-105715317D01*
X59733984Y-105715317D01*
X59727053Y-105715412D01*
X59676953Y-105722210D01*
X59630181Y-105739741D01*
X59594957Y-105760433D01*
X59557397Y-105793719D01*
X59536071Y-105820967D01*
X59508834Y-105863271D01*
X59487299Y-105907292D01*
X59474476Y-105950950D01*
X59470202Y-106000348D01*
X59412817Y-106000348D01*
X59413050Y-105989929D01*
X59418898Y-105937347D01*
X59432588Y-105887752D01*
X59434369Y-105883256D01*
X59457330Y-105834744D01*
X59483562Y-105792145D01*
X59514898Y-105750976D01*
X59523225Y-105741524D01*
X59562474Y-105708454D01*
X59606734Y-105682833D01*
X59637569Y-105669689D01*
X59686799Y-105657015D01*
X59739602Y-105652791D01*
X60050034Y-105652791D01*
X60079832Y-105661339D01*
G37*
G36*
X58044068Y-106450000D02*
G01*
X58141521Y-106450000D01*
X58378681Y-105918527D01*
X58437787Y-105918527D01*
X58467341Y-105909979D01*
X58476133Y-105887264D01*
X58467341Y-105865038D01*
X58437787Y-105856001D01*
X58221388Y-105856001D01*
X58191835Y-105864794D01*
X58182798Y-105887264D01*
X58191835Y-105909734D01*
X58221388Y-105918527D01*
X58316887Y-105918527D01*
X58105129Y-106387473D01*
X58079727Y-106387473D01*
X57872365Y-105918527D01*
X57968597Y-105918527D01*
X57998150Y-105909979D01*
X58006943Y-105887264D01*
X57998150Y-105865038D01*
X57968597Y-105856001D01*
X57751465Y-105856001D01*
X57721667Y-105864794D01*
X57712875Y-105887264D01*
X57721667Y-105909734D01*
X57751465Y-105918527D01*
X57809839Y-105918527D01*
X58044068Y-106450000D01*
G37*
G36*
X57135973Y-105988136D02*
G01*
X57089777Y-106012470D01*
X57047556Y-106045022D01*
X57014340Y-106083635D01*
X56988740Y-106129786D01*
X56974956Y-106177379D01*
X56972330Y-106209909D01*
X56977597Y-106258986D01*
X56996112Y-106310659D01*
X57023761Y-106353443D01*
X57056594Y-106388450D01*
X57095386Y-106418524D01*
X57144700Y-106443849D01*
X57192208Y-106458094D01*
X57243783Y-106464953D01*
X57267131Y-106465631D01*
X57318813Y-106461677D01*
X57366898Y-106451220D01*
X57416033Y-106434228D01*
X57421004Y-106432170D01*
X57466094Y-106410961D01*
X57507859Y-106385132D01*
X57532379Y-106363293D01*
X57542637Y-106338625D01*
X57534822Y-106318108D01*
X57515771Y-106309316D01*
X57491102Y-106320062D01*
X57450730Y-106348284D01*
X57402523Y-106373829D01*
X57353124Y-106391427D01*
X57302533Y-106401077D01*
X57265666Y-106403105D01*
X57211789Y-106398371D01*
X57163090Y-106384171D01*
X57119568Y-106360504D01*
X57097627Y-106343265D01*
X57061949Y-106304530D01*
X57037966Y-106258836D01*
X57029972Y-106209909D01*
X57038337Y-106161304D01*
X57061374Y-106116625D01*
X57063433Y-106113677D01*
X57098108Y-106076264D01*
X57140352Y-106048388D01*
X57159176Y-106039427D01*
X57206277Y-106022907D01*
X57257768Y-106013614D01*
X57285694Y-106012316D01*
X57315247Y-106003768D01*
X57324040Y-105980809D01*
X57315491Y-105958094D01*
X57289846Y-105949057D01*
X57240265Y-105949790D01*
X57190099Y-105944335D01*
X57142747Y-105925943D01*
X57112281Y-105903628D01*
X57079547Y-105863663D01*
X57062957Y-105815123D01*
X57061723Y-105796406D01*
X57070470Y-105747823D01*
X57096712Y-105704078D01*
X57114724Y-105685519D01*
X57158859Y-105656050D01*
X57207343Y-105640985D01*
X57252721Y-105637159D01*
X57303090Y-105640993D01*
X57353115Y-105653608D01*
X57362630Y-105657187D01*
X57407754Y-105680696D01*
X57442986Y-105711653D01*
X57459839Y-105728018D01*
X57473272Y-105730949D01*
X57493300Y-105723133D01*
X57501360Y-105703838D01*
X57475590Y-105661087D01*
X57441521Y-105633740D01*
X57398580Y-105607881D01*
X57352800Y-105589410D01*
X57304180Y-105578327D01*
X57252721Y-105574633D01*
X57200575Y-105578739D01*
X57147750Y-105593176D01*
X57101107Y-105618006D01*
X57073447Y-105640334D01*
X57039562Y-105679144D01*
X57014918Y-105726934D01*
X57003965Y-105779637D01*
X57003349Y-105796406D01*
X57009801Y-105845840D01*
X57029155Y-105892843D01*
X57037055Y-105905826D01*
X57069640Y-105944155D01*
X57108950Y-105973595D01*
X57135973Y-105988136D01*
G37*
G36*
X72178890Y-108130000D02*
G01*
X72250453Y-108130000D01*
X72377459Y-107780976D01*
X72503977Y-108130000D01*
X72575296Y-108130000D01*
X72694975Y-107598527D01*
X72723063Y-107598527D01*
X72752616Y-107589979D01*
X72761409Y-107567264D01*
X72752616Y-107545038D01*
X72723063Y-107536001D01*
X72564305Y-107536001D01*
X72534996Y-107544794D01*
X72525959Y-107567264D01*
X72534996Y-107589734D01*
X72564305Y-107598527D01*
X72637822Y-107598527D01*
X72535484Y-108036210D01*
X72412630Y-107692316D01*
X72343754Y-107692316D01*
X72217480Y-108036210D01*
X72119295Y-107598527D01*
X72192079Y-107598527D01*
X72221877Y-107589979D01*
X72231158Y-107567264D01*
X72222365Y-107545038D01*
X72192079Y-107536001D01*
X72034054Y-107536001D01*
X72004012Y-107544794D01*
X71994975Y-107567264D01*
X72004012Y-107589734D01*
X72034054Y-107598527D01*
X72061653Y-107598527D01*
X72178890Y-108130000D01*
G37*
G36*
X71338695Y-108130000D02*
G01*
X71410258Y-108130000D01*
X71537264Y-107780976D01*
X71663782Y-108130000D01*
X71735101Y-108130000D01*
X71854780Y-107598527D01*
X71882868Y-107598527D01*
X71912421Y-107589979D01*
X71921214Y-107567264D01*
X71912421Y-107545038D01*
X71882868Y-107536001D01*
X71724110Y-107536001D01*
X71694801Y-107544794D01*
X71685764Y-107567264D01*
X71694801Y-107589734D01*
X71724110Y-107598527D01*
X71797627Y-107598527D01*
X71695289Y-108036210D01*
X71572435Y-107692316D01*
X71503558Y-107692316D01*
X71377285Y-108036210D01*
X71279099Y-107598527D01*
X71351884Y-107598527D01*
X71381681Y-107589979D01*
X71390963Y-107567264D01*
X71382170Y-107545038D01*
X71351884Y-107536001D01*
X71193859Y-107536001D01*
X71163817Y-107544794D01*
X71154780Y-107567264D01*
X71163817Y-107589734D01*
X71193859Y-107598527D01*
X71221458Y-107598527D01*
X71338695Y-108130000D01*
G37*
G36*
X70498499Y-108130000D02*
G01*
X70570062Y-108130000D01*
X70697069Y-107780976D01*
X70823586Y-108130000D01*
X70894905Y-108130000D01*
X71014584Y-107598527D01*
X71042672Y-107598527D01*
X71072226Y-107589979D01*
X71081018Y-107567264D01*
X71072226Y-107545038D01*
X71042672Y-107536001D01*
X70883914Y-107536001D01*
X70854605Y-107544794D01*
X70845568Y-107567264D01*
X70854605Y-107589734D01*
X70883914Y-107598527D01*
X70957431Y-107598527D01*
X70855094Y-108036210D01*
X70732240Y-107692316D01*
X70663363Y-107692316D01*
X70537090Y-108036210D01*
X70438904Y-107598527D01*
X70511688Y-107598527D01*
X70541486Y-107589979D01*
X70550767Y-107567264D01*
X70541974Y-107545038D01*
X70511688Y-107536001D01*
X70353663Y-107536001D01*
X70323621Y-107544794D01*
X70314584Y-107567264D01*
X70323621Y-107589734D01*
X70353663Y-107598527D01*
X70381263Y-107598527D01*
X70498499Y-108130000D01*
G37*
G36*
X69869330Y-107958053D02*
G01*
X69844417Y-107958053D01*
X69796886Y-107970982D01*
X69778715Y-107985408D01*
X69753811Y-108028447D01*
X69751116Y-108051598D01*
X69764277Y-108100556D01*
X69778960Y-108118764D01*
X69821863Y-108143007D01*
X69844417Y-108145631D01*
X69869330Y-108145631D01*
X69916976Y-108132701D01*
X69935275Y-108118276D01*
X69959959Y-108075237D01*
X69962630Y-108052086D01*
X69949470Y-108003243D01*
X69934787Y-107985163D01*
X69891884Y-107960700D01*
X69869330Y-107958053D01*
G37*
G36*
X69279727Y-107536001D02*
G01*
X69279727Y-107603168D01*
X69242938Y-107566943D01*
X69201478Y-107538562D01*
X69155319Y-107522391D01*
X69132205Y-107520369D01*
X69083088Y-107529066D01*
X69054047Y-107545038D01*
X69019606Y-107580552D01*
X68997627Y-107619288D01*
X68963720Y-107580552D01*
X68924626Y-107548190D01*
X68919713Y-107545038D01*
X68875123Y-107525091D01*
X68840334Y-107520369D01*
X68790486Y-107527990D01*
X68747868Y-107553066D01*
X68740683Y-107560181D01*
X68710916Y-107599840D01*
X68694172Y-107645904D01*
X68691835Y-107672044D01*
X68691835Y-108067473D01*
X68642986Y-108067473D01*
X68613677Y-108076022D01*
X68604640Y-108098736D01*
X68613677Y-108121207D01*
X68642986Y-108130000D01*
X68749476Y-108130000D01*
X68749476Y-107682791D01*
X68759971Y-107634572D01*
X68776343Y-107611228D01*
X68819029Y-107585137D01*
X68838136Y-107582896D01*
X68887458Y-107596085D01*
X68904815Y-107606343D01*
X68942184Y-107640781D01*
X68973416Y-107681356D01*
X68984438Y-107697690D01*
X68984438Y-108067473D01*
X68936322Y-108067473D01*
X68907013Y-108076022D01*
X68897976Y-108098736D01*
X68907013Y-108121207D01*
X68936322Y-108130000D01*
X69042812Y-108130000D01*
X69042812Y-107686699D01*
X69052369Y-107638638D01*
X69069923Y-107612205D01*
X69112301Y-107585214D01*
X69130739Y-107582896D01*
X69178610Y-107594821D01*
X69191800Y-107602435D01*
X69229306Y-107634251D01*
X69262646Y-107673727D01*
X69279727Y-107697690D01*
X69279727Y-108067473D01*
X69231123Y-108067473D01*
X69201570Y-108076022D01*
X69192533Y-108098736D01*
X69201570Y-108121207D01*
X69231123Y-108130000D01*
X69386217Y-108130000D01*
X69416015Y-108121207D01*
X69424808Y-108098736D01*
X69416015Y-108076022D01*
X69386217Y-108067473D01*
X69337613Y-108067473D01*
X69337613Y-107598527D01*
X69386217Y-107598527D01*
X69416015Y-107589979D01*
X69424808Y-107567264D01*
X69416015Y-107545038D01*
X69386217Y-107536001D01*
X69279727Y-107536001D01*
G37*
G36*
X68209497Y-107521804D02*
G01*
X68264243Y-107531221D01*
X68315131Y-107549427D01*
X68362163Y-107576421D01*
X68405338Y-107612205D01*
X68427377Y-107635747D01*
X68458875Y-107679757D01*
X68481373Y-107727343D01*
X68494872Y-107778506D01*
X68499371Y-107833244D01*
X68497902Y-107864847D01*
X68488260Y-107917379D01*
X68469619Y-107966381D01*
X68441978Y-108011853D01*
X68405338Y-108053796D01*
X68374892Y-108080252D01*
X68328962Y-108109758D01*
X68279176Y-108130475D01*
X68225532Y-108142402D01*
X68176482Y-108145631D01*
X68143754Y-108144200D01*
X68089417Y-108134808D01*
X68038821Y-108116651D01*
X67991965Y-108089728D01*
X67948848Y-108054040D01*
X67926694Y-108030554D01*
X67895033Y-107986627D01*
X67872418Y-107939099D01*
X67858849Y-107887972D01*
X67854326Y-107833244D01*
X67854337Y-107833000D01*
X67912700Y-107833000D01*
X67915422Y-107870696D01*
X67929712Y-107923310D01*
X67956252Y-107971211D01*
X67990125Y-108009832D01*
X68030761Y-108041889D01*
X68075488Y-108064787D01*
X68124306Y-108078525D01*
X68177215Y-108083105D01*
X68230140Y-108078495D01*
X68279003Y-108064665D01*
X68323807Y-108041614D01*
X68364549Y-108009344D01*
X68394623Y-107975694D01*
X68419948Y-107933860D01*
X68436906Y-107882490D01*
X68441730Y-107833000D01*
X68439017Y-107795313D01*
X68424771Y-107742744D01*
X68398316Y-107694927D01*
X68364549Y-107656413D01*
X68323807Y-107624249D01*
X68279003Y-107601275D01*
X68230140Y-107587490D01*
X68177215Y-107582896D01*
X68124306Y-107587460D01*
X68075488Y-107601153D01*
X68030761Y-107623974D01*
X67990125Y-107655924D01*
X67959957Y-107689358D01*
X67934552Y-107731204D01*
X67917539Y-107782915D01*
X67912700Y-107833000D01*
X67854337Y-107833000D01*
X67855803Y-107801417D01*
X67865495Y-107748583D01*
X67884233Y-107699396D01*
X67912018Y-107653855D01*
X67948848Y-107611960D01*
X67973028Y-107590494D01*
X68018282Y-107559814D01*
X68067275Y-107537900D01*
X68120009Y-107524752D01*
X68176482Y-107520369D01*
X68209497Y-107521804D01*
G37*
G36*
X67523133Y-107536001D02*
G01*
X67523133Y-107629790D01*
X67486444Y-107594761D01*
X67445503Y-107562613D01*
X67413956Y-107544061D01*
X67365477Y-107527056D01*
X67315389Y-107520578D01*
X67304047Y-107520369D01*
X67252361Y-107524924D01*
X67204464Y-107538589D01*
X67183635Y-107547969D01*
X67142737Y-107579198D01*
X67114026Y-107615136D01*
X67091586Y-107659461D01*
X67082793Y-107708042D01*
X67082763Y-107711123D01*
X67082763Y-108067473D01*
X67034159Y-108067473D01*
X67004605Y-108076022D01*
X66995568Y-108098736D01*
X67004605Y-108121207D01*
X67034159Y-108130000D01*
X67188764Y-108130000D01*
X67219050Y-108121207D01*
X67227843Y-108098736D01*
X67219050Y-108076022D01*
X67188764Y-108067473D01*
X67140648Y-108067473D01*
X67140648Y-107724312D01*
X67149204Y-107675886D01*
X67177357Y-107631783D01*
X67185345Y-107623928D01*
X67226501Y-107597361D01*
X67277735Y-107584338D01*
X67304780Y-107582896D01*
X67354858Y-107588101D01*
X67401058Y-107605129D01*
X67403698Y-107606587D01*
X67443558Y-107637207D01*
X67478096Y-107671959D01*
X67513564Y-107712160D01*
X67523133Y-107723579D01*
X67523133Y-108067473D01*
X67457920Y-108067473D01*
X67428611Y-108076022D01*
X67419574Y-108098736D01*
X67428611Y-108121207D01*
X67457920Y-108130000D01*
X67646231Y-108130000D01*
X67675785Y-108121207D01*
X67684577Y-108098736D01*
X67675785Y-108076022D01*
X67646231Y-108067473D01*
X67581018Y-108067473D01*
X67581018Y-107598527D01*
X67629623Y-107598527D01*
X67659420Y-107589979D01*
X67668213Y-107567264D01*
X67659420Y-107545038D01*
X67629623Y-107536001D01*
X67523133Y-107536001D01*
G37*
G36*
X66255757Y-107601702D02*
G01*
X66255757Y-107579965D01*
X66247697Y-107546015D01*
X66226936Y-107536001D01*
X66205687Y-107544794D01*
X66197383Y-107574103D01*
X66197383Y-107701109D01*
X66205931Y-107730662D01*
X66226936Y-107739211D01*
X66246475Y-107732128D01*
X66255757Y-107707948D01*
X66275954Y-107661768D01*
X66312701Y-107628221D01*
X66319993Y-107623196D01*
X66366206Y-107600251D01*
X66416734Y-107587658D01*
X66469143Y-107583053D01*
X66481681Y-107582896D01*
X66534931Y-107586589D01*
X66588546Y-107599854D01*
X66634437Y-107622767D01*
X66672604Y-107655328D01*
X66676831Y-107660076D01*
X66706003Y-107699934D01*
X66728859Y-107748094D01*
X66741165Y-107799771D01*
X66743510Y-107836175D01*
X66738915Y-107887558D01*
X66722761Y-107939743D01*
X66694977Y-107985978D01*
X66669993Y-108013496D01*
X66630532Y-108043950D01*
X66585668Y-108065703D01*
X66535399Y-108078754D01*
X66479727Y-108083105D01*
X66428860Y-108079876D01*
X66377374Y-108070191D01*
X66342707Y-108060146D01*
X66296299Y-108041072D01*
X66253123Y-108015417D01*
X66216678Y-107986385D01*
X66191277Y-107973684D01*
X66171737Y-107981500D01*
X66163677Y-108000551D01*
X66190773Y-108042683D01*
X66233042Y-108073824D01*
X66275892Y-108098227D01*
X66328163Y-108120316D01*
X66382889Y-108135533D01*
X66431750Y-108143107D01*
X66482414Y-108145631D01*
X66532961Y-108142566D01*
X66587504Y-108131241D01*
X66637279Y-108111571D01*
X66682286Y-108083556D01*
X66711514Y-108058436D01*
X66746441Y-108018056D01*
X66772789Y-107973212D01*
X66790559Y-107923903D01*
X66799750Y-107870129D01*
X66801151Y-107837397D01*
X66797931Y-107787829D01*
X66786035Y-107734123D01*
X66765373Y-107684859D01*
X66735946Y-107640036D01*
X66709560Y-107610739D01*
X66667103Y-107575527D01*
X66620088Y-107548963D01*
X66568515Y-107531048D01*
X66512383Y-107521781D01*
X66478262Y-107520369D01*
X66422284Y-107524261D01*
X66370397Y-107535937D01*
X66322601Y-107555396D01*
X66278895Y-107582640D01*
X66255757Y-107601702D01*
G37*
G36*
X65674231Y-107520636D02*
G01*
X65726472Y-107527024D01*
X65775300Y-107537405D01*
X65825645Y-107550655D01*
X65855962Y-107559463D01*
X65903314Y-107580209D01*
X65910153Y-107599504D01*
X65902337Y-107621242D01*
X65883286Y-107629790D01*
X65855198Y-107622707D01*
X65825637Y-107613376D01*
X65771599Y-107598447D01*
X65718907Y-107587600D01*
X65666154Y-107582896D01*
X65629790Y-107584450D01*
X65581146Y-107593174D01*
X65534263Y-107615380D01*
X65505798Y-107643469D01*
X65490300Y-107691339D01*
X65490300Y-107777801D01*
X65493681Y-107777060D01*
X65542690Y-107767482D01*
X65591416Y-107760460D01*
X65628191Y-107756823D01*
X65677878Y-107754842D01*
X65704962Y-107755394D01*
X65755394Y-107759808D01*
X65807937Y-107770535D01*
X65859686Y-107790151D01*
X65902581Y-107817613D01*
X65916331Y-107829523D01*
X65949465Y-107867496D01*
X65972005Y-107913630D01*
X65979518Y-107963914D01*
X65974901Y-108005042D01*
X65954378Y-108054049D01*
X65921144Y-108093119D01*
X65901793Y-108108247D01*
X65856436Y-108130811D01*
X65808029Y-108142349D01*
X65758967Y-108145631D01*
X65732327Y-108144674D01*
X65679948Y-108137014D01*
X65628771Y-108121696D01*
X65578797Y-108098718D01*
X65530025Y-108068081D01*
X65490300Y-108036699D01*
X65490300Y-108130000D01*
X65354989Y-108130000D01*
X65324947Y-108121207D01*
X65315910Y-108098736D01*
X65324947Y-108076022D01*
X65354989Y-108067473D01*
X65431926Y-108067473D01*
X65431926Y-107839351D01*
X65490300Y-107839351D01*
X65490300Y-107962205D01*
X65498802Y-107969949D01*
X65536687Y-108001516D01*
X65578055Y-108030290D01*
X65622679Y-108054284D01*
X65659643Y-108068216D01*
X65711512Y-108079699D01*
X65761653Y-108083105D01*
X65789740Y-108081894D01*
X65838032Y-108072208D01*
X65881088Y-108048667D01*
X65910365Y-108012663D01*
X65921877Y-107963426D01*
X65921407Y-107953349D01*
X65904952Y-107907020D01*
X65868387Y-107869881D01*
X65824198Y-107844497D01*
X65777621Y-107828907D01*
X65724173Y-107819881D01*
X65671772Y-107817369D01*
X65625730Y-107818549D01*
X65576273Y-107822742D01*
X65540168Y-107828075D01*
X65490300Y-107839351D01*
X65431926Y-107839351D01*
X65431926Y-107692805D01*
X65436775Y-107656400D01*
X65458327Y-107611285D01*
X65493230Y-107573370D01*
X65513487Y-107558101D01*
X65561047Y-107535328D01*
X65611887Y-107523682D01*
X65663468Y-107520369D01*
X65674231Y-107520636D01*
G37*
G36*
X64826980Y-107522958D02*
G01*
X64875605Y-107533154D01*
X64922923Y-107553098D01*
X64962665Y-107579240D01*
X65000617Y-107613002D01*
X65033565Y-107650307D01*
X65033565Y-107536001D01*
X65168876Y-107536001D01*
X65198429Y-107545038D01*
X65207222Y-107567264D01*
X65198429Y-107589979D01*
X65168876Y-107598527D01*
X65091207Y-107598527D01*
X65091207Y-108333210D01*
X65168876Y-108333210D01*
X65198429Y-108341758D01*
X65207222Y-108364473D01*
X65198429Y-108387187D01*
X65168876Y-108395736D01*
X64893370Y-108395736D01*
X64864061Y-108386699D01*
X64855024Y-108364473D01*
X64864061Y-108341758D01*
X64893370Y-108333210D01*
X65033565Y-108333210D01*
X65033565Y-108000062D01*
X65021308Y-108015797D01*
X64981801Y-108056910D01*
X64938190Y-108088887D01*
X64890473Y-108111727D01*
X64838653Y-108125431D01*
X64782728Y-108130000D01*
X64750942Y-108128603D01*
X64698384Y-108119436D01*
X64649729Y-108101715D01*
X64604978Y-108075438D01*
X64564131Y-108040607D01*
X64543236Y-108017629D01*
X64513375Y-107974681D01*
X64492046Y-107928250D01*
X64479248Y-107878337D01*
X64474982Y-107824940D01*
X64533356Y-107824940D01*
X64535915Y-107861479D01*
X64549349Y-107912488D01*
X64574297Y-107958938D01*
X64606140Y-107996399D01*
X64634525Y-108020553D01*
X64681191Y-108047414D01*
X64732765Y-108063031D01*
X64782728Y-108067473D01*
X64821062Y-108064966D01*
X64874280Y-108051803D01*
X64922359Y-108027356D01*
X64960781Y-107996154D01*
X64981749Y-107973105D01*
X65010536Y-107928160D01*
X65027808Y-107878772D01*
X65033565Y-107824940D01*
X65031007Y-107788733D01*
X65017573Y-107738093D01*
X64992624Y-107691858D01*
X64960781Y-107654459D01*
X64932345Y-107630138D01*
X64885408Y-107603093D01*
X64833332Y-107587368D01*
X64782728Y-107582896D01*
X64744735Y-107585403D01*
X64691931Y-107598566D01*
X64644151Y-107623012D01*
X64605896Y-107654214D01*
X64584998Y-107677123D01*
X64556308Y-107721874D01*
X64539094Y-107771147D01*
X64533356Y-107824940D01*
X64474982Y-107824940D01*
X64475137Y-107815017D01*
X64480546Y-107766288D01*
X64493684Y-107719037D01*
X64514549Y-107673265D01*
X64519622Y-107664383D01*
X64548793Y-107623692D01*
X64584308Y-107589202D01*
X64626168Y-107560914D01*
X64635226Y-107556004D01*
X64682062Y-107536207D01*
X64731473Y-107524329D01*
X64783461Y-107520369D01*
X64826980Y-107522958D01*
G37*
G36*
X63947418Y-107254633D02*
G01*
X63947418Y-107395317D01*
X64032658Y-107395317D01*
X64032658Y-107254633D01*
X63947418Y-107254633D01*
G37*
G36*
X63945464Y-107536001D02*
G01*
X63945464Y-108067473D01*
X63718562Y-108067473D01*
X63688520Y-108076022D01*
X63679483Y-108098736D01*
X63688520Y-108121207D01*
X63718562Y-108130000D01*
X64229762Y-108130000D01*
X64259316Y-108121207D01*
X64268108Y-108098736D01*
X64259316Y-108076022D01*
X64229762Y-108067473D01*
X64003105Y-108067473D01*
X64003105Y-107598527D01*
X64171388Y-107598527D01*
X64201186Y-107589734D01*
X64210467Y-107567752D01*
X64201674Y-107544794D01*
X64171388Y-107536001D01*
X63945464Y-107536001D01*
G37*
G36*
X63254256Y-107536001D02*
G01*
X62940893Y-107536001D01*
X62911584Y-107544794D01*
X62902547Y-107567264D01*
X62911584Y-107589734D01*
X62940893Y-107598527D01*
X63254256Y-107598527D01*
X63254256Y-107969532D01*
X63241582Y-108019111D01*
X63214200Y-108050621D01*
X63168208Y-108073937D01*
X63119590Y-108082312D01*
X63096231Y-108083105D01*
X63047230Y-108080001D01*
X62995085Y-108070690D01*
X62969958Y-108064298D01*
X62923109Y-108049323D01*
X62876526Y-108028672D01*
X62863956Y-108021311D01*
X62841242Y-108011542D01*
X62822191Y-108020823D01*
X62813886Y-108042805D01*
X62822923Y-108063810D01*
X62863995Y-108091001D01*
X62909450Y-108109918D01*
X62929658Y-108117055D01*
X62976770Y-108130868D01*
X63027804Y-108140915D01*
X63077454Y-108145380D01*
X63092079Y-108145631D01*
X63145692Y-108141960D01*
X63197603Y-108129271D01*
X63241452Y-108107518D01*
X63253035Y-108099225D01*
X63286965Y-108063511D01*
X63307916Y-108015861D01*
X63312630Y-107974173D01*
X63312630Y-107598527D01*
X63419120Y-107598527D01*
X63448674Y-107589734D01*
X63457466Y-107566775D01*
X63448674Y-107544794D01*
X63419120Y-107536001D01*
X63312630Y-107536001D01*
X63312630Y-107370160D01*
X63304570Y-107341584D01*
X63283810Y-107332791D01*
X63262561Y-107341584D01*
X63254256Y-107370160D01*
X63254256Y-107536001D01*
G37*
G36*
X62339788Y-107521747D02*
G01*
X62395390Y-107530788D01*
X62446738Y-107548267D01*
X62493831Y-107574185D01*
X62536671Y-107608541D01*
X62558481Y-107631130D01*
X62589651Y-107673286D01*
X62611916Y-107718785D01*
X62625274Y-107767627D01*
X62629727Y-107819811D01*
X62627306Y-107861118D01*
X62615783Y-107915661D01*
X62594769Y-107966371D01*
X62564265Y-108013248D01*
X62530565Y-108050376D01*
X62517948Y-108061911D01*
X62477808Y-108092050D01*
X62434234Y-108115492D01*
X62387225Y-108132236D01*
X62336781Y-108142282D01*
X62282903Y-108145631D01*
X62255309Y-108144927D01*
X62206213Y-108140115D01*
X62157851Y-108130742D01*
X62110223Y-108116810D01*
X62080427Y-108105848D01*
X62035168Y-108084948D01*
X61992986Y-108054773D01*
X61981995Y-108032791D01*
X61990300Y-108013251D01*
X62009351Y-108004947D01*
X62032065Y-108013984D01*
X62052870Y-108027077D01*
X62098144Y-108048293D01*
X62147592Y-108064298D01*
X62182519Y-108072526D01*
X62233535Y-108080460D01*
X62282903Y-108083105D01*
X62338575Y-108079075D01*
X62389576Y-108066985D01*
X62435905Y-108046835D01*
X62477564Y-108018625D01*
X62508933Y-107988451D01*
X62540334Y-107943886D01*
X62559813Y-107898824D01*
X62571353Y-107848632D01*
X61983217Y-107848632D01*
X61985095Y-107804536D01*
X61988159Y-107786106D01*
X62041591Y-107786106D01*
X62570621Y-107786106D01*
X62565304Y-107763769D01*
X62547064Y-107717613D01*
X62516601Y-107672991D01*
X62480006Y-107638827D01*
X62451716Y-107619819D01*
X62405546Y-107598681D01*
X62354893Y-107586391D01*
X62306106Y-107582896D01*
X62275192Y-107584279D01*
X62223005Y-107593741D01*
X62175261Y-107612168D01*
X62131960Y-107639560D01*
X62114520Y-107654192D01*
X62081697Y-107690964D01*
X62055651Y-107738076D01*
X62041591Y-107786106D01*
X61988159Y-107786106D01*
X61993315Y-107755099D01*
X62011132Y-107702221D01*
X62037807Y-107654508D01*
X62073342Y-107611960D01*
X62103110Y-107585574D01*
X62148893Y-107556147D01*
X62199468Y-107535485D01*
X62254835Y-107523589D01*
X62306106Y-107520369D01*
X62339788Y-107521747D01*
G37*
G36*
X61641765Y-107536001D02*
G01*
X61641765Y-107629790D01*
X61605076Y-107594761D01*
X61564135Y-107562613D01*
X61532588Y-107544061D01*
X61484110Y-107527056D01*
X61434021Y-107520578D01*
X61422679Y-107520369D01*
X61370993Y-107524924D01*
X61323096Y-107538589D01*
X61302267Y-107547969D01*
X61261369Y-107579198D01*
X61232658Y-107615136D01*
X61210218Y-107659461D01*
X61201426Y-107708042D01*
X61201395Y-107711123D01*
X61201395Y-108067473D01*
X61152791Y-108067473D01*
X61123237Y-108076022D01*
X61114200Y-108098736D01*
X61123237Y-108121207D01*
X61152791Y-108130000D01*
X61307397Y-108130000D01*
X61337683Y-108121207D01*
X61346475Y-108098736D01*
X61337683Y-108076022D01*
X61307397Y-108067473D01*
X61259281Y-108067473D01*
X61259281Y-107724312D01*
X61267836Y-107675886D01*
X61295989Y-107631783D01*
X61303977Y-107623928D01*
X61345133Y-107597361D01*
X61396367Y-107584338D01*
X61423412Y-107582896D01*
X61473490Y-107588101D01*
X61519690Y-107605129D01*
X61522330Y-107606587D01*
X61562190Y-107637207D01*
X61596728Y-107671959D01*
X61632197Y-107712160D01*
X61641765Y-107723579D01*
X61641765Y-108067473D01*
X61576552Y-108067473D01*
X61547243Y-108076022D01*
X61538206Y-108098736D01*
X61547243Y-108121207D01*
X61576552Y-108130000D01*
X61764863Y-108130000D01*
X61794417Y-108121207D01*
X61803210Y-108098736D01*
X61794417Y-108076022D01*
X61764863Y-108067473D01*
X61699651Y-108067473D01*
X61699651Y-107598527D01*
X61748255Y-107598527D01*
X61778053Y-107589979D01*
X61786845Y-107567264D01*
X61778053Y-107545038D01*
X61748255Y-107536001D01*
X61641765Y-107536001D01*
G37*
G36*
X60627180Y-107958053D02*
G01*
X60602267Y-107958053D01*
X60554736Y-107970982D01*
X60536566Y-107985408D01*
X60511662Y-108028447D01*
X60508967Y-108051598D01*
X60522127Y-108100556D01*
X60536810Y-108118764D01*
X60579713Y-108143007D01*
X60602267Y-108145631D01*
X60627180Y-108145631D01*
X60674827Y-108132701D01*
X60693126Y-108118276D01*
X60717810Y-108075237D01*
X60720481Y-108052086D01*
X60707321Y-108003243D01*
X60692637Y-107985163D01*
X60649735Y-107960700D01*
X60627180Y-107958053D01*
G37*
G36*
X59534193Y-107601702D02*
G01*
X59534193Y-107579965D01*
X59526133Y-107546015D01*
X59505373Y-107536001D01*
X59484124Y-107544794D01*
X59475819Y-107574103D01*
X59475819Y-107701109D01*
X59484368Y-107730662D01*
X59505373Y-107739211D01*
X59524912Y-107732128D01*
X59534193Y-107707948D01*
X59554391Y-107661768D01*
X59591137Y-107628221D01*
X59598429Y-107623196D01*
X59644643Y-107600251D01*
X59695171Y-107587658D01*
X59747580Y-107583053D01*
X59760118Y-107582896D01*
X59813368Y-107586589D01*
X59866983Y-107599854D01*
X59912874Y-107622767D01*
X59951040Y-107655328D01*
X59955268Y-107660076D01*
X59984440Y-107699934D01*
X60007295Y-107748094D01*
X60019602Y-107799771D01*
X60021946Y-107836175D01*
X60017352Y-107887558D01*
X60001198Y-107939743D01*
X59973414Y-107985978D01*
X59948429Y-108013496D01*
X59908969Y-108043950D01*
X59864105Y-108065703D01*
X59813836Y-108078754D01*
X59758164Y-108083105D01*
X59707297Y-108079876D01*
X59655811Y-108070191D01*
X59621144Y-108060146D01*
X59574736Y-108041072D01*
X59531560Y-108015417D01*
X59495115Y-107986385D01*
X59469713Y-107973684D01*
X59450174Y-107981500D01*
X59442114Y-108000551D01*
X59469210Y-108042683D01*
X59511479Y-108073824D01*
X59554329Y-108098227D01*
X59606600Y-108120316D01*
X59661326Y-108135533D01*
X59710187Y-108143107D01*
X59760851Y-108145631D01*
X59811398Y-108142566D01*
X59865941Y-108131241D01*
X59915716Y-108111571D01*
X59960723Y-108083556D01*
X59989951Y-108058436D01*
X60024878Y-108018056D01*
X60051226Y-107973212D01*
X60068996Y-107923903D01*
X60078187Y-107870129D01*
X60079588Y-107837397D01*
X60076368Y-107787829D01*
X60064472Y-107734123D01*
X60043810Y-107684859D01*
X60014383Y-107640036D01*
X59987997Y-107610739D01*
X59945540Y-107575527D01*
X59898525Y-107548963D01*
X59846951Y-107531048D01*
X59790820Y-107521781D01*
X59756699Y-107520369D01*
X59700721Y-107524261D01*
X59648834Y-107535937D01*
X59601038Y-107555396D01*
X59557332Y-107582640D01*
X59534193Y-107601702D01*
G37*
G36*
X58967348Y-107521804D02*
G01*
X59022093Y-107531221D01*
X59072982Y-107549427D01*
X59120014Y-107576421D01*
X59163189Y-107612205D01*
X59185228Y-107635747D01*
X59216725Y-107679757D01*
X59239224Y-107727343D01*
X59252722Y-107778506D01*
X59257222Y-107833244D01*
X59255753Y-107864847D01*
X59246111Y-107917379D01*
X59227469Y-107966381D01*
X59199829Y-108011853D01*
X59163189Y-108053796D01*
X59132743Y-108080252D01*
X59086813Y-108109758D01*
X59037026Y-108130475D01*
X58983383Y-108142402D01*
X58934333Y-108145631D01*
X58901605Y-108144200D01*
X58847268Y-108134808D01*
X58796672Y-108116651D01*
X58749815Y-108089728D01*
X58706699Y-108054040D01*
X58684545Y-108030554D01*
X58652884Y-107986627D01*
X58630269Y-107939099D01*
X58616700Y-107887972D01*
X58612177Y-107833244D01*
X58612188Y-107833000D01*
X58670551Y-107833000D01*
X58673273Y-107870696D01*
X58687563Y-107923310D01*
X58714102Y-107971211D01*
X58747976Y-108009832D01*
X58788612Y-108041889D01*
X58833339Y-108064787D01*
X58882157Y-108078525D01*
X58935066Y-108083105D01*
X58987990Y-108078495D01*
X59036854Y-108064665D01*
X59081657Y-108041614D01*
X59122400Y-108009344D01*
X59152473Y-107975694D01*
X59177798Y-107933860D01*
X59194757Y-107882490D01*
X59199581Y-107833000D01*
X59196867Y-107795313D01*
X59182622Y-107742744D01*
X59156167Y-107694927D01*
X59122400Y-107656413D01*
X59081657Y-107624249D01*
X59036854Y-107601275D01*
X58987990Y-107587490D01*
X58935066Y-107582896D01*
X58882157Y-107587460D01*
X58833339Y-107601153D01*
X58788612Y-107623974D01*
X58747976Y-107655924D01*
X58717807Y-107689358D01*
X58692402Y-107731204D01*
X58675390Y-107782915D01*
X58670551Y-107833000D01*
X58612188Y-107833000D01*
X58613654Y-107801417D01*
X58623346Y-107748583D01*
X58642084Y-107699396D01*
X58669868Y-107653855D01*
X58706699Y-107611960D01*
X58730879Y-107590494D01*
X58776132Y-107559814D01*
X58825126Y-107537900D01*
X58877860Y-107524752D01*
X58934333Y-107520369D01*
X58967348Y-107521804D01*
G37*
G36*
X58357187Y-107536001D02*
G01*
X58357187Y-107603168D01*
X58320398Y-107566943D01*
X58278937Y-107538562D01*
X58232779Y-107522391D01*
X58209665Y-107520369D01*
X58160548Y-107529066D01*
X58131507Y-107545038D01*
X58097066Y-107580552D01*
X58075087Y-107619288D01*
X58041180Y-107580552D01*
X58002086Y-107548190D01*
X57997173Y-107545038D01*
X57952583Y-107525091D01*
X57917794Y-107520369D01*
X57867946Y-107527990D01*
X57825327Y-107553066D01*
X57818143Y-107560181D01*
X57788376Y-107599840D01*
X57771632Y-107645904D01*
X57769295Y-107672044D01*
X57769295Y-108067473D01*
X57720446Y-108067473D01*
X57691137Y-108076022D01*
X57682100Y-108098736D01*
X57691137Y-108121207D01*
X57720446Y-108130000D01*
X57826936Y-108130000D01*
X57826936Y-107682791D01*
X57837431Y-107634572D01*
X57853803Y-107611228D01*
X57896489Y-107585137D01*
X57915596Y-107582896D01*
X57964918Y-107596085D01*
X57982274Y-107606343D01*
X58019644Y-107640781D01*
X58050876Y-107681356D01*
X58061898Y-107697690D01*
X58061898Y-108067473D01*
X58013782Y-108067473D01*
X57984473Y-108076022D01*
X57975436Y-108098736D01*
X57984473Y-108121207D01*
X58013782Y-108130000D01*
X58120272Y-108130000D01*
X58120272Y-107686699D01*
X58129829Y-107638638D01*
X58147383Y-107612205D01*
X58189761Y-107585214D01*
X58208199Y-107582896D01*
X58256070Y-107594821D01*
X58269260Y-107602435D01*
X58306766Y-107634251D01*
X58340105Y-107673727D01*
X58357187Y-107697690D01*
X58357187Y-108067473D01*
X58308583Y-108067473D01*
X58279030Y-108076022D01*
X58269993Y-108098736D01*
X58279030Y-108121207D01*
X58308583Y-108130000D01*
X58463677Y-108130000D01*
X58493475Y-108121207D01*
X58502267Y-108098736D01*
X58493475Y-108076022D01*
X58463677Y-108067473D01*
X58415073Y-108067473D01*
X58415073Y-107598527D01*
X58463677Y-107598527D01*
X58493475Y-107589979D01*
X58502267Y-107567264D01*
X58493475Y-107545038D01*
X58463677Y-107536001D01*
X58357187Y-107536001D01*
G37*
D11*
%TO.C,G\u002A\u002A\u002A*%
G36*
X68434792Y-100711641D02*
G01*
X68433990Y-100717526D01*
X68427381Y-100719052D01*
X68426051Y-100717422D01*
X68427381Y-100704230D01*
X68430725Y-100702491D01*
X68434792Y-100711641D01*
G37*
G36*
X64450731Y-103038300D02*
G01*
X64473159Y-103052231D01*
X64496418Y-103075212D01*
X64521153Y-103111337D01*
X64528473Y-103119650D01*
X64541394Y-103119382D01*
X64551338Y-103102303D01*
X64555317Y-103071867D01*
X64555317Y-103032355D01*
X64607074Y-103040117D01*
X64622110Y-103042902D01*
X64654445Y-103052507D01*
X64674564Y-103063611D01*
X64685456Y-103072025D01*
X64706177Y-103079343D01*
X64713111Y-103080466D01*
X64722057Y-103090459D01*
X64719455Y-103096115D01*
X64703479Y-103101575D01*
X64687738Y-103105487D01*
X64664573Y-103119972D01*
X64662699Y-103121749D01*
X64655630Y-103131313D01*
X64650616Y-103145921D01*
X64647314Y-103169008D01*
X64645380Y-103204012D01*
X64644471Y-103254371D01*
X64644245Y-103323522D01*
X64644278Y-103358146D01*
X64644716Y-103417807D01*
X64645971Y-103460487D01*
X64648430Y-103489766D01*
X64652482Y-103509225D01*
X64658512Y-103522444D01*
X64666910Y-103533002D01*
X64688230Y-103549578D01*
X64711374Y-103557330D01*
X64723882Y-103559356D01*
X64733173Y-103568446D01*
X64726101Y-103572436D01*
X64699180Y-103576266D01*
X64654416Y-103578706D01*
X64594223Y-103579562D01*
X64558638Y-103579280D01*
X64504413Y-103577198D01*
X64469974Y-103573225D01*
X64455924Y-103567527D01*
X64462865Y-103560267D01*
X64491400Y-103551609D01*
X64492893Y-103551259D01*
X64520819Y-103545114D01*
X64538643Y-103541882D01*
X64540469Y-103539900D01*
X64544662Y-103520329D01*
X64548227Y-103481656D01*
X64550997Y-103426110D01*
X64552800Y-103355920D01*
X64555841Y-103171184D01*
X64523329Y-103136380D01*
X64514196Y-103127723D01*
X64487844Y-103110590D01*
X64461466Y-103101306D01*
X64441164Y-103101473D01*
X64433041Y-103112691D01*
X64431160Y-103117805D01*
X64416367Y-103123807D01*
X64408697Y-103125061D01*
X64399693Y-103134923D01*
X64395617Y-103144238D01*
X64379675Y-103142989D01*
X64355357Y-103126895D01*
X64341248Y-103108248D01*
X64332997Y-103078652D01*
X64335030Y-103062524D01*
X64347261Y-103047597D01*
X64375698Y-103035462D01*
X64399768Y-103028675D01*
X64424900Y-103028068D01*
X64450731Y-103038300D01*
G37*
G36*
X65231304Y-102737217D02*
G01*
X65261019Y-102743031D01*
X65277855Y-102751422D01*
X65287432Y-102760296D01*
X65306018Y-102768096D01*
X65310941Y-102769136D01*
X65330579Y-102782981D01*
X65353073Y-102807739D01*
X65372927Y-102836752D01*
X65384646Y-102863362D01*
X65391661Y-102879662D01*
X65401317Y-102884081D01*
X65401836Y-102883866D01*
X65406600Y-102892788D01*
X65409969Y-102918411D01*
X65411247Y-102955707D01*
X65411247Y-103033471D01*
X65446518Y-103036954D01*
X65449024Y-103037238D01*
X65472731Y-103044076D01*
X65486020Y-103054507D01*
X65485722Y-103064051D01*
X65468662Y-103068227D01*
X65468060Y-103068227D01*
X65449139Y-103068616D01*
X65434968Y-103071656D01*
X65424860Y-103080144D01*
X65418129Y-103096879D01*
X65414089Y-103124657D01*
X65412052Y-103166276D01*
X65411334Y-103224531D01*
X65411247Y-103302222D01*
X65411263Y-103344025D01*
X65411509Y-103408936D01*
X65412309Y-103456353D01*
X65413987Y-103489390D01*
X65416867Y-103511161D01*
X65421272Y-103524781D01*
X65427526Y-103533365D01*
X65435952Y-103540026D01*
X65456610Y-103551137D01*
X65481072Y-103557330D01*
X65491572Y-103559375D01*
X65494617Y-103568446D01*
X65485209Y-103572091D01*
X65458028Y-103575611D01*
X65418871Y-103578050D01*
X65373361Y-103579340D01*
X65327121Y-103579410D01*
X65285774Y-103578190D01*
X65254944Y-103575611D01*
X65240253Y-103571603D01*
X65239564Y-103569420D01*
X65249971Y-103560915D01*
X65274527Y-103551794D01*
X65316761Y-103539944D01*
X65316761Y-103306865D01*
X65316761Y-103073785D01*
X65269518Y-103070367D01*
X65262093Y-103069731D01*
X65232034Y-103063068D01*
X65222275Y-103050914D01*
X65223882Y-103044985D01*
X65238855Y-103037228D01*
X65272297Y-103034880D01*
X65322319Y-103034880D01*
X65322319Y-102929405D01*
X65322131Y-102904843D01*
X65319092Y-102850940D01*
X65310898Y-102814679D01*
X65295696Y-102792807D01*
X65271637Y-102782069D01*
X65236870Y-102779212D01*
X65215272Y-102780100D01*
X65191059Y-102787029D01*
X65176779Y-102803373D01*
X65165636Y-102821079D01*
X65141600Y-102849374D01*
X65116356Y-102870779D01*
X65096308Y-102879256D01*
X65091036Y-102878945D01*
X65068752Y-102867609D01*
X65057843Y-102844611D01*
X65058416Y-102816311D01*
X65070580Y-102789064D01*
X65094442Y-102769231D01*
X65096280Y-102768354D01*
X65119750Y-102754927D01*
X65131495Y-102744138D01*
X65138791Y-102738920D01*
X65162799Y-102734793D01*
X65196100Y-102734348D01*
X65231304Y-102737217D01*
G37*
G36*
X63185273Y-103036545D02*
G01*
X63208771Y-103037124D01*
X63239540Y-103038726D01*
X63254000Y-103040808D01*
X63249190Y-103043068D01*
X63223559Y-103050904D01*
X63206822Y-103063868D01*
X63200814Y-103071043D01*
X63187369Y-103073363D01*
X63184489Y-103077833D01*
X63181333Y-103101840D01*
X63178956Y-103144631D01*
X63177458Y-103204259D01*
X63176936Y-103278775D01*
X63176735Y-103327612D01*
X63175510Y-103396866D01*
X63173234Y-103448040D01*
X63169980Y-103479756D01*
X63165820Y-103490634D01*
X63160587Y-103492657D01*
X63154704Y-103507700D01*
X63151793Y-103522766D01*
X63138721Y-103548671D01*
X63120575Y-103570427D01*
X63103404Y-103579562D01*
X63096916Y-103580604D01*
X63088008Y-103590678D01*
X63085713Y-103594000D01*
X63067818Y-103599586D01*
X63037987Y-103601794D01*
X63023037Y-103601284D01*
X62997900Y-103597308D01*
X62987965Y-103590678D01*
X62986301Y-103585765D01*
X62971909Y-103579562D01*
X62963525Y-103577058D01*
X62940752Y-103563005D01*
X62913550Y-103540709D01*
X62900849Y-103529324D01*
X62872360Y-103507906D01*
X62854800Y-103504271D01*
X62845917Y-103518774D01*
X62843457Y-103551772D01*
X62843440Y-103556948D01*
X62841588Y-103585675D01*
X62834837Y-103598718D01*
X62820569Y-103601794D01*
X62807955Y-103599428D01*
X62804551Y-103590678D01*
X62804770Y-103590297D01*
X62799639Y-103582573D01*
X62777417Y-103579562D01*
X62776464Y-103579558D01*
X62753089Y-103576290D01*
X62743413Y-103568764D01*
X62743259Y-103567722D01*
X62731665Y-103557421D01*
X62707286Y-103547535D01*
X62701368Y-103545739D01*
X62685783Y-103539238D01*
X62688142Y-103536101D01*
X62705828Y-103528540D01*
X62727048Y-103510087D01*
X62727361Y-103509729D01*
X62734792Y-103499469D01*
X62740401Y-103486029D01*
X62744511Y-103466232D01*
X62747442Y-103436903D01*
X62749518Y-103394868D01*
X62751058Y-103336951D01*
X62752386Y-103259978D01*
X62755801Y-103034880D01*
X62846872Y-103036393D01*
X62864557Y-103036793D01*
X62897163Y-103038321D01*
X62914438Y-103040408D01*
X62912932Y-103042724D01*
X62897334Y-103047837D01*
X62887921Y-103057136D01*
X62883644Y-103064134D01*
X62865689Y-103073785D01*
X62859440Y-103076332D01*
X62853024Y-103082493D01*
X62848599Y-103094730D01*
X62845798Y-103116275D01*
X62844252Y-103150358D01*
X62843594Y-103200211D01*
X62843457Y-103269064D01*
X62843538Y-103296826D01*
X62844618Y-103364602D01*
X62846881Y-103415015D01*
X62850231Y-103446449D01*
X62854573Y-103457287D01*
X62858894Y-103458429D01*
X62865689Y-103471727D01*
X62866171Y-103474168D01*
X62879244Y-103487561D01*
X62904595Y-103500237D01*
X62910872Y-103502643D01*
X62934102Y-103514546D01*
X62943501Y-103524702D01*
X62943506Y-103524878D01*
X62953543Y-103532102D01*
X62977045Y-103535098D01*
X62983948Y-103534766D01*
X63015208Y-103523833D01*
X63049299Y-103495238D01*
X63088008Y-103455378D01*
X63088008Y-103245129D01*
X63088008Y-103034880D01*
X63185273Y-103036545D01*
G37*
G36*
X66078435Y-102738369D02*
G01*
X66093168Y-102750970D01*
X66096848Y-102755857D01*
X66119076Y-102766819D01*
X66155495Y-102774634D01*
X66169130Y-102776723D01*
X66200759Y-102785630D01*
X66211597Y-102797318D01*
X66207030Y-102806403D01*
X66188571Y-102812560D01*
X66174716Y-102813047D01*
X66162619Y-102816022D01*
X66153185Y-102823680D01*
X66146112Y-102838213D01*
X66141099Y-102861816D01*
X66137846Y-102896683D01*
X66136051Y-102945005D01*
X66135413Y-103008978D01*
X66135631Y-103090794D01*
X66136405Y-103192647D01*
X66139343Y-103540656D01*
X66175470Y-103551292D01*
X66178916Y-103552347D01*
X66202108Y-103562011D01*
X66211597Y-103570745D01*
X66211590Y-103570836D01*
X66200688Y-103574228D01*
X66171959Y-103577002D01*
X66129700Y-103578875D01*
X66078205Y-103579562D01*
X66033305Y-103579065D01*
X65985838Y-103576936D01*
X65955493Y-103573326D01*
X65944814Y-103568446D01*
X65949320Y-103561852D01*
X65967776Y-103557330D01*
X65983506Y-103555516D01*
X66012240Y-103545823D01*
X66017629Y-103542399D01*
X66023989Y-103534686D01*
X66028419Y-103521067D01*
X66031265Y-103498279D01*
X66032871Y-103463055D01*
X66033581Y-103412130D01*
X66033741Y-103342240D01*
X66033741Y-103150164D01*
X65988227Y-103125870D01*
X65950540Y-103110553D01*
X65908342Y-103101860D01*
X65869668Y-103101123D01*
X65840234Y-103108415D01*
X65825759Y-103123807D01*
X65820504Y-103136788D01*
X65810126Y-103146039D01*
X65807670Y-103151945D01*
X65804738Y-103176632D01*
X65802404Y-103217193D01*
X65800863Y-103269982D01*
X65800306Y-103331357D01*
X65800500Y-103390200D01*
X65801433Y-103444969D01*
X65803418Y-103483651D01*
X65806756Y-103509628D01*
X65811750Y-103526284D01*
X65818703Y-103537002D01*
X65834509Y-103549496D01*
X65858265Y-103557330D01*
X65869401Y-103559476D01*
X65872560Y-103568446D01*
X65865732Y-103571703D01*
X65839980Y-103575790D01*
X65799734Y-103578549D01*
X65749628Y-103579562D01*
X65719833Y-103579272D01*
X65673930Y-103577248D01*
X65644163Y-103573543D01*
X65633566Y-103568446D01*
X65635739Y-103563094D01*
X65651034Y-103557330D01*
X65653439Y-103557300D01*
X65670883Y-103554021D01*
X65683481Y-103543249D01*
X65691998Y-103522042D01*
X65697202Y-103487456D01*
X65699859Y-103436547D01*
X65700733Y-103366374D01*
X65701535Y-103307342D01*
X65706173Y-103220013D01*
X65715457Y-103151667D01*
X65730003Y-103100429D01*
X65750432Y-103064424D01*
X65777359Y-103041777D01*
X65811403Y-103030614D01*
X65811654Y-103030574D01*
X65846494Y-103029059D01*
X65884754Y-103033266D01*
X65920021Y-103041670D01*
X65945884Y-103052748D01*
X65955930Y-103064975D01*
X65957068Y-103070593D01*
X65970150Y-103079343D01*
X65982732Y-103084356D01*
X66000394Y-103101575D01*
X66012644Y-103115781D01*
X66025079Y-103123807D01*
X66027512Y-103115951D01*
X66030000Y-103089144D01*
X66031973Y-103046724D01*
X66033273Y-102992250D01*
X66033741Y-102929278D01*
X66033741Y-102734748D01*
X66060342Y-102734748D01*
X66078435Y-102738369D01*
G37*
G36*
X65244507Y-103323895D02*
G01*
X65244257Y-103346234D01*
X65242345Y-103386097D01*
X65238961Y-103413652D01*
X65234596Y-103423939D01*
X65226979Y-103429488D01*
X65218331Y-103448950D01*
X65216835Y-103453744D01*
X65201666Y-103479877D01*
X65171526Y-103514672D01*
X65124748Y-103560109D01*
X65106411Y-103572200D01*
X65079614Y-103579562D01*
X65064922Y-103581887D01*
X65055536Y-103590678D01*
X65048451Y-103595698D01*
X65024366Y-103600107D01*
X64988840Y-103601794D01*
X64958719Y-103600613D01*
X64932269Y-103596599D01*
X64922144Y-103590678D01*
X64917975Y-103584217D01*
X64899912Y-103579562D01*
X64880693Y-103575104D01*
X64855443Y-103560109D01*
X64810821Y-103519291D01*
X64775630Y-103483531D01*
X64752567Y-103455762D01*
X64744289Y-103438881D01*
X64739524Y-103420953D01*
X64726395Y-103395848D01*
X64723955Y-103391862D01*
X64715235Y-103368342D01*
X64711735Y-103334491D01*
X64711957Y-103323482D01*
X64817388Y-103323482D01*
X64818161Y-103374973D01*
X64822328Y-103423303D01*
X64829381Y-103463713D01*
X64838813Y-103491448D01*
X64850119Y-103501750D01*
X64858631Y-103505160D01*
X64869342Y-103522287D01*
X64882953Y-103538773D01*
X64917881Y-103549955D01*
X64923809Y-103550915D01*
X64969549Y-103556194D01*
X65001175Y-103554404D01*
X65025074Y-103545264D01*
X65044988Y-103531324D01*
X65071562Y-103506607D01*
X65091893Y-103481405D01*
X65100000Y-103462339D01*
X65101113Y-103455146D01*
X65110593Y-103446171D01*
X65118350Y-103440934D01*
X65128057Y-103417956D01*
X65135898Y-103381176D01*
X65141478Y-103335518D01*
X65144403Y-103285908D01*
X65144279Y-103237268D01*
X65140711Y-103194524D01*
X65133304Y-103162600D01*
X65120727Y-103137071D01*
X65099358Y-103111417D01*
X65077906Y-103101575D01*
X65073658Y-103100773D01*
X65072008Y-103090785D01*
X65067608Y-103080936D01*
X65047653Y-103072400D01*
X65024491Y-103064048D01*
X65008293Y-103052621D01*
X65002249Y-103046540D01*
X64991619Y-103052621D01*
X64978080Y-103062738D01*
X64952713Y-103072286D01*
X64931645Y-103080463D01*
X64922144Y-103090671D01*
X64918580Y-103096745D01*
X64901261Y-103101575D01*
X64883488Y-103109525D01*
X64866564Y-103134923D01*
X64865723Y-103136921D01*
X64854152Y-103159129D01*
X64845151Y-103168271D01*
X64844287Y-103168722D01*
X64838484Y-103182660D01*
X64831095Y-103212163D01*
X64823501Y-103251893D01*
X64820515Y-103273587D01*
X64817388Y-103323482D01*
X64711957Y-103323482D01*
X64712744Y-103284523D01*
X64713137Y-103277479D01*
X64716887Y-103237167D01*
X64722180Y-103206883D01*
X64728003Y-103192726D01*
X64739063Y-103177475D01*
X64750259Y-103151597D01*
X64750916Y-103149695D01*
X64761200Y-103128520D01*
X64770422Y-103121763D01*
X64774960Y-103120875D01*
X64790727Y-103109104D01*
X64810002Y-103089696D01*
X64826316Y-103069494D01*
X64833203Y-103055342D01*
X64833270Y-103055024D01*
X64844819Y-103049412D01*
X64872345Y-103041978D01*
X64910296Y-103034240D01*
X64927158Y-103031356D01*
X64970428Y-103026300D01*
X65005111Y-103027628D01*
X65040909Y-103035429D01*
X65047652Y-103037316D01*
X65073220Y-103045021D01*
X65093465Y-103053579D01*
X65112466Y-103066088D01*
X65134306Y-103085643D01*
X65163064Y-103115341D01*
X65202822Y-103158278D01*
X65214991Y-103176402D01*
X65222275Y-103201619D01*
X65224360Y-103214541D01*
X65233391Y-103223851D01*
X65235230Y-103224959D01*
X65240114Y-103241763D01*
X65243341Y-103275958D01*
X65243583Y-103285908D01*
X65244507Y-103323895D01*
G37*
G36*
X63775177Y-103291749D02*
G01*
X63777199Y-103323239D01*
X63776544Y-103342179D01*
X63772533Y-103370787D01*
X63766083Y-103385033D01*
X63758393Y-103398924D01*
X63754967Y-103424595D01*
X63751715Y-103447642D01*
X63743851Y-103457287D01*
X63738737Y-103459168D01*
X63732735Y-103473961D01*
X63731481Y-103481631D01*
X63721619Y-103490634D01*
X63717109Y-103491925D01*
X63710503Y-103505558D01*
X63709747Y-103508891D01*
X63696379Y-103524646D01*
X63671597Y-103541434D01*
X63663599Y-103545925D01*
X63641547Y-103560766D01*
X63632691Y-103570974D01*
X63628537Y-103575958D01*
X63610459Y-103579562D01*
X63597537Y-103581647D01*
X63588227Y-103590678D01*
X63579581Y-103596063D01*
X63553730Y-103600224D01*
X63515973Y-103601794D01*
X63480972Y-103600464D01*
X63453928Y-103596487D01*
X63443720Y-103590678D01*
X63440159Y-103584488D01*
X63422849Y-103579562D01*
X63410087Y-103577157D01*
X63388140Y-103562888D01*
X63378624Y-103553988D01*
X63360601Y-103546214D01*
X63355107Y-103544840D01*
X63335370Y-103529891D01*
X63311542Y-103502915D01*
X63288157Y-103469455D01*
X63284619Y-103462845D01*
X63338351Y-103462845D01*
X63379088Y-103504628D01*
X63399714Y-103523984D01*
X63431018Y-103543167D01*
X63467900Y-103551307D01*
X63474824Y-103551888D01*
X63515407Y-103550856D01*
X63551849Y-103543516D01*
X63578129Y-103531594D01*
X63588227Y-103516816D01*
X63589038Y-103510663D01*
X63597465Y-103501750D01*
X63597552Y-103501749D01*
X63608557Y-103492676D01*
X63621996Y-103471182D01*
X63635826Y-103446127D01*
X63650533Y-103423939D01*
X63654690Y-103415725D01*
X63661528Y-103384466D01*
X63666161Y-103336431D01*
X63668306Y-103275212D01*
X63667685Y-103204398D01*
X63665667Y-103173446D01*
X63659901Y-103152240D01*
X63649365Y-103146039D01*
X63641641Y-103144413D01*
X63632691Y-103131836D01*
X63630023Y-103121706D01*
X63611789Y-103100221D01*
X63581721Y-103080568D01*
X63546261Y-103067537D01*
X63542217Y-103066723D01*
X63510254Y-103065205D01*
X63478237Y-103069995D01*
X63453585Y-103079354D01*
X63443720Y-103091547D01*
X63441462Y-103096431D01*
X63426005Y-103101575D01*
X63414977Y-103105376D01*
X63402678Y-103123038D01*
X63397135Y-103135627D01*
X63381486Y-103150479D01*
X63374835Y-103154582D01*
X63365908Y-103172554D01*
X63364739Y-103179630D01*
X63353052Y-103192936D01*
X63349499Y-103196890D01*
X63344135Y-103220091D01*
X63340746Y-103264277D01*
X63339273Y-103330033D01*
X63338351Y-103462845D01*
X63284619Y-103462845D01*
X63269743Y-103435055D01*
X63268869Y-103433060D01*
X63252597Y-103397771D01*
X63237079Y-103366644D01*
X63228217Y-103343613D01*
X63222096Y-103301331D01*
X63225279Y-103259797D01*
X63237721Y-103228755D01*
X63247368Y-103211170D01*
X63254395Y-103181510D01*
X63257291Y-103166447D01*
X63265864Y-103162713D01*
X63271800Y-103163552D01*
X63276980Y-103151391D01*
X63277480Y-103147495D01*
X63290051Y-103125455D01*
X63315304Y-103098878D01*
X63347561Y-103072525D01*
X63381144Y-103051160D01*
X63410372Y-103039542D01*
X63414510Y-103038697D01*
X63456727Y-103030925D01*
X63488619Y-103028220D01*
X63520633Y-103030439D01*
X63563216Y-103037438D01*
X63591739Y-103043564D01*
X63622018Y-103054031D01*
X63632691Y-103064709D01*
X63633637Y-103070507D01*
X63644182Y-103079343D01*
X63650675Y-103081272D01*
X63670685Y-103095890D01*
X63694120Y-103119484D01*
X63714913Y-103145580D01*
X63726997Y-103167704D01*
X63733379Y-103181312D01*
X63744600Y-103190503D01*
X63745958Y-103190838D01*
X63752362Y-103203691D01*
X63754967Y-103229409D01*
X63755063Y-103234515D01*
X63758736Y-103258543D01*
X63766083Y-103268315D01*
X63770013Y-103271880D01*
X63770879Y-103275212D01*
X63775177Y-103291749D01*
G37*
G36*
X64202768Y-103066714D02*
G01*
X64166046Y-103107429D01*
X64141480Y-103141713D01*
X64132910Y-103164974D01*
X64132035Y-103170562D01*
X64121794Y-103179387D01*
X64116116Y-103182023D01*
X64110678Y-103198051D01*
X64110417Y-103203297D01*
X64105138Y-103229340D01*
X64095418Y-103257953D01*
X64084367Y-103281051D01*
X64075097Y-103290547D01*
X64069326Y-103297095D01*
X64066214Y-103317681D01*
X64063703Y-103336362D01*
X64055098Y-103351685D01*
X64049087Y-103358851D01*
X64043982Y-103380131D01*
X64041987Y-103392426D01*
X64032866Y-103401707D01*
X64026676Y-103405267D01*
X64021750Y-103422578D01*
X64019620Y-103434731D01*
X64005791Y-103456694D01*
X63992353Y-103476324D01*
X63982275Y-103505298D01*
X63973511Y-103534410D01*
X63962777Y-103555454D01*
X63956907Y-103566779D01*
X63962647Y-103589167D01*
X63973316Y-103613169D01*
X63982479Y-103644595D01*
X63982985Y-103646785D01*
X63993203Y-103672977D01*
X64006124Y-103687104D01*
X64012831Y-103691186D01*
X64021750Y-103708585D01*
X64023352Y-103715370D01*
X64037498Y-103724070D01*
X64044212Y-103725234D01*
X64058277Y-103737965D01*
X64059171Y-103740178D01*
X64067957Y-103746259D01*
X64086843Y-103737965D01*
X64105299Y-103730255D01*
X64140332Y-103724695D01*
X64174305Y-103727063D01*
X64197383Y-103737409D01*
X64203713Y-103745542D01*
X64210894Y-103771144D01*
X64205439Y-103795652D01*
X64188490Y-103809777D01*
X64175498Y-103814883D01*
X64166258Y-103824595D01*
X64163306Y-103830005D01*
X64146805Y-103837921D01*
X64131949Y-103839703D01*
X64108999Y-103835314D01*
X64099562Y-103822924D01*
X64095401Y-103817159D01*
X64077330Y-103812998D01*
X64057065Y-103807420D01*
X64032866Y-103790766D01*
X64014964Y-103775692D01*
X64000022Y-103768534D01*
X63998688Y-103768255D01*
X63989712Y-103755748D01*
X63982255Y-103730398D01*
X63981531Y-103726862D01*
X63971923Y-103700376D01*
X63959520Y-103686283D01*
X63949429Y-103675669D01*
X63943938Y-103652165D01*
X63941141Y-103633550D01*
X63932822Y-103624026D01*
X63925595Y-103617467D01*
X63921706Y-103596892D01*
X63919195Y-103578211D01*
X63910590Y-103562888D01*
X63903573Y-103552421D01*
X63899475Y-103528884D01*
X63896787Y-103511243D01*
X63888359Y-103501750D01*
X63881131Y-103495191D01*
X63877243Y-103474617D01*
X63874731Y-103455935D01*
X63866127Y-103440613D01*
X63858437Y-103426722D01*
X63855011Y-103401051D01*
X63852019Y-103378007D01*
X63844778Y-103368359D01*
X63844578Y-103368353D01*
X63835287Y-103358348D01*
X63827221Y-103335011D01*
X63827076Y-103334362D01*
X63818929Y-103311246D01*
X63809664Y-103301663D01*
X63802451Y-103292104D01*
X63799431Y-103268971D01*
X63796323Y-103244436D01*
X63788315Y-103229409D01*
X63781297Y-103218942D01*
X63777199Y-103195405D01*
X63774512Y-103177764D01*
X63766083Y-103168271D01*
X63758772Y-103161372D01*
X63754967Y-103140481D01*
X63752676Y-103122215D01*
X63745729Y-103112691D01*
X63745599Y-103112688D01*
X63734462Y-103103571D01*
X63720736Y-103082122D01*
X63706627Y-103058552D01*
X63693847Y-103043387D01*
X63693391Y-103042985D01*
X63699620Y-103039032D01*
X63723023Y-103036189D01*
X63758977Y-103035050D01*
X63780339Y-103035035D01*
X63810703Y-103035715D01*
X63823686Y-103038392D01*
X63822582Y-103044323D01*
X63810685Y-103054764D01*
X63800629Y-103063871D01*
X63792119Y-103078640D01*
X63790402Y-103100964D01*
X63794045Y-103138008D01*
X63798499Y-103165383D01*
X63805061Y-103188841D01*
X63811250Y-103195626D01*
X63812880Y-103195216D01*
X63820889Y-103205041D01*
X63827896Y-103229100D01*
X63829039Y-103234661D01*
X63836817Y-103258598D01*
X63845132Y-103268315D01*
X63852095Y-103277872D01*
X63855011Y-103301007D01*
X63858118Y-103325542D01*
X63866127Y-103340569D01*
X63872138Y-103347735D01*
X63877243Y-103369015D01*
X63879096Y-103381303D01*
X63887585Y-103390591D01*
X63895115Y-103396085D01*
X63902848Y-103415602D01*
X63907768Y-103440613D01*
X63916034Y-103415602D01*
X63923473Y-103399808D01*
X63934119Y-103390591D01*
X63939613Y-103386964D01*
X63943938Y-103369548D01*
X63946390Y-103357307D01*
X63959505Y-103342532D01*
X63963285Y-103339931D01*
X63974566Y-103320579D01*
X63982844Y-103290547D01*
X63985045Y-103279828D01*
X63994758Y-103252418D01*
X64006184Y-103238562D01*
X64015966Y-103228861D01*
X64021750Y-103205988D01*
X64024257Y-103188866D01*
X64032363Y-103179387D01*
X64034063Y-103178925D01*
X64042967Y-103165594D01*
X64050440Y-103139594D01*
X64051905Y-103129279D01*
X64049199Y-103090188D01*
X64034937Y-103058917D01*
X64011805Y-103042232D01*
X64013297Y-103040458D01*
X64032703Y-103038586D01*
X64067442Y-103037084D01*
X64113840Y-103036169D01*
X64233720Y-103034880D01*
X64202768Y-103066714D01*
G37*
G36*
X66989715Y-103189280D02*
G01*
X66994113Y-103215938D01*
X67006389Y-103238937D01*
X67013203Y-103251732D01*
X67017071Y-103268527D01*
X67019511Y-103279125D01*
X67022952Y-103312569D01*
X67023207Y-103345090D01*
X67019952Y-103369716D01*
X67012868Y-103379475D01*
X67008685Y-103381501D01*
X66999486Y-103398850D01*
X66991791Y-103427989D01*
X66986835Y-103461659D01*
X66985853Y-103492598D01*
X66990078Y-103513545D01*
X67002062Y-103526590D01*
X67029526Y-103534890D01*
X67061230Y-103529544D01*
X67089326Y-103510770D01*
X67096994Y-103501305D01*
X67102919Y-103489121D01*
X67107045Y-103471306D01*
X67109692Y-103444540D01*
X67111184Y-103405503D01*
X67111843Y-103350874D01*
X67111991Y-103277335D01*
X67111990Y-103274397D01*
X67111535Y-103209378D01*
X67110338Y-103152981D01*
X67108534Y-103108608D01*
X67106261Y-103079662D01*
X67103654Y-103069544D01*
X67098470Y-103069886D01*
X67075402Y-103070066D01*
X67042516Y-103069544D01*
X67019037Y-103068184D01*
X66996419Y-103062549D01*
X66989715Y-103051554D01*
X66995001Y-103041629D01*
X67013983Y-103036377D01*
X67050853Y-103034880D01*
X67111991Y-103034880D01*
X67111991Y-102951510D01*
X67113075Y-102916224D01*
X67117311Y-102883768D01*
X67123928Y-102868431D01*
X67132043Y-102871917D01*
X67140774Y-102895930D01*
X67147874Y-102914299D01*
X67157660Y-102923720D01*
X67160862Y-102924412D01*
X67167571Y-102936570D01*
X67167684Y-102937732D01*
X67177159Y-102954220D01*
X67197854Y-102978098D01*
X67224083Y-103003755D01*
X67250159Y-103025584D01*
X67270394Y-103037976D01*
X67281494Y-103043329D01*
X67289514Y-103054948D01*
X67278618Y-103064354D01*
X67250941Y-103068227D01*
X67212035Y-103068227D01*
X67212035Y-103284989D01*
X67211806Y-103338274D01*
X67210556Y-103407790D01*
X67208279Y-103459099D01*
X67205044Y-103490865D01*
X67200919Y-103501750D01*
X67195002Y-103504696D01*
X67189449Y-103521203D01*
X67189359Y-103523190D01*
X67181284Y-103548421D01*
X67164909Y-103570255D01*
X67146892Y-103579562D01*
X67142874Y-103580139D01*
X67134223Y-103590678D01*
X67133887Y-103592137D01*
X67121033Y-103599002D01*
X67095317Y-103601794D01*
X67090211Y-103601698D01*
X67066183Y-103598026D01*
X67056411Y-103590678D01*
X67049511Y-103583367D01*
X67028621Y-103579562D01*
X67010514Y-103576273D01*
X67000831Y-103563279D01*
X66993311Y-103545146D01*
X66972626Y-103534792D01*
X66946085Y-103534220D01*
X66921056Y-103543479D01*
X66904910Y-103562621D01*
X66894514Y-103573395D01*
X66871152Y-103579562D01*
X66854605Y-103582345D01*
X66850766Y-103590678D01*
X66848746Y-103595523D01*
X66828603Y-103600156D01*
X66790284Y-103601794D01*
X66759593Y-103600596D01*
X66733067Y-103596586D01*
X66722932Y-103590678D01*
X66719981Y-103584781D01*
X66703479Y-103579370D01*
X66702413Y-103579322D01*
X66681248Y-103570634D01*
X66657848Y-103551580D01*
X66655644Y-103549292D01*
X66635450Y-103531343D01*
X66621721Y-103523982D01*
X66617155Y-103522110D01*
X66611772Y-103507308D01*
X66606082Y-103493364D01*
X66587992Y-103492751D01*
X66560115Y-103506998D01*
X66525140Y-103535237D01*
X66503432Y-103553980D01*
X66477691Y-103572426D01*
X66461223Y-103579562D01*
X66454001Y-103580737D01*
X66445033Y-103590678D01*
X66439583Y-103595253D01*
X66417376Y-103599967D01*
X66383895Y-103601794D01*
X66358734Y-103600803D01*
X66332807Y-103596766D01*
X66322757Y-103590678D01*
X66318588Y-103584217D01*
X66300525Y-103579562D01*
X66287619Y-103577835D01*
X66278293Y-103570325D01*
X66270789Y-103559993D01*
X66250687Y-103546313D01*
X66230848Y-103531448D01*
X66216590Y-103511087D01*
X66210375Y-103499836D01*
X66194174Y-103490634D01*
X66183797Y-103484836D01*
X66178249Y-103462845D01*
X66175489Y-103444567D01*
X66167133Y-103435055D01*
X66160672Y-103430886D01*
X66156017Y-103412823D01*
X66158102Y-103399901D01*
X66167133Y-103390591D01*
X66171358Y-103391662D01*
X66178249Y-103404794D01*
X66182303Y-103417083D01*
X66197702Y-103436446D01*
X66210670Y-103449724D01*
X66228403Y-103473332D01*
X66232218Y-103478003D01*
X66254838Y-103489710D01*
X66289452Y-103497287D01*
X66330421Y-103500736D01*
X66372103Y-103500058D01*
X66408859Y-103495256D01*
X66435049Y-103486329D01*
X66445033Y-103473279D01*
X66446886Y-103465929D01*
X66461495Y-103457287D01*
X66474874Y-103448864D01*
X66485438Y-103426718D01*
X66493642Y-103404118D01*
X66505103Y-103388232D01*
X66508180Y-103383332D01*
X66512498Y-103364548D01*
X66613764Y-103364548D01*
X66613998Y-103415080D01*
X66616943Y-103446488D01*
X66622486Y-103457287D01*
X66627338Y-103458727D01*
X66634004Y-103472664D01*
X66639519Y-103483747D01*
X66659015Y-103494744D01*
X66661626Y-103495411D01*
X66697384Y-103500323D01*
X66739413Y-103500579D01*
X66782017Y-103496905D01*
X66819501Y-103490028D01*
X66846169Y-103480675D01*
X66856324Y-103469572D01*
X66861197Y-103458688D01*
X66875776Y-103439364D01*
X66891865Y-103419541D01*
X66915732Y-103375750D01*
X66923019Y-103329604D01*
X66923120Y-103324368D01*
X66926799Y-103300321D01*
X66934135Y-103290547D01*
X66940556Y-103286475D01*
X66945251Y-103268527D01*
X66945248Y-103267914D01*
X66942295Y-103254992D01*
X66931843Y-103245845D01*
X66910954Y-103239989D01*
X66876690Y-103236938D01*
X66826111Y-103236208D01*
X66756280Y-103237312D01*
X66617330Y-103240525D01*
X66614149Y-103348906D01*
X66613764Y-103364548D01*
X66512498Y-103364548D01*
X66513714Y-103359258D01*
X66518219Y-103319613D01*
X66521105Y-103268785D01*
X66521996Y-103239054D01*
X66522244Y-103197032D01*
X66520182Y-103170977D01*
X66519600Y-103169279D01*
X66679029Y-103169279D01*
X66685215Y-103195152D01*
X66687479Y-103199237D01*
X66697797Y-103205983D01*
X66718641Y-103210107D01*
X66753908Y-103212172D01*
X66807491Y-103212735D01*
X66923019Y-103212735D01*
X66923019Y-103172731D01*
X66922611Y-103161877D01*
X66913435Y-103130215D01*
X66888496Y-103100477D01*
X66880616Y-103093585D01*
X66853714Y-103075486D01*
X66832260Y-103068227D01*
X66820656Y-103066010D01*
X66817418Y-103057112D01*
X66819503Y-103051549D01*
X66812560Y-103046589D01*
X66795274Y-103050571D01*
X66774095Y-103062667D01*
X66758997Y-103071665D01*
X66745202Y-103073809D01*
X66744958Y-103073676D01*
X66734882Y-103079528D01*
X66721828Y-103099176D01*
X66707607Y-103123499D01*
X66692363Y-103144054D01*
X66686978Y-103150191D01*
X66679029Y-103169279D01*
X66519600Y-103169279D01*
X66515330Y-103156810D01*
X66507210Y-103150458D01*
X66498531Y-103144937D01*
X66489496Y-103126701D01*
X66487170Y-103117228D01*
X66471569Y-103095337D01*
X66448534Y-103076338D01*
X66426658Y-103068227D01*
X66420558Y-103067257D01*
X66411685Y-103057112D01*
X66411633Y-103056510D01*
X66400725Y-103049064D01*
X66376549Y-103045996D01*
X66374358Y-103046051D01*
X66342728Y-103056115D01*
X66311552Y-103079062D01*
X66287763Y-103108421D01*
X66278293Y-103137719D01*
X66278288Y-103138451D01*
X66268939Y-103167060D01*
X66246284Y-103185009D01*
X66217099Y-103190899D01*
X66188157Y-103183328D01*
X66166233Y-103160894D01*
X66161997Y-103152573D01*
X66156642Y-103134519D01*
X66164354Y-103126620D01*
X66169476Y-103124215D01*
X66178249Y-103112270D01*
X66178307Y-103110876D01*
X66189542Y-103089862D01*
X66216380Y-103067545D01*
X66253253Y-103047672D01*
X66294591Y-103033992D01*
X66338655Y-103026995D01*
X66409784Y-103030450D01*
X66473122Y-103054444D01*
X66529873Y-103099311D01*
X66553769Y-103122053D01*
X66576070Y-103138115D01*
X66587449Y-103138790D01*
X66608027Y-103107500D01*
X66631835Y-103075626D01*
X66653068Y-103055725D01*
X66676729Y-103043463D01*
X66707818Y-103034505D01*
X66748157Y-103027091D01*
X66786654Y-103026990D01*
X66833524Y-103034759D01*
X66864948Y-103042286D01*
X66890845Y-103050443D01*
X66900787Y-103056391D01*
X66905062Y-103063978D01*
X66921208Y-103083824D01*
X66945251Y-103110023D01*
X66958758Y-103124810D01*
X66982390Y-103159138D01*
X66985693Y-103172731D01*
X66989715Y-103189280D01*
G37*
G36*
X63057182Y-96643198D02*
G01*
X63213183Y-96643266D01*
X63348800Y-96643439D01*
X63465448Y-96643745D01*
X63564539Y-96644209D01*
X63647486Y-96644858D01*
X63715702Y-96645718D01*
X63770602Y-96646816D01*
X63813597Y-96648178D01*
X63846102Y-96649830D01*
X63869528Y-96651799D01*
X63885291Y-96654111D01*
X63894802Y-96656792D01*
X63899475Y-96659869D01*
X63906121Y-96669683D01*
X63905541Y-96676543D01*
X63904869Y-96677843D01*
X63914039Y-96688745D01*
X63934595Y-96707112D01*
X63937167Y-96709269D01*
X63963769Y-96733148D01*
X63997587Y-96765426D01*
X64035303Y-96802699D01*
X64073601Y-96841564D01*
X64109162Y-96878615D01*
X64138670Y-96910448D01*
X64158808Y-96933660D01*
X64166258Y-96944846D01*
X64166641Y-96947301D01*
X64177749Y-96954442D01*
X64186339Y-96957873D01*
X64206463Y-96973462D01*
X64229088Y-96995605D01*
X64247551Y-97017573D01*
X64255186Y-97032637D01*
X64256433Y-97036939D01*
X64269981Y-97043370D01*
X64284059Y-97050851D01*
X64299650Y-97071160D01*
X64312472Y-97090204D01*
X64324145Y-97098950D01*
X64324594Y-97099009D01*
X64337196Y-97107777D01*
X64360628Y-97128734D01*
X64391029Y-97158004D01*
X64424542Y-97191712D01*
X64457306Y-97225983D01*
X64485464Y-97256941D01*
X64505154Y-97280712D01*
X64506639Y-97282667D01*
X64523738Y-97302144D01*
X64535159Y-97310153D01*
X64539179Y-97312531D01*
X64556152Y-97327094D01*
X64582197Y-97351487D01*
X64613251Y-97381726D01*
X64645253Y-97413827D01*
X64674138Y-97443808D01*
X64695844Y-97467686D01*
X64701287Y-97473543D01*
X64722051Y-97493815D01*
X64748645Y-97518234D01*
X64761574Y-97530384D01*
X64781076Y-97551906D01*
X64788752Y-97565477D01*
X64789130Y-97568432D01*
X64799893Y-97576936D01*
X64803594Y-97577901D01*
X64820436Y-97589700D01*
X64842205Y-97610314D01*
X64863478Y-97633888D01*
X64878833Y-97654567D01*
X64882847Y-97666498D01*
X64886725Y-97673773D01*
X64905547Y-97681564D01*
X64923776Y-97690228D01*
X64933260Y-97704982D01*
X64934446Y-97712451D01*
X64944084Y-97721444D01*
X64955274Y-97727502D01*
X64977571Y-97745686D01*
X65005221Y-97771759D01*
X65055536Y-97822073D01*
X65055536Y-98994516D01*
X65055465Y-99143382D01*
X65055239Y-99296876D01*
X65054869Y-99442629D01*
X65054364Y-99579192D01*
X65053736Y-99705116D01*
X65052996Y-99818951D01*
X65052154Y-99919249D01*
X65051221Y-100004560D01*
X65050208Y-100073436D01*
X65049126Y-100124427D01*
X65047986Y-100156084D01*
X65046798Y-100166958D01*
X65043851Y-100168119D01*
X65027411Y-100180623D01*
X65000814Y-100204225D01*
X64967364Y-100235642D01*
X64930362Y-100271594D01*
X64893113Y-100308798D01*
X64858919Y-100343974D01*
X64831082Y-100373839D01*
X64812906Y-100395113D01*
X64807694Y-100404514D01*
X64809365Y-100406882D01*
X64802945Y-100411510D01*
X64797929Y-100413886D01*
X64778403Y-100429448D01*
X64747650Y-100457438D01*
X64708239Y-100495411D01*
X64662741Y-100540921D01*
X64613726Y-100591524D01*
X64586601Y-100619762D01*
X64554953Y-100651779D01*
X64534618Y-100670811D01*
X64525403Y-100679255D01*
X64502731Y-100701170D01*
X64475490Y-100728315D01*
X64457128Y-100746867D01*
X64435457Y-100768728D01*
X64423935Y-100780307D01*
X64398486Y-100805701D01*
X64367069Y-100837456D01*
X64349671Y-100855755D01*
X64342311Y-100863455D01*
X64321159Y-100884907D01*
X64290829Y-100915313D01*
X64255186Y-100950787D01*
X64229227Y-100976570D01*
X64197018Y-101008664D01*
X64172889Y-101032834D01*
X64160700Y-101045221D01*
X64148165Y-101058274D01*
X64114579Y-101092205D01*
X64074561Y-101131648D01*
X64031287Y-101173581D01*
X63987932Y-101214983D01*
X63947674Y-101252831D01*
X63913689Y-101284106D01*
X63889153Y-101305785D01*
X63877243Y-101314848D01*
X63875605Y-101315228D01*
X63855639Y-101316699D01*
X63816037Y-101317990D01*
X63758893Y-101319104D01*
X63686298Y-101320044D01*
X63600347Y-101320813D01*
X63503132Y-101321414D01*
X63396746Y-101321850D01*
X63283283Y-101322124D01*
X63164834Y-101322239D01*
X63043493Y-101322198D01*
X62921353Y-101322005D01*
X62800506Y-101321661D01*
X62683047Y-101321171D01*
X62571067Y-101320536D01*
X62466660Y-101319761D01*
X62371919Y-101318848D01*
X62288936Y-101317799D01*
X62219805Y-101316619D01*
X62166619Y-101315311D01*
X62131470Y-101313876D01*
X62116451Y-101312318D01*
X62112971Y-101310777D01*
X62090943Y-101296223D01*
X62063935Y-101273646D01*
X62037619Y-101248410D01*
X62017670Y-101225881D01*
X62009759Y-101211422D01*
X62002098Y-101202563D01*
X61981969Y-101189628D01*
X61962877Y-101177298D01*
X61954179Y-101167075D01*
X61949776Y-101159192D01*
X61932607Y-101138527D01*
X61906225Y-101109910D01*
X61874670Y-101077397D01*
X61841979Y-101045046D01*
X61812191Y-101016915D01*
X61789344Y-100997060D01*
X61777478Y-100989540D01*
X61772938Y-100988552D01*
X61765121Y-100975645D01*
X61762407Y-100969942D01*
X61746948Y-100949531D01*
X61720107Y-100918150D01*
X61684525Y-100878845D01*
X61642845Y-100834661D01*
X61617504Y-100807953D01*
X61579105Y-100765978D01*
X61548398Y-100730497D01*
X61528033Y-100704612D01*
X61520656Y-100691428D01*
X61528839Y-100672633D01*
X61548534Y-100649881D01*
X61572027Y-100630750D01*
X61591604Y-100622713D01*
X61605306Y-100630207D01*
X61620700Y-100650503D01*
X61632976Y-100669600D01*
X61643041Y-100678293D01*
X61643427Y-100678340D01*
X61655647Y-100686731D01*
X61677772Y-100706333D01*
X61704917Y-100732453D01*
X61732193Y-100760403D01*
X61754714Y-100785489D01*
X61775119Y-100806004D01*
X61801956Y-100828218D01*
X61804118Y-100829837D01*
X61823813Y-100847244D01*
X61831903Y-100859433D01*
X61832085Y-100860056D01*
X61841801Y-100872516D01*
X61864592Y-100897674D01*
X61898070Y-100933002D01*
X61939845Y-100975972D01*
X61987527Y-101024058D01*
X61994939Y-101031476D01*
X62041913Y-101079073D01*
X62082614Y-101121293D01*
X62114650Y-101155583D01*
X62135627Y-101179387D01*
X62143151Y-101190152D01*
X62143429Y-101190493D01*
X62157857Y-101192534D01*
X62193574Y-101194373D01*
X62249764Y-101196001D01*
X62325615Y-101197407D01*
X62420313Y-101198580D01*
X62533043Y-101199511D01*
X62662992Y-101200189D01*
X62809346Y-101200603D01*
X62971291Y-101200744D01*
X63799431Y-101200744D01*
X63799431Y-98982898D01*
X63799431Y-96765051D01*
X62976441Y-96768040D01*
X62820266Y-96768698D01*
X62671012Y-96769553D01*
X62542337Y-96770569D01*
X62433381Y-96771762D01*
X62343282Y-96773149D01*
X62271179Y-96774745D01*
X62216213Y-96776566D01*
X62177522Y-96778628D01*
X62154245Y-96780948D01*
X62145522Y-96783542D01*
X62144339Y-96785398D01*
X62118915Y-96820880D01*
X62096004Y-96845306D01*
X62079586Y-96854398D01*
X62068726Y-96861342D01*
X62058788Y-96882188D01*
X62050081Y-96900492D01*
X62035303Y-96909978D01*
X62025023Y-96913707D01*
X62013226Y-96931269D01*
X62003723Y-96946173D01*
X61980919Y-96959270D01*
X61963591Y-96966356D01*
X61954179Y-96977391D01*
X61954009Y-96978958D01*
X61944435Y-96995830D01*
X61925491Y-97017215D01*
X61904602Y-97035575D01*
X61889194Y-97043370D01*
X61880560Y-97050345D01*
X61871803Y-97071160D01*
X61864837Y-97089535D01*
X61855467Y-97098950D01*
X61844445Y-97104322D01*
X61822410Y-97121685D01*
X61795810Y-97145988D01*
X61770081Y-97171967D01*
X61750658Y-97194357D01*
X61742976Y-97207895D01*
X61736023Y-97218156D01*
X61715186Y-97227777D01*
X61696842Y-97235441D01*
X61687396Y-97246973D01*
X61687117Y-97249137D01*
X61676595Y-97267435D01*
X61655304Y-97291883D01*
X61629349Y-97316581D01*
X61604838Y-97335630D01*
X61587875Y-97343131D01*
X61581275Y-97342576D01*
X61553607Y-97330430D01*
X61533417Y-97307133D01*
X61523222Y-97278886D01*
X61525540Y-97251889D01*
X61542888Y-97232341D01*
X61556294Y-97221851D01*
X61565120Y-97204160D01*
X61566343Y-97196848D01*
X61576529Y-97187877D01*
X61587495Y-97181848D01*
X61609024Y-97164298D01*
X61635191Y-97140335D01*
X61660585Y-97115139D01*
X61679791Y-97093892D01*
X61687396Y-97081774D01*
X61687629Y-97080323D01*
X61696867Y-97066384D01*
X61712551Y-97050771D01*
X61725002Y-97043370D01*
X61728253Y-97042288D01*
X61743791Y-97030127D01*
X61763438Y-97010279D01*
X61780288Y-96990094D01*
X61787440Y-96976918D01*
X61791713Y-96969765D01*
X61809671Y-96960000D01*
X61822656Y-96953003D01*
X61831903Y-96937768D01*
X61836117Y-96927567D01*
X61854135Y-96915536D01*
X61867110Y-96908405D01*
X61876367Y-96892555D01*
X61877204Y-96885620D01*
X61884704Y-96876617D01*
X61888624Y-96875534D01*
X61906045Y-96864403D01*
X61927782Y-96846448D01*
X61946329Y-96828199D01*
X61954179Y-96816184D01*
X61954188Y-96815820D01*
X61962835Y-96800193D01*
X61980791Y-96784030D01*
X61997849Y-96776586D01*
X62001180Y-96776166D01*
X62009759Y-96766086D01*
X62009820Y-96765538D01*
X62018446Y-96751984D01*
X62038813Y-96728348D01*
X62066848Y-96699390D01*
X62123936Y-96643195D01*
X63004786Y-96643195D01*
X63057182Y-96643198D01*
G37*
G36*
X67847257Y-96671840D02*
G01*
X67848214Y-96672884D01*
X67870613Y-96696398D01*
X67888336Y-96713525D01*
X67890708Y-96715654D01*
X67908569Y-96732452D01*
X67936140Y-96758964D01*
X67968515Y-96790481D01*
X67978276Y-96799928D01*
X68008472Y-96827702D01*
X68031890Y-96847102D01*
X68044116Y-96854398D01*
X68052688Y-96861375D01*
X68061413Y-96882188D01*
X68068685Y-96900549D01*
X68079000Y-96909978D01*
X68090360Y-96916139D01*
X68112095Y-96934180D01*
X68138283Y-96958894D01*
X68163593Y-96984997D01*
X68182690Y-97007203D01*
X68190240Y-97020225D01*
X68197224Y-97028337D01*
X68218030Y-97036818D01*
X68236383Y-97044285D01*
X68245820Y-97055203D01*
X68245966Y-97056663D01*
X68255468Y-97073587D01*
X68274501Y-97095005D01*
X68295590Y-97113381D01*
X68311262Y-97121182D01*
X68318996Y-97125443D01*
X68329190Y-97143413D01*
X68336321Y-97156388D01*
X68352171Y-97165645D01*
X68359136Y-97166702D01*
X68368096Y-97176075D01*
X68369334Y-97180241D01*
X68381158Y-97198640D01*
X68401444Y-97223017D01*
X68434792Y-97259528D01*
X68434792Y-97846991D01*
X68434782Y-97898723D01*
X68434640Y-98023012D01*
X68434297Y-98127404D01*
X68433707Y-98213599D01*
X68432826Y-98283298D01*
X68431608Y-98338203D01*
X68430010Y-98380014D01*
X68427986Y-98410432D01*
X68425491Y-98431157D01*
X68422482Y-98443891D01*
X68418912Y-98450334D01*
X68408271Y-98459105D01*
X68391871Y-98466214D01*
X68383971Y-98470472D01*
X68373654Y-98488446D01*
X68366657Y-98501430D01*
X68351422Y-98510678D01*
X68340946Y-98515213D01*
X68328975Y-98533588D01*
X68318145Y-98551013D01*
X68294878Y-98568720D01*
X68277016Y-98579372D01*
X68268052Y-98590780D01*
X68267516Y-98593190D01*
X68257126Y-98609076D01*
X68238862Y-98629698D01*
X68219814Y-98647565D01*
X68207076Y-98655186D01*
X68202924Y-98657467D01*
X68186951Y-98671957D01*
X68164886Y-98695390D01*
X68157453Y-98703680D01*
X68124405Y-98739663D01*
X68092976Y-98772831D01*
X68082092Y-98784525D01*
X68063997Y-98806823D01*
X68056849Y-98820259D01*
X68052641Y-98827307D01*
X68034617Y-98836262D01*
X68021708Y-98842727D01*
X68012385Y-98858586D01*
X68005462Y-98871197D01*
X67984595Y-98882070D01*
X67966242Y-98889536D01*
X67956805Y-98900454D01*
X67956686Y-98901786D01*
X67947271Y-98918771D01*
X67928134Y-98940228D01*
X67906809Y-98958627D01*
X67890826Y-98966433D01*
X67881757Y-98972976D01*
X67872644Y-98993419D01*
X67864383Y-99012230D01*
X67847421Y-99029546D01*
X67846652Y-99029814D01*
X67829143Y-99031745D01*
X67791932Y-99033753D01*
X67737230Y-99035782D01*
X67667247Y-99037776D01*
X67584195Y-99039676D01*
X67490285Y-99041425D01*
X67387726Y-99042968D01*
X67278731Y-99044245D01*
X66728490Y-99049803D01*
X66725656Y-100125273D01*
X66722821Y-101200744D01*
X67250801Y-101200744D01*
X67362034Y-101200732D01*
X67465516Y-101200641D01*
X67550503Y-101200383D01*
X67618954Y-101199875D01*
X67672833Y-101199030D01*
X67714098Y-101197763D01*
X67744713Y-101195988D01*
X67766637Y-101193620D01*
X67781832Y-101190574D01*
X67792259Y-101186763D01*
X67799880Y-101182103D01*
X67806655Y-101176507D01*
X67807951Y-101175364D01*
X67826766Y-101154483D01*
X67834529Y-101137601D01*
X67836827Y-101130398D01*
X67852244Y-101122932D01*
X67863195Y-101119209D01*
X67875526Y-101101642D01*
X67885029Y-101086737D01*
X67907833Y-101073640D01*
X67925136Y-101065992D01*
X67934573Y-101053105D01*
X67934631Y-101052200D01*
X67944042Y-101036107D01*
X67964659Y-101017190D01*
X67990461Y-100996316D01*
X68011902Y-100975699D01*
X68014448Y-100972875D01*
X68035819Y-100950781D01*
X68061679Y-100925677D01*
X68064347Y-100923165D01*
X68090050Y-100898635D01*
X68124038Y-100865835D01*
X68159702Y-100831138D01*
X68169985Y-100821136D01*
X68198838Y-100793626D01*
X68219842Y-100774433D01*
X68229025Y-100767221D01*
X68234388Y-100763663D01*
X68252169Y-100748523D01*
X68277263Y-100725536D01*
X68300760Y-100703806D01*
X68337400Y-100672507D01*
X68361659Y-100656559D01*
X68375081Y-100655077D01*
X68379212Y-100667177D01*
X68381093Y-100672291D01*
X68395886Y-100678293D01*
X68400680Y-100679100D01*
X68409807Y-100691840D01*
X68412560Y-100722757D01*
X68412290Y-100732720D01*
X68408594Y-100757358D01*
X68401949Y-100767221D01*
X68398571Y-100768105D01*
X68381717Y-100779351D01*
X68360543Y-100798095D01*
X68342427Y-100817405D01*
X68334748Y-100830350D01*
X68333392Y-100833859D01*
X68320200Y-100848745D01*
X68299079Y-100867174D01*
X68277622Y-100882851D01*
X68263421Y-100889483D01*
X68260985Y-100889729D01*
X68260112Y-100896378D01*
X68261145Y-100898445D01*
X68256390Y-100911836D01*
X68243604Y-100926844D01*
X68230325Y-100933961D01*
X68226939Y-100935948D01*
X68210457Y-100950010D01*
X68184122Y-100974601D01*
X68151747Y-101006214D01*
X68134940Y-101022648D01*
X68103994Y-101051294D01*
X68080308Y-101071083D01*
X68067993Y-101078468D01*
X68063111Y-101080088D01*
X68056849Y-101094393D01*
X68052642Y-101105022D01*
X68034617Y-101117374D01*
X68021643Y-101124505D01*
X68012385Y-101140355D01*
X68011484Y-101147298D01*
X68003441Y-101156280D01*
X68002197Y-101156430D01*
X67986340Y-101165664D01*
X67963242Y-101184981D01*
X67939087Y-101208431D01*
X67920058Y-101230063D01*
X67912341Y-101243928D01*
X67910065Y-101249988D01*
X67894626Y-101256324D01*
X67884101Y-101259640D01*
X67871585Y-101276695D01*
X67860134Y-101293610D01*
X67836498Y-101309049D01*
X67832880Y-101309997D01*
X67810623Y-101312345D01*
X67769866Y-101314351D01*
X67710142Y-101316020D01*
X67630984Y-101317356D01*
X67531928Y-101318367D01*
X67412507Y-101319056D01*
X67272254Y-101319429D01*
X67110703Y-101319491D01*
X66927389Y-101319247D01*
X66048039Y-101317462D01*
X65976973Y-101243865D01*
X65960376Y-101226610D01*
X65918161Y-101182293D01*
X65871763Y-101133126D01*
X65824434Y-101082601D01*
X65779427Y-101034208D01*
X65739995Y-100991439D01*
X65709390Y-100957785D01*
X65690865Y-100936740D01*
X65673096Y-100919491D01*
X65658023Y-100911729D01*
X65649732Y-100907479D01*
X65639124Y-100889497D01*
X65632847Y-100876452D01*
X65620907Y-100867265D01*
X65604302Y-100860033D01*
X65586260Y-100842354D01*
X65577987Y-100824344D01*
X65573729Y-100816444D01*
X65555755Y-100806127D01*
X65542780Y-100798996D01*
X65533523Y-100783146D01*
X65532392Y-100776170D01*
X65522407Y-100767221D01*
X65517946Y-100765970D01*
X65511291Y-100752425D01*
X65503809Y-100738348D01*
X65483501Y-100722757D01*
X65455711Y-100707884D01*
X65455711Y-100125643D01*
X65455711Y-99543402D01*
X65483501Y-99517647D01*
X65485567Y-99515700D01*
X65503802Y-99495047D01*
X65511291Y-99480021D01*
X65515540Y-99471714D01*
X65533523Y-99461094D01*
X65546507Y-99454097D01*
X65555755Y-99438862D01*
X65559968Y-99428662D01*
X65577987Y-99416630D01*
X65590961Y-99409499D01*
X65600218Y-99393649D01*
X65601886Y-99386577D01*
X65616143Y-99377724D01*
X65626772Y-99373518D01*
X65639124Y-99355492D01*
X65646255Y-99342518D01*
X65662105Y-99333260D01*
X65669090Y-99332076D01*
X65678030Y-99321639D01*
X65678095Y-99320608D01*
X65687304Y-99303231D01*
X65706788Y-99281632D01*
X65728921Y-99263231D01*
X65746074Y-99255449D01*
X65750928Y-99254858D01*
X65752666Y-99248567D01*
X65751537Y-99246284D01*
X65756479Y-99232797D01*
X65769700Y-99217969D01*
X65783632Y-99210985D01*
X65784318Y-99210949D01*
X65799389Y-99202006D01*
X65815210Y-99184312D01*
X65822538Y-99168064D01*
X65826796Y-99160164D01*
X65844770Y-99149847D01*
X65857744Y-99142716D01*
X65867002Y-99126866D01*
X65868669Y-99119793D01*
X65882927Y-99110941D01*
X65893555Y-99106734D01*
X65905908Y-99088709D01*
X65912905Y-99075725D01*
X65928140Y-99066477D01*
X65938340Y-99062263D01*
X65950372Y-99044245D01*
X65957503Y-99031271D01*
X65973353Y-99022013D01*
X65980287Y-99021176D01*
X65989291Y-99013676D01*
X65989872Y-99010581D01*
X66000630Y-98992718D01*
X66019647Y-98970732D01*
X66039931Y-98952076D01*
X66054488Y-98944201D01*
X66058446Y-98943636D01*
X66067089Y-98933085D01*
X66067437Y-98932554D01*
X66082386Y-98929790D01*
X66119139Y-98927431D01*
X66177335Y-98925484D01*
X66256613Y-98923957D01*
X66356612Y-98922858D01*
X66476971Y-98922193D01*
X66617330Y-98921969D01*
X67167571Y-98921969D01*
X67167571Y-97843720D01*
X67167571Y-96765470D01*
X66646029Y-96765470D01*
X66547351Y-96765592D01*
X66447262Y-96765975D01*
X66355777Y-96766594D01*
X66275168Y-96767420D01*
X66207704Y-96768423D01*
X66155658Y-96769576D01*
X66121301Y-96770850D01*
X66106904Y-96772218D01*
X66098324Y-96777492D01*
X66089321Y-96794450D01*
X66088227Y-96801026D01*
X66077835Y-96809934D01*
X66077252Y-96809971D01*
X66062136Y-96818427D01*
X66039573Y-96837495D01*
X66015770Y-96861057D01*
X65996935Y-96882996D01*
X65989278Y-96897195D01*
X65985070Y-96904243D01*
X65967046Y-96913199D01*
X65954146Y-96919882D01*
X65944814Y-96936727D01*
X65943203Y-96945390D01*
X65932288Y-96954442D01*
X65929260Y-96955869D01*
X65912148Y-96969530D01*
X65882942Y-96995814D01*
X65844073Y-97032447D01*
X65797973Y-97077155D01*
X65747072Y-97127664D01*
X65722881Y-97151886D01*
X65661754Y-97212490D01*
X65613752Y-97258861D01*
X65577232Y-97292391D01*
X65550553Y-97314472D01*
X65532069Y-97326497D01*
X65520140Y-97329858D01*
X65513121Y-97325948D01*
X65504460Y-97317543D01*
X65483501Y-97303474D01*
X65468469Y-97288880D01*
X65457789Y-97262177D01*
X65457229Y-97256231D01*
X65461786Y-97236065D01*
X65482800Y-97225966D01*
X65501819Y-97217796D01*
X65511291Y-97205600D01*
X65512021Y-97202959D01*
X65523847Y-97186056D01*
X65547133Y-97160067D01*
X65577987Y-97129440D01*
X65587966Y-97119892D01*
X65616890Y-97090540D01*
X65637088Y-97067443D01*
X65644682Y-97054933D01*
X65645107Y-97051840D01*
X65656304Y-97043370D01*
X65657745Y-97043231D01*
X65674753Y-97033772D01*
X65696245Y-97014761D01*
X65714674Y-96993660D01*
X65722494Y-96977928D01*
X65726755Y-96970194D01*
X65744726Y-96960000D01*
X65757703Y-96952907D01*
X65766958Y-96937231D01*
X65773887Y-96925138D01*
X65794748Y-96914543D01*
X65813098Y-96907019D01*
X65822538Y-96895923D01*
X65826380Y-96887435D01*
X65842529Y-96866617D01*
X65867002Y-96840693D01*
X65885111Y-96822046D01*
X65904099Y-96799706D01*
X65911466Y-96786847D01*
X65913078Y-96782361D01*
X65927391Y-96776586D01*
X65938019Y-96772380D01*
X65950372Y-96754354D01*
X65956585Y-96741304D01*
X65968235Y-96732122D01*
X65976415Y-96728259D01*
X65996866Y-96712109D01*
X66022625Y-96687659D01*
X66066209Y-96643195D01*
X66943644Y-96643195D01*
X67821080Y-96643195D01*
X67847257Y-96671840D01*
G37*
G36*
X70901388Y-99646607D02*
G01*
X70892305Y-99655624D01*
X70891916Y-99655647D01*
X70882658Y-99666068D01*
X70874583Y-99689723D01*
X70874569Y-99689787D01*
X70864689Y-99715591D01*
X70851468Y-99729818D01*
X70843078Y-99736350D01*
X70835842Y-99756857D01*
X70833922Y-99768643D01*
X70824726Y-99777899D01*
X70819612Y-99779780D01*
X70813610Y-99794573D01*
X70812356Y-99802244D01*
X70802494Y-99811247D01*
X70796033Y-99815416D01*
X70791378Y-99833479D01*
X70789550Y-99846389D01*
X70781611Y-99855711D01*
X70781039Y-99855764D01*
X70770214Y-99866138D01*
X70758030Y-99889059D01*
X70757237Y-99890937D01*
X70744966Y-99913226D01*
X70734450Y-99922407D01*
X70729873Y-99924404D01*
X70724682Y-99939430D01*
X70722796Y-99947995D01*
X70708008Y-99962851D01*
X70699863Y-99968407D01*
X70691334Y-99988196D01*
X70685438Y-100007344D01*
X70669103Y-100031006D01*
X70653934Y-100051357D01*
X70646871Y-100069912D01*
X70642071Y-100084826D01*
X70626856Y-100106503D01*
X70612734Y-100124229D01*
X70599415Y-100147505D01*
X70593610Y-100157967D01*
X70580524Y-100166958D01*
X70574301Y-100170204D01*
X70569059Y-100187094D01*
X70563198Y-100206972D01*
X70546827Y-100231093D01*
X70531562Y-100250787D01*
X70524595Y-100267002D01*
X70518489Y-100281827D01*
X70502363Y-100302911D01*
X70487179Y-100323162D01*
X70480131Y-100341352D01*
X70479333Y-100347068D01*
X70470222Y-100355930D01*
X70467456Y-100357039D01*
X70455454Y-100371588D01*
X70441564Y-100397615D01*
X70425856Y-100431824D01*
X70408819Y-100465734D01*
X70396958Y-100483916D01*
X70388567Y-100489322D01*
X70384708Y-100491150D01*
X70380087Y-100505901D01*
X70375374Y-100519023D01*
X70357855Y-100536365D01*
X70344415Y-100549659D01*
X70335623Y-100574176D01*
X70332601Y-100589438D01*
X70319998Y-100604099D01*
X70319968Y-100604110D01*
X70306747Y-100618375D01*
X70296882Y-100644194D01*
X70296611Y-100645393D01*
X70287365Y-100668670D01*
X70275835Y-100678293D01*
X70273467Y-100678803D01*
X70260609Y-100691968D01*
X70248147Y-100717372D01*
X70245394Y-100724515D01*
X70234443Y-100745522D01*
X70225989Y-100751490D01*
X70220582Y-100753691D01*
X70216149Y-100770605D01*
X70212721Y-100785715D01*
X70202449Y-100798644D01*
X70201448Y-100799074D01*
X70188901Y-100812812D01*
X70175472Y-100837714D01*
X70158458Y-100868855D01*
X70136843Y-100897369D01*
X70120471Y-100918700D01*
X70113304Y-100936958D01*
X70107289Y-100953677D01*
X70091072Y-100975864D01*
X70075972Y-100996660D01*
X70068840Y-101016866D01*
X70067510Y-101024969D01*
X70057724Y-101034004D01*
X70052610Y-101035885D01*
X70046608Y-101050678D01*
X70045354Y-101058349D01*
X70035492Y-101067352D01*
X70029031Y-101071521D01*
X70024376Y-101089584D01*
X70022183Y-101102511D01*
X70012693Y-101111816D01*
X70010448Y-101112393D01*
X69998043Y-101125581D01*
X69984754Y-101150722D01*
X69981786Y-101157431D01*
X69968484Y-101180366D01*
X69957531Y-101189628D01*
X69952487Y-101191508D01*
X69946564Y-101206302D01*
X69945552Y-101213943D01*
X69937523Y-101222976D01*
X69935772Y-101223537D01*
X69925255Y-101236708D01*
X69913216Y-101261882D01*
X69910502Y-101268468D01*
X69898409Y-101291487D01*
X69888910Y-101300788D01*
X69883662Y-101304944D01*
X69879868Y-101323020D01*
X69877784Y-101335941D01*
X69868752Y-101345252D01*
X69862292Y-101349420D01*
X69857636Y-101367484D01*
X69854542Y-101380448D01*
X69840962Y-101389715D01*
X69833186Y-101391652D01*
X69824289Y-101406389D01*
X69823277Y-101414031D01*
X69815247Y-101423063D01*
X69813497Y-101423625D01*
X69802979Y-101436796D01*
X69790941Y-101461969D01*
X69788226Y-101468555D01*
X69776133Y-101491574D01*
X69766634Y-101500875D01*
X69762491Y-101502741D01*
X69757593Y-101517549D01*
X69756581Y-101525190D01*
X69748551Y-101534223D01*
X69746801Y-101534785D01*
X69736283Y-101547956D01*
X69724245Y-101573129D01*
X69721559Y-101579514D01*
X69707963Y-101602670D01*
X69695617Y-101612035D01*
X69694056Y-101612279D01*
X69683326Y-101624620D01*
X69675158Y-101649868D01*
X69674504Y-101653065D01*
X69664675Y-101679647D01*
X69651689Y-101693983D01*
X69644297Y-101698665D01*
X69635317Y-101717288D01*
X69634006Y-101725283D01*
X69624201Y-101734311D01*
X69619087Y-101736192D01*
X69613085Y-101750985D01*
X69611831Y-101758655D01*
X69601969Y-101767659D01*
X69596713Y-101769709D01*
X69590853Y-101784797D01*
X69584355Y-101803488D01*
X69567554Y-101826482D01*
X69558725Y-101836767D01*
X69539508Y-101865749D01*
X69525946Y-101894628D01*
X69522362Y-101914945D01*
X69522476Y-101916939D01*
X69513319Y-101923282D01*
X69508903Y-101925611D01*
X69495808Y-101942558D01*
X69480938Y-101970525D01*
X69475639Y-101981538D01*
X69455285Y-102017487D01*
X69435393Y-102045406D01*
X69417219Y-102072613D01*
X69405501Y-102102494D01*
X69395486Y-102124713D01*
X69372956Y-102146209D01*
X69356524Y-102159494D01*
X69346302Y-102186386D01*
X69343754Y-102202845D01*
X69335186Y-102212298D01*
X69330072Y-102214179D01*
X69324070Y-102228971D01*
X69323058Y-102236613D01*
X69315028Y-102245645D01*
X69313278Y-102246207D01*
X69302760Y-102259378D01*
X69290722Y-102284551D01*
X69288007Y-102291137D01*
X69275914Y-102314156D01*
X69266415Y-102323457D01*
X69262272Y-102325323D01*
X69257374Y-102340131D01*
X69255613Y-102347877D01*
X69242089Y-102356805D01*
X69229470Y-102366200D01*
X69220331Y-102389174D01*
X69220135Y-102390110D01*
X69207127Y-102420909D01*
X69185594Y-102449807D01*
X69182327Y-102453152D01*
X69164571Y-102474755D01*
X69157330Y-102489842D01*
X69156862Y-102493787D01*
X69148633Y-102515861D01*
X69134837Y-102540905D01*
X69121634Y-102557282D01*
X69120281Y-102558592D01*
X69110058Y-102575068D01*
X69097475Y-102601746D01*
X69096024Y-102605048D01*
X69078108Y-102635276D01*
X69058138Y-102656611D01*
X69043318Y-102670482D01*
X69035054Y-102687331D01*
X69029073Y-102710217D01*
X69010353Y-102742580D01*
X68983692Y-102773534D01*
X68966737Y-102795161D01*
X68953107Y-102825678D01*
X68945131Y-102848368D01*
X68931532Y-102870142D01*
X68930718Y-102870991D01*
X68916020Y-102892036D01*
X68901045Y-102920941D01*
X68898953Y-102925533D01*
X68886304Y-102947946D01*
X68876717Y-102957068D01*
X68872718Y-102959170D01*
X68868315Y-102974398D01*
X68867047Y-102982411D01*
X68859218Y-102986106D01*
X68856863Y-102985875D01*
X68846670Y-102997023D01*
X68835381Y-103021576D01*
X68833998Y-103025248D01*
X68816086Y-103059681D01*
X68794456Y-103087150D01*
X68794186Y-103087403D01*
X68775874Y-103109634D01*
X68768271Y-103128835D01*
X68767189Y-103136972D01*
X68759230Y-103146039D01*
X68757479Y-103146601D01*
X68746962Y-103159772D01*
X68734923Y-103184945D01*
X68732209Y-103191531D01*
X68720116Y-103214550D01*
X68710616Y-103223851D01*
X68705369Y-103228007D01*
X68701575Y-103246083D01*
X68699491Y-103259005D01*
X68690459Y-103268315D01*
X68685238Y-103270323D01*
X68679343Y-103285338D01*
X68677762Y-103293377D01*
X68663687Y-103308369D01*
X68648708Y-103322122D01*
X68634548Y-103346926D01*
X68634047Y-103348120D01*
X68621875Y-103370305D01*
X68611299Y-103379475D01*
X68606817Y-103381346D01*
X68601531Y-103396149D01*
X68600277Y-103403819D01*
X68590415Y-103412823D01*
X68585255Y-103414758D01*
X68579299Y-103429647D01*
X68575924Y-103446820D01*
X68559242Y-103480686D01*
X68532057Y-103517175D01*
X68519458Y-103535102D01*
X68512604Y-103554333D01*
X68506128Y-103571633D01*
X68489505Y-103593922D01*
X68468921Y-103621544D01*
X68451166Y-103654595D01*
X68449291Y-103658847D01*
X68435916Y-103681492D01*
X68424243Y-103690722D01*
X68417450Y-103694895D01*
X68412560Y-103712954D01*
X68410367Y-103725881D01*
X68400877Y-103735186D01*
X68398632Y-103735763D01*
X68386227Y-103748951D01*
X68372938Y-103774092D01*
X68369963Y-103780844D01*
X68356971Y-103803749D01*
X68346598Y-103812998D01*
X68346213Y-103813022D01*
X68337058Y-103823443D01*
X68329025Y-103847097D01*
X68329011Y-103847161D01*
X68319131Y-103872966D01*
X68305910Y-103887192D01*
X68299203Y-103891274D01*
X68290284Y-103908673D01*
X68289434Y-103915209D01*
X68281243Y-103924157D01*
X68279492Y-103924719D01*
X68268975Y-103937890D01*
X68256936Y-103963063D01*
X68254222Y-103969649D01*
X68242129Y-103992668D01*
X68232630Y-104001969D01*
X68228968Y-104003260D01*
X68223588Y-104016942D01*
X68217329Y-104034548D01*
X68201356Y-104057549D01*
X68185914Y-104079425D01*
X68179124Y-104097604D01*
X68177755Y-104104530D01*
X68164577Y-104120914D01*
X68163507Y-104121635D01*
X68149329Y-104138876D01*
X68135438Y-104165930D01*
X68133675Y-104170131D01*
X68121323Y-104192810D01*
X68111080Y-104202057D01*
X68106472Y-104204097D01*
X68101313Y-104219196D01*
X68095361Y-104237224D01*
X68079081Y-104260198D01*
X68063859Y-104280189D01*
X68056849Y-104297449D01*
X68055307Y-104303822D01*
X68041223Y-104316834D01*
X68041193Y-104316846D01*
X68027973Y-104331111D01*
X68018108Y-104356929D01*
X68017846Y-104358079D01*
X68007919Y-104381389D01*
X67994828Y-104391028D01*
X67985492Y-104395450D01*
X67979037Y-104413729D01*
X67976957Y-104428003D01*
X67965142Y-104452213D01*
X67962034Y-104453680D01*
X67953850Y-104455221D01*
X67939976Y-104456653D01*
X67919661Y-104457977D01*
X67892153Y-104459199D01*
X67856699Y-104460323D01*
X67812549Y-104461352D01*
X67758951Y-104462292D01*
X67695151Y-104463145D01*
X67620398Y-104463916D01*
X67533941Y-104464610D01*
X67435027Y-104465230D01*
X67322905Y-104465780D01*
X67196822Y-104466265D01*
X67056027Y-104466688D01*
X66899767Y-104467055D01*
X66727291Y-104467368D01*
X66537846Y-104467632D01*
X66330681Y-104467851D01*
X66105044Y-104468029D01*
X65860183Y-104468171D01*
X65595346Y-104468280D01*
X65309780Y-104468361D01*
X65002735Y-104468417D01*
X64981123Y-104468420D01*
X64680033Y-104468462D01*
X64400325Y-104468493D01*
X64141207Y-104468508D01*
X63901883Y-104468502D01*
X63681561Y-104468467D01*
X63479444Y-104468399D01*
X63294741Y-104468292D01*
X63126656Y-104468139D01*
X62974396Y-104467935D01*
X62837166Y-104467674D01*
X62714172Y-104467351D01*
X62604621Y-104466959D01*
X62507718Y-104466493D01*
X62422669Y-104465946D01*
X62348681Y-104465314D01*
X62284958Y-104464589D01*
X62230707Y-104463767D01*
X62185134Y-104462841D01*
X62147445Y-104461806D01*
X62116845Y-104460656D01*
X62092542Y-104459385D01*
X62073739Y-104457987D01*
X62059645Y-104456456D01*
X62049463Y-104454787D01*
X62042401Y-104452973D01*
X62037665Y-104451010D01*
X62034459Y-104448890D01*
X62031991Y-104446608D01*
X62017264Y-104426568D01*
X62009759Y-104403334D01*
X62007144Y-104391052D01*
X61993085Y-104375893D01*
X61985404Y-104371019D01*
X61976411Y-104352471D01*
X61975353Y-104344504D01*
X61967370Y-104335449D01*
X61965619Y-104334887D01*
X61955102Y-104321716D01*
X61943063Y-104296543D01*
X61940349Y-104289957D01*
X61928256Y-104266938D01*
X61918756Y-104257637D01*
X61912814Y-104250747D01*
X61909715Y-104229847D01*
X61906417Y-104211741D01*
X61893545Y-104202057D01*
X61892794Y-104202026D01*
X61879501Y-104190802D01*
X61870076Y-104163151D01*
X61868991Y-104157861D01*
X61861203Y-104133958D01*
X61852808Y-104124245D01*
X61849591Y-104122701D01*
X61838030Y-104106984D01*
X61825048Y-104079781D01*
X61820063Y-104068182D01*
X61807153Y-104044670D01*
X61797349Y-104035317D01*
X61792801Y-104033445D01*
X61787440Y-104018643D01*
X61786511Y-104011010D01*
X61779103Y-104001883D01*
X61770528Y-103994562D01*
X61758243Y-103974236D01*
X61747548Y-103949770D01*
X61742976Y-103930165D01*
X61742735Y-103928356D01*
X61733553Y-103911172D01*
X61715186Y-103888402D01*
X61711803Y-103884642D01*
X61694460Y-103860995D01*
X61687396Y-103843369D01*
X61681381Y-103826636D01*
X61665164Y-103804443D01*
X61650247Y-103782527D01*
X61642932Y-103757883D01*
X61640785Y-103744516D01*
X61631816Y-103735186D01*
X61625355Y-103731017D01*
X61620700Y-103712954D01*
X61618615Y-103700032D01*
X61609584Y-103690722D01*
X61604868Y-103689250D01*
X61598468Y-103675237D01*
X61596946Y-103668007D01*
X61582842Y-103653757D01*
X61582518Y-103653625D01*
X61569400Y-103639005D01*
X61559562Y-103612910D01*
X61559401Y-103612190D01*
X61549407Y-103586259D01*
X61536282Y-103572064D01*
X61529575Y-103567982D01*
X61520656Y-103550583D01*
X61519600Y-103544013D01*
X61509540Y-103535098D01*
X61503079Y-103530930D01*
X61498424Y-103512866D01*
X61496340Y-103499945D01*
X61487308Y-103490634D01*
X61480762Y-103486252D01*
X61476192Y-103467938D01*
X61470409Y-103446501D01*
X61453960Y-103421378D01*
X61438792Y-103401026D01*
X61431728Y-103382468D01*
X61431604Y-103379285D01*
X61427747Y-103366439D01*
X61415800Y-103348805D01*
X61392139Y-103320730D01*
X61391344Y-103319783D01*
X61378532Y-103299505D01*
X61364415Y-103271094D01*
X61362322Y-103266502D01*
X61349674Y-103244089D01*
X61340087Y-103234967D01*
X61335212Y-103230814D01*
X61331685Y-103212735D01*
X61329830Y-103199824D01*
X61321776Y-103190503D01*
X61318573Y-103188959D01*
X61307044Y-103173241D01*
X61294076Y-103146039D01*
X61289072Y-103134497D01*
X61275689Y-103110946D01*
X61265079Y-103101575D01*
X61259746Y-103099483D01*
X61253873Y-103084325D01*
X61250955Y-103071640D01*
X61239919Y-103044071D01*
X61224478Y-103012076D01*
X61208737Y-102984007D01*
X61196801Y-102968215D01*
X61192225Y-102962041D01*
X61179932Y-102940029D01*
X61164538Y-102908826D01*
X61154057Y-102888359D01*
X61137249Y-102862000D01*
X61124345Y-102849278D01*
X61116293Y-102842866D01*
X61109365Y-102822487D01*
X61103752Y-102802934D01*
X61087133Y-102779212D01*
X61072004Y-102761689D01*
X61064901Y-102748080D01*
X61061161Y-102732452D01*
X61050740Y-102709021D01*
X61038350Y-102688250D01*
X61028774Y-102679255D01*
X61024963Y-102677359D01*
X61020437Y-102662494D01*
X61019509Y-102654861D01*
X61012100Y-102645734D01*
X61002545Y-102637863D01*
X60990363Y-102616252D01*
X60980216Y-102589375D01*
X60975973Y-102565793D01*
X60973273Y-102554905D01*
X60959299Y-102545777D01*
X60951523Y-102543840D01*
X60942625Y-102529103D01*
X60941371Y-102521432D01*
X60931510Y-102512429D01*
X60927182Y-102511281D01*
X60920394Y-102497971D01*
X60916788Y-102479714D01*
X60906724Y-102454500D01*
X60894447Y-102432834D01*
X60884267Y-102423588D01*
X60879432Y-102419390D01*
X60875930Y-102401269D01*
X60873845Y-102388347D01*
X60864814Y-102379037D01*
X60859552Y-102376980D01*
X60853698Y-102361878D01*
X60853512Y-102359695D01*
X60844433Y-102339123D01*
X60825908Y-102314749D01*
X60822723Y-102311199D01*
X60805246Y-102286647D01*
X60798118Y-102267308D01*
X60792177Y-102249073D01*
X60775886Y-102225974D01*
X60760786Y-102205178D01*
X60753654Y-102184972D01*
X60747924Y-102167789D01*
X60731422Y-102145602D01*
X60716695Y-102125562D01*
X60709190Y-102102327D01*
X60706730Y-102090084D01*
X60693564Y-102075288D01*
X60680557Y-102061596D01*
X60670653Y-102036122D01*
X60660988Y-102011195D01*
X60647373Y-101996814D01*
X60640341Y-101992371D01*
X60631378Y-101973653D01*
X60630407Y-101965693D01*
X60623041Y-101956543D01*
X60614147Y-101949064D01*
X60601890Y-101928320D01*
X60591376Y-101903062D01*
X60586914Y-101882160D01*
X60586032Y-101876531D01*
X60575798Y-101867702D01*
X60571082Y-101866231D01*
X60564682Y-101852218D01*
X60562782Y-101844331D01*
X60548008Y-101830335D01*
X60538710Y-101822978D01*
X60531334Y-101801788D01*
X60526713Y-101783421D01*
X60510669Y-101759755D01*
X60496089Y-101740602D01*
X60482863Y-101710077D01*
X60474433Y-101687177D01*
X60459064Y-101663628D01*
X60449795Y-101651385D01*
X60442407Y-101629503D01*
X60441179Y-101621108D01*
X60432498Y-101612035D01*
X60429915Y-101611020D01*
X60418519Y-101596534D01*
X60405693Y-101570350D01*
X60403617Y-101565440D01*
X60385407Y-101531196D01*
X60365580Y-101504119D01*
X60349548Y-101482398D01*
X60342363Y-101462434D01*
X60341033Y-101454331D01*
X60331247Y-101445295D01*
X60324701Y-101440913D01*
X60320131Y-101422599D01*
X60314348Y-101401162D01*
X60297899Y-101376039D01*
X60282897Y-101354628D01*
X60275667Y-101332040D01*
X60273877Y-101321115D01*
X60264551Y-101311904D01*
X60259835Y-101310432D01*
X60253435Y-101296419D01*
X60251913Y-101289189D01*
X60237809Y-101274938D01*
X60237485Y-101274807D01*
X60224367Y-101260187D01*
X60214529Y-101234092D01*
X60214368Y-101233372D01*
X60204374Y-101207440D01*
X60191249Y-101193246D01*
X60182859Y-101186713D01*
X60175623Y-101166207D01*
X60173703Y-101154420D01*
X60164507Y-101145164D01*
X60159394Y-101143283D01*
X60153391Y-101128490D01*
X60152137Y-101120820D01*
X60142275Y-101111816D01*
X60135815Y-101107647D01*
X60131159Y-101089584D01*
X60129604Y-101076676D01*
X60122822Y-101067265D01*
X60113850Y-101059744D01*
X60101600Y-101038897D01*
X60091131Y-101013446D01*
X60086696Y-100992226D01*
X60085609Y-100986045D01*
X60076765Y-100983250D01*
X60068237Y-100980093D01*
X60059880Y-100961674D01*
X60052564Y-100943391D01*
X60042020Y-100933961D01*
X60037777Y-100932815D01*
X60031116Y-100919503D01*
X60027510Y-100901246D01*
X60017446Y-100876031D01*
X60005169Y-100854366D01*
X59994989Y-100845119D01*
X59991480Y-100843636D01*
X59986652Y-100829548D01*
X59984751Y-100821661D01*
X59969978Y-100807665D01*
X59961027Y-100800913D01*
X59953304Y-100780185D01*
X59947275Y-100757931D01*
X59931761Y-100731716D01*
X59915471Y-100705694D01*
X59902541Y-100673739D01*
X59893319Y-100651518D01*
X59879620Y-100637300D01*
X59871429Y-100630839D01*
X59864376Y-100610408D01*
X59862915Y-100598645D01*
X59855882Y-100589365D01*
X59853462Y-100588264D01*
X59842396Y-100573720D01*
X59829096Y-100547680D01*
X59826676Y-100542380D01*
X59807641Y-100508332D01*
X59787568Y-100481449D01*
X59771351Y-100460968D01*
X59764332Y-100445172D01*
X59763809Y-100441172D01*
X59755781Y-100419680D01*
X59742585Y-100394844D01*
X59730094Y-100378162D01*
X59729318Y-100377365D01*
X59720127Y-100362117D01*
X59707927Y-100336477D01*
X59705885Y-100331936D01*
X59693353Y-100309488D01*
X59683807Y-100300350D01*
X59679778Y-100298196D01*
X59675404Y-100282882D01*
X59672300Y-100269804D01*
X59658185Y-100248194D01*
X59645388Y-100229261D01*
X59634705Y-100199677D01*
X59626289Y-100176772D01*
X59613019Y-100162460D01*
X59606280Y-100158153D01*
X59597593Y-100139517D01*
X59596611Y-100131558D01*
X59589190Y-100122494D01*
X59588010Y-100122208D01*
X59577616Y-100110319D01*
X59565070Y-100086368D01*
X59563360Y-100082491D01*
X59551296Y-100057767D01*
X59542903Y-100044683D01*
X59541815Y-100043687D01*
X59527375Y-100023130D01*
X59514337Y-99995241D01*
X59508665Y-99972580D01*
X59507386Y-99964769D01*
X59497549Y-99955755D01*
X59492613Y-99954068D01*
X59486433Y-99939633D01*
X59484922Y-99931736D01*
X59471331Y-99914622D01*
X59468611Y-99912545D01*
X59455075Y-99893178D01*
X59442679Y-99864048D01*
X59439708Y-99855567D01*
X59428471Y-99831879D01*
X59418875Y-99822363D01*
X59414166Y-99820489D01*
X59408621Y-99805689D01*
X59402877Y-99788791D01*
X59386389Y-99766783D01*
X59371516Y-99747602D01*
X59364157Y-99727877D01*
X59362941Y-99720212D01*
X59353359Y-99711203D01*
X59349372Y-99710034D01*
X59338843Y-99694602D01*
X59331733Y-99667334D01*
X59330127Y-99644508D01*
X59597593Y-99644508D01*
X59597673Y-99651014D01*
X59601921Y-99679746D01*
X59613030Y-99688971D01*
X59614332Y-99689090D01*
X59626664Y-99700861D01*
X59635564Y-99726804D01*
X59636217Y-99730002D01*
X59646046Y-99756584D01*
X59659033Y-99770919D01*
X59666417Y-99775645D01*
X59675404Y-99794689D01*
X59681345Y-99812935D01*
X59697636Y-99836040D01*
X59712454Y-99858524D01*
X59719868Y-99885597D01*
X59722356Y-99901845D01*
X59730835Y-99911291D01*
X59732373Y-99911587D01*
X59744643Y-99923495D01*
X59758402Y-99947418D01*
X59776268Y-99983120D01*
X59795165Y-100015066D01*
X59809687Y-100033567D01*
X59810462Y-100034363D01*
X59819654Y-100049612D01*
X59831853Y-100075252D01*
X59833895Y-100079792D01*
X59846427Y-100102241D01*
X59855974Y-100111378D01*
X59859468Y-100112774D01*
X59864376Y-100126691D01*
X59866613Y-100136342D01*
X59880335Y-100155249D01*
X59892801Y-100172274D01*
X59903247Y-100200146D01*
X59912102Y-100223412D01*
X59925145Y-100237532D01*
X59925202Y-100237554D01*
X59937929Y-100251650D01*
X59947581Y-100277367D01*
X59947842Y-100278517D01*
X59957769Y-100301827D01*
X59970861Y-100311466D01*
X59979900Y-100315376D01*
X59986652Y-100333042D01*
X59988430Y-100345809D01*
X59997768Y-100361488D01*
X60003779Y-100368654D01*
X60008884Y-100389934D01*
X60010879Y-100402229D01*
X60020000Y-100411510D01*
X60026461Y-100415679D01*
X60031116Y-100433742D01*
X60032953Y-100446652D01*
X60040935Y-100455974D01*
X60048090Y-100460716D01*
X60056861Y-100479324D01*
X60063285Y-100492294D01*
X60074831Y-100495342D01*
X60080321Y-100493676D01*
X60086696Y-100503123D01*
X60090290Y-100521704D01*
X60100315Y-100547124D01*
X60112577Y-100568890D01*
X60122822Y-100578163D01*
X60127561Y-100582062D01*
X60131159Y-100599825D01*
X60132937Y-100612593D01*
X60142275Y-100628271D01*
X60146805Y-100632512D01*
X60153391Y-100651644D01*
X60153621Y-100653983D01*
X60162964Y-100674133D01*
X60181754Y-100698231D01*
X60183441Y-100700063D01*
X60204392Y-100729946D01*
X60216682Y-100759839D01*
X60224799Y-100782843D01*
X60236449Y-100796429D01*
X60238386Y-100797476D01*
X60251495Y-100813332D01*
X60264733Y-100839938D01*
X60267274Y-100846114D01*
X60279332Y-100869085D01*
X60288858Y-100878381D01*
X60294106Y-100882537D01*
X60297899Y-100900613D01*
X60299589Y-100913517D01*
X60306940Y-100922845D01*
X60308691Y-100923406D01*
X60319208Y-100936577D01*
X60331247Y-100961750D01*
X60333962Y-100968336D01*
X60346054Y-100991355D01*
X60355554Y-101000656D01*
X60359785Y-101002649D01*
X60364595Y-101017679D01*
X60366155Y-101025714D01*
X60380021Y-101040622D01*
X60392211Y-101053081D01*
X60401708Y-101077839D01*
X60410022Y-101102529D01*
X60425187Y-101126356D01*
X60435019Y-101139338D01*
X60442407Y-101161044D01*
X60443616Y-101169437D01*
X60452174Y-101178512D01*
X60453409Y-101178757D01*
X60464310Y-101190566D01*
X60476532Y-101214639D01*
X60477681Y-101217412D01*
X60491443Y-101243665D01*
X60504404Y-101258946D01*
X60505489Y-101259722D01*
X60516417Y-101277126D01*
X60524812Y-101305116D01*
X60525496Y-101308454D01*
X60535343Y-101335058D01*
X60548311Y-101349387D01*
X60555703Y-101354069D01*
X60564682Y-101372693D01*
X60565993Y-101380688D01*
X60575798Y-101389715D01*
X60581829Y-101392959D01*
X60586914Y-101409851D01*
X60592775Y-101429729D01*
X60609146Y-101453850D01*
X60624470Y-101473131D01*
X60631378Y-101487933D01*
X60634065Y-101495710D01*
X60648052Y-101511991D01*
X60656739Y-101521968D01*
X60664726Y-101544604D01*
X60670628Y-101563646D01*
X60686958Y-101587242D01*
X60702309Y-101606325D01*
X60709190Y-101620470D01*
X60712916Y-101636310D01*
X60723305Y-101659892D01*
X60735687Y-101680742D01*
X60745317Y-101689760D01*
X60749237Y-101691827D01*
X60753654Y-101706986D01*
X60759605Y-101725014D01*
X60775886Y-101747987D01*
X60791044Y-101768409D01*
X60798118Y-101787223D01*
X60799999Y-101797020D01*
X60812013Y-101818089D01*
X60817298Y-101824097D01*
X60847588Y-101863809D01*
X60868273Y-101900323D01*
X60875930Y-101927763D01*
X60876659Y-101934571D01*
X60884267Y-101947367D01*
X60890042Y-101953682D01*
X60903648Y-101975455D01*
X60920238Y-102006652D01*
X60932181Y-102029202D01*
X60949035Y-102056526D01*
X60961055Y-102070635D01*
X60972482Y-102086408D01*
X60981711Y-102113071D01*
X60981752Y-102113259D01*
X60991063Y-102138726D01*
X61002918Y-102152374D01*
X61004905Y-102153433D01*
X61018349Y-102169406D01*
X61031735Y-102196086D01*
X61034276Y-102202263D01*
X61046334Y-102225234D01*
X61055860Y-102234529D01*
X61061108Y-102238686D01*
X61064901Y-102256761D01*
X61066756Y-102269673D01*
X61074812Y-102278993D01*
X61082600Y-102284908D01*
X61091183Y-102304733D01*
X61101415Y-102328827D01*
X61120178Y-102356456D01*
X61135906Y-102378865D01*
X61142713Y-102397412D01*
X61143683Y-102403512D01*
X61153829Y-102412385D01*
X61158157Y-102413532D01*
X61164945Y-102426843D01*
X61168551Y-102445100D01*
X61178615Y-102470314D01*
X61190891Y-102491980D01*
X61201072Y-102501226D01*
X61204581Y-102502710D01*
X61209409Y-102516798D01*
X61210931Y-102524027D01*
X61225035Y-102538278D01*
X61225064Y-102538290D01*
X61238285Y-102552555D01*
X61248150Y-102578374D01*
X61248451Y-102579717D01*
X61255824Y-102602923D01*
X61263093Y-102612559D01*
X61271938Y-102620607D01*
X61283809Y-102641647D01*
X61294006Y-102666839D01*
X61298337Y-102687291D01*
X61300244Y-102694879D01*
X61315011Y-102708497D01*
X61322718Y-102713219D01*
X61331685Y-102730380D01*
X61332464Y-102736905D01*
X61340022Y-102745951D01*
X61348345Y-102753161D01*
X61360648Y-102773158D01*
X61371487Y-102796990D01*
X61376148Y-102815570D01*
X61378195Y-102822900D01*
X61390043Y-102840758D01*
X61392932Y-102843987D01*
X61416756Y-102871913D01*
X61428553Y-102889608D01*
X61431728Y-102902082D01*
X61431731Y-102902308D01*
X61437865Y-102919927D01*
X61452214Y-102944236D01*
X61470834Y-102974916D01*
X61488276Y-103009869D01*
X61490284Y-103014374D01*
X61502736Y-103036846D01*
X61512254Y-103045996D01*
X61516950Y-103049614D01*
X61520656Y-103067038D01*
X61523116Y-103079281D01*
X61536282Y-103094077D01*
X61536311Y-103094088D01*
X61549532Y-103108353D01*
X61559397Y-103134172D01*
X61559687Y-103135459D01*
X61567849Y-103158677D01*
X61576907Y-103168271D01*
X61585283Y-103175251D01*
X61593903Y-103196061D01*
X61600337Y-103214464D01*
X61608075Y-103223851D01*
X61609121Y-103224146D01*
X61618764Y-103236051D01*
X61630991Y-103259978D01*
X61632700Y-103263855D01*
X61644765Y-103288579D01*
X61653157Y-103301663D01*
X61653916Y-103302345D01*
X61668527Y-103322900D01*
X61681681Y-103351165D01*
X61687396Y-103374422D01*
X61689018Y-103382485D01*
X61698512Y-103385033D01*
X61705349Y-103385680D01*
X61709628Y-103401051D01*
X61711817Y-103414601D01*
X61720834Y-103423939D01*
X61724354Y-103425468D01*
X61736576Y-103441178D01*
X61749831Y-103468403D01*
X61754816Y-103480002D01*
X61767726Y-103503513D01*
X61777530Y-103512866D01*
X61782078Y-103514738D01*
X61787440Y-103529540D01*
X61788694Y-103537211D01*
X61798555Y-103546214D01*
X61803716Y-103548150D01*
X61809671Y-103563039D01*
X61813941Y-103582388D01*
X61829143Y-103613721D01*
X61850448Y-103642935D01*
X61861131Y-103661182D01*
X61870580Y-103689679D01*
X61880017Y-103713939D01*
X61893721Y-103728350D01*
X61900753Y-103732793D01*
X61909715Y-103751511D01*
X61911026Y-103759506D01*
X61920831Y-103768534D01*
X61927292Y-103772703D01*
X61931947Y-103790766D01*
X61934032Y-103803688D01*
X61943063Y-103812998D01*
X61948177Y-103814879D01*
X61954179Y-103829672D01*
X61955433Y-103837342D01*
X61965295Y-103846346D01*
X61970714Y-103848606D01*
X61976411Y-103864045D01*
X61976411Y-103864055D01*
X61982946Y-103884856D01*
X61998643Y-103910008D01*
X62014246Y-103935944D01*
X62020875Y-103959353D01*
X62023217Y-103971606D01*
X62035656Y-103986107D01*
X62037734Y-103987189D01*
X62051843Y-104003395D01*
X62065520Y-104030222D01*
X62068061Y-104036398D01*
X62080120Y-104059370D01*
X62089646Y-104068665D01*
X62094702Y-104072288D01*
X62098687Y-104089708D01*
X62101090Y-104101937D01*
X62113930Y-104116600D01*
X62125736Y-104127586D01*
X62136417Y-104151307D01*
X62144769Y-104173492D01*
X62162550Y-104202227D01*
X62163380Y-104203171D01*
X62165812Y-104205415D01*
X62169398Y-104207495D01*
X62174949Y-104209415D01*
X62183275Y-104211184D01*
X62195186Y-104212806D01*
X62211495Y-104214289D01*
X62233011Y-104215638D01*
X62260545Y-104216860D01*
X62294908Y-104217961D01*
X62336910Y-104218947D01*
X62387362Y-104219826D01*
X62447076Y-104220602D01*
X62516860Y-104221283D01*
X62597527Y-104221874D01*
X62689887Y-104222382D01*
X62794751Y-104222814D01*
X62912929Y-104223175D01*
X63045232Y-104223471D01*
X63192471Y-104223710D01*
X63355456Y-104223897D01*
X63534998Y-104224039D01*
X63731908Y-104224141D01*
X63946996Y-104224211D01*
X64181074Y-104224255D01*
X64434951Y-104224278D01*
X64709439Y-104224287D01*
X65005348Y-104224289D01*
X67829257Y-104224289D01*
X67842033Y-104199278D01*
X67842284Y-104198787D01*
X67856265Y-104170610D01*
X67871892Y-104138140D01*
X67874213Y-104133440D01*
X67888634Y-104111100D01*
X67900658Y-104102013D01*
X67906039Y-104100127D01*
X67912341Y-104085339D01*
X67913595Y-104077669D01*
X67923457Y-104068665D01*
X67929488Y-104065422D01*
X67934573Y-104048529D01*
X67939084Y-104030535D01*
X67954026Y-104006238D01*
X67964130Y-103994268D01*
X67991600Y-103955525D01*
X68020070Y-103904705D01*
X68022891Y-103899432D01*
X68037253Y-103877482D01*
X68047792Y-103868578D01*
X68052696Y-103865348D01*
X68056849Y-103848442D01*
X68062709Y-103828564D01*
X68079081Y-103804443D01*
X68094220Y-103783897D01*
X68101313Y-103764630D01*
X68103209Y-103756538D01*
X68117987Y-103742282D01*
X68125681Y-103737486D01*
X68134661Y-103719655D01*
X68137158Y-103708439D01*
X68150508Y-103687578D01*
X68152121Y-103685874D01*
X68168116Y-103663559D01*
X68184473Y-103633983D01*
X68204234Y-103593649D01*
X68219612Y-103565034D01*
X68229967Y-103550354D01*
X68237340Y-103546214D01*
X68241223Y-103544352D01*
X68245820Y-103529540D01*
X68247074Y-103521870D01*
X68256936Y-103512866D01*
X68262050Y-103510985D01*
X68268052Y-103496192D01*
X68269306Y-103488522D01*
X68279168Y-103479519D01*
X68285629Y-103475350D01*
X68290284Y-103457287D01*
X68292269Y-103444370D01*
X68300879Y-103435055D01*
X68303174Y-103434374D01*
X68315630Y-103421076D01*
X68329935Y-103396149D01*
X68333566Y-103388865D01*
X68347631Y-103366323D01*
X68358247Y-103357243D01*
X68363584Y-103354008D01*
X68368096Y-103337107D01*
X68373957Y-103317229D01*
X68390328Y-103293108D01*
X68405608Y-103273519D01*
X68412560Y-103257664D01*
X68418457Y-103243931D01*
X68434792Y-103223851D01*
X68449647Y-103204563D01*
X68457024Y-103184414D01*
X68457070Y-103183372D01*
X68465730Y-103163868D01*
X68484814Y-103141455D01*
X68486346Y-103140008D01*
X68504942Y-103117124D01*
X68512604Y-103097522D01*
X68514098Y-103088445D01*
X68523720Y-103079343D01*
X68528833Y-103077462D01*
X68534836Y-103062670D01*
X68536090Y-103054999D01*
X68545952Y-103045996D01*
X68552412Y-103041827D01*
X68557068Y-103023764D01*
X68559152Y-103010842D01*
X68568183Y-103001532D01*
X68572741Y-103000200D01*
X68579299Y-102986481D01*
X68579497Y-102984472D01*
X68588571Y-102965264D01*
X68606996Y-102941545D01*
X68608500Y-102939892D01*
X68629254Y-102911112D01*
X68641774Y-102883444D01*
X68650045Y-102863716D01*
X68664100Y-102849379D01*
X68670443Y-102845532D01*
X68679343Y-102828045D01*
X68680193Y-102821508D01*
X68688384Y-102812560D01*
X68690135Y-102811999D01*
X68700652Y-102798827D01*
X68712691Y-102773654D01*
X68715413Y-102767010D01*
X68727084Y-102744031D01*
X68735791Y-102734748D01*
X68738479Y-102733179D01*
X68748904Y-102717449D01*
X68761416Y-102690284D01*
X68766420Y-102678742D01*
X68779802Y-102655191D01*
X68790413Y-102645820D01*
X68795569Y-102643939D01*
X68801619Y-102629147D01*
X68802631Y-102621505D01*
X68810660Y-102612473D01*
X68812411Y-102611911D01*
X68822928Y-102598740D01*
X68834967Y-102573567D01*
X68837681Y-102566981D01*
X68849774Y-102543962D01*
X68859274Y-102534661D01*
X68863417Y-102532795D01*
X68868315Y-102517987D01*
X68869427Y-102510334D01*
X68878224Y-102501313D01*
X68881427Y-102499768D01*
X68892955Y-102484050D01*
X68905924Y-102456849D01*
X68910915Y-102445268D01*
X68923976Y-102421744D01*
X68934037Y-102412385D01*
X68934430Y-102412361D01*
X68943749Y-102401942D01*
X68951850Y-102378286D01*
X68951864Y-102378222D01*
X68961743Y-102352417D01*
X68974965Y-102338191D01*
X68981671Y-102334109D01*
X68990590Y-102316710D01*
X68991441Y-102310173D01*
X68999632Y-102301225D01*
X69001382Y-102300664D01*
X69011900Y-102287493D01*
X69023938Y-102262319D01*
X69026653Y-102255734D01*
X69038746Y-102232714D01*
X69048245Y-102223413D01*
X69052388Y-102221548D01*
X69057286Y-102206740D01*
X69059223Y-102198964D01*
X69073960Y-102190066D01*
X69081804Y-102188075D01*
X69090634Y-102173241D01*
X69090649Y-102172492D01*
X69096660Y-102149768D01*
X69109669Y-102121881D01*
X69123982Y-102101138D01*
X69134654Y-102086760D01*
X69150914Y-102059935D01*
X69166489Y-102030988D01*
X69175986Y-102009431D01*
X69180630Y-101999027D01*
X69190768Y-101989978D01*
X69193067Y-101988959D01*
X69203667Y-101974470D01*
X69216071Y-101948293D01*
X69218366Y-101942860D01*
X69236442Y-101910003D01*
X69256184Y-101885432D01*
X69271977Y-101867219D01*
X69279606Y-101849306D01*
X69280572Y-101843226D01*
X69290722Y-101834354D01*
X69297699Y-101828704D01*
X69301838Y-101809018D01*
X69306572Y-101790023D01*
X69324070Y-101767659D01*
X69337999Y-101753818D01*
X69346302Y-101734522D01*
X69346375Y-101733168D01*
X69354727Y-101712933D01*
X69372719Y-101688920D01*
X69373255Y-101688338D01*
X69393893Y-101661232D01*
X69406929Y-101635876D01*
X69420176Y-101610828D01*
X69441341Y-101584702D01*
X69445600Y-101580073D01*
X69466371Y-101548857D01*
X69482091Y-101512805D01*
X69486133Y-101501305D01*
X69498522Y-101477148D01*
X69509978Y-101467527D01*
X69521468Y-101459089D01*
X69531070Y-101436958D01*
X69540456Y-101412872D01*
X69558505Y-101387031D01*
X69560370Y-101385153D01*
X69579201Y-101360329D01*
X69596862Y-101329198D01*
X69597495Y-101327878D01*
X69618126Y-101292785D01*
X69641892Y-101261835D01*
X69644401Y-101259063D01*
X69661618Y-101235795D01*
X69668665Y-101218344D01*
X69674311Y-101200950D01*
X69689068Y-101177232D01*
X69707859Y-101148275D01*
X69725129Y-101114595D01*
X69727157Y-101110069D01*
X69739656Y-101087611D01*
X69749190Y-101078468D01*
X69753037Y-101076606D01*
X69757593Y-101061794D01*
X69758829Y-101054126D01*
X69768559Y-101045120D01*
X69769994Y-101044857D01*
X69781935Y-101033011D01*
X69795043Y-101008993D01*
X69812724Y-100976566D01*
X69834098Y-100948320D01*
X69850644Y-100928346D01*
X69857636Y-100914410D01*
X69861363Y-100898569D01*
X69871751Y-100874987D01*
X69884133Y-100854138D01*
X69893763Y-100845119D01*
X69897575Y-100843223D01*
X69902100Y-100828359D01*
X69903354Y-100820688D01*
X69913216Y-100811685D01*
X69919677Y-100807516D01*
X69924332Y-100789453D01*
X69926417Y-100776531D01*
X69935448Y-100767221D01*
X69940562Y-100765340D01*
X69946564Y-100750547D01*
X69947840Y-100742874D01*
X69957860Y-100733873D01*
X69960282Y-100733195D01*
X69973177Y-100719900D01*
X69987709Y-100694967D01*
X69991377Y-100687617D01*
X70005205Y-100665121D01*
X70015319Y-100656061D01*
X70020576Y-100651905D01*
X70024376Y-100633829D01*
X70026460Y-100620907D01*
X70035492Y-100611597D01*
X70040606Y-100609716D01*
X70046608Y-100594923D01*
X70047862Y-100587253D01*
X70057724Y-100578249D01*
X70062980Y-100576199D01*
X70068840Y-100561111D01*
X70074791Y-100543082D01*
X70091072Y-100520109D01*
X70106113Y-100498939D01*
X70113304Y-100477299D01*
X70115155Y-100467285D01*
X70127577Y-100452875D01*
X70134389Y-100447554D01*
X70150544Y-100426458D01*
X70168230Y-100396106D01*
X70178699Y-100377061D01*
X70194024Y-100353868D01*
X70203979Y-100344814D01*
X70209418Y-100340656D01*
X70213348Y-100322582D01*
X70215540Y-100309655D01*
X70225031Y-100300350D01*
X70227276Y-100299773D01*
X70239681Y-100286585D01*
X70252970Y-100261444D01*
X70255947Y-100254674D01*
X70268815Y-100231781D01*
X70278956Y-100222538D01*
X70280347Y-100222177D01*
X70288744Y-100209280D01*
X70295984Y-100183632D01*
X70296333Y-100181840D01*
X70306048Y-100154923D01*
X70319453Y-100144726D01*
X70326983Y-100142796D01*
X70335623Y-100128052D01*
X70336552Y-100120419D01*
X70343960Y-100111292D01*
X70352246Y-100104097D01*
X70364552Y-100084148D01*
X70375413Y-100060411D01*
X70380087Y-100041981D01*
X70380306Y-100040561D01*
X70389309Y-100025023D01*
X70407435Y-100003103D01*
X70407680Y-100002838D01*
X70430659Y-99972941D01*
X70447690Y-99942450D01*
X70447696Y-99942434D01*
X70459678Y-99920439D01*
X70470364Y-99911291D01*
X70476491Y-99905648D01*
X70480131Y-99885955D01*
X70484865Y-99866959D01*
X70502363Y-99844595D01*
X70516208Y-99830285D01*
X70524595Y-99808793D01*
X70526371Y-99798205D01*
X70535949Y-99789015D01*
X70547811Y-99780158D01*
X70560726Y-99758446D01*
X70573741Y-99735135D01*
X70588278Y-99718988D01*
X70595846Y-99710831D01*
X70602407Y-99688419D01*
X70604416Y-99676025D01*
X70613523Y-99666740D01*
X70620833Y-99659840D01*
X70624639Y-99638950D01*
X70621879Y-99620672D01*
X70613523Y-99611160D01*
X70608302Y-99609152D01*
X70602407Y-99594137D01*
X70600768Y-99586024D01*
X70586412Y-99570976D01*
X70573155Y-99557199D01*
X70563132Y-99531668D01*
X70553564Y-99506768D01*
X70540221Y-99492502D01*
X70533514Y-99488420D01*
X70524595Y-99471021D01*
X70523807Y-99464493D01*
X70516192Y-99455536D01*
X70515023Y-99455254D01*
X70504674Y-99443373D01*
X70492215Y-99419409D01*
X70475620Y-99385999D01*
X70456153Y-99353776D01*
X70455799Y-99353264D01*
X70441568Y-99328964D01*
X70435667Y-99311561D01*
X70435662Y-99311297D01*
X70427881Y-99295143D01*
X70409759Y-99274371D01*
X70387082Y-99246812D01*
X70368140Y-99213764D01*
X70366099Y-99209224D01*
X70353571Y-99186775D01*
X70344026Y-99177637D01*
X70340484Y-99176185D01*
X70335623Y-99162152D01*
X70334102Y-99154922D01*
X70319998Y-99140671D01*
X70319968Y-99140660D01*
X70306747Y-99126395D01*
X70296882Y-99100576D01*
X70296587Y-99099262D01*
X70288731Y-99076063D01*
X70280367Y-99066477D01*
X70277260Y-99064800D01*
X70266154Y-99048830D01*
X70253322Y-99021442D01*
X70249291Y-99011984D01*
X70234852Y-98988304D01*
X70222608Y-98984254D01*
X70216894Y-98986815D01*
X70217290Y-98980163D01*
X70218780Y-98970845D01*
X70209358Y-98952916D01*
X70199054Y-98939454D01*
X70186095Y-98912547D01*
X70184248Y-98907752D01*
X70168565Y-98881723D01*
X70145723Y-98854323D01*
X70139043Y-98847065D01*
X70120678Y-98821457D01*
X70113304Y-98801406D01*
X70107432Y-98781763D01*
X70091072Y-98757791D01*
X70075903Y-98737439D01*
X70068840Y-98718885D01*
X70062825Y-98702165D01*
X70046608Y-98679979D01*
X70031328Y-98660389D01*
X70024376Y-98644535D01*
X70024094Y-98641550D01*
X70016039Y-98632915D01*
X70008281Y-98625748D01*
X69993153Y-98603630D01*
X69974744Y-98571777D01*
X69958308Y-98543199D01*
X69942475Y-98519699D01*
X69933059Y-98510678D01*
X69929649Y-98509512D01*
X69924332Y-98496100D01*
X69918303Y-98479673D01*
X69902100Y-98457659D01*
X69886979Y-98437001D01*
X69879868Y-98417313D01*
X69878901Y-98410010D01*
X69868752Y-98393961D01*
X69862597Y-98386411D01*
X69857636Y-98364859D01*
X69855352Y-98352809D01*
X69846520Y-98349497D01*
X69840707Y-98350461D01*
X69835404Y-98338688D01*
X69833523Y-98329833D01*
X69818731Y-98314611D01*
X69810585Y-98309054D01*
X69802057Y-98289266D01*
X69796160Y-98270118D01*
X69779825Y-98246456D01*
X69764545Y-98226867D01*
X69757593Y-98211012D01*
X69757253Y-98207989D01*
X69747825Y-98199431D01*
X69746591Y-98199186D01*
X69735690Y-98187377D01*
X69723467Y-98163304D01*
X69722342Y-98160590D01*
X69708445Y-98134230D01*
X69695197Y-98118774D01*
X69683844Y-98104102D01*
X69674412Y-98078018D01*
X69665040Y-98053947D01*
X69651312Y-98039527D01*
X69644280Y-98035084D01*
X69635317Y-98016366D01*
X69634259Y-98008399D01*
X69626276Y-97999343D01*
X69624525Y-97998782D01*
X69614008Y-97985611D01*
X69601969Y-97960438D01*
X69599254Y-97953852D01*
X69587162Y-97930833D01*
X69577662Y-97921532D01*
X69573431Y-97919539D01*
X69568621Y-97904509D01*
X69566982Y-97896396D01*
X69552626Y-97881348D01*
X69539591Y-97868083D01*
X69529526Y-97842857D01*
X69520881Y-97818318D01*
X69508741Y-97802101D01*
X69507681Y-97801375D01*
X69494094Y-97784440D01*
X69480471Y-97757571D01*
X69478708Y-97753370D01*
X69466356Y-97730691D01*
X69456113Y-97721444D01*
X69451631Y-97719573D01*
X69446345Y-97704770D01*
X69445249Y-97697119D01*
X69436578Y-97688096D01*
X69435329Y-97687847D01*
X69424371Y-97676027D01*
X69412037Y-97651969D01*
X69411194Y-97649931D01*
X69397712Y-97621573D01*
X69385677Y-97602333D01*
X69375532Y-97590431D01*
X69356922Y-97567459D01*
X69348364Y-97553756D01*
X69346302Y-97544058D01*
X69345905Y-97540994D01*
X69335186Y-97532473D01*
X69328725Y-97528304D01*
X69324070Y-97510241D01*
X69322379Y-97497336D01*
X69315028Y-97488009D01*
X69313278Y-97487447D01*
X69302760Y-97474276D01*
X69290722Y-97449103D01*
X69288007Y-97442517D01*
X69275914Y-97419498D01*
X69266415Y-97410197D01*
X69262272Y-97408331D01*
X69257374Y-97393523D01*
X69256268Y-97385871D01*
X69247524Y-97376849D01*
X69245948Y-97376486D01*
X69233862Y-97364467D01*
X69219427Y-97340722D01*
X69206804Y-97316476D01*
X69181131Y-97273514D01*
X69154551Y-97239189D01*
X69142130Y-97220374D01*
X69135098Y-97196897D01*
X69133426Y-97185980D01*
X69124702Y-97176761D01*
X69122840Y-97176252D01*
X69111892Y-97163143D01*
X69100237Y-97137856D01*
X69097850Y-97131750D01*
X69084555Y-97108403D01*
X69071727Y-97098950D01*
X69065033Y-97097038D01*
X69057286Y-97082276D01*
X69056032Y-97074605D01*
X69046170Y-97065602D01*
X69040267Y-97062653D01*
X69034807Y-97046149D01*
X69028429Y-97024640D01*
X69012822Y-96998906D01*
X69012775Y-96998845D01*
X68997382Y-96975440D01*
X68990838Y-96958147D01*
X68990343Y-96954253D01*
X68980647Y-96941473D01*
X68979299Y-96940801D01*
X68965489Y-96925795D01*
X68946498Y-96896712D01*
X68925641Y-96859041D01*
X68906231Y-96818271D01*
X68901897Y-96808877D01*
X68888431Y-96785816D01*
X68878224Y-96776586D01*
X68875634Y-96776183D01*
X68868315Y-96765006D01*
X68862195Y-96750477D01*
X68846083Y-96729562D01*
X68830948Y-96708988D01*
X68823851Y-96689616D01*
X68823848Y-96689380D01*
X68816000Y-96670905D01*
X68797555Y-96649164D01*
X68795522Y-96647198D01*
X68774029Y-96618310D01*
X68757787Y-96583972D01*
X68755054Y-96576117D01*
X68744710Y-96552611D01*
X68736775Y-96543151D01*
X68735670Y-96542850D01*
X68725731Y-96530935D01*
X68713256Y-96507024D01*
X68694799Y-96474051D01*
X68671290Y-96443107D01*
X68650940Y-96415497D01*
X68638220Y-96387656D01*
X68627025Y-96364246D01*
X68605219Y-96339606D01*
X68587393Y-96320996D01*
X68579299Y-96302575D01*
X68577024Y-96293240D01*
X68564947Y-96268054D01*
X68545952Y-96237462D01*
X68533683Y-96218686D01*
X68518525Y-96191799D01*
X68512604Y-96175596D01*
X68512536Y-96174599D01*
X68503786Y-96157658D01*
X68484814Y-96136444D01*
X68483021Y-96134752D01*
X68464601Y-96112945D01*
X68457024Y-96095581D01*
X68451011Y-96078820D01*
X68434792Y-96056609D01*
X68419512Y-96037020D01*
X68412560Y-96021165D01*
X68412279Y-96018185D01*
X68404223Y-96009497D01*
X68395329Y-96002018D01*
X68383072Y-95981274D01*
X68372558Y-95956016D01*
X68368096Y-95935114D01*
X68367165Y-95929474D01*
X68356413Y-95920656D01*
X68354932Y-95920406D01*
X68342622Y-95908584D01*
X68329490Y-95884529D01*
X68312576Y-95852485D01*
X68293311Y-95826171D01*
X68293182Y-95826033D01*
X68273751Y-95799739D01*
X68256382Y-95767812D01*
X68254274Y-95763204D01*
X68241590Y-95740801D01*
X68231991Y-95731685D01*
X68228062Y-95729696D01*
X68223588Y-95714662D01*
X68221702Y-95706096D01*
X68206914Y-95691241D01*
X68197977Y-95684511D01*
X68190240Y-95663800D01*
X68185539Y-95645745D01*
X68169680Y-95622197D01*
X68150782Y-95597660D01*
X68133619Y-95566617D01*
X68131961Y-95562975D01*
X68119379Y-95540699D01*
X68109715Y-95531597D01*
X68105760Y-95529566D01*
X68101313Y-95514459D01*
X68095361Y-95496430D01*
X68079081Y-95473457D01*
X68063897Y-95453206D01*
X68056849Y-95435015D01*
X68056178Y-95429324D01*
X68048446Y-95420438D01*
X68047249Y-95420145D01*
X68036790Y-95408243D01*
X68024119Y-95384311D01*
X68023066Y-95381949D01*
X68008812Y-95353771D01*
X67996394Y-95334675D01*
X67974903Y-95308950D01*
X67959152Y-95285345D01*
X67945136Y-95256477D01*
X67943028Y-95251869D01*
X67930343Y-95229466D01*
X67920743Y-95220350D01*
X67917033Y-95218683D01*
X67912341Y-95204228D01*
X67911126Y-95196942D01*
X67898212Y-95179217D01*
X67885564Y-95166492D01*
X67870503Y-95142538D01*
X67859029Y-95120232D01*
X67836409Y-95083142D01*
X67817855Y-95062118D01*
X67815120Y-95061787D01*
X67793370Y-95061073D01*
X67750758Y-95060377D01*
X67688225Y-95059703D01*
X67606713Y-95059054D01*
X67507162Y-95058431D01*
X67390516Y-95057838D01*
X67257714Y-95057278D01*
X67109700Y-95056753D01*
X66947414Y-95056265D01*
X66771797Y-95055818D01*
X66583792Y-95055415D01*
X66384339Y-95055057D01*
X66174381Y-95054748D01*
X65954858Y-95054490D01*
X65726713Y-95054287D01*
X65490886Y-95054140D01*
X65248320Y-95054053D01*
X64999956Y-95054028D01*
X64744892Y-95054039D01*
X64467692Y-95054066D01*
X64211218Y-95054112D01*
X63974662Y-95054183D01*
X63757211Y-95054286D01*
X63558058Y-95054424D01*
X63376390Y-95054605D01*
X63211400Y-95054832D01*
X63062275Y-95055113D01*
X62928207Y-95055451D01*
X62808385Y-95055854D01*
X62701999Y-95056326D01*
X62608240Y-95056873D01*
X62526296Y-95057500D01*
X62455359Y-95058214D01*
X62394617Y-95059019D01*
X62343262Y-95059920D01*
X62300482Y-95060924D01*
X62265469Y-95062037D01*
X62237411Y-95063263D01*
X62215499Y-95064607D01*
X62198922Y-95066077D01*
X62186872Y-95067676D01*
X62178537Y-95069411D01*
X62173107Y-95071288D01*
X62169773Y-95073311D01*
X62145194Y-95101435D01*
X62125537Y-95152541D01*
X62123726Y-95158750D01*
X62113171Y-95174773D01*
X62107187Y-95182088D01*
X62093214Y-95205158D01*
X62076460Y-95237024D01*
X62064595Y-95259541D01*
X62047796Y-95286886D01*
X62035794Y-95301007D01*
X62024366Y-95316780D01*
X62015137Y-95343443D01*
X62015136Y-95343450D01*
X62005267Y-95369243D01*
X61992037Y-95383472D01*
X61984387Y-95388849D01*
X61976411Y-95408415D01*
X61970514Y-95427562D01*
X61954179Y-95451225D01*
X61939079Y-95472021D01*
X61931947Y-95492227D01*
X61930618Y-95500330D01*
X61920831Y-95509365D01*
X61915977Y-95510969D01*
X61909715Y-95525245D01*
X61907815Y-95535057D01*
X61895351Y-95555814D01*
X61894681Y-95556521D01*
X61880426Y-95577571D01*
X61866212Y-95606630D01*
X61864410Y-95610873D01*
X61851951Y-95633524D01*
X61841671Y-95642757D01*
X61837885Y-95643894D01*
X61831903Y-95657215D01*
X61828298Y-95675472D01*
X61818234Y-95700686D01*
X61805957Y-95722352D01*
X61795776Y-95731598D01*
X61791965Y-95733494D01*
X61787440Y-95748359D01*
X61786287Y-95756016D01*
X61777186Y-95765033D01*
X61775666Y-95765389D01*
X61765221Y-95777966D01*
X61754416Y-95802956D01*
X61753015Y-95806965D01*
X61739832Y-95833074D01*
X61725764Y-95847071D01*
X61718597Y-95851603D01*
X61709628Y-95870286D01*
X61708317Y-95878281D01*
X61698512Y-95887308D01*
X61692177Y-95891181D01*
X61687396Y-95908884D01*
X61685618Y-95921652D01*
X61676280Y-95937330D01*
X61670268Y-95944496D01*
X61665164Y-95965776D01*
X61663547Y-95978053D01*
X61656123Y-95987352D01*
X61654372Y-95987914D01*
X61643855Y-96001085D01*
X61631816Y-96026258D01*
X61629101Y-96032844D01*
X61617009Y-96055863D01*
X61607509Y-96065164D01*
X61602261Y-96069320D01*
X61598468Y-96087396D01*
X61595579Y-96100363D01*
X61583183Y-96109628D01*
X61570652Y-96118819D01*
X61561497Y-96141636D01*
X61552916Y-96167172D01*
X61537876Y-96190864D01*
X61527812Y-96203188D01*
X61520656Y-96219994D01*
X61520206Y-96223341D01*
X61509540Y-96231904D01*
X61503079Y-96236072D01*
X61498424Y-96254136D01*
X61496340Y-96267057D01*
X61487308Y-96276368D01*
X61480847Y-96280536D01*
X61476192Y-96298599D01*
X61474338Y-96311511D01*
X61466283Y-96320831D01*
X61463600Y-96321898D01*
X61451864Y-96336419D01*
X61438439Y-96362516D01*
X61420679Y-96400430D01*
X61401493Y-96434597D01*
X61386374Y-96454223D01*
X61385598Y-96455019D01*
X61376407Y-96470268D01*
X61364207Y-96495908D01*
X61362165Y-96500449D01*
X61349633Y-96522897D01*
X61340087Y-96532035D01*
X61336240Y-96533897D01*
X61331685Y-96548709D01*
X61325941Y-96565608D01*
X61309453Y-96587615D01*
X61294777Y-96607945D01*
X61287221Y-96632428D01*
X61284486Y-96646272D01*
X61271794Y-96660928D01*
X61259509Y-96673610D01*
X61250036Y-96698506D01*
X61249823Y-96699516D01*
X61236900Y-96729790D01*
X61215441Y-96758428D01*
X61211983Y-96761957D01*
X61194356Y-96782682D01*
X61187177Y-96796130D01*
X61184951Y-96805430D01*
X61175001Y-96829400D01*
X61160207Y-96859578D01*
X61144050Y-96889336D01*
X61130009Y-96912050D01*
X61121562Y-96921094D01*
X61119966Y-96921664D01*
X61110040Y-96934844D01*
X61098249Y-96960000D01*
X61095535Y-96966586D01*
X61083442Y-96989605D01*
X61073942Y-96998906D01*
X61068695Y-97003062D01*
X61064901Y-97021138D01*
X61062817Y-97034060D01*
X61053785Y-97043370D01*
X61047874Y-97046317D01*
X61042360Y-97062823D01*
X61040588Y-97071138D01*
X61028573Y-97096393D01*
X61009012Y-97125941D01*
X60998707Y-97140592D01*
X60982403Y-97169534D01*
X60975973Y-97190206D01*
X60973456Y-97202023D01*
X60959299Y-97217205D01*
X60951592Y-97221928D01*
X60942625Y-97239089D01*
X60941569Y-97245658D01*
X60931510Y-97254573D01*
X60927182Y-97255721D01*
X60920394Y-97269031D01*
X60916788Y-97287288D01*
X60906724Y-97312502D01*
X60894447Y-97334168D01*
X60884267Y-97343414D01*
X60880455Y-97345311D01*
X60875930Y-97360175D01*
X60874676Y-97367845D01*
X60864814Y-97376849D01*
X60858353Y-97381018D01*
X60853698Y-97399081D01*
X60851613Y-97412003D01*
X60842582Y-97421313D01*
X60838053Y-97422619D01*
X60831466Y-97436286D01*
X60825207Y-97453892D01*
X60809234Y-97476893D01*
X60793766Y-97498585D01*
X60787002Y-97516138D01*
X60784408Y-97525560D01*
X60770328Y-97543589D01*
X60761679Y-97553641D01*
X60753654Y-97577108D01*
X60751424Y-97587939D01*
X60737593Y-97602953D01*
X60735639Y-97603960D01*
X60723155Y-97620749D01*
X60714124Y-97648606D01*
X60712900Y-97654319D01*
X60703540Y-97678347D01*
X60692162Y-97688096D01*
X60691656Y-97688116D01*
X60679433Y-97698505D01*
X60670119Y-97722195D01*
X60670105Y-97722260D01*
X60660225Y-97748064D01*
X60647004Y-97762290D01*
X60638409Y-97769190D01*
X60631378Y-97789985D01*
X60629162Y-97801577D01*
X60620262Y-97804814D01*
X60612926Y-97806706D01*
X60609146Y-97824294D01*
X60604688Y-97845626D01*
X60589132Y-97872193D01*
X60575010Y-97889918D01*
X60561691Y-97913195D01*
X60555885Y-97923657D01*
X60542799Y-97932648D01*
X60535937Y-97937312D01*
X60531334Y-97955943D01*
X60525512Y-97980557D01*
X60510848Y-98008743D01*
X60492229Y-98039424D01*
X60474787Y-98074376D01*
X60472779Y-98078882D01*
X60460327Y-98101354D01*
X60450809Y-98110503D01*
X60446854Y-98112534D01*
X60442407Y-98127642D01*
X60436455Y-98145671D01*
X60420175Y-98168644D01*
X60405040Y-98189217D01*
X60397943Y-98208589D01*
X60397890Y-98209627D01*
X60389204Y-98228370D01*
X60370153Y-98250426D01*
X60368551Y-98251940D01*
X60350002Y-98274536D01*
X60342363Y-98293537D01*
X60342337Y-98294595D01*
X60335992Y-98318425D01*
X60322594Y-98346512D01*
X60308124Y-98366171D01*
X60307349Y-98366967D01*
X60298158Y-98382216D01*
X60285958Y-98407856D01*
X60283916Y-98412396D01*
X60271384Y-98434844D01*
X60261838Y-98443982D01*
X60257141Y-98447601D01*
X60253435Y-98465025D01*
X60250975Y-98477268D01*
X60237809Y-98492064D01*
X60237485Y-98492195D01*
X60224367Y-98506815D01*
X60214529Y-98532910D01*
X60214368Y-98533630D01*
X60204374Y-98559562D01*
X60191249Y-98573757D01*
X60184543Y-98577838D01*
X60175623Y-98595237D01*
X60174844Y-98601762D01*
X60167286Y-98610809D01*
X60158392Y-98618288D01*
X60146135Y-98639032D01*
X60135621Y-98664290D01*
X60131159Y-98685192D01*
X60129868Y-98691077D01*
X60116338Y-98699650D01*
X60110373Y-98700776D01*
X60099850Y-98713545D01*
X60092377Y-98757852D01*
X60081586Y-98788916D01*
X60068760Y-98799694D01*
X60061598Y-98801616D01*
X60053348Y-98816368D01*
X60052093Y-98824038D01*
X60042232Y-98833041D01*
X60036328Y-98835991D01*
X60030868Y-98852494D01*
X60024490Y-98874004D01*
X60008884Y-98899737D01*
X59993643Y-98924685D01*
X59986899Y-98946980D01*
X59984343Y-98957307D01*
X59970861Y-98966433D01*
X59970641Y-98966436D01*
X59957456Y-98976363D01*
X59947760Y-98999715D01*
X59938645Y-99025244D01*
X59926217Y-99041400D01*
X59923599Y-99043437D01*
X59910596Y-99062522D01*
X59898434Y-99091488D01*
X59895476Y-99100049D01*
X59884966Y-99123682D01*
X59876692Y-99133173D01*
X59876561Y-99133177D01*
X59866586Y-99142575D01*
X59852027Y-99165076D01*
X59836790Y-99193425D01*
X59824783Y-99220364D01*
X59819912Y-99238636D01*
X59818001Y-99246058D01*
X59803238Y-99259468D01*
X59795557Y-99264342D01*
X59786564Y-99282890D01*
X59785525Y-99290855D01*
X59777681Y-99299912D01*
X59776045Y-99300433D01*
X59766006Y-99313555D01*
X59754730Y-99338818D01*
X59752324Y-99345095D01*
X59740421Y-99368325D01*
X59730265Y-99377724D01*
X59724225Y-99381888D01*
X59719868Y-99399956D01*
X59717784Y-99412878D01*
X59708752Y-99422188D01*
X59702292Y-99426357D01*
X59697636Y-99444420D01*
X59695552Y-99457342D01*
X59686520Y-99466652D01*
X59680575Y-99469737D01*
X59675404Y-99486414D01*
X59670172Y-99503593D01*
X59653173Y-99525211D01*
X59639154Y-99543500D01*
X59630941Y-99572145D01*
X59627674Y-99590375D01*
X59614267Y-99600044D01*
X59609473Y-99600851D01*
X59600346Y-99613590D01*
X59597593Y-99644508D01*
X59330127Y-99644508D01*
X59329528Y-99636002D01*
X59333713Y-99608381D01*
X59343159Y-99587096D01*
X59351896Y-99577812D01*
X59353368Y-99577283D01*
X59362755Y-99564151D01*
X59373760Y-99538906D01*
X59376166Y-99532629D01*
X59388069Y-99509399D01*
X59398225Y-99500000D01*
X59404264Y-99495836D01*
X59408621Y-99477768D01*
X59410176Y-99464860D01*
X59416958Y-99455449D01*
X59425366Y-99448204D01*
X59437664Y-99428095D01*
X59448454Y-99404048D01*
X59453085Y-99385120D01*
X59453171Y-99384220D01*
X59461990Y-99369251D01*
X59480875Y-99348961D01*
X59482018Y-99347882D01*
X59500876Y-99323425D01*
X59508665Y-99300443D01*
X59510820Y-99287013D01*
X59519781Y-99277680D01*
X59526362Y-99273209D01*
X59530897Y-99254792D01*
X59533264Y-99242178D01*
X59542013Y-99238775D01*
X59547116Y-99240231D01*
X59553129Y-99230531D01*
X59556723Y-99211950D01*
X59566748Y-99186530D01*
X59579011Y-99164764D01*
X59589256Y-99155491D01*
X59593149Y-99153468D01*
X59597593Y-99138382D01*
X59599479Y-99129816D01*
X59614267Y-99114961D01*
X59622653Y-99109072D01*
X59630941Y-99089019D01*
X59637420Y-99067025D01*
X59653173Y-99041212D01*
X59653686Y-99040556D01*
X59669042Y-99017377D01*
X59675404Y-99000807D01*
X59675754Y-98997329D01*
X59683741Y-98988578D01*
X59693297Y-98980707D01*
X59705479Y-98959097D01*
X59715626Y-98932220D01*
X59719868Y-98908637D01*
X59721734Y-98897820D01*
X59731552Y-98888621D01*
X59733032Y-98888371D01*
X59745342Y-98876549D01*
X59758475Y-98852494D01*
X59775817Y-98820096D01*
X59796813Y-98791821D01*
X59812988Y-98771939D01*
X59819912Y-98757911D01*
X59823638Y-98742070D01*
X59834027Y-98718488D01*
X59846409Y-98697639D01*
X59856039Y-98688621D01*
X59859851Y-98686724D01*
X59864376Y-98671860D01*
X59870120Y-98654961D01*
X59886608Y-98632954D01*
X59901335Y-98612914D01*
X59908840Y-98589679D01*
X59911300Y-98577437D01*
X59924466Y-98562641D01*
X59937119Y-98549770D01*
X59947088Y-98524790D01*
X59947324Y-98523763D01*
X59960441Y-98492967D01*
X59981484Y-98463386D01*
X59984394Y-98460154D01*
X60001782Y-98436048D01*
X60008884Y-98417334D01*
X60009854Y-98410009D01*
X60020000Y-98393961D01*
X60026011Y-98386794D01*
X60031116Y-98365515D01*
X60034144Y-98353152D01*
X60047790Y-98343939D01*
X60057513Y-98339812D01*
X60064464Y-98321707D01*
X60066154Y-98308802D01*
X60073505Y-98299475D01*
X60075256Y-98298913D01*
X60085773Y-98285742D01*
X60097811Y-98260569D01*
X60100526Y-98253983D01*
X60112619Y-98230964D01*
X60122118Y-98221663D01*
X60127366Y-98217507D01*
X60131159Y-98199431D01*
X60133244Y-98186509D01*
X60142275Y-98177199D01*
X60148736Y-98173030D01*
X60153391Y-98154967D01*
X60155476Y-98142045D01*
X60164507Y-98132735D01*
X60170453Y-98129650D01*
X60175623Y-98112974D01*
X60180856Y-98095794D01*
X60197855Y-98074177D01*
X60212045Y-98056770D01*
X60220087Y-98032451D01*
X60223053Y-98018436D01*
X60236761Y-98003363D01*
X60244469Y-97998641D01*
X60253435Y-97981480D01*
X60254270Y-97974946D01*
X60262318Y-97965996D01*
X60264380Y-97965177D01*
X60274549Y-97951095D01*
X60286001Y-97925068D01*
X60287585Y-97920861D01*
X60303749Y-97887515D01*
X60321582Y-97861834D01*
X60335126Y-97842400D01*
X60342363Y-97819392D01*
X60343722Y-97808493D01*
X60350843Y-97799256D01*
X60357529Y-97795813D01*
X60366979Y-97782684D01*
X60381083Y-97756304D01*
X60401957Y-97713107D01*
X60404279Y-97708407D01*
X60418699Y-97686067D01*
X60430723Y-97676980D01*
X60437607Y-97672594D01*
X60442407Y-97654283D01*
X60448190Y-97632847D01*
X60464639Y-97607724D01*
X60479456Y-97585239D01*
X60486871Y-97558166D01*
X60490109Y-97542012D01*
X60503041Y-97532473D01*
X60503792Y-97532441D01*
X60517085Y-97521218D01*
X60526510Y-97493567D01*
X60527269Y-97489852D01*
X60536822Y-97464610D01*
X60549246Y-97454661D01*
X60558251Y-97450458D01*
X60564682Y-97432429D01*
X60566767Y-97419507D01*
X60575798Y-97410197D01*
X60580986Y-97408230D01*
X60586914Y-97393285D01*
X60586927Y-97392730D01*
X60593103Y-97373538D01*
X60607505Y-97346509D01*
X60625636Y-97318595D01*
X60642996Y-97296748D01*
X60655087Y-97287921D01*
X60661179Y-97282101D01*
X60664726Y-97262227D01*
X60670419Y-97238992D01*
X60686958Y-97212670D01*
X60702127Y-97192319D01*
X60709190Y-97173764D01*
X60715205Y-97157045D01*
X60731422Y-97134858D01*
X60746522Y-97114062D01*
X60753654Y-97093856D01*
X60754639Y-97085788D01*
X60761991Y-97076631D01*
X60770788Y-97069202D01*
X60783055Y-97048584D01*
X60793623Y-97023565D01*
X60798118Y-97003054D01*
X60798121Y-97002840D01*
X60806424Y-96986810D01*
X60825908Y-96967544D01*
X60826043Y-96967438D01*
X60845579Y-96946991D01*
X60853698Y-96928487D01*
X60854785Y-96920417D01*
X60864814Y-96904420D01*
X60870825Y-96897254D01*
X60875930Y-96875974D01*
X60877547Y-96863697D01*
X60884971Y-96854398D01*
X60886722Y-96853837D01*
X60897239Y-96840666D01*
X60909278Y-96815492D01*
X60911992Y-96808906D01*
X60924085Y-96785887D01*
X60933584Y-96776586D01*
X60938832Y-96772430D01*
X60942625Y-96754354D01*
X60945544Y-96741385D01*
X60958062Y-96732122D01*
X60959565Y-96731966D01*
X60971859Y-96719825D01*
X60980798Y-96693217D01*
X60981147Y-96691424D01*
X60990862Y-96664507D01*
X61004267Y-96654311D01*
X61013829Y-96649888D01*
X61020437Y-96631614D01*
X61026221Y-96610177D01*
X61042669Y-96585054D01*
X61057827Y-96564632D01*
X61064901Y-96545819D01*
X61067799Y-96534285D01*
X61081558Y-96513790D01*
X61093724Y-96496693D01*
X61105534Y-96467973D01*
X61117538Y-96441607D01*
X61138899Y-96414675D01*
X61157123Y-96390967D01*
X61164945Y-96366800D01*
X61167226Y-96352436D01*
X61176061Y-96343063D01*
X61181175Y-96341182D01*
X61187177Y-96326389D01*
X61188431Y-96318719D01*
X61198293Y-96309715D01*
X61204519Y-96306080D01*
X61209409Y-96288673D01*
X61211869Y-96276430D01*
X61225035Y-96261634D01*
X61238042Y-96247942D01*
X61247946Y-96222467D01*
X61257611Y-96197541D01*
X61271226Y-96183159D01*
X61278267Y-96178762D01*
X61287221Y-96160522D01*
X61290414Y-96140857D01*
X61299958Y-96116609D01*
X61311904Y-96098402D01*
X61322194Y-96093959D01*
X61328379Y-96091463D01*
X61331685Y-96073832D01*
X61336403Y-96054467D01*
X61353917Y-96031816D01*
X61367747Y-96017424D01*
X61376148Y-95995545D01*
X61376323Y-95990619D01*
X61380527Y-95974769D01*
X61393133Y-95955471D01*
X61417833Y-95926623D01*
X61424690Y-95916687D01*
X61431728Y-95893660D01*
X61433111Y-95885249D01*
X61442844Y-95876192D01*
X61447958Y-95874311D01*
X61453960Y-95859519D01*
X61455214Y-95851848D01*
X61465076Y-95842845D01*
X61469404Y-95841697D01*
X61476192Y-95828387D01*
X61479798Y-95810130D01*
X61489862Y-95784916D01*
X61502139Y-95763250D01*
X61512319Y-95754003D01*
X61517202Y-95749645D01*
X61520656Y-95731336D01*
X61523599Y-95717435D01*
X61537330Y-95702357D01*
X61545066Y-95697781D01*
X61554004Y-95681973D01*
X61554007Y-95681750D01*
X61560650Y-95663574D01*
X61576236Y-95639724D01*
X61576708Y-95639121D01*
X61592092Y-95615774D01*
X61598468Y-95598854D01*
X61604557Y-95583672D01*
X61620700Y-95562384D01*
X61635850Y-95541559D01*
X61643179Y-95521164D01*
X61649621Y-95500985D01*
X61665164Y-95476017D01*
X61680576Y-95452332D01*
X61687149Y-95434333D01*
X61688018Y-95429237D01*
X61698512Y-95420438D01*
X61703733Y-95418430D01*
X61709628Y-95403415D01*
X61711514Y-95394849D01*
X61726302Y-95379993D01*
X61733984Y-95375127D01*
X61742976Y-95356643D01*
X61744891Y-95347373D01*
X61755441Y-95322474D01*
X61771192Y-95293467D01*
X61787520Y-95268545D01*
X61799803Y-95255903D01*
X61802834Y-95252565D01*
X61811939Y-95233182D01*
X61822157Y-95203102D01*
X61827282Y-95187891D01*
X61839195Y-95163342D01*
X61849767Y-95153654D01*
X61851582Y-95153301D01*
X61862006Y-95140419D01*
X61870076Y-95114748D01*
X61870425Y-95112956D01*
X61880140Y-95086039D01*
X61893545Y-95075842D01*
X61902985Y-95071632D01*
X61909715Y-95053610D01*
X61911270Y-95040702D01*
X61918052Y-95031292D01*
X61926460Y-95024046D01*
X61938758Y-95003937D01*
X61949548Y-94979890D01*
X61954179Y-94960962D01*
X61954179Y-94960954D01*
X61961604Y-94946700D01*
X61979433Y-94927051D01*
X61984726Y-94921445D01*
X62004013Y-94891754D01*
X62018785Y-94856302D01*
X62032883Y-94809059D01*
X64992769Y-94809059D01*
X67952655Y-94809059D01*
X67967921Y-94847965D01*
X67970605Y-94854334D01*
X67984323Y-94877501D01*
X67996902Y-94886871D01*
X67997112Y-94886875D01*
X68008842Y-94896815D01*
X68017928Y-94920153D01*
X68026773Y-94945692D01*
X68038498Y-94961837D01*
X68050625Y-94974308D01*
X68065339Y-94998031D01*
X68082410Y-95030211D01*
X68100227Y-95059206D01*
X68113319Y-95075842D01*
X68114095Y-95076639D01*
X68123286Y-95091888D01*
X68135486Y-95117527D01*
X68137551Y-95122142D01*
X68149621Y-95144540D01*
X68158257Y-95153654D01*
X68159226Y-95153922D01*
X68168491Y-95165778D01*
X68180131Y-95189781D01*
X68197523Y-95222556D01*
X68220386Y-95253584D01*
X68221840Y-95255189D01*
X68238825Y-95278033D01*
X68245820Y-95295269D01*
X68246625Y-95300490D01*
X68256936Y-95309278D01*
X68263397Y-95313447D01*
X68268052Y-95331510D01*
X68270137Y-95344432D01*
X68279168Y-95353742D01*
X68283884Y-95355214D01*
X68290284Y-95369226D01*
X68292185Y-95377113D01*
X68306958Y-95391109D01*
X68316256Y-95398466D01*
X68323632Y-95419656D01*
X68328107Y-95437871D01*
X68343933Y-95461689D01*
X68344073Y-95461827D01*
X68362578Y-95486473D01*
X68378629Y-95517702D01*
X68380350Y-95521859D01*
X68392589Y-95544568D01*
X68402792Y-95553829D01*
X68407004Y-95555378D01*
X68412560Y-95569577D01*
X68413445Y-95576269D01*
X68422842Y-95589030D01*
X68427635Y-95592271D01*
X68436737Y-95609409D01*
X68442809Y-95623013D01*
X68459803Y-95644061D01*
X68471791Y-95657908D01*
X68479256Y-95674979D01*
X68481183Y-95681739D01*
X68495930Y-95694317D01*
X68505802Y-95702824D01*
X68512604Y-95724862D01*
X68517366Y-95743185D01*
X68534836Y-95765033D01*
X68548854Y-95778374D01*
X68557068Y-95795427D01*
X68562562Y-95816303D01*
X68578293Y-95846311D01*
X68599118Y-95874143D01*
X68601998Y-95877534D01*
X68617833Y-95900394D01*
X68635361Y-95930153D01*
X68657524Y-95969835D01*
X68677697Y-96003190D01*
X68690459Y-96020700D01*
X68700750Y-96034894D01*
X68717771Y-96062927D01*
X68737125Y-96097535D01*
X68754838Y-96131860D01*
X68757921Y-96137944D01*
X68774019Y-96164358D01*
X68787724Y-96179655D01*
X68793238Y-96184514D01*
X68801619Y-96204666D01*
X68802782Y-96211824D01*
X68812735Y-96220788D01*
X68817111Y-96221971D01*
X68823851Y-96235366D01*
X68829880Y-96251793D01*
X68846083Y-96273807D01*
X68861172Y-96294676D01*
X68868315Y-96315158D01*
X68870037Y-96323688D01*
X68884309Y-96338783D01*
X68897345Y-96352048D01*
X68907410Y-96377274D01*
X68915942Y-96401818D01*
X68927776Y-96418030D01*
X68940529Y-96432140D01*
X68954459Y-96457002D01*
X68967175Y-96478468D01*
X68979236Y-96487571D01*
X68984607Y-96489623D01*
X68990590Y-96504710D01*
X68996542Y-96522739D01*
X69012822Y-96545712D01*
X69027824Y-96567122D01*
X69035054Y-96589711D01*
X69036845Y-96600636D01*
X69046170Y-96609847D01*
X69051284Y-96611728D01*
X69057286Y-96626521D01*
X69058551Y-96634193D01*
X69068492Y-96643195D01*
X69071995Y-96644709D01*
X69084212Y-96660388D01*
X69097460Y-96687586D01*
X69102768Y-96699636D01*
X69115496Y-96720436D01*
X69125160Y-96725836D01*
X69129666Y-96724705D01*
X69135098Y-96734808D01*
X69138692Y-96753389D01*
X69148718Y-96778809D01*
X69160980Y-96800575D01*
X69171225Y-96809848D01*
X69173152Y-96810169D01*
X69179562Y-96821050D01*
X69185473Y-96834490D01*
X69201794Y-96854398D01*
X69216521Y-96874438D01*
X69224026Y-96897673D01*
X69226641Y-96909955D01*
X69240700Y-96925114D01*
X69248381Y-96929987D01*
X69257374Y-96948535D01*
X69258685Y-96956530D01*
X69268490Y-96965558D01*
X69273603Y-96967439D01*
X69279606Y-96982232D01*
X69280860Y-96989902D01*
X69290722Y-96998906D01*
X69295835Y-97000787D01*
X69301838Y-97015580D01*
X69303092Y-97023250D01*
X69312954Y-97032254D01*
X69318490Y-97034678D01*
X69324070Y-97050379D01*
X69328092Y-97063921D01*
X69342430Y-97091226D01*
X69363581Y-97123501D01*
X69380890Y-97148743D01*
X69401278Y-97181724D01*
X69413328Y-97205419D01*
X69422911Y-97223157D01*
X69434954Y-97232341D01*
X69440343Y-97234394D01*
X69446345Y-97249480D01*
X69452297Y-97267509D01*
X69468577Y-97290482D01*
X69483579Y-97311893D01*
X69490809Y-97334481D01*
X69492694Y-97345413D01*
X69502492Y-97354617D01*
X69504738Y-97355194D01*
X69517142Y-97368382D01*
X69530432Y-97393523D01*
X69533410Y-97400350D01*
X69545742Y-97423265D01*
X69554875Y-97432602D01*
X69560621Y-97437551D01*
X69573985Y-97457750D01*
X69590261Y-97488182D01*
X69602167Y-97510836D01*
X69616995Y-97534436D01*
X69626388Y-97543589D01*
X69630335Y-97545259D01*
X69635317Y-97559710D01*
X69636828Y-97567607D01*
X69650419Y-97584721D01*
X69653139Y-97586799D01*
X69666675Y-97606166D01*
X69679071Y-97635295D01*
X69682033Y-97643828D01*
X69692795Y-97667481D01*
X69701526Y-97676980D01*
X69702063Y-97677036D01*
X69712310Y-97687423D01*
X69724245Y-97710328D01*
X69725038Y-97712207D01*
X69737309Y-97734495D01*
X69747825Y-97743676D01*
X69753782Y-97748707D01*
X69757593Y-97767761D01*
X69759230Y-97781333D01*
X69764835Y-97784603D01*
X69765090Y-97784377D01*
X69774122Y-97788731D01*
X69786468Y-97805567D01*
X69797366Y-97827094D01*
X69802057Y-97845521D01*
X69802071Y-97845880D01*
X69810039Y-97860426D01*
X69828242Y-97880378D01*
X69830933Y-97883032D01*
X69852490Y-97912130D01*
X69869381Y-97946543D01*
X69872727Y-97955392D01*
X69883744Y-97978827D01*
X69891869Y-97988227D01*
X69892346Y-97988287D01*
X69901674Y-97998697D01*
X69913216Y-98021575D01*
X69914010Y-98023454D01*
X69926281Y-98045742D01*
X69936797Y-98054923D01*
X69942469Y-98059084D01*
X69946564Y-98077155D01*
X69948757Y-98090082D01*
X69958247Y-98099387D01*
X69960492Y-98099964D01*
X69972897Y-98113152D01*
X69986187Y-98138293D01*
X69989154Y-98145002D01*
X70002456Y-98167937D01*
X70013409Y-98177199D01*
X70018453Y-98179079D01*
X70024376Y-98193873D01*
X70025630Y-98201544D01*
X70035492Y-98210547D01*
X70040653Y-98212482D01*
X70046608Y-98227372D01*
X70050264Y-98245320D01*
X70067181Y-98278560D01*
X70093851Y-98312431D01*
X70106087Y-98329112D01*
X70113304Y-98350027D01*
X70113304Y-98350038D01*
X70120854Y-98369378D01*
X70138989Y-98391712D01*
X70161070Y-98419105D01*
X70179243Y-98452319D01*
X70181002Y-98456515D01*
X70193342Y-98479198D01*
X70203580Y-98488446D01*
X70208157Y-98490444D01*
X70213348Y-98505469D01*
X70215234Y-98514035D01*
X70230022Y-98528890D01*
X70238959Y-98535620D01*
X70246696Y-98556331D01*
X70252152Y-98575635D01*
X70268645Y-98599323D01*
X70284088Y-98619633D01*
X70297865Y-98650243D01*
X70306442Y-98670765D01*
X70320380Y-98685063D01*
X70326723Y-98688910D01*
X70335623Y-98706397D01*
X70336474Y-98712934D01*
X70344665Y-98721882D01*
X70346415Y-98722443D01*
X70356933Y-98735614D01*
X70368971Y-98760788D01*
X70371686Y-98767373D01*
X70383779Y-98790393D01*
X70393278Y-98799694D01*
X70397509Y-98801686D01*
X70402319Y-98816716D01*
X70404206Y-98825282D01*
X70418993Y-98840138D01*
X70427930Y-98846867D01*
X70435667Y-98867579D01*
X70437588Y-98879366D01*
X70446783Y-98888621D01*
X70451897Y-98890503D01*
X70457899Y-98905295D01*
X70458848Y-98912930D01*
X70466393Y-98921969D01*
X70468797Y-98923062D01*
X70479807Y-98937600D01*
X70493010Y-98963654D01*
X70494666Y-98967333D01*
X70515664Y-99004309D01*
X70540096Y-99036481D01*
X70544078Y-99040956D01*
X70561842Y-99066849D01*
X70569059Y-99088092D01*
X70571547Y-99099771D01*
X70585733Y-99114961D01*
X70593414Y-99119834D01*
X70602407Y-99138382D01*
X70603465Y-99146349D01*
X70611448Y-99155405D01*
X70613199Y-99155966D01*
X70623716Y-99169137D01*
X70635755Y-99194311D01*
X70638469Y-99200896D01*
X70650562Y-99223916D01*
X70660061Y-99233217D01*
X70664205Y-99235082D01*
X70669103Y-99249891D01*
X70670357Y-99257561D01*
X70680218Y-99266564D01*
X70685769Y-99269009D01*
X70691334Y-99284743D01*
X70691377Y-99285784D01*
X70700012Y-99305952D01*
X70719124Y-99328676D01*
X70720739Y-99330201D01*
X70739279Y-99352745D01*
X70746914Y-99371635D01*
X70752642Y-99388860D01*
X70769146Y-99411072D01*
X70784020Y-99430253D01*
X70791378Y-99449978D01*
X70792632Y-99457649D01*
X70802494Y-99466652D01*
X70807608Y-99468533D01*
X70813610Y-99483326D01*
X70814864Y-99490996D01*
X70824726Y-99500000D01*
X70831187Y-99504169D01*
X70835842Y-99522232D01*
X70837762Y-99535146D01*
X70846096Y-99544464D01*
X70847847Y-99544937D01*
X70858321Y-99557999D01*
X70869190Y-99583370D01*
X70871312Y-99589420D01*
X70882472Y-99612805D01*
X70892284Y-99622276D01*
X70896993Y-99624150D01*
X70902538Y-99638950D01*
X70901388Y-99646607D01*
G37*
%TD*%
M02*
