%TF.GenerationSoftware,KiCad,Pcbnew,8.0.8*%
%TF.CreationDate,2025-01-20T03:53:26+01:00*%
%TF.ProjectId,NANO_MPU_SD_2Layers,4e414e4f-5f4d-4505-955f-53445f324c61,rev?*%
%TF.SameCoordinates,Original*%
%TF.FileFunction,Soldermask,Top*%
%TF.FilePolarity,Negative*%
%FSLAX46Y46*%
G04 Gerber Fmt 4.6, Leading zero omitted, Abs format (unit mm)*
G04 Created by KiCad (PCBNEW 8.0.8) date 2025-01-20 03:53:26*
%MOMM*%
%LPD*%
G01*
G04 APERTURE LIST*
G04 Aperture macros list*
%AMRoundRect*
0 Rectangle with rounded corners*
0 $1 Rounding radius*
0 $2 $3 $4 $5 $6 $7 $8 $9 X,Y pos of 4 corners*
0 Add a 4 corners polygon primitive as box body*
4,1,4,$2,$3,$4,$5,$6,$7,$8,$9,$2,$3,0*
0 Add four circle primitives for the rounded corners*
1,1,$1+$1,$2,$3*
1,1,$1+$1,$4,$5*
1,1,$1+$1,$6,$7*
1,1,$1+$1,$8,$9*
0 Add four rect primitives between the rounded corners*
20,1,$1+$1,$2,$3,$4,$5,0*
20,1,$1+$1,$4,$5,$6,$7,0*
20,1,$1+$1,$6,$7,$8,$9,0*
20,1,$1+$1,$8,$9,$2,$3,0*%
G04 Aperture macros list end*
%ADD10R,1.600000X1.600000*%
%ADD11O,1.600000X1.600000*%
%ADD12C,1.600000*%
%ADD13R,1.800000X1.800000*%
%ADD14C,1.800000*%
%ADD15R,1.700000X1.700000*%
%ADD16O,1.700000X1.700000*%
%ADD17RoundRect,0.250000X-0.750000X0.600000X-0.750000X-0.600000X0.750000X-0.600000X0.750000X0.600000X0*%
%ADD18O,2.000000X1.700000*%
G04 APERTURE END LIST*
D10*
%TO.C,A1*%
X57560000Y-67660000D03*
D11*
X57560000Y-70200000D03*
X57560000Y-72740000D03*
X57560000Y-75280000D03*
X57560000Y-77820000D03*
X57560000Y-80360000D03*
X57560000Y-82900000D03*
X57560000Y-85440000D03*
X57560000Y-87980000D03*
X57560000Y-90520000D03*
X57560000Y-93060000D03*
X57560000Y-95600000D03*
X57560000Y-98140000D03*
X57560000Y-100680000D03*
X57560000Y-103220000D03*
X72800000Y-103220000D03*
X72800000Y-100680000D03*
X72800000Y-98140000D03*
X72800000Y-95600000D03*
X72800000Y-93060000D03*
X72800000Y-90520000D03*
X72800000Y-87980000D03*
X72800000Y-85440000D03*
X72800000Y-82900000D03*
X72800000Y-80360000D03*
X72800000Y-77820000D03*
X72800000Y-75280000D03*
X72800000Y-72740000D03*
X72800000Y-70200000D03*
X72800000Y-67660000D03*
%TD*%
D12*
%TO.C,R1*%
X53100000Y-86720000D03*
D11*
X53100000Y-96880000D03*
%TD*%
D13*
%TO.C,D2*%
X53100000Y-104430000D03*
D14*
X53100000Y-106970000D03*
%TD*%
D15*
%TO.C,J2*%
X58180000Y-51960000D03*
D16*
X58180000Y-54500000D03*
X60720000Y-51960000D03*
X60720000Y-54500000D03*
X63260000Y-51960000D03*
X63260000Y-54500000D03*
X65800000Y-51960000D03*
X65800000Y-54500000D03*
X68340000Y-51960000D03*
X68340000Y-54500000D03*
X70880000Y-51960000D03*
X70880000Y-54500000D03*
X73420000Y-51960000D03*
X73420000Y-54500000D03*
X75960000Y-51960000D03*
X75960000Y-54500000D03*
%TD*%
D15*
%TO.C,J3*%
X82875000Y-82400000D03*
D16*
X82875000Y-79860000D03*
X82875000Y-77320000D03*
X82875000Y-74780000D03*
%TD*%
D13*
%TO.C,D1*%
X53100000Y-99230000D03*
D14*
X53100000Y-101770000D03*
%TD*%
D15*
%TO.C,J1*%
X83100000Y-106600000D03*
D16*
X83100000Y-104060000D03*
X83100000Y-101520000D03*
X83100000Y-98980000D03*
X83100000Y-96440000D03*
X83100000Y-93900000D03*
X83100000Y-91360000D03*
X83100000Y-88820000D03*
%TD*%
D12*
%TO.C,R2*%
X53000000Y-84080000D03*
D11*
X53000000Y-73920000D03*
%TD*%
D17*
%TO.C,J4*%
X81600000Y-60200000D03*
D18*
X81600000Y-62700000D03*
%TD*%
M02*
