<?xml version="1.0" standalone="no"?>
<!DOCTYPE svg PUBLIC "-//W3C//DTD SVG 20010904//EN"
 "http://www.w3.org/TR/2001/REC-SVG-20010904/DTD/svg10.dtd">
<svg version="1.0" xmlns="http://www.w3.org/2000/svg"
 width="1080.000000pt" height="959.000000pt" viewBox="0 0 1080.000000 959.000000"
 preserveAspectRatio="xMidYMid meet">

<g transform="translate(0.000000,959.000000) scale(0.100000,-0.100000)"
fill="#000000" stroke="none">
<path d="M2833 9000 c-3 -11 -9 -20 -14 -20 -5 0 -9 -7 -9 -15 0 -8 -6 -15
-14 -15 -8 0 -17 -13 -21 -30 -4 -16 -13 -34 -22 -38 -8 -5 -15 -13 -15 -18
-1 -18 -16 -49 -35 -69 -10 -11 -25 -33 -33 -50 -8 -16 -22 -42 -32 -57 -10
-14 -18 -31 -18 -38 0 -6 -10 -21 -23 -33 -13 -12 -30 -37 -38 -54 -8 -18 -17
-33 -21 -33 -5 0 -8 -7 -8 -15 0 -8 -4 -15 -9 -15 -5 0 -14 -14 -20 -32 -6
-17 -17 -39 -25 -47 -7 -9 -25 -37 -38 -63 -14 -26 -28 -45 -32 -41 -3 3 -6
-3 -6 -15 0 -12 -4 -22 -10 -22 -5 0 -10 -7 -10 -15 0 -8 -4 -15 -10 -15 -5 0
-10 -6 -10 -14 0 -8 -7 -16 -15 -20 -8 -3 -15 -14 -15 -24 0 -10 -9 -28 -20
-40 -11 -12 -20 -28 -20 -37 0 -8 -4 -15 -10 -15 -5 0 -10 -9 -10 -20 0 -11
-4 -20 -10 -20 -5 0 -10 -7 -10 -15 0 -8 -4 -15 -10 -15 -5 0 -17 -16 -26 -35
-9 -19 -20 -35 -25 -35 -5 0 -9 -9 -9 -20 0 -11 -4 -20 -10 -20 -5 0 -10 -7
-10 -15 0 -8 -4 -15 -10 -15 -5 0 -10 -7 -10 -15 0 -8 -4 -15 -8 -15 -4 0 -14
-17 -21 -37 -8 -21 -23 -47 -35 -58 -12 -11 -28 -35 -35 -52 -7 -18 -17 -33
-22 -33 -5 0 -9 -7 -9 -15 0 -8 -9 -24 -20 -35 -11 -11 -20 -29 -20 -40 0 -11
-6 -20 -14 -20 -8 0 -17 -14 -21 -31 -4 -17 -13 -33 -21 -36 -8 -3 -14 -11
-14 -19 0 -8 -4 -14 -8 -14 -5 0 -14 -16 -22 -35 -8 -19 -17 -35 -22 -35 -4 0
-8 -7 -8 -15 0 -7 -6 -18 -13 -22 -7 -4 -19 -23 -26 -40 -8 -18 -17 -33 -22
-33 -5 0 -9 -9 -9 -20 0 -11 -4 -20 -10 -20 -5 0 -10 -7 -10 -15 0 -8 -4 -15
-10 -15 -5 0 -10 -6 -10 -14 0 -8 -6 -16 -14 -19 -8 -3 -17 -19 -21 -35 -3
-17 -13 -33 -21 -36 -8 -3 -14 -12 -14 -21 0 -8 -4 -15 -10 -15 -5 0 -10 -7
-10 -15 0 -8 -4 -15 -10 -15 -5 0 -10 -9 -10 -20 0 -11 -4 -20 -9 -20 -5 0
-11 -10 -15 -23 -5 -21 -14 -34 -55 -84 -6 -6 -13 -23 -17 -37 -3 -14 -12 -26
-20 -26 -8 0 -14 -11 -14 -27 0 -14 -3 -23 -7 -20 -8 9 -32 -24 -33 -45 0 -10
-4 -18 -9 -18 -5 0 -14 -14 -20 -30 -5 -17 -16 -37 -23 -45 -24 -27 -33 -40
-45 -67 -7 -16 -17 -28 -23 -28 -5 0 -10 -9 -10 -19 0 -10 -7 -21 -14 -24 -8
-3 -18 -22 -22 -41 -3 -21 -12 -36 -20 -36 -8 0 -14 -6 -14 -13 0 -7 -9 -23
-20 -35 -11 -12 -20 -28 -20 -37 0 -8 -4 -15 -9 -15 -5 0 -15 -15 -22 -32 -7
-18 -17 -37 -21 -43 -5 -5 -17 -21 -28 -34 -11 -13 -20 -30 -20 -37 0 -7 -6
-19 -13 -26 -7 -7 -20 -28 -28 -45 -7 -18 -17 -33 -21 -33 -5 0 -8 -6 -8 -14
0 -8 -6 -16 -14 -19 -8 -3 -17 -19 -21 -36 -4 -17 -13 -31 -21 -31 -8 0 -14
-9 -14 -20 0 -11 -3 -20 -8 -20 -4 0 -14 -15 -22 -32 -7 -18 -22 -42 -32 -52
-10 -11 -18 -28 -18 -38 0 -10 -4 -18 -10 -18 -5 0 -22 -21 -37 -47 -15 -27
-31 -49 -35 -51 -4 -2 -8 -12 -8 -23 0 -10 -4 -19 -9 -19 -5 0 -15 -16 -22
-35 -7 -19 -19 -35 -26 -35 -7 0 -13 -8 -13 -19 0 -10 -9 -30 -20 -44 -11 -14
-20 -28 -20 -31 0 -4 -9 -16 -20 -28 -11 -12 -20 -28 -20 -35 0 -7 -4 -13 -10
-13 -5 0 -10 -9 -10 -20 0 -11 -7 -20 -15 -20 -8 0 -15 -9 -15 -20 0 -11 -9
-29 -20 -40 -11 -11 -20 -27 -20 -35 0 -8 -4 -15 -10 -15 -5 0 -9 -3 -8 -7 2
-5 -12 -29 -30 -55 -17 -26 -32 -50 -32 -55 0 -4 -11 -20 -25 -35 -14 -15 -25
-33 -25 -41 0 -7 -8 -22 -17 -33 -23 -26 -43 -61 -43 -75 0 -7 -11 -21 -23
-33 -13 -12 -27 -34 -31 -49 -3 -15 -13 -27 -21 -27 -8 0 -15 -9 -15 -20 0
-11 -3 -20 -8 -20 -4 0 -13 -15 -21 -32 -8 -18 -20 -40 -27 -48 -7 -8 -16 -27
-19 -42 -4 -16 -11 -28 -16 -28 -5 0 -9 -5 -9 -11 0 -5 4 -8 9 -5 5 3 12 -10
15 -30 4 -19 13 -37 20 -40 7 -3 19 -20 26 -39 7 -19 17 -32 22 -29 4 3 8 -4
8 -14 0 -11 7 -22 15 -26 8 -3 15 -14 15 -25 0 -11 14 -33 30 -49 17 -17 30
-35 30 -41 0 -11 20 -51 30 -61 3 -3 12 -18 20 -35 8 -16 20 -35 25 -42 25
-30 31 -40 42 -65 7 -16 17 -28 23 -28 5 0 10 -8 10 -18 0 -10 9 -28 20 -40
11 -12 20 -28 20 -36 0 -7 6 -16 14 -19 8 -3 17 -19 21 -35 3 -17 13 -33 21
-36 8 -3 14 -13 14 -21 0 -9 6 -22 13 -30 33 -35 47 -57 47 -75 0 -11 6 -20
13 -20 7 0 19 -16 26 -35 7 -19 17 -35 22 -35 5 0 9 -7 9 -15 0 -8 9 -24 20
-35 11 -11 20 -26 20 -33 0 -8 9 -22 20 -32 11 -10 20 -26 20 -35 0 -10 7 -20
15 -24 8 -3 15 -12 15 -21 0 -8 4 -15 8 -15 5 0 14 -16 22 -35 8 -19 17 -35
20 -35 3 0 12 -16 20 -35 8 -19 17 -35 22 -35 4 0 8 -9 8 -20 0 -11 7 -20 15
-20 9 0 18 -12 21 -30 4 -16 13 -30 20 -30 8 0 14 -9 14 -20 0 -11 4 -20 8
-20 5 0 14 -16 22 -35 8 -19 17 -35 21 -35 3 0 13 -15 20 -32 7 -18 23 -42 35
-53 12 -11 27 -37 34 -57 8 -20 17 -35 22 -32 4 3 8 -2 8 -10 0 -9 9 -25 20
-36 11 -11 20 -29 20 -40 0 -11 6 -20 14 -20 8 0 17 -15 20 -35 4 -21 13 -35
21 -35 8 0 15 -9 15 -20 0 -11 5 -20 10 -20 6 0 10 -7 10 -15 0 -8 5 -15 10
-15 6 0 10 -7 10 -15 0 -8 5 -15 10 -15 6 0 10 -7 10 -15 0 -9 6 -18 13 -21 8
-3 20 -20 27 -39 8 -19 17 -35 22 -35 4 0 8 -6 8 -14 0 -21 26 -67 33 -59 4 3
7 -1 7 -10 0 -9 7 -20 16 -25 9 -5 15 -13 15 -18 -2 -20 13 -50 35 -71 13 -12
24 -28 24 -36 0 -7 9 -23 20 -35 11 -12 20 -28 20 -37 0 -8 5 -15 10 -15 6 0
10 -7 10 -16 0 -9 11 -27 25 -40 14 -13 25 -28 25 -34 0 -14 22 -52 41 -70 9
-8 22 -32 30 -52 7 -21 17 -38 21 -38 4 0 14 -15 22 -33 7 -17 23 -42 35 -54
11 -12 21 -29 21 -38 0 -8 5 -15 10 -15 6 0 10 -7 10 -15 0 -8 5 -15 10 -15 6
0 10 -6 10 -14 0 -8 7 -16 15 -20 8 -3 15 -13 15 -22 0 -9 8 -28 18 -42 10
-15 24 -39 32 -54 7 -16 17 -28 22 -28 4 0 8 -7 8 -15 0 -8 5 -15 10 -15 6 0
10 -5 10 -10 0 -12 52 -94 63 -98 4 -2 7 -12 7 -23 0 -10 5 -19 10 -19 6 0 10
-7 10 -15 0 -8 5 -15 10 -15 6 0 10 -9 10 -20 0 -11 5 -20 10 -20 6 0 10 -9
10 -20 0 -11 5 -20 10 -20 6 0 10 -7 10 -15 0 -8 4 -15 8 -15 10 0 62 -77 62
-91 0 -5 3 -9 8 -9 4 0 13 -15 21 -32 8 -18 17 -35 21 -38 3 -3 14 -22 23 -43
10 -20 22 -37 27 -37 6 0 10 -7 10 -15 0 -8 4 -15 8 -15 5 0 14 -16 22 -35 8
-19 17 -35 22 -35 4 0 8 -6 8 -14 0 -8 6 -16 14 -19 8 -3 17 -19 21 -35 3 -17
12 -33 20 -35 7 -3 16 -20 20 -37 4 -17 13 -34 21 -37 8 -3 14 -11 14 -19 0
-8 5 -14 10 -14 6 0 10 -7 10 -15 0 -8 5 -15 10 -15 6 0 10 -9 10 -20 0 -11 5
-20 10 -20 6 0 10 -4 10 -9 0 -14 52 -91 62 -91 4 0 8 -6 8 -13 0 -18 24 -67
33 -67 4 0 7 -6 7 -13 0 -8 9 -22 20 -32 11 -10 20 -26 20 -37 0 -10 4 -18 10
-18 5 0 16 -16 24 -35 8 -19 20 -35 25 -35 6 0 11 -8 11 -18 0 -11 8 -26 18
-35 17 -16 213 -17 2655 -17 1579 0 2646 4 2660 9 14 6 27 21 31 36 4 15 12
33 19 41 28 32 37 44 37 52 0 14 25 62 33 62 4 0 7 9 7 19 0 10 6 21 14 24 8
3 17 20 21 37 4 17 13 34 20 36 12 5 30 50 27 67 -1 4 5 7 13 7 8 0 15 9 15
20 0 11 5 20 10 20 6 0 10 7 10 15 0 8 5 15 10 15 6 0 10 10 10 21 0 12 11 32
25 45 14 13 25 31 25 42 0 10 9 28 20 40 11 12 20 25 20 30 0 14 25 62 33 62
4 0 7 7 7 15 0 9 7 18 15 21 8 4 15 14 15 24 0 9 9 29 20 43 11 14 20 30 20
36 0 6 5 11 10 11 6 0 10 7 10 15 0 8 5 15 10 15 6 0 10 9 10 21 0 11 7 27 15
35 8 9 18 27 22 42 3 14 17 36 30 48 12 12 23 26 23 31 0 15 24 63 33 63 4 0
7 9 7 19 0 10 6 21 14 24 8 3 17 19 21 35 3 17 13 33 21 36 8 3 14 14 14 24 0
11 9 31 20 45 11 14 20 30 20 36 0 6 3 11 8 11 8 0 32 48 32 63 0 5 11 20 24
32 13 12 27 36 31 53 3 18 10 32 15 32 10 0 40 57 40 77 0 7 5 13 10 13 6 0
10 9 10 21 0 11 4 18 9 15 9 -6 31 36 31 58 0 8 7 16 15 20 8 3 15 12 15 21 0
8 3 15 8 15 8 0 32 49 32 67 0 7 5 13 10 13 6 0 10 7 10 15 0 8 5 15 10 15 6
0 10 9 10 20 0 11 5 20 10 20 6 0 10 7 10 15 0 9 7 18 15 21 8 4 15 14 15 23
0 10 9 27 20 39 11 12 20 28 20 37 0 9 9 25 20 37 11 12 20 30 20 40 0 10 4
18 9 18 5 0 16 18 25 40 9 22 20 40 26 40 5 0 10 7 10 15 0 8 4 15 8 15 5 0
15 18 22 40 7 23 24 52 37 66 13 14 23 31 23 38 0 7 9 25 20 39 11 14 20 32
20 41 0 9 9 25 20 36 11 11 20 27 20 35 0 8 3 15 8 15 8 0 32 48 32 63 0 5 11
20 25 33 14 13 25 30 25 38 0 8 5 18 10 21 6 3 10 15 10 26 0 10 4 19 8 19 5
0 14 16 22 35 8 19 17 35 22 35 4 0 8 9 8 20 0 11 4 20 10 20 5 0 16 16 24 35
8 19 20 35 25 35 6 0 11 9 11 20 0 11 4 20 8 20 5 0 14 16 22 35 8 19 16 35
20 35 3 0 12 17 19 37 8 21 19 43 25 50 28 32 36 43 36 51 0 14 25 62 33 62 4
0 7 9 7 20 0 11 4 20 9 20 5 0 14 15 22 33 7 17 18 35 25 40 7 4 15 20 19 36
3 16 13 35 21 42 8 6 14 20 14 31 0 10 5 16 10 13 6 -3 10 3 10 14 0 12 5 21
10 21 6 0 10 7 10 16 0 9 11 27 25 40 14 13 25 32 25 44 0 11 5 20 11 20 5 0
8 4 4 9 -3 5 1 15 8 23 7 7 19 28 26 46 7 17 17 32 22 32 5 0 9 7 9 15 0 8 4
15 9 15 5 0 15 17 22 37 6 21 17 43 23 50 24 27 33 41 66 108 19 39 38 72 42
73 5 2 8 10 8 18 0 8 6 17 14 20 8 3 16 18 19 33 3 16 13 36 22 44 8 9 15 23
15 31 0 9 3 16 8 16 4 0 20 24 36 54 23 43 27 60 22 90 -4 20 -10 36 -15 36
-4 0 -13 16 -21 35 -8 19 -17 35 -22 35 -4 0 -8 7 -8 15 0 8 -9 24 -20 35 -11
11 -20 27 -20 36 0 8 -6 22 -12 29 -32 36 -38 46 -38 65 0 11 -4 20 -10 20 -5
0 -10 7 -10 15 0 8 -3 15 -7 15 -8 0 -33 48 -33 63 0 5 -6 15 -12 22 -29 32
-36 43 -42 63 -4 12 -13 28 -19 34 -17 18 -57 93 -57 107 0 6 -9 20 -20 31
-11 11 -20 27 -20 35 0 15 -6 25 -37 60 -7 7 -13 17 -13 22 0 15 -25 63 -32
63 -5 0 -8 7 -8 15 0 9 -6 18 -14 21 -8 3 -18 19 -21 35 -4 16 -12 32 -19 36
-7 5 -19 25 -25 46 -7 20 -17 37 -22 37 -5 0 -9 7 -9 15 0 8 -4 15 -10 15 -5
0 -10 9 -10 19 0 11 -4 23 -10 26 -5 3 -10 15 -10 26 0 10 -7 19 -15 19 -8 0
-15 7 -15 15 0 8 -4 15 -10 15 -5 0 -10 6 -10 13 0 18 -24 67 -32 67 -5 0 -8
9 -8 20 0 11 -4 20 -10 20 -5 0 -10 7 -10 15 0 8 -4 15 -10 15 -5 0 -10 8 -10
18 0 11 -9 27 -20 37 -11 10 -20 26 -20 35 0 10 -7 23 -15 30 -8 7 -15 19 -15
26 0 8 -3 14 -8 14 -4 0 -13 15 -21 33 -8 17 -17 34 -20 37 -10 9 -31 49 -31
61 0 6 -6 17 -12 24 -31 35 -38 45 -38 58 0 7 -9 23 -20 35 -11 12 -20 28 -20
37 0 8 -9 24 -20 35 -11 11 -20 29 -20 39 0 10 -6 21 -14 24 -8 3 -17 20 -21
37 -4 17 -13 34 -21 37 -8 3 -14 11 -14 19 0 8 -4 14 -9 14 -5 0 -11 12 -14
28 -3 15 -15 38 -26 52 -11 14 -24 30 -29 35 -5 6 -12 23 -15 37 -4 15 -14 33
-22 42 -8 8 -15 21 -15 28 0 8 -9 24 -20 36 -11 12 -20 28 -20 37 0 8 -3 15
-7 15 -9 0 -33 48 -33 63 0 5 -11 20 -25 33 -14 13 -25 30 -25 39 0 8 -4 15
-10 15 -5 0 -10 11 -10 25 0 14 -4 25 -10 25 -5 0 -10 7 -10 15 0 8 -4 15 -10
15 -5 0 -10 7 -10 16 0 8 -6 22 -12 29 -32 35 -38 45 -38 60 0 8 -9 24 -20 35
-11 11 -20 25 -20 30 0 6 -9 20 -20 32 -11 12 -20 28 -20 36 0 8 -9 25 -20 39
-11 14 -20 33 -20 42 0 9 -11 28 -25 43 -14 15 -25 31 -25 36 0 14 -25 62 -32
62 -5 0 -8 7 -8 15 0 9 -7 18 -15 21 -8 4 -15 15 -15 25 0 10 -8 27 -19 38
-10 10 -21 30 -25 44 -3 14 -13 32 -21 41 -8 8 -15 20 -15 26 0 6 -9 20 -20
32 -11 12 -20 30 -20 40 0 11 -11 29 -25 42 -14 13 -25 28 -25 33 0 15 -24 63
-32 63 -5 0 -8 9 -8 20 0 11 -4 20 -10 20 -5 0 -10 9 -10 20 0 11 -3 20 -8 20
-4 0 -12 9 -17 19 -6 11 -18 35 -29 55 -10 20 -22 36 -27 36 -5 0 -9 7 -9 16
0 9 -8 28 -18 42 -11 15 -25 42 -33 60 -8 17 -17 32 -21 32 -5 0 -8 7 -8 16 0
8 -6 22 -12 29 -31 35 -38 45 -38 58 0 7 -9 23 -20 35 -11 12 -20 28 -20 37 0
8 -4 15 -9 15 -5 0 -15 17 -22 38 -6 20 -18 40 -25 45 -7 4 -15 21 -19 38 -4
17 -13 33 -21 36 -8 3 -14 14 -14 24 0 10 -4 19 -10 19 -5 0 -10 7 -10 15 0 8
-4 15 -10 15 -5 0 -10 10 -10 21 0 12 -10 31 -23 43 -12 11 -29 40 -36 64
l-14 42 -2660 0 c-2650 0 -2659 0 -2664 -20z m5210 -214 c9 -7 17 -20 17 -29
0 -9 5 -19 10 -22 6 -3 10 -15 10 -26 0 -10 5 -19 10 -19 6 0 10 -6 10 -14 0
-8 6 -16 14 -19 8 -3 17 -20 21 -37 4 -17 13 -34 20 -36 7 -3 16 -21 19 -40 4
-20 13 -34 21 -34 9 0 15 -10 15 -26 0 -14 4 -23 10 -19 6 3 10 -3 10 -14 0
-12 5 -21 10 -21 6 0 10 -7 10 -15 0 -15 6 -25 38 -60 6 -7 12 -18 12 -24 0
-12 21 -52 31 -61 3 -3 12 -20 20 -37 8 -18 17 -33 21 -33 5 0 8 -6 8 -14 0
-7 6 -19 14 -25 8 -7 18 -25 21 -41 3 -16 13 -31 21 -34 8 -3 14 -12 14 -21 0
-8 5 -15 10 -15 6 0 10 -9 10 -20 0 -11 5 -20 10 -20 6 0 10 -9 10 -20 0 -11
5 -20 10 -20 6 0 10 -9 10 -20 0 -11 5 -20 10 -20 6 0 10 -9 10 -20 0 -11 5
-20 10 -20 6 0 10 -7 10 -15 0 -7 6 -18 13 -22 7 -4 19 -23 26 -40 8 -18 17
-33 22 -33 5 0 9 -9 9 -20 0 -11 3 -20 8 -20 8 0 32 -48 32 -66 0 -6 6 -14 14
-17 8 -3 17 -19 21 -36 4 -17 10 -31 15 -31 5 0 21 -26 36 -57 16 -32 32 -59
36 -61 4 -2 8 -10 8 -18 0 -8 4 -14 9 -14 5 0 16 -18 25 -40 9 -22 20 -40 26
-40 5 0 10 -8 10 -17 0 -17 34 -81 49 -93 3 -3 17 -25 29 -50 50 -95 77 -145
82 -150 12 -12 30 -51 30 -65 0 -8 5 -15 10 -15 6 0 10 -4 10 -10 0 -5 9 -19
20 -30 11 -11 20 -30 20 -42 0 -13 12 -34 25 -47 14 -13 25 -32 25 -42 0 -10
5 -19 10 -19 6 0 10 -7 10 -15 0 -8 3 -15 8 -15 8 0 32 -49 32 -67 0 -7 4 -13
10 -13 5 0 12 -11 16 -25 3 -14 9 -23 13 -20 4 2 14 -11 21 -30 8 -19 17 -35
22 -35 4 0 8 -7 8 -16 0 -8 7 -22 15 -31 9 -8 19 -28 22 -44 3 -15 11 -30 18
-33 7 -2 16 -19 20 -36 4 -17 13 -34 21 -37 8 -3 14 -11 14 -19 0 -8 5 -14 10
-14 6 0 10 -6 10 -13 0 -18 24 -67 33 -67 4 0 7 -7 7 -15 0 -9 6 -18 14 -21 8
-3 18 -19 21 -35 4 -16 12 -35 18 -42 19 -21 37 -56 37 -72 0 -9 5 -13 10 -10
6 3 10 -1 10 -9 0 -9 9 -25 20 -36 11 -11 20 -28 20 -38 0 -9 11 -29 25 -44
14 -15 25 -32 25 -39 0 -6 8 -23 19 -37 10 -15 24 -44 32 -64 7 -21 17 -38 21
-38 4 0 8 -7 8 -15 0 -9 7 -18 15 -21 8 -4 15 -14 15 -23 0 -9 9 -27 20 -41
11 -14 20 -31 20 -37 0 -7 3 -13 8 -13 8 0 32 -49 32 -67 0 -7 6 -13 14 -13 9
0 17 -15 21 -39 4 -22 13 -42 21 -45 8 -3 14 -13 14 -21 0 -9 5 -13 10 -10 6
3 10 -2 10 -12 0 -10 9 -29 20 -43 11 -14 20 -33 20 -42 0 -10 4 -18 10 -18 5
0 18 -16 27 -35 63 -123 75 -145 84 -145 5 0 9 -9 9 -19 0 -11 5 -23 10 -26 6
-3 10 -13 10 -21 0 -8 11 -25 25 -38 14 -13 25 -28 25 -33 0 -15 24 -63 33
-63 4 0 7 -9 7 -20 0 -11 5 -20 10 -20 6 0 10 -7 10 -15 0 -8 5 -15 10 -15 6
0 10 -7 10 -16 0 -9 9 -27 20 -41 11 -14 20 -34 20 -45 0 -10 7 -21 15 -24 20
-8 21 -84 1 -84 -8 0 -17 -15 -20 -34 -4 -19 -13 -37 -21 -40 -8 -3 -15 -15
-15 -26 0 -11 -4 -20 -10 -20 -5 0 -10 -7 -10 -15 0 -8 -4 -15 -10 -15 -5 0
-10 -11 -10 -25 0 -14 -4 -25 -9 -25 -5 0 -14 -15 -22 -32 -7 -18 -19 -37 -26
-41 -7 -4 -13 -15 -13 -22 0 -8 -4 -15 -10 -15 -5 0 -10 -8 -10 -17 0 -10 -9
-29 -20 -43 -11 -14 -20 -30 -20 -36 0 -7 -7 -14 -15 -18 -8 -3 -15 -13 -15
-23 -1 -10 -16 -43 -35 -73 -20 -30 -38 -63 -41 -72 -4 -10 -10 -18 -15 -18
-5 0 -9 -6 -9 -13 0 -18 -24 -67 -32 -67 -5 0 -8 -7 -8 -15 0 -9 -7 -18 -15
-21 -8 -4 -15 -14 -15 -23 0 -10 -8 -26 -18 -37 -10 -10 -24 -38 -31 -61 -8
-24 -18 -43 -23 -43 -4 0 -8 -5 -8 -11 0 -6 -7 -17 -15 -26 -9 -8 -19 -28 -22
-44 -3 -16 -12 -29 -19 -29 -8 0 -14 -9 -14 -20 0 -11 -3 -20 -8 -20 -4 0 -13
-15 -21 -32 -8 -18 -17 -35 -20 -38 -3 -3 -19 -31 -36 -62 -16 -32 -33 -58
-37 -58 -4 0 -8 -6 -8 -13 0 -18 -24 -67 -32 -67 -5 0 -8 -7 -8 -15 0 -8 -3
-15 -7 -15 -9 0 -33 -49 -33 -67 0 -7 -4 -13 -9 -13 -5 0 -15 -15 -22 -33 -13
-31 -20 -42 -46 -72 -7 -7 -13 -23 -13 -34 0 -12 -4 -21 -10 -21 -5 0 -10 -7
-10 -15 0 -8 -4 -15 -10 -15 -5 0 -10 -7 -10 -15 0 -8 -4 -15 -9 -15 -4 0 -16
-20 -25 -45 -10 -25 -21 -45 -26 -45 -5 0 -11 -13 -15 -29 -3 -16 -13 -35 -21
-42 -8 -6 -14 -18 -14 -25 0 -8 -3 -14 -7 -14 -10 0 -33 -49 -33 -68 0 -7 -4
-11 -9 -8 -4 3 -21 -20 -36 -52 -15 -31 -31 -59 -34 -62 -12 -10 -31 -50 -31
-65 0 -8 -4 -15 -10 -15 -5 0 -10 -6 -10 -14 0 -8 -7 -16 -14 -19 -8 -3 -18
-22 -22 -41 -3 -21 -12 -36 -20 -36 -8 0 -14 -6 -14 -14 0 -14 -37 -84 -50
-96 -3 -3 -16 -25 -28 -50 -59 -113 -78 -145 -84 -148 -5 -2 -8 -9 -8 -17 0
-7 -6 -18 -14 -24 -8 -7 -17 -23 -21 -38 -3 -14 -13 -32 -21 -40 -8 -9 -18
-28 -21 -44 -3 -16 -12 -29 -19 -29 -8 0 -14 -7 -14 -15 0 -8 -4 -15 -8 -15
-5 0 -15 -18 -22 -40 -7 -22 -17 -40 -22 -40 -4 0 -8 -7 -8 -15 0 -9 -6 -18
-14 -21 -8 -3 -16 -18 -19 -33 -3 -16 -13 -35 -21 -44 -8 -8 -18 -27 -22 -42
-4 -14 -13 -29 -20 -32 -8 -3 -14 -13 -14 -23 0 -11 -5 -22 -11 -26 -6 -3 -17
-21 -25 -38 -16 -34 -36 -68 -45 -76 -3 -3 -12 -20 -20 -38 -8 -17 -17 -32
-21 -32 -5 0 -8 -6 -8 -13 0 -18 -24 -67 -32 -67 -5 0 -8 -9 -8 -20 0 -11 -6
-20 -14 -20 -7 0 -16 -13 -19 -29 -3 -16 -13 -36 -22 -44 -8 -9 -15 -20 -15
-26 0 -6 -4 -11 -10 -11 -5 0 -10 -9 -10 -20 0 -11 -4 -20 -10 -20 -5 0 -10
-9 -10 -20 0 -11 -3 -20 -7 -20 -8 0 -33 -48 -33 -62 0 -5 -11 -19 -25 -32
-14 -13 -25 -31 -25 -40 0 -9 -4 -16 -10 -16 -5 0 -10 -9 -10 -20 0 -11 -4
-20 -10 -20 -5 0 -10 -7 -10 -15 0 -8 -9 -24 -20 -35 -11 -11 -20 -29 -20 -40
0 -11 -7 -23 -15 -26 -8 -4 -15 -14 -15 -24 0 -9 -9 -29 -20 -43 -11 -14 -20
-30 -20 -36 0 -6 -3 -11 -7 -11 -8 0 -33 -48 -33 -63 0 -38 85 -37 -2574 -37
-2280 0 -2546 2 -2546 15 0 9 -6 18 -14 21 -8 3 -16 18 -20 35 -3 17 -12 29
-21 29 -8 0 -15 9 -15 20 0 11 -4 20 -8 20 -5 0 -14 16 -22 35 -8 19 -17 35
-22 35 -4 0 -8 7 -8 15 0 7 -6 18 -13 22 -7 4 -19 23 -26 41 -8 17 -17 32 -22
32 -5 0 -9 7 -9 15 0 8 -9 24 -20 35 -11 11 -20 29 -20 40 0 11 -5 20 -10 20
-6 0 -16 12 -23 28 -6 15 -17 30 -24 35 -6 4 -14 20 -18 36 -3 16 -13 32 -21
35 -8 3 -14 10 -14 16 0 6 -13 31 -30 55 -17 24 -30 48 -30 54 0 5 -6 14 -13
18 -7 4 -19 23 -26 41 -8 17 -17 32 -22 32 -5 0 -9 9 -9 20 0 11 -4 20 -10 20
-5 0 -10 7 -10 15 0 8 -4 15 -10 15 -5 0 -10 6 -10 13 0 8 -9 22 -20 32 -11
10 -20 27 -20 37 0 10 -7 21 -15 24 -8 4 -15 12 -15 20 0 8 -4 14 -10 14 -5 0
-10 7 -10 15 0 8 -4 15 -10 15 -5 0 -10 9 -10 20 0 11 -4 20 -8 20 -5 0 -14
16 -22 35 -8 19 -17 35 -22 35 -4 0 -8 7 -8 15 0 9 -6 18 -13 21 -8 3 -20 20
-27 39 -8 19 -17 35 -22 35 -4 0 -8 7 -8 15 0 8 -4 15 -10 15 -5 0 -10 7 -10
15 0 8 -4 15 -10 15 -5 0 -10 9 -10 19 0 10 -6 21 -14 24 -7 3 -16 17 -20 32
-4 15 -18 37 -31 49 -14 13 -25 28 -25 33 0 15 -24 63 -32 63 -5 0 -8 5 -8 10
0 6 -9 19 -20 30 -11 11 -20 29 -20 40 0 11 -4 20 -10 20 -5 0 -16 16 -24 35
-8 19 -19 35 -24 35 -5 0 -12 8 -16 17 -8 26 -42 83 -63 107 -10 12 -25 36
-32 54 -7 17 -17 32 -22 32 -5 0 -9 9 -9 20 0 11 -4 20 -10 20 -5 0 -10 7 -10
15 0 8 -3 15 -8 15 -7 0 -17 17 -48 80 -9 19 -25 42 -35 51 -10 9 -19 24 -19
33 0 9 -4 16 -8 16 -5 0 -14 16 -22 35 -8 19 -17 35 -22 35 -4 0 -8 6 -8 13 0
7 -10 23 -23 37 -12 14 -29 40 -36 58 -7 17 -17 32 -22 32 -5 0 -9 6 -9 14 0
8 -6 16 -14 19 -7 3 -16 22 -20 41 -4 20 -11 36 -17 36 -5 0 -16 15 -24 32 -7
18 -23 43 -34 55 -12 12 -21 29 -21 37 0 8 -3 16 -7 18 -14 6 -63 77 -63 90 0
8 -9 24 -20 36 -11 12 -20 26 -20 32 0 15 -21 49 -48 80 -12 14 -25 35 -28 47
-3 12 -12 24 -20 27 -8 3 -14 12 -14 21 0 8 -4 15 -10 15 -5 0 -10 9 -10 20 0
11 -4 20 -9 20 -5 0 -15 16 -22 35 -7 19 -17 35 -21 35 -4 0 -8 7 -8 15 0 9
-11 28 -25 42 -13 15 -29 40 -36 55 -6 15 -15 28 -20 28 -5 0 -9 9 -9 20 0 11
-5 20 -10 20 -6 0 -16 12 -23 28 -6 15 -18 33 -25 41 -7 7 -16 26 -19 42 -3
16 -12 29 -19 29 -8 0 -14 7 -14 15 0 8 -4 15 -8 15 -5 0 -14 16 -22 35 -8 19
-17 35 -22 35 -4 0 -8 9 -8 20 0 11 -5 19 -11 17 -6 -1 -17 13 -23 31 -6 18
-16 36 -22 40 -5 4 -16 22 -23 40 -8 17 -17 32 -22 32 -5 0 -9 5 -9 10 0 6 -9
20 -20 32 -11 12 -20 28 -20 35 0 8 -6 21 -12 29 -7 8 -17 20 -23 27 -18 22
-45 71 -61 110 -9 20 -20 37 -25 37 -5 0 -9 7 -9 15 0 8 -4 15 -9 15 -5 0 -15
16 -22 35 -7 19 -19 35 -26 35 -7 0 -13 9 -13 20 0 11 -4 20 -10 20 -18 0 -10
60 11 83 11 12 26 36 34 52 7 17 21 39 31 51 23 25 44 60 44 74 0 6 9 20 20
32 11 12 20 28 20 36 0 8 11 25 25 38 14 13 25 28 25 34 0 12 20 49 38 68 7 8
20 28 29 45 9 18 19 34 22 37 4 3 15 23 25 45 11 22 22 42 26 45 4 3 22 30 40
60 18 30 38 59 46 63 8 4 14 16 14 26 0 9 9 27 20 39 11 12 20 25 20 30 0 14
25 62 33 62 4 0 7 5 7 10 0 6 5 16 10 23 21 25 60 88 60 97 0 6 5 10 10 10 6
0 10 7 10 15 0 8 4 15 9 15 5 0 15 16 22 35 7 19 17 35 21 35 4 0 8 9 8 20 0
11 5 20 10 20 6 0 10 7 10 15 0 8 4 15 10 15 5 0 17 16 26 35 9 19 20 35 25
35 5 0 9 7 9 15 0 9 9 25 20 37 11 12 20 28 20 35 0 7 9 22 20 33 11 11 20 27
20 34 0 8 11 27 25 42 14 15 25 33 25 40 0 8 5 14 10 14 6 0 10 9 10 20 0 11
5 20 10 20 6 0 10 7 10 15 0 8 5 15 11 15 5 0 17 16 25 35 8 19 19 35 24 35 6
0 10 9 10 20 0 11 9 29 20 40 11 11 20 25 20 30 0 6 4 10 9 10 5 0 15 16 22
35 7 19 17 35 21 35 4 0 8 5 8 11 0 6 11 25 25 43 14 18 25 38 25 44 0 7 3 12
8 12 4 0 13 15 21 33 8 17 17 34 20 37 10 8 30 43 46 78 9 17 20 32 25 32 6 0
10 6 10 13 0 7 9 23 20 35 11 12 20 31 20 42 0 12 4 19 8 16 5 -3 15 10 22 29
8 19 17 35 22 35 4 0 8 7 8 15 0 8 4 15 9 15 5 0 22 27 37 59 16 33 30 58 33
56 7 -7 30 29 31 46 0 9 6 19 14 22 8 3 17 20 21 37 4 17 13 34 21 37 8 3 14
14 14 24 0 10 5 19 10 19 6 0 16 12 23 28 6 15 20 36 30 47 10 11 26 37 34 58
8 20 19 37 24 37 5 0 9 9 9 20 0 11 5 20 10 20 6 0 10 7 10 15 0 8 5 15 10 15
6 0 10 6 10 13 0 7 9 20 20 30 11 9 20 25 20 36 0 10 11 27 25 37 14 10 25 24
25 32 0 12 19 51 30 62 3 3 12 19 20 35 8 17 23 39 33 50 10 11 25 35 32 53 8
17 19 32 24 32 6 0 11 9 11 20 0 11 4 20 8 20 5 0 14 16 22 35 8 19 17 35 21
35 3 0 12 15 20 33 7 17 19 36 26 40 7 4 13 15 13 22 0 8 4 15 8 15 5 0 14 16
22 35 8 19 17 35 22 35 4 0 8 7 8 15 0 8 4 15 10 15 5 0 16 16 24 35 8 19 20
35 25 35 6 0 11 8 11 18 0 10 9 28 20 40 11 12 20 28 20 37 0 8 4 15 9 15 5 0
13 9 16 20 3 11 12 26 18 33 19 20 37 55 37 71 0 8 11 23 25 34 14 11 25 27
25 36 0 9 4 16 8 16 5 0 14 16 22 35 8 19 20 35 27 35 7 0 13 8 13 17 0 9 12
34 26 55 l27 38 2536 0 c2093 -1 2539 -3 2554 -14z"/>
<path d="M2920 7332 c-20 -20 -45 -44 -55 -53 -11 -9 -75 -72 -143 -140 -67
-68 -133 -133 -146 -144 -14 -10 -22 -23 -20 -27 3 -4 0 -8 -5 -8 -10 0 -37
-26 -116 -111 -8 -9 -15 -21 -15 -27 0 -7 -4 -12 -10 -12 -7 0 -10 -183 -10
-530 0 -347 3 -530 10 -530 11 0 90 -78 90 -90 0 -3 11 -13 25 -20 14 -7 25
-18 25 -24 0 -6 12 -20 27 -31 14 -11 42 -37 62 -58 124 -130 172 -177 181
-177 5 0 10 -5 10 -10 0 -14 46 -60 59 -60 5 0 13 -9 16 -20 16 -49 30 -50
547 -50 l483 1 3 -971 2 -970 -480 0 c-313 0 -480 3 -480 10 0 6 -7 10 -15 10
-8 0 -15 5 -15 10 0 13 -77 90 -90 90 -6 0 -15 11 -22 24 -6 14 -24 30 -39 37
-16 6 -29 16 -29 21 0 9 -45 58 -54 58 -2 0 -49 44 -104 98 -55 53 -109 105
-121 115 -24 19 -41 22 -41 7 0 -5 -7 -10 -15 -10 -10 0 -15 -10 -15 -32 0
-30 7 -39 97 -128 47 -48 85 -80 93 -80 5 0 12 -9 15 -20 3 -11 12 -20 20 -20
8 0 17 -9 20 -20 3 -11 13 -20 21 -20 8 0 14 -6 14 -14 0 -8 9 -18 20 -21 11
-3 20 -13 20 -21 0 -8 4 -14 9 -14 12 0 121 -106 121 -118 0 -5 9 -12 20 -15
11 -3 20 -12 20 -20 0 -8 10 -17 23 -21 12 -3 384 -6 825 -6 796 0 804 0 809
20 3 11 8 20 12 20 10 0 41 30 76 75 17 20 36 42 43 49 48 42 72 67 72 76 0 5
4 10 10 10 9 0 60 47 60 56 0 6 90 94 97 94 8 0 33 28 33 38 0 5 13 20 30 33
16 13 30 28 30 32 0 4 11 18 25 31 l25 23 0 516 c0 448 -2 516 -15 521 -8 3
-15 11 -15 17 0 7 -13 25 -30 41 -16 15 -30 33 -30 38 0 6 -4 10 -9 10 -12 0
-181 169 -181 181 0 5 -5 9 -11 9 -14 0 -39 25 -39 39 0 6 -4 11 -9 11 -4 0
-51 42 -104 93 -53 50 -102 98 -111 105 -12 9 -128 12 -503 12 l-488 0 2 962
c2 530 3 968 3 973 0 7 164 9 476 7 l477 -2 83 -85 c46 -47 88 -85 94 -85 5 0
10 -4 10 -10 0 -12 48 -60 60 -60 6 0 10 -7 10 -15 0 -8 7 -15 15 -15 8 0 15
-7 15 -15 0 -8 3 -15 8 -15 4 0 25 -18 47 -40 47 -47 48 -48 122 -117 55 -51
73 -62 73 -45 0 5 11 15 25 22 14 7 25 21 25 30 0 9 -11 23 -25 30 -14 7 -25
17 -25 22 0 12 -87 98 -100 98 -5 0 -12 11 -16 25 -3 14 -10 25 -15 25 -12 0
-99 88 -99 100 0 4 -11 11 -25 14 -14 4 -25 11 -25 17 0 13 -46 59 -59 59 -6
0 -13 11 -17 24 -3 13 -14 26 -25 29 -10 3 -19 12 -19 21 0 9 -5 16 -12 16 -6
0 -29 18 -50 40 l-40 40 -786 0 -787 0 -35 -38z"/>
<path d="M6469 7330 c-19 -22 -37 -40 -41 -40 -8 0 -58 -48 -58 -56 0 -2 -18
-21 -40 -41 -22 -21 -40 -42 -40 -49 0 -7 -11 -15 -25 -18 -14 -4 -25 -13 -25
-21 0 -7 -9 -17 -20 -20 -11 -3 -20 -13 -20 -21 0 -8 -6 -14 -14 -14 -8 0 -18
-9 -21 -20 -3 -11 -13 -20 -21 -20 -8 0 -14 -5 -14 -10 0 -12 -111 -120 -122
-120 -5 0 -8 -6 -8 -14 0 -8 -9 -18 -20 -21 -11 -3 -20 -11 -20 -16 0 -6 -11
-21 -25 -34 -13 -14 -28 -25 -34 -25 -5 0 -13 -9 -16 -20 -3 -11 -13 -20 -21
-20 -8 0 -14 -4 -14 -9 0 -12 -106 -121 -118 -121 -5 0 -12 -9 -15 -20 -3 -11
-12 -20 -21 -20 -9 0 -16 -7 -16 -15 0 -8 -6 -15 -14 -15 -8 0 -18 -9 -21 -20
-3 -11 -13 -20 -20 -20 -8 0 -17 -11 -21 -25 -3 -14 -12 -25 -18 -25 -7 0 -21
-10 -32 -23 -11 -12 -31 -31 -45 -42 -14 -11 -28 -28 -32 -37 -3 -10 -13 -18
-22 -18 -13 0 -15 -114 -15 -1055 0 -656 4 -1055 9 -1055 6 0 29 -21 53 -47
63 -67 121 -123 129 -123 4 0 17 -16 29 -36 12 -19 24 -33 26 -31 3 2 32 -25
67 -61 34 -35 75 -76 91 -91 16 -14 36 -35 45 -45 9 -11 31 -34 50 -50 19 -17
39 -37 45 -44 6 -7 19 -21 30 -30 10 -9 24 -23 30 -31 6 -7 22 -23 35 -35 12
-11 30 -29 40 -40 9 -10 40 -42 69 -71 28 -29 52 -58 52 -64 0 -6 7 -11 16
-11 8 0 32 -18 52 -40 20 -22 70 -74 110 -115 l72 -75 805 0 805 0 27 31 c62
70 82 89 92 89 6 0 11 7 11 15 0 8 5 15 11 15 5 0 7 4 4 10 -3 6 -2 10 4 10 6
0 29 21 53 46 24 25 105 109 181 186 75 77 137 145 137 152 0 13 -44 66 -55
66 -5 0 -66 -57 -125 -117 -37 -37 -60 -65 -60 -73 0 -6 -6 -10 -14 -10 -8 0
-18 -9 -21 -20 -3 -11 -12 -20 -20 -20 -8 0 -17 -9 -20 -20 -3 -11 -11 -20
-16 -20 -13 0 -39 -26 -39 -39 0 -5 -9 -13 -20 -16 -11 -3 -20 -13 -20 -21 0
-8 -7 -14 -15 -14 -8 0 -15 -6 -15 -14 0 -8 -9 -17 -19 -21 -10 -3 -21 -15
-24 -25 -3 -11 -12 -20 -21 -20 -9 0 -16 -5 -16 -10 0 -6 -11 -22 -25 -35
l-24 -25 -741 0 -740 0 0 1995 0 1995 734 0 c599 0 737 -2 748 -13 7 -8 22
-26 33 -40 11 -15 25 -27 32 -27 7 0 13 -4 13 -10 0 -5 18 -28 40 -50 22 -22
45 -40 50 -40 6 0 10 -6 10 -13 0 -7 12 -21 27 -32 15 -11 34 -28 42 -39 9
-10 40 -42 69 -71 28 -28 52 -57 52 -62 0 -6 11 -14 25 -17 14 -4 25 -11 25
-17 0 -16 79 -89 96 -89 8 0 17 7 20 15 4 8 12 15 20 15 8 0 14 10 14 25 0 19
-48 73 -205 230 -113 113 -205 210 -205 215 0 6 -6 10 -14 10 -8 0 -18 9 -21
20 -3 11 -11 20 -17 20 -6 0 -27 18 -48 40 l-38 40 -784 0 -784 0 -35 -40z"/>
<path d="M4507 1876 c-3 -8 -21 -17 -39 -21 -57 -11 -68 -16 -63 -26 4 -5 13
-9 21 -9 42 0 44 -14 44 -337 0 -321 -2 -333 -42 -333 -10 0 -18 -4 -18 -10 0
-6 41 -10 104 -10 59 0 108 4 111 10 3 6 -4 10 -17 10 -45 0 -48 14 -48 193 0
123 3 172 13 181 26 26 57 36 116 36 53 0 61 -2 61 -19 0 -11 6 -21 13 -23 9
-3 13 -45 15 -151 3 -121 1 -152 -13 -181 -11 -23 -24 -36 -36 -36 -11 0 -19
-4 -19 -10 0 -6 42 -10 105 -10 63 0 105 4 105 10 0 6 -8 10 -17 10 -44 1 -47
10 -53 215 -6 169 -9 199 -23 207 -10 5 -17 15 -17 23 0 20 -42 29 -108 22
-35 -4 -59 -12 -64 -21 -5 -9 -15 -16 -21 -16 -7 0 -19 -9 -27 -20 -8 -11 -18
-20 -22 -20 -4 0 -8 79 -8 175 l0 175 -24 0 c-13 0 -26 -6 -29 -14z"/>
<path d="M5246 1875 c-3 -8 -13 -15 -22 -15 -43 0 -104 -109 -104 -186 0 -53
0 -54 -30 -54 -20 0 -30 -5 -30 -15 0 -10 10 -15 30 -15 l30 0 0 -206 c0 -185
-2 -208 -17 -220 -10 -7 -26 -14 -36 -14 -10 0 -15 -4 -12 -10 8 -12 202 -13
209 -1 3 5 -10 12 -29 15 l-35 7 0 214 0 215 45 0 c33 0 45 4 45 15 0 11 -12
15 -45 15 l-45 0 0 98 c1 103 8 124 49 135 31 8 81 -2 81 -17 0 -16 55 -76 70
-76 18 0 40 26 40 49 0 25 -26 51 -50 51 -10 0 -20 7 -24 15 -4 11 -21 15 -60
15 -39 0 -55 -4 -60 -15z"/>
<path d="M3570 1745 c0 -9 -7 -18 -15 -21 -8 -4 -15 -15 -15 -25 0 -10 -4 -19
-10 -19 -5 0 -10 -7 -10 -15 0 -8 -6 -15 -12 -15 -7 -1 -29 -14 -48 -30 l-34
-30 37 0 37 0 0 -190 c0 -120 4 -190 10 -190 6 0 10 -11 10 -25 0 -14 5 -25
10 -25 6 0 10 -7 10 -15 0 -8 7 -15 15 -15 8 0 15 -4 15 -10 0 -5 16 -10 35
-10 19 0 35 5 35 10 0 6 6 10 13 10 7 0 26 13 41 29 28 29 29 29 55 13 14 -9
30 -22 34 -29 4 -7 19 -13 33 -13 14 0 22 -4 19 -10 -4 -6 15 -10 50 -10 35 0
54 4 50 10 -3 6 3 10 15 10 11 0 41 20 67 45 25 25 49 45 52 45 3 0 17 -14 30
-30 13 -17 29 -30 37 -30 8 0 14 -7 14 -15 0 -9 9 -15 25 -15 14 0 25 -4 25
-10 0 -5 20 -10 45 -10 25 0 45 5 45 10 0 6 9 10 20 10 18 0 36 12 72 48 7 7
21 21 31 30 20 19 23 56 5 50 -7 -3 -17 -14 -23 -26 -11 -25 -33 -32 -105 -32
-69 0 -100 8 -100 26 0 8 -6 14 -14 14 -8 0 -18 10 -22 23 -3 12 -13 30 -22
40 -23 26 -21 206 2 219 9 5 16 15 16 21 0 7 10 19 21 27 12 8 27 21 35 28 29
27 114 7 114 -27 0 -6 5 -11 10 -11 6 0 10 -12 10 -26 0 -14 6 -32 14 -40 19
-19 76 -19 76 0 0 8 6 17 13 20 10 5 10 7 0 12 -7 3 -13 11 -13 17 0 7 -12 24
-25 40 -20 22 -36 28 -83 33 -80 9 -172 -3 -172 -22 0 -8 -4 -14 -10 -14 -5 0
-24 -15 -41 -32 -25 -27 -32 -30 -39 -18 -5 9 -23 30 -40 48 -24 26 -42 34
-80 39 -59 7 -160 -5 -160 -19 0 -5 -13 -22 -28 -36 -35 -33 -52 -63 -52 -94
0 -13 -7 -36 -15 -52 -16 -31 -20 -82 -7 -90 13 -8 34 -114 27 -136 -5 -16
-15 -20 -48 -20 -62 0 -67 17 -67 237 l0 183 56 0 c73 0 70 24 -4 28 l-52 3 0
70 c0 39 -4 69 -10 69 -5 0 -10 -7 -10 -15z m330 -145 c0 -5 6 -10 13 -10 16
0 67 -75 67 -99 0 -34 -22 -41 -122 -41 l-98 0 0 43 c0 34 6 48 29 70 16 15
34 27 40 27 6 0 11 5 11 10 0 6 14 10 30 10 17 0 30 -4 30 -10z m141 -242 c2
-98 0 -112 -12 -116 -5 -2 -9 -10 -9 -17 0 -8 -15 -17 -37 -20 -55 -10 -54
-10 -110 -2 -37 5 -53 12 -53 22 0 8 -4 15 -8 15 -13 0 -52 79 -52 105 0 13
-4 27 -10 30 -14 9 -12 52 3 58 6 3 74 6 150 6 l137 1 1 -82z"/>
<path d="M5427 1614 c-33 -10 -137 -125 -137 -151 0 -7 -4 -13 -10 -13 -6 0
-10 -37 -10 -90 0 -53 4 -90 10 -90 6 0 10 -6 10 -13 0 -8 9 -24 20 -37 11
-13 20 -26 20 -30 0 -10 80 -60 96 -60 8 0 14 -4 14 -10 0 -5 25 -10 55 -10
30 0 55 5 55 10 0 6 11 10 25 10 14 0 28 7 31 15 4 8 11 15 18 15 18 1 70 53
85 85 7 17 19 41 25 54 16 34 15 173 -1 179 -7 2 -13 10 -13 18 0 8 -23 37
-51 66 l-51 52 -86 2 c-48 2 -95 0 -105 -2z m93 -13 c0 -5 11 -12 25 -15 14
-4 25 -11 25 -16 0 -6 7 -10 15 -10 8 0 15 -4 15 -10 0 -5 8 -18 18 -28 9 -9
23 -44 30 -78 24 -116 11 -213 -36 -263 -20 -22 -32 -26 -86 -26 -51 0 -67 4
-93 25 -18 14 -32 33 -32 43 -1 9 -5 17 -10 17 -19 0 -32 88 -28 181 6 111 8
119 19 119 5 0 20 11 34 25 14 14 31 25 39 25 8 0 15 5 15 10 0 6 11 10 25 10
14 0 25 -4 25 -9z"/>
<path d="M5823 1613 c-12 -2 -27 -11 -33 -19 -7 -8 -21 -14 -31 -14 -11 0 -19
-4 -19 -10 0 -5 9 -10 21 -10 45 0 49 -17 49 -203 0 -156 -2 -176 -18 -190
-10 -10 -24 -17 -30 -17 -7 0 -12 -4 -12 -10 0 -6 43 -10 110 -10 67 0 110 4
110 10 0 6 -9 10 -21 10 -11 0 -29 5 -40 10 -18 10 -19 23 -19 185 0 134 3
175 13 175 7 0 18 9 25 20 13 21 72 29 72 10 0 -5 7 -10 15 -10 8 0 15 -4 15
-10 0 -16 18 -12 40 10 25 25 26 49 3 66 -39 30 -107 12 -138 -35 -28 -43 -45
-40 -45 9 0 42 -5 45 -67 33z"/>
<path d="M6200 1610 c0 -5 8 -18 18 -28 9 -10 24 -29 32 -42 8 -12 21 -28 28
-36 6 -7 12 -17 12 -23 0 -21 25 -91 32 -91 5 0 8 -9 8 -19 0 -11 5 -23 10
-26 6 -3 10 -15 10 -26 0 -10 5 -19 10 -19 6 0 10 -8 10 -19 0 -10 6 -24 14
-30 8 -7 17 -27 20 -45 4 -19 13 -39 21 -46 19 -15 19 -36 2 -47 -8 -4 -17
-24 -21 -43 -4 -21 -19 -45 -39 -62 -32 -28 -67 -37 -67 -18 0 15 -70 12 -86
-4 -20 -21 -17 -54 6 -61 11 -3 20 -11 20 -16 0 -12 47 -12 55 1 3 6 14 10 24
10 24 0 79 54 87 84 3 14 12 27 20 30 8 3 14 17 14 31 0 14 5 25 10 25 6 0 10
13 10 29 0 17 5 33 10 36 6 3 10 17 10 31 0 14 4 23 9 20 8 -5 14 14 28 92 3
17 9 32 14 32 5 0 9 9 9 20 0 10 6 23 13 27 8 4 17 25 20 46 3 21 13 52 21 69
9 17 16 37 16 45 0 7 4 13 9 13 5 0 13 9 16 20 3 11 13 27 21 35 14 13 10 15
-35 15 -53 0 -59 -7 -39 -40 10 -16 10 -24 0 -40 -6 -11 -12 -31 -12 -45 0
-14 -4 -25 -10 -25 -5 0 -10 -5 -10 -11 0 -6 -6 -25 -14 -42 -8 -18 -20 -53
-27 -79 -7 -27 -17 -48 -21 -48 -4 0 -8 -7 -8 -15 0 -8 -3 -15 -6 -15 -11 0
-33 34 -34 51 0 9 -6 22 -14 28 -7 6 -19 32 -26 56 -7 25 -17 45 -21 45 -5 0
-9 11 -9 25 0 14 -4 25 -8 25 -4 0 -14 16 -21 36 -15 41 -2 79 28 87 9 3 -26
5 -76 6 -56 1 -93 -3 -93 -9z"/>
<path d="M6760 1613 c-14 -3 -29 -11 -33 -19 -4 -8 -12 -14 -17 -14 -15 0 -57
-47 -71 -79 -8 -17 -17 -31 -21 -31 -5 0 -8 -16 -8 -35 0 -19 -4 -35 -10 -35
-5 0 -10 -18 -10 -40 0 -22 5 -40 10 -40 6 0 10 -16 10 -35 0 -19 4 -35 10
-35 5 0 16 -16 25 -35 10 -19 30 -40 46 -47 16 -7 29 -19 29 -25 0 -8 13 -13
30 -13 17 0 30 -4 30 -10 0 -5 25 -10 56 -10 34 0 53 4 49 10 -3 6 5 10 18 10
14 0 27 7 31 15 3 8 12 15 20 15 20 0 75 57 82 86 3 13 10 24 15 24 5 0 9 14
9 30 0 17 4 30 10 30 19 0 24 73 6 103 -9 16 -16 37 -16 48 0 10 -4 19 -10 19
-5 0 -10 7 -10 16 0 15 -23 44 -35 44 -3 0 -17 12 -30 26 -22 23 -33 26 -107
29 -46 2 -94 1 -108 -2z m90 -13 c0 -5 9 -10 20 -10 11 0 20 -7 20 -15 0 -8 7
-15 16 -15 9 0 18 -9 21 -20 3 -11 12 -20 19 -20 8 0 14 -9 14 -20 0 -11 4
-20 9 -20 19 0 31 -154 16 -224 -10 -47 -56 -93 -102 -102 -47 -9 -101 4 -121
28 -9 11 -23 26 -29 33 -7 8 -13 20 -13 29 0 8 -8 19 -17 24 -14 8 -17 28 -17
124 -1 119 0 122 51 170 43 40 113 64 113 38z"/>
<path d="M7083 1613 c9 -2 17 -9 17 -14 0 -5 7 -9 15 -9 13 0 15 -26 15 -174
0 -106 4 -177 10 -181 6 -3 10 -17 10 -29 0 -13 15 -40 33 -60 28 -30 40 -36
76 -36 26 0 40 4 36 10 -3 6 3 10 14 10 11 0 39 18 63 40 47 43 42 52 -10 20
-39 -24 -102 -27 -102 -5 0 8 -5 15 -11 15 -33 0 -38 34 -39 228 l0 192 -72
-1 c-40 -1 -65 -3 -55 -6z"/>
<path d="M7379 1613 c7 -3 22 -14 32 -24 16 -16 18 -39 21 -184 2 -91 0 -165
-4 -165 -4 0 -6 -12 -3 -27 14 -88 18 -107 22 -95 3 6 17 12 33 12 16 0 30 7
34 15 3 8 18 16 33 16 17 1 21 3 11 6 -10 2 -18 10 -18 18 0 7 -7 15 -15 19
-12 4 -15 40 -17 208 l-3 203 -70 2 c-38 1 -64 -1 -56 -4z"/>
<path d="M4430 1285 c0 -8 5 -15 10 -15 6 0 10 7 10 15 0 8 -4 15 -10 15 -5 0
-10 -7 -10 -15z"/>
</g>
</svg>
