%TF.GenerationSoftware,KiCad,Pcbnew,8.0.8*%
%TF.CreationDate,2025-01-20T00:36:11+01:00*%
%TF.ProjectId,NANO_MPU_SD,4e414e4f-5f4d-4505-955f-53442e6b6963,rev?*%
%TF.SameCoordinates,Original*%
%TF.FileFunction,Copper,L3,Inr*%
%TF.FilePolarity,Positive*%
%FSLAX46Y46*%
G04 Gerber Fmt 4.6, Leading zero omitted, Abs format (unit mm)*
G04 Created by KiCad (PCBNEW 8.0.8) date 2025-01-20 00:36:11*
%MOMM*%
%LPD*%
G01*
G04 APERTURE LIST*
%TA.AperFunction,ComponentPad*%
%ADD10C,1.600000*%
%TD*%
%TA.AperFunction,ComponentPad*%
%ADD11O,1.600000X1.600000*%
%TD*%
%TA.AperFunction,ComponentPad*%
%ADD12R,1.800000X1.800000*%
%TD*%
%TA.AperFunction,ComponentPad*%
%ADD13C,1.800000*%
%TD*%
%TA.AperFunction,ComponentPad*%
%ADD14R,1.350000X1.350000*%
%TD*%
%TA.AperFunction,ComponentPad*%
%ADD15O,1.350000X1.350000*%
%TD*%
%TA.AperFunction,ComponentPad*%
%ADD16R,1.600000X1.600000*%
%TD*%
G04 APERTURE END LIST*
D10*
%TO.N,Net-(A1-D5)*%
%TO.C,R2*%
X53100000Y-81460000D03*
D11*
%TO.N,Net-(D1-A)*%
X53100000Y-96700000D03*
%TD*%
D12*
%TO.N,GND*%
%TO.C,D2*%
X53100000Y-105530000D03*
D13*
%TO.N,Net-(D2-A)*%
X53100000Y-108070000D03*
%TD*%
D14*
%TO.N,GND*%
%TO.C,J2*%
X74800000Y-54100000D03*
D15*
X74800000Y-52100000D03*
%TO.N,Net-(A1-D12)*%
X72800000Y-54100000D03*
X72800000Y-52100000D03*
%TO.N,Net-(A1-D13)*%
X70800000Y-54100000D03*
X70800000Y-52100000D03*
%TO.N,Net-(A1-D11)*%
X68800000Y-54100000D03*
X68800000Y-52100000D03*
%TO.N,Net-(A1-D10)*%
X66800000Y-54100000D03*
X66800000Y-52100000D03*
%TO.N,+5V*%
X64800000Y-54100000D03*
X64800000Y-52100000D03*
%TO.N,+3.3V*%
X62800000Y-54100000D03*
X62800000Y-52100000D03*
%TO.N,GND*%
X60800000Y-54100000D03*
X60800000Y-52100000D03*
%TD*%
D16*
%TO.N,unconnected-(A1-D1{slash}TX-Pad1)*%
%TO.C,A1*%
X57560000Y-67660000D03*
D11*
%TO.N,unconnected-(A1-D0{slash}RX-Pad2)*%
X57560000Y-70200000D03*
%TO.N,unconnected-(A1-~{RESET}-Pad3)*%
X57560000Y-72740000D03*
%TO.N,GND*%
X57560000Y-75280000D03*
%TO.N,unconnected-(A1-D2-Pad5)*%
X57560000Y-77820000D03*
%TO.N,Net-(A1-D3)*%
X57560000Y-80360000D03*
%TO.N,unconnected-(A1-D4-Pad7)*%
X57560000Y-82900000D03*
%TO.N,Net-(A1-D5)*%
X57560000Y-85440000D03*
%TO.N,unconnected-(A1-D6-Pad9)*%
X57560000Y-87980000D03*
%TO.N,unconnected-(A1-D7-Pad10)*%
X57560000Y-90520000D03*
%TO.N,unconnected-(A1-D8-Pad11)*%
X57560000Y-93060000D03*
%TO.N,unconnected-(A1-D9-Pad12)*%
X57560000Y-95600000D03*
%TO.N,Net-(A1-D10)*%
X57560000Y-98140000D03*
%TO.N,Net-(A1-D11)*%
X57560000Y-100680000D03*
%TO.N,Net-(A1-D12)*%
X57560000Y-103220000D03*
%TO.N,Net-(A1-D13)*%
X72800000Y-103220000D03*
%TO.N,+3.3V*%
X72800000Y-100680000D03*
%TO.N,unconnected-(A1-AREF-Pad18)*%
X72800000Y-98140000D03*
%TO.N,unconnected-(A1-A0-Pad19)*%
X72800000Y-95600000D03*
%TO.N,unconnected-(A1-A1-Pad20)*%
X72800000Y-93060000D03*
%TO.N,unconnected-(A1-A2-Pad21)*%
X72800000Y-90520000D03*
%TO.N,unconnected-(A1-A3-Pad22)*%
X72800000Y-87980000D03*
%TO.N,Net-(A1-A4)*%
X72800000Y-85440000D03*
%TO.N,Net-(A1-A5)*%
X72800000Y-82900000D03*
%TO.N,unconnected-(A1-A6-Pad25)*%
X72800000Y-80360000D03*
%TO.N,unconnected-(A1-A7-Pad26)*%
X72800000Y-77820000D03*
%TO.N,+5V*%
X72800000Y-75280000D03*
%TO.N,unconnected-(A1-~{RESET}-Pad28)*%
X72800000Y-72740000D03*
%TO.N,unconnected-(A1-GND-Pad29)*%
X72800000Y-70200000D03*
%TO.N,unconnected-(A1-VIN-Pad30)*%
X72800000Y-67660000D03*
%TD*%
D14*
%TO.N,+3.3V*%
%TO.C,J3*%
X83100000Y-86400000D03*
D15*
%TO.N,GND*%
X83100000Y-84400000D03*
%TO.N,Net-(A1-A5)*%
X83100000Y-82400000D03*
%TO.N,Net-(A1-A4)*%
X83100000Y-80400000D03*
%TD*%
D12*
%TO.N,GND*%
%TO.C,D1*%
X53100000Y-100460000D03*
D13*
%TO.N,Net-(D1-A)*%
X53100000Y-103000000D03*
%TD*%
D14*
%TO.N,+3.3V*%
%TO.C,J1*%
X83100000Y-106600000D03*
D15*
%TO.N,GND*%
X83100000Y-104600000D03*
%TO.N,Net-(A1-A5)*%
X83100000Y-102600000D03*
%TO.N,Net-(A1-A4)*%
X83100000Y-100600000D03*
%TO.N,unconnected-(J1-Pin_5-Pad5)*%
X83100000Y-98600000D03*
%TO.N,unconnected-(J1-Pin_6-Pad6)*%
X83100000Y-96600000D03*
%TO.N,unconnected-(J1-Pin_7-Pad7)*%
X83100000Y-94600000D03*
%TO.N,unconnected-(J1-Pin_8-Pad8)*%
X83100000Y-92600000D03*
%TD*%
D10*
%TO.N,Net-(D2-A)*%
%TO.C,R1*%
X53100000Y-79000000D03*
D11*
%TO.N,Net-(A1-D3)*%
X53100000Y-63760000D03*
%TD*%
%TA.AperFunction,Conductor*%
%TO.N,GND*%
G36*
X61050000Y-53784314D02*
G01*
X61045606Y-53779920D01*
X60954394Y-53727259D01*
X60852661Y-53700000D01*
X60747339Y-53700000D01*
X60645606Y-53727259D01*
X60554394Y-53779920D01*
X60550000Y-53784314D01*
X60550000Y-52415686D01*
X60554394Y-52420080D01*
X60645606Y-52472741D01*
X60747339Y-52500000D01*
X60852661Y-52500000D01*
X60954394Y-52472741D01*
X61045606Y-52420080D01*
X61050000Y-52415686D01*
X61050000Y-53784314D01*
G37*
%TD.AperFunction*%
%TA.AperFunction,Conductor*%
G36*
X75050000Y-53784314D02*
G01*
X75045606Y-53779920D01*
X74954394Y-53727259D01*
X74852661Y-53700000D01*
X74747339Y-53700000D01*
X74645606Y-53727259D01*
X74554394Y-53779920D01*
X74550000Y-53784314D01*
X74550000Y-52415686D01*
X74554394Y-52420080D01*
X74645606Y-52472741D01*
X74747339Y-52500000D01*
X74852661Y-52500000D01*
X74954394Y-52472741D01*
X75045606Y-52420080D01*
X75050000Y-52415686D01*
X75050000Y-53784314D01*
G37*
%TD.AperFunction*%
%TA.AperFunction,Conductor*%
G36*
X84392539Y-50570185D02*
G01*
X84438294Y-50622989D01*
X84449500Y-50674500D01*
X84449500Y-79958643D01*
X84429815Y-80025682D01*
X84377011Y-80071437D01*
X84307853Y-80081381D01*
X84244297Y-80052356D01*
X84206523Y-79993578D01*
X84206234Y-79992577D01*
X84200819Y-79973545D01*
X84200816Y-79973539D01*
X84193399Y-79958643D01*
X84103712Y-79778528D01*
X83972427Y-79604678D01*
X83811432Y-79457912D01*
X83811428Y-79457909D01*
X83811423Y-79457906D01*
X83626213Y-79343229D01*
X83626207Y-79343226D01*
X83541113Y-79310260D01*
X83423069Y-79264530D01*
X83208926Y-79224500D01*
X82991074Y-79224500D01*
X82776931Y-79264530D01*
X82728130Y-79283435D01*
X82573792Y-79343226D01*
X82573786Y-79343229D01*
X82388576Y-79457906D01*
X82388566Y-79457913D01*
X82227574Y-79604676D01*
X82096288Y-79778527D01*
X81999184Y-79973537D01*
X81999183Y-79973541D01*
X81953726Y-80133308D01*
X81939564Y-80183081D01*
X81919464Y-80399999D01*
X81919464Y-80400000D01*
X81939564Y-80616918D01*
X81939564Y-80616920D01*
X81939565Y-80616923D01*
X81993767Y-80807423D01*
X81999184Y-80826462D01*
X82096288Y-81021472D01*
X82227574Y-81195324D01*
X82351572Y-81308363D01*
X82387854Y-81368074D01*
X82386093Y-81437922D01*
X82351572Y-81491637D01*
X82227574Y-81604675D01*
X82096288Y-81778527D01*
X81999184Y-81973537D01*
X81939564Y-82183081D01*
X81919464Y-82399999D01*
X81919464Y-82400000D01*
X81939564Y-82616918D01*
X81939564Y-82616920D01*
X81939565Y-82616923D01*
X81981830Y-82765468D01*
X81999184Y-82826462D01*
X82096288Y-83021472D01*
X82227574Y-83195324D01*
X82351944Y-83308701D01*
X82388226Y-83368412D01*
X82386465Y-83438259D01*
X82351944Y-83491975D01*
X82227945Y-83605013D01*
X82096715Y-83778791D01*
X81999651Y-83973719D01*
X81949494Y-84149999D01*
X81949495Y-84150000D01*
X82784314Y-84150000D01*
X82779920Y-84154394D01*
X82727259Y-84245606D01*
X82700000Y-84347339D01*
X82700000Y-84452661D01*
X82727259Y-84554394D01*
X82779920Y-84645606D01*
X82784314Y-84650000D01*
X81949495Y-84650000D01*
X81999651Y-84826280D01*
X82096715Y-85021208D01*
X82178147Y-85129042D01*
X82202839Y-85194404D01*
X82188274Y-85262738D01*
X82153505Y-85303035D01*
X82067452Y-85367455D01*
X81981206Y-85482664D01*
X81981202Y-85482671D01*
X81930908Y-85617517D01*
X81924501Y-85677116D01*
X81924500Y-85677135D01*
X81924500Y-87122870D01*
X81924501Y-87122876D01*
X81930908Y-87182483D01*
X81981202Y-87317328D01*
X81981206Y-87317335D01*
X82067452Y-87432544D01*
X82067455Y-87432547D01*
X82182664Y-87518793D01*
X82182671Y-87518797D01*
X82317517Y-87569091D01*
X82317516Y-87569091D01*
X82324444Y-87569835D01*
X82377127Y-87575500D01*
X83822872Y-87575499D01*
X83882483Y-87569091D01*
X84017331Y-87518796D01*
X84132546Y-87432546D01*
X84171392Y-87380655D01*
X84224112Y-87310231D01*
X84226145Y-87311753D01*
X84266063Y-87271828D01*
X84334335Y-87256970D01*
X84399801Y-87281381D01*
X84441678Y-87337311D01*
X84449500Y-87380655D01*
X84449500Y-92158643D01*
X84429815Y-92225682D01*
X84377011Y-92271437D01*
X84307853Y-92281381D01*
X84244297Y-92252356D01*
X84206523Y-92193578D01*
X84206234Y-92192577D01*
X84200819Y-92173545D01*
X84200816Y-92173539D01*
X84144257Y-92059953D01*
X84103712Y-91978528D01*
X83972427Y-91804678D01*
X83957405Y-91790984D01*
X83865097Y-91706834D01*
X83811432Y-91657912D01*
X83811428Y-91657909D01*
X83811423Y-91657906D01*
X83626213Y-91543229D01*
X83626207Y-91543226D01*
X83541113Y-91510260D01*
X83423069Y-91464530D01*
X83208926Y-91424500D01*
X82991074Y-91424500D01*
X82776931Y-91464530D01*
X82728130Y-91483435D01*
X82573792Y-91543226D01*
X82573786Y-91543229D01*
X82388576Y-91657906D01*
X82388566Y-91657913D01*
X82227574Y-91804676D01*
X82096288Y-91978527D01*
X81999184Y-92173537D01*
X81939564Y-92383081D01*
X81919464Y-92599999D01*
X81919464Y-92600000D01*
X81939564Y-92816918D01*
X81939564Y-92816920D01*
X81939565Y-92816923D01*
X81984098Y-92973441D01*
X81999184Y-93026462D01*
X82096288Y-93221472D01*
X82227574Y-93395324D01*
X82351572Y-93508363D01*
X82387854Y-93568074D01*
X82386093Y-93637922D01*
X82351572Y-93691637D01*
X82227574Y-93804675D01*
X82096288Y-93978527D01*
X81999184Y-94173537D01*
X81939564Y-94383081D01*
X81919464Y-94599999D01*
X81919464Y-94600000D01*
X81939564Y-94816918D01*
X81939564Y-94816920D01*
X81939565Y-94816923D01*
X81984098Y-94973441D01*
X81999184Y-95026462D01*
X82096288Y-95221472D01*
X82227574Y-95395324D01*
X82351572Y-95508363D01*
X82387854Y-95568074D01*
X82386093Y-95637922D01*
X82351572Y-95691637D01*
X82227574Y-95804675D01*
X82096288Y-95978527D01*
X81999184Y-96173537D01*
X81939564Y-96383081D01*
X81919464Y-96599999D01*
X81919464Y-96600000D01*
X81939564Y-96816918D01*
X81939564Y-96816920D01*
X81939565Y-96816923D01*
X81999183Y-97026459D01*
X81999184Y-97026462D01*
X82096288Y-97221472D01*
X82227574Y-97395324D01*
X82351572Y-97508363D01*
X82387854Y-97568074D01*
X82386093Y-97637922D01*
X82351572Y-97691637D01*
X82227574Y-97804675D01*
X82096288Y-97978527D01*
X81999184Y-98173537D01*
X81939564Y-98383081D01*
X81919464Y-98599999D01*
X81919464Y-98600000D01*
X81939564Y-98816918D01*
X81939564Y-98816920D01*
X81939565Y-98816923D01*
X81985720Y-98979141D01*
X81999184Y-99026462D01*
X82096288Y-99221472D01*
X82227574Y-99395324D01*
X82351572Y-99508363D01*
X82387854Y-99568074D01*
X82386093Y-99637922D01*
X82351572Y-99691637D01*
X82227574Y-99804675D01*
X82096288Y-99978527D01*
X81999184Y-100173537D01*
X81939564Y-100383081D01*
X81919464Y-100599999D01*
X81919464Y-100600000D01*
X81939564Y-100816918D01*
X81939564Y-100816920D01*
X81939565Y-100816923D01*
X81984098Y-100973441D01*
X81999184Y-101026462D01*
X82096288Y-101221472D01*
X82227574Y-101395324D01*
X82351572Y-101508363D01*
X82387854Y-101568074D01*
X82386093Y-101637922D01*
X82351572Y-101691637D01*
X82227574Y-101804675D01*
X82096288Y-101978527D01*
X81999184Y-102173537D01*
X81939564Y-102383081D01*
X81919464Y-102599999D01*
X81919464Y-102600000D01*
X81939564Y-102816918D01*
X81939564Y-102816920D01*
X81939565Y-102816923D01*
X81993767Y-103007423D01*
X81999184Y-103026462D01*
X82096288Y-103221472D01*
X82227574Y-103395324D01*
X82351944Y-103508701D01*
X82388226Y-103568412D01*
X82386465Y-103638259D01*
X82351944Y-103691975D01*
X82227945Y-103805013D01*
X82096715Y-103978791D01*
X81999651Y-104173719D01*
X81949494Y-104349999D01*
X81949495Y-104350000D01*
X82784314Y-104350000D01*
X82779920Y-104354394D01*
X82727259Y-104445606D01*
X82700000Y-104547339D01*
X82700000Y-104652661D01*
X82727259Y-104754394D01*
X82779920Y-104845606D01*
X82784314Y-104850000D01*
X81949495Y-104850000D01*
X81999651Y-105026280D01*
X82096715Y-105221208D01*
X82178147Y-105329042D01*
X82202839Y-105394404D01*
X82188274Y-105462738D01*
X82153505Y-105503035D01*
X82067452Y-105567455D01*
X81981206Y-105682664D01*
X81981202Y-105682671D01*
X81930908Y-105817517D01*
X81924501Y-105877116D01*
X81924500Y-105877135D01*
X81924500Y-107322870D01*
X81924501Y-107322876D01*
X81930908Y-107382483D01*
X81981202Y-107517328D01*
X81981206Y-107517335D01*
X82067452Y-107632544D01*
X82067455Y-107632547D01*
X82182664Y-107718793D01*
X82182671Y-107718797D01*
X82317517Y-107769091D01*
X82317516Y-107769091D01*
X82324444Y-107769835D01*
X82377127Y-107775500D01*
X83822872Y-107775499D01*
X83882483Y-107769091D01*
X84017331Y-107718796D01*
X84132546Y-107632546D01*
X84171392Y-107580655D01*
X84224112Y-107510231D01*
X84226145Y-107511753D01*
X84266063Y-107471828D01*
X84334335Y-107456970D01*
X84399801Y-107481381D01*
X84441678Y-107537311D01*
X84449500Y-107580655D01*
X84449500Y-109325500D01*
X84429815Y-109392539D01*
X84377011Y-109438294D01*
X84325500Y-109449500D01*
X53968973Y-109449500D01*
X53901934Y-109429815D01*
X53856179Y-109377011D01*
X53846235Y-109307853D01*
X53875260Y-109244297D01*
X53892811Y-109227646D01*
X54051784Y-109103913D01*
X54208979Y-108933153D01*
X54335924Y-108738849D01*
X54429157Y-108526300D01*
X54486134Y-108301305D01*
X54505300Y-108070000D01*
X54505300Y-108069993D01*
X54486135Y-107838702D01*
X54486133Y-107838691D01*
X54429157Y-107613699D01*
X54335924Y-107401151D01*
X54208981Y-107206849D01*
X54113832Y-107103489D01*
X54082910Y-107040835D01*
X54090770Y-106971409D01*
X54134918Y-106917253D01*
X54161730Y-106903325D01*
X54242084Y-106873355D01*
X54242093Y-106873350D01*
X54357187Y-106787190D01*
X54357190Y-106787187D01*
X54443350Y-106672093D01*
X54443354Y-106672086D01*
X54493596Y-106537379D01*
X54493598Y-106537372D01*
X54499999Y-106477844D01*
X54500000Y-106477827D01*
X54500000Y-105780000D01*
X53475278Y-105780000D01*
X53519333Y-105703694D01*
X53550000Y-105589244D01*
X53550000Y-105470756D01*
X53519333Y-105356306D01*
X53475278Y-105280000D01*
X54500000Y-105280000D01*
X54500000Y-104582172D01*
X54499999Y-104582155D01*
X54493598Y-104522627D01*
X54493596Y-104522620D01*
X54443354Y-104387913D01*
X54443350Y-104387906D01*
X54357190Y-104272812D01*
X54357187Y-104272809D01*
X54242093Y-104186649D01*
X54242086Y-104186645D01*
X54168582Y-104159230D01*
X54112648Y-104117359D01*
X54088231Y-104051894D01*
X54103083Y-103983621D01*
X54120680Y-103959070D01*
X54208979Y-103863153D01*
X54335924Y-103668849D01*
X54429157Y-103456300D01*
X54486134Y-103231305D01*
X54487071Y-103219998D01*
X54505300Y-103000006D01*
X54505300Y-102999993D01*
X54486135Y-102768702D01*
X54486133Y-102768691D01*
X54429157Y-102543699D01*
X54335924Y-102331151D01*
X54208981Y-102136849D01*
X54113832Y-102033489D01*
X54082910Y-101970835D01*
X54090770Y-101901409D01*
X54134918Y-101847253D01*
X54161730Y-101833325D01*
X54242084Y-101803355D01*
X54242093Y-101803350D01*
X54357187Y-101717190D01*
X54357190Y-101717187D01*
X54443350Y-101602093D01*
X54443354Y-101602086D01*
X54493596Y-101467379D01*
X54493598Y-101467372D01*
X54499999Y-101407844D01*
X54500000Y-101407827D01*
X54500000Y-100710000D01*
X53475278Y-100710000D01*
X53519333Y-100633694D01*
X53550000Y-100519244D01*
X53550000Y-100400756D01*
X53519333Y-100286306D01*
X53475278Y-100210000D01*
X54500000Y-100210000D01*
X54500000Y-99512172D01*
X54499999Y-99512155D01*
X54493598Y-99452627D01*
X54493596Y-99452620D01*
X54443354Y-99317913D01*
X54443350Y-99317906D01*
X54357190Y-99202812D01*
X54357187Y-99202809D01*
X54242093Y-99116649D01*
X54242086Y-99116645D01*
X54107379Y-99066403D01*
X54107372Y-99066401D01*
X54047844Y-99060000D01*
X53350000Y-99060000D01*
X53350000Y-100084722D01*
X53273694Y-100040667D01*
X53159244Y-100010000D01*
X53040756Y-100010000D01*
X52926306Y-100040667D01*
X52850000Y-100084722D01*
X52850000Y-99060000D01*
X52152155Y-99060000D01*
X52092627Y-99066401D01*
X52092620Y-99066403D01*
X51957913Y-99116645D01*
X51957906Y-99116649D01*
X51842812Y-99202809D01*
X51842809Y-99202812D01*
X51756649Y-99317906D01*
X51756645Y-99317913D01*
X51706403Y-99452620D01*
X51706401Y-99452627D01*
X51700000Y-99512155D01*
X51700000Y-100210000D01*
X52724722Y-100210000D01*
X52680667Y-100286306D01*
X52650000Y-100400756D01*
X52650000Y-100519244D01*
X52680667Y-100633694D01*
X52724722Y-100710000D01*
X51700000Y-100710000D01*
X51700000Y-101407844D01*
X51706401Y-101467372D01*
X51706403Y-101467379D01*
X51756645Y-101602086D01*
X51756649Y-101602093D01*
X51842809Y-101717187D01*
X51842812Y-101717190D01*
X51957906Y-101803350D01*
X51957913Y-101803354D01*
X52038270Y-101833325D01*
X52094204Y-101875196D01*
X52118621Y-101940660D01*
X52103770Y-102008933D01*
X52086168Y-102033489D01*
X52048295Y-102074629D01*
X51991021Y-102136847D01*
X51991019Y-102136848D01*
X51991016Y-102136853D01*
X51864075Y-102331151D01*
X51770842Y-102543699D01*
X51713866Y-102768691D01*
X51713864Y-102768702D01*
X51694700Y-102999993D01*
X51694700Y-103000006D01*
X51713864Y-103231297D01*
X51713866Y-103231308D01*
X51770842Y-103456300D01*
X51864075Y-103668848D01*
X51933754Y-103775500D01*
X51991021Y-103863153D01*
X52034948Y-103910871D01*
X52079314Y-103959066D01*
X52110236Y-104021721D01*
X52102375Y-104091147D01*
X52058228Y-104145302D01*
X52031418Y-104159230D01*
X51957911Y-104186646D01*
X51957906Y-104186649D01*
X51842812Y-104272809D01*
X51842809Y-104272812D01*
X51756649Y-104387906D01*
X51756645Y-104387913D01*
X51706403Y-104522620D01*
X51706401Y-104522627D01*
X51700000Y-104582155D01*
X51700000Y-105280000D01*
X52724722Y-105280000D01*
X52680667Y-105356306D01*
X52650000Y-105470756D01*
X52650000Y-105589244D01*
X52680667Y-105703694D01*
X52724722Y-105780000D01*
X51700000Y-105780000D01*
X51700000Y-106477844D01*
X51706401Y-106537372D01*
X51706403Y-106537379D01*
X51756645Y-106672086D01*
X51756649Y-106672093D01*
X51842809Y-106787187D01*
X51842812Y-106787190D01*
X51957906Y-106873350D01*
X51957913Y-106873354D01*
X52038270Y-106903325D01*
X52094204Y-106945196D01*
X52118621Y-107010660D01*
X52103770Y-107078933D01*
X52086168Y-107103489D01*
X51991021Y-107206847D01*
X51991019Y-107206848D01*
X51991016Y-107206853D01*
X51864075Y-107401151D01*
X51770842Y-107613699D01*
X51713866Y-107838691D01*
X51713864Y-107838702D01*
X51694700Y-108069993D01*
X51694700Y-108070006D01*
X51713864Y-108301297D01*
X51713866Y-108301308D01*
X51770842Y-108526300D01*
X51864075Y-108738848D01*
X51991016Y-108933147D01*
X51991019Y-108933151D01*
X51991021Y-108933153D01*
X52148216Y-109103913D01*
X52307189Y-109227646D01*
X52348002Y-109284357D01*
X52351677Y-109354130D01*
X52317045Y-109414813D01*
X52255104Y-109447140D01*
X52231027Y-109449500D01*
X50674500Y-109449500D01*
X50607461Y-109429815D01*
X50561706Y-109377011D01*
X50550500Y-109325500D01*
X50550500Y-96699998D01*
X51794532Y-96699998D01*
X51794532Y-96700001D01*
X51814364Y-96926686D01*
X51814366Y-96926697D01*
X51873258Y-97146488D01*
X51873261Y-97146497D01*
X51969431Y-97352732D01*
X51969432Y-97352734D01*
X52099954Y-97539141D01*
X52260858Y-97700045D01*
X52260861Y-97700047D01*
X52447266Y-97830568D01*
X52653504Y-97926739D01*
X52873308Y-97985635D01*
X53035230Y-97999801D01*
X53099998Y-98005468D01*
X53100000Y-98005468D01*
X53100002Y-98005468D01*
X53156673Y-98000509D01*
X53326692Y-97985635D01*
X53546496Y-97926739D01*
X53752734Y-97830568D01*
X53939139Y-97700047D01*
X54100047Y-97539139D01*
X54230568Y-97352734D01*
X54326739Y-97146496D01*
X54385635Y-96926692D01*
X54405468Y-96700000D01*
X54385635Y-96473308D01*
X54326739Y-96253504D01*
X54230568Y-96047266D01*
X54100047Y-95860861D01*
X54100045Y-95860858D01*
X53939141Y-95699954D01*
X53752734Y-95569432D01*
X53752732Y-95569431D01*
X53546497Y-95473261D01*
X53546488Y-95473258D01*
X53326697Y-95414366D01*
X53326693Y-95414365D01*
X53326692Y-95414365D01*
X53326691Y-95414364D01*
X53326686Y-95414364D01*
X53100002Y-95394532D01*
X53099998Y-95394532D01*
X52873313Y-95414364D01*
X52873302Y-95414366D01*
X52653511Y-95473258D01*
X52653502Y-95473261D01*
X52447267Y-95569431D01*
X52447265Y-95569432D01*
X52260858Y-95699954D01*
X52099954Y-95860858D01*
X51969432Y-96047265D01*
X51969431Y-96047267D01*
X51873261Y-96253502D01*
X51873258Y-96253511D01*
X51814366Y-96473302D01*
X51814364Y-96473313D01*
X51794532Y-96699998D01*
X50550500Y-96699998D01*
X50550500Y-78999998D01*
X51794532Y-78999998D01*
X51794532Y-79000001D01*
X51814364Y-79226686D01*
X51814366Y-79226697D01*
X51873258Y-79446488D01*
X51873261Y-79446497D01*
X51969431Y-79652732D01*
X51969432Y-79652734D01*
X52099954Y-79839141D01*
X52260858Y-80000045D01*
X52444205Y-80128425D01*
X52487830Y-80183002D01*
X52495024Y-80252500D01*
X52463501Y-80314855D01*
X52444205Y-80331575D01*
X52260858Y-80459954D01*
X52099954Y-80620858D01*
X51969432Y-80807265D01*
X51969431Y-80807267D01*
X51873261Y-81013502D01*
X51873258Y-81013511D01*
X51814366Y-81233302D01*
X51814364Y-81233313D01*
X51794532Y-81459998D01*
X51794532Y-81460001D01*
X51814364Y-81686686D01*
X51814366Y-81686697D01*
X51873258Y-81906488D01*
X51873261Y-81906497D01*
X51969431Y-82112732D01*
X51969432Y-82112734D01*
X52099954Y-82299141D01*
X52260858Y-82460045D01*
X52260861Y-82460047D01*
X52447266Y-82590568D01*
X52653504Y-82686739D01*
X52873308Y-82745635D01*
X53035230Y-82759801D01*
X53099998Y-82765468D01*
X53100000Y-82765468D01*
X53100002Y-82765468D01*
X53156673Y-82760509D01*
X53326692Y-82745635D01*
X53546496Y-82686739D01*
X53752734Y-82590568D01*
X53939139Y-82460047D01*
X54100047Y-82299139D01*
X54230568Y-82112734D01*
X54326739Y-81906496D01*
X54385635Y-81686692D01*
X54405468Y-81460000D01*
X54403536Y-81437922D01*
X54399801Y-81395230D01*
X54385635Y-81233308D01*
X54326739Y-81013504D01*
X54230568Y-80807266D01*
X54100047Y-80620861D01*
X54100045Y-80620858D01*
X53939141Y-80459954D01*
X53796387Y-80359998D01*
X53755793Y-80331574D01*
X53712169Y-80276999D01*
X53704975Y-80207500D01*
X53736497Y-80145145D01*
X53755791Y-80128427D01*
X53939139Y-80000047D01*
X54100047Y-79839139D01*
X54230568Y-79652734D01*
X54326739Y-79446496D01*
X54385635Y-79226692D01*
X54405468Y-79000000D01*
X54385635Y-78773308D01*
X54326739Y-78553504D01*
X54230568Y-78347266D01*
X54100047Y-78160861D01*
X54100045Y-78160858D01*
X53939141Y-77999954D01*
X53752734Y-77869432D01*
X53752732Y-77869431D01*
X53546497Y-77773261D01*
X53546488Y-77773258D01*
X53326697Y-77714366D01*
X53326693Y-77714365D01*
X53326692Y-77714365D01*
X53326691Y-77714364D01*
X53326686Y-77714364D01*
X53100002Y-77694532D01*
X53099998Y-77694532D01*
X52873313Y-77714364D01*
X52873302Y-77714366D01*
X52653511Y-77773258D01*
X52653502Y-77773261D01*
X52447267Y-77869431D01*
X52447265Y-77869432D01*
X52260858Y-77999954D01*
X52099954Y-78160858D01*
X51969432Y-78347265D01*
X51969431Y-78347267D01*
X51873261Y-78553502D01*
X51873258Y-78553511D01*
X51814366Y-78773302D01*
X51814364Y-78773313D01*
X51794532Y-78999998D01*
X50550500Y-78999998D01*
X50550500Y-70199998D01*
X56254532Y-70199998D01*
X56254532Y-70200001D01*
X56274364Y-70426686D01*
X56274366Y-70426697D01*
X56333258Y-70646488D01*
X56333261Y-70646497D01*
X56429431Y-70852732D01*
X56429432Y-70852734D01*
X56559954Y-71039141D01*
X56720858Y-71200045D01*
X56720861Y-71200047D01*
X56907266Y-71330568D01*
X56965275Y-71357618D01*
X57017714Y-71403791D01*
X57036866Y-71470984D01*
X57016650Y-71537865D01*
X56965275Y-71582382D01*
X56907267Y-71609431D01*
X56907265Y-71609432D01*
X56720858Y-71739954D01*
X56559954Y-71900858D01*
X56429432Y-72087265D01*
X56429431Y-72087267D01*
X56333261Y-72293502D01*
X56333258Y-72293511D01*
X56274366Y-72513302D01*
X56274364Y-72513313D01*
X56254532Y-72739998D01*
X56254532Y-72740001D01*
X56274364Y-72966686D01*
X56274366Y-72966697D01*
X56333258Y-73186488D01*
X56333261Y-73186497D01*
X56429431Y-73392732D01*
X56429432Y-73392734D01*
X56559954Y-73579141D01*
X56720858Y-73740045D01*
X56720861Y-73740047D01*
X56907266Y-73870568D01*
X56965865Y-73897893D01*
X57018305Y-73944065D01*
X57037457Y-74011258D01*
X57017242Y-74078139D01*
X56965867Y-74122657D01*
X56907515Y-74149867D01*
X56721179Y-74280342D01*
X56560342Y-74441179D01*
X56429865Y-74627517D01*
X56333734Y-74833673D01*
X56333730Y-74833682D01*
X56281127Y-75029999D01*
X56281128Y-75030000D01*
X57126988Y-75030000D01*
X57094075Y-75087007D01*
X57060000Y-75214174D01*
X57060000Y-75345826D01*
X57094075Y-75472993D01*
X57126988Y-75530000D01*
X56281128Y-75530000D01*
X56333730Y-75726317D01*
X56333734Y-75726326D01*
X56429865Y-75932482D01*
X56560342Y-76118820D01*
X56721179Y-76279657D01*
X56907518Y-76410134D01*
X56907520Y-76410135D01*
X56965865Y-76437342D01*
X57018305Y-76483514D01*
X57037457Y-76550707D01*
X57017242Y-76617589D01*
X56965867Y-76662105D01*
X56907268Y-76689431D01*
X56907264Y-76689433D01*
X56720858Y-76819954D01*
X56559954Y-76980858D01*
X56429432Y-77167265D01*
X56429431Y-77167267D01*
X56333261Y-77373502D01*
X56333258Y-77373511D01*
X56274366Y-77593302D01*
X56274364Y-77593313D01*
X56254532Y-77819998D01*
X56254532Y-77820001D01*
X56274364Y-78046686D01*
X56274366Y-78046697D01*
X56333258Y-78266488D01*
X56333261Y-78266497D01*
X56429431Y-78472732D01*
X56429432Y-78472734D01*
X56559954Y-78659141D01*
X56720858Y-78820045D01*
X56720861Y-78820047D01*
X56907266Y-78950568D01*
X56965275Y-78977618D01*
X57017714Y-79023791D01*
X57036866Y-79090984D01*
X57016650Y-79157865D01*
X56965275Y-79202382D01*
X56907267Y-79229431D01*
X56907265Y-79229432D01*
X56720858Y-79359954D01*
X56559954Y-79520858D01*
X56429432Y-79707265D01*
X56429431Y-79707267D01*
X56333261Y-79913502D01*
X56333258Y-79913511D01*
X56274366Y-80133302D01*
X56274364Y-80133313D01*
X56254532Y-80359998D01*
X56254532Y-80360001D01*
X56274364Y-80586686D01*
X56274366Y-80586697D01*
X56333258Y-80806488D01*
X56333261Y-80806497D01*
X56429431Y-81012732D01*
X56429432Y-81012734D01*
X56559954Y-81199141D01*
X56720858Y-81360045D01*
X56720861Y-81360047D01*
X56907266Y-81490568D01*
X56965275Y-81517618D01*
X57017714Y-81563791D01*
X57036866Y-81630984D01*
X57016650Y-81697865D01*
X56965275Y-81742382D01*
X56907267Y-81769431D01*
X56907265Y-81769432D01*
X56720858Y-81899954D01*
X56559954Y-82060858D01*
X56429432Y-82247265D01*
X56429431Y-82247267D01*
X56333261Y-82453502D01*
X56333258Y-82453511D01*
X56274366Y-82673302D01*
X56274364Y-82673313D01*
X56254532Y-82899998D01*
X56254532Y-82900001D01*
X56274364Y-83126686D01*
X56274366Y-83126697D01*
X56333258Y-83346488D01*
X56333261Y-83346497D01*
X56429431Y-83552732D01*
X56429432Y-83552734D01*
X56559954Y-83739141D01*
X56720858Y-83900045D01*
X56720861Y-83900047D01*
X56907266Y-84030568D01*
X56965275Y-84057618D01*
X57017714Y-84103791D01*
X57036866Y-84170984D01*
X57016650Y-84237865D01*
X56965275Y-84282382D01*
X56907267Y-84309431D01*
X56907265Y-84309432D01*
X56720858Y-84439954D01*
X56559954Y-84600858D01*
X56429432Y-84787265D01*
X56429431Y-84787267D01*
X56333261Y-84993502D01*
X56333258Y-84993511D01*
X56274366Y-85213302D01*
X56274364Y-85213313D01*
X56254532Y-85439998D01*
X56254532Y-85440001D01*
X56274364Y-85666686D01*
X56274366Y-85666697D01*
X56333258Y-85886488D01*
X56333261Y-85886497D01*
X56429431Y-86092732D01*
X56429432Y-86092734D01*
X56559954Y-86279141D01*
X56720858Y-86440045D01*
X56720861Y-86440047D01*
X56907266Y-86570568D01*
X56965275Y-86597618D01*
X57017714Y-86643791D01*
X57036866Y-86710984D01*
X57016650Y-86777865D01*
X56965275Y-86822382D01*
X56907267Y-86849431D01*
X56907265Y-86849432D01*
X56720858Y-86979954D01*
X56559954Y-87140858D01*
X56429432Y-87327265D01*
X56429431Y-87327267D01*
X56333261Y-87533502D01*
X56333258Y-87533511D01*
X56274366Y-87753302D01*
X56274364Y-87753313D01*
X56254532Y-87979998D01*
X56254532Y-87980001D01*
X56274364Y-88206686D01*
X56274366Y-88206697D01*
X56333258Y-88426488D01*
X56333261Y-88426497D01*
X56429431Y-88632732D01*
X56429432Y-88632734D01*
X56559954Y-88819141D01*
X56720858Y-88980045D01*
X56720861Y-88980047D01*
X56907266Y-89110568D01*
X56965275Y-89137618D01*
X57017714Y-89183791D01*
X57036866Y-89250984D01*
X57016650Y-89317865D01*
X56965275Y-89362382D01*
X56907267Y-89389431D01*
X56907265Y-89389432D01*
X56720858Y-89519954D01*
X56559954Y-89680858D01*
X56429432Y-89867265D01*
X56429431Y-89867267D01*
X56333261Y-90073502D01*
X56333258Y-90073511D01*
X56274366Y-90293302D01*
X56274364Y-90293313D01*
X56254532Y-90519998D01*
X56254532Y-90520001D01*
X56274364Y-90746686D01*
X56274366Y-90746697D01*
X56333258Y-90966488D01*
X56333261Y-90966497D01*
X56429431Y-91172732D01*
X56429432Y-91172734D01*
X56559954Y-91359141D01*
X56720858Y-91520045D01*
X56720861Y-91520047D01*
X56907266Y-91650568D01*
X56965275Y-91677618D01*
X57017714Y-91723791D01*
X57036866Y-91790984D01*
X57016650Y-91857865D01*
X56965275Y-91902382D01*
X56907267Y-91929431D01*
X56907265Y-91929432D01*
X56720858Y-92059954D01*
X56559954Y-92220858D01*
X56429432Y-92407265D01*
X56429431Y-92407267D01*
X56333261Y-92613502D01*
X56333258Y-92613511D01*
X56274366Y-92833302D01*
X56274364Y-92833313D01*
X56254532Y-93059998D01*
X56254532Y-93060001D01*
X56274364Y-93286686D01*
X56274366Y-93286697D01*
X56333258Y-93506488D01*
X56333261Y-93506497D01*
X56429431Y-93712732D01*
X56429432Y-93712734D01*
X56559954Y-93899141D01*
X56720858Y-94060045D01*
X56720861Y-94060047D01*
X56907266Y-94190568D01*
X56965275Y-94217618D01*
X57017714Y-94263791D01*
X57036866Y-94330984D01*
X57016650Y-94397865D01*
X56965275Y-94442382D01*
X56907267Y-94469431D01*
X56907265Y-94469432D01*
X56720858Y-94599954D01*
X56559954Y-94760858D01*
X56429432Y-94947265D01*
X56429431Y-94947267D01*
X56333261Y-95153502D01*
X56333258Y-95153511D01*
X56274366Y-95373302D01*
X56274364Y-95373313D01*
X56254532Y-95599998D01*
X56254532Y-95600001D01*
X56274364Y-95826686D01*
X56274366Y-95826697D01*
X56333258Y-96046488D01*
X56333261Y-96046497D01*
X56429431Y-96252732D01*
X56429432Y-96252734D01*
X56559954Y-96439141D01*
X56720858Y-96600045D01*
X56720861Y-96600047D01*
X56907266Y-96730568D01*
X56965275Y-96757618D01*
X57017714Y-96803791D01*
X57036866Y-96870984D01*
X57016650Y-96937865D01*
X56965275Y-96982382D01*
X56907267Y-97009431D01*
X56907265Y-97009432D01*
X56720858Y-97139954D01*
X56559954Y-97300858D01*
X56429432Y-97487265D01*
X56429431Y-97487267D01*
X56333261Y-97693502D01*
X56333258Y-97693511D01*
X56274366Y-97913302D01*
X56274364Y-97913313D01*
X56254532Y-98139998D01*
X56254532Y-98140001D01*
X56274364Y-98366686D01*
X56274366Y-98366697D01*
X56333258Y-98586488D01*
X56333261Y-98586497D01*
X56429431Y-98792732D01*
X56429432Y-98792734D01*
X56559954Y-98979141D01*
X56720858Y-99140045D01*
X56720861Y-99140047D01*
X56907266Y-99270568D01*
X56965275Y-99297618D01*
X57017714Y-99343791D01*
X57036866Y-99410984D01*
X57016650Y-99477865D01*
X56965275Y-99522382D01*
X56907267Y-99549431D01*
X56907265Y-99549432D01*
X56720858Y-99679954D01*
X56559954Y-99840858D01*
X56429432Y-100027265D01*
X56429431Y-100027267D01*
X56333261Y-100233502D01*
X56333258Y-100233511D01*
X56274366Y-100453302D01*
X56274364Y-100453313D01*
X56254532Y-100679998D01*
X56254532Y-100680001D01*
X56274364Y-100906686D01*
X56274366Y-100906697D01*
X56333258Y-101126488D01*
X56333261Y-101126497D01*
X56429431Y-101332732D01*
X56429432Y-101332734D01*
X56559954Y-101519141D01*
X56720858Y-101680045D01*
X56720861Y-101680047D01*
X56907266Y-101810568D01*
X56965275Y-101837618D01*
X57017714Y-101883791D01*
X57036866Y-101950984D01*
X57016650Y-102017865D01*
X56965275Y-102062382D01*
X56907267Y-102089431D01*
X56907265Y-102089432D01*
X56720858Y-102219954D01*
X56559954Y-102380858D01*
X56429432Y-102567265D01*
X56429431Y-102567267D01*
X56333261Y-102773502D01*
X56333258Y-102773511D01*
X56274366Y-102993302D01*
X56274364Y-102993313D01*
X56254532Y-103219998D01*
X56254532Y-103220001D01*
X56274364Y-103446686D01*
X56274366Y-103446697D01*
X56333258Y-103666488D01*
X56333261Y-103666497D01*
X56429431Y-103872732D01*
X56429432Y-103872734D01*
X56559954Y-104059141D01*
X56720858Y-104220045D01*
X56720861Y-104220047D01*
X56907266Y-104350568D01*
X57113504Y-104446739D01*
X57333308Y-104505635D01*
X57495230Y-104519801D01*
X57559998Y-104525468D01*
X57560000Y-104525468D01*
X57560002Y-104525468D01*
X57616673Y-104520509D01*
X57786692Y-104505635D01*
X58006496Y-104446739D01*
X58212734Y-104350568D01*
X58399139Y-104220047D01*
X58560047Y-104059139D01*
X58690568Y-103872734D01*
X58786739Y-103666496D01*
X58845635Y-103446692D01*
X58865468Y-103220000D01*
X58845635Y-102993308D01*
X58786739Y-102773504D01*
X58690568Y-102567266D01*
X58592839Y-102427693D01*
X58560045Y-102380858D01*
X58399141Y-102219954D01*
X58212734Y-102089432D01*
X58212728Y-102089429D01*
X58154725Y-102062382D01*
X58102285Y-102016210D01*
X58083133Y-101949017D01*
X58103348Y-101882135D01*
X58154725Y-101837618D01*
X58212734Y-101810568D01*
X58399139Y-101680047D01*
X58560047Y-101519139D01*
X58690568Y-101332734D01*
X58786739Y-101126496D01*
X58845635Y-100906692D01*
X58865468Y-100680000D01*
X58845635Y-100453308D01*
X58786739Y-100233504D01*
X58690568Y-100027266D01*
X58560047Y-99840861D01*
X58560045Y-99840858D01*
X58399141Y-99679954D01*
X58212734Y-99549432D01*
X58212728Y-99549429D01*
X58154725Y-99522382D01*
X58102285Y-99476210D01*
X58083133Y-99409017D01*
X58103348Y-99342135D01*
X58154725Y-99297618D01*
X58212734Y-99270568D01*
X58399139Y-99140047D01*
X58560047Y-98979139D01*
X58690568Y-98792734D01*
X58786739Y-98586496D01*
X58845635Y-98366692D01*
X58865468Y-98140000D01*
X58845635Y-97913308D01*
X58786739Y-97693504D01*
X58690568Y-97487266D01*
X58560047Y-97300861D01*
X58560045Y-97300858D01*
X58399141Y-97139954D01*
X58212734Y-97009432D01*
X58212728Y-97009429D01*
X58154725Y-96982382D01*
X58102285Y-96936210D01*
X58083133Y-96869017D01*
X58103348Y-96802135D01*
X58154725Y-96757618D01*
X58212734Y-96730568D01*
X58399139Y-96600047D01*
X58560047Y-96439139D01*
X58690568Y-96252734D01*
X58786739Y-96046496D01*
X58845635Y-95826692D01*
X58865468Y-95600000D01*
X58845635Y-95373308D01*
X58786739Y-95153504D01*
X58690568Y-94947266D01*
X58560047Y-94760861D01*
X58560045Y-94760858D01*
X58399141Y-94599954D01*
X58212734Y-94469432D01*
X58212728Y-94469429D01*
X58154725Y-94442382D01*
X58102285Y-94396210D01*
X58083133Y-94329017D01*
X58103348Y-94262135D01*
X58154725Y-94217618D01*
X58212734Y-94190568D01*
X58399139Y-94060047D01*
X58560047Y-93899139D01*
X58690568Y-93712734D01*
X58786739Y-93506496D01*
X58845635Y-93286692D01*
X58865468Y-93060000D01*
X58845635Y-92833308D01*
X58786739Y-92613504D01*
X58690568Y-92407266D01*
X58560047Y-92220861D01*
X58560045Y-92220858D01*
X58399141Y-92059954D01*
X58212734Y-91929432D01*
X58212728Y-91929429D01*
X58154725Y-91902382D01*
X58102285Y-91856210D01*
X58083133Y-91789017D01*
X58103348Y-91722135D01*
X58154725Y-91677618D01*
X58212734Y-91650568D01*
X58399139Y-91520047D01*
X58560047Y-91359139D01*
X58690568Y-91172734D01*
X58786739Y-90966496D01*
X58845635Y-90746692D01*
X58865468Y-90520000D01*
X58845635Y-90293308D01*
X58786739Y-90073504D01*
X58690568Y-89867266D01*
X58560047Y-89680861D01*
X58560045Y-89680858D01*
X58399141Y-89519954D01*
X58212734Y-89389432D01*
X58212728Y-89389429D01*
X58154725Y-89362382D01*
X58102285Y-89316210D01*
X58083133Y-89249017D01*
X58103348Y-89182135D01*
X58154725Y-89137618D01*
X58212734Y-89110568D01*
X58399139Y-88980047D01*
X58560047Y-88819139D01*
X58690568Y-88632734D01*
X58786739Y-88426496D01*
X58845635Y-88206692D01*
X58865468Y-87980000D01*
X58845635Y-87753308D01*
X58786739Y-87533504D01*
X58690568Y-87327266D01*
X58560047Y-87140861D01*
X58560045Y-87140858D01*
X58399141Y-86979954D01*
X58212734Y-86849432D01*
X58212728Y-86849429D01*
X58154725Y-86822382D01*
X58102285Y-86776210D01*
X58083133Y-86709017D01*
X58103348Y-86642135D01*
X58154725Y-86597618D01*
X58212734Y-86570568D01*
X58399139Y-86440047D01*
X58560047Y-86279139D01*
X58690568Y-86092734D01*
X58786739Y-85886496D01*
X58845635Y-85666692D01*
X58865468Y-85440000D01*
X58845635Y-85213308D01*
X58786739Y-84993504D01*
X58690568Y-84787266D01*
X58560047Y-84600861D01*
X58560045Y-84600858D01*
X58399141Y-84439954D01*
X58212734Y-84309432D01*
X58212728Y-84309429D01*
X58154725Y-84282382D01*
X58102285Y-84236210D01*
X58083133Y-84169017D01*
X58103348Y-84102135D01*
X58154725Y-84057618D01*
X58212734Y-84030568D01*
X58399139Y-83900047D01*
X58560047Y-83739139D01*
X58690568Y-83552734D01*
X58786739Y-83346496D01*
X58845635Y-83126692D01*
X58865468Y-82900000D01*
X58845635Y-82673308D01*
X58786739Y-82453504D01*
X58690568Y-82247266D01*
X58560047Y-82060861D01*
X58560045Y-82060858D01*
X58399141Y-81899954D01*
X58212734Y-81769432D01*
X58212728Y-81769429D01*
X58154725Y-81742382D01*
X58102285Y-81696210D01*
X58083133Y-81629017D01*
X58103348Y-81562135D01*
X58154725Y-81517618D01*
X58212734Y-81490568D01*
X58399139Y-81360047D01*
X58560047Y-81199139D01*
X58690568Y-81012734D01*
X58786739Y-80806496D01*
X58845635Y-80586692D01*
X58865468Y-80360000D01*
X58845635Y-80133308D01*
X58786739Y-79913504D01*
X58690568Y-79707266D01*
X58560047Y-79520861D01*
X58560045Y-79520858D01*
X58399141Y-79359954D01*
X58212734Y-79229432D01*
X58212728Y-79229429D01*
X58154725Y-79202382D01*
X58102285Y-79156210D01*
X58083133Y-79089017D01*
X58103348Y-79022135D01*
X58154725Y-78977618D01*
X58212734Y-78950568D01*
X58399139Y-78820047D01*
X58560047Y-78659139D01*
X58690568Y-78472734D01*
X58786739Y-78266496D01*
X58845635Y-78046692D01*
X58865468Y-77820000D01*
X58845635Y-77593308D01*
X58786739Y-77373504D01*
X58690568Y-77167266D01*
X58560047Y-76980861D01*
X58560045Y-76980858D01*
X58399141Y-76819954D01*
X58212734Y-76689432D01*
X58212732Y-76689431D01*
X58154725Y-76662382D01*
X58154132Y-76662105D01*
X58101694Y-76615934D01*
X58082542Y-76548740D01*
X58102758Y-76481859D01*
X58154134Y-76437341D01*
X58212484Y-76410132D01*
X58398820Y-76279657D01*
X58559657Y-76118820D01*
X58690134Y-75932482D01*
X58786265Y-75726326D01*
X58786269Y-75726317D01*
X58838872Y-75530000D01*
X57993012Y-75530000D01*
X58025925Y-75472993D01*
X58060000Y-75345826D01*
X58060000Y-75214174D01*
X58025925Y-75087007D01*
X57993012Y-75030000D01*
X58838872Y-75030000D01*
X58838872Y-75029999D01*
X58786269Y-74833682D01*
X58786265Y-74833673D01*
X58690134Y-74627517D01*
X58559657Y-74441179D01*
X58398820Y-74280342D01*
X58212482Y-74149865D01*
X58154133Y-74122657D01*
X58101694Y-74076484D01*
X58082542Y-74009291D01*
X58102758Y-73942410D01*
X58154129Y-73897895D01*
X58212734Y-73870568D01*
X58399139Y-73740047D01*
X58560047Y-73579139D01*
X58690568Y-73392734D01*
X58786739Y-73186496D01*
X58845635Y-72966692D01*
X58865468Y-72740000D01*
X58845635Y-72513308D01*
X58786739Y-72293504D01*
X58690568Y-72087266D01*
X58560047Y-71900861D01*
X58560045Y-71900858D01*
X58399141Y-71739954D01*
X58212734Y-71609432D01*
X58212728Y-71609429D01*
X58154725Y-71582382D01*
X58102285Y-71536210D01*
X58083133Y-71469017D01*
X58103348Y-71402135D01*
X58154725Y-71357618D01*
X58212734Y-71330568D01*
X58399139Y-71200047D01*
X58560047Y-71039139D01*
X58690568Y-70852734D01*
X58786739Y-70646496D01*
X58845635Y-70426692D01*
X58865468Y-70200000D01*
X58845635Y-69973308D01*
X58786739Y-69753504D01*
X58690568Y-69547266D01*
X58560047Y-69360861D01*
X58560045Y-69360858D01*
X58399143Y-69199956D01*
X58374536Y-69182726D01*
X58330912Y-69128149D01*
X58323719Y-69058650D01*
X58355241Y-68996296D01*
X58415471Y-68960882D01*
X58432404Y-68957861D01*
X58467483Y-68954091D01*
X58602331Y-68903796D01*
X58717546Y-68817546D01*
X58803796Y-68702331D01*
X58854091Y-68567483D01*
X58860500Y-68507873D01*
X58860499Y-67659998D01*
X71494532Y-67659998D01*
X71494532Y-67660001D01*
X71514364Y-67886686D01*
X71514366Y-67886697D01*
X71573258Y-68106488D01*
X71573261Y-68106497D01*
X71669431Y-68312732D01*
X71669432Y-68312734D01*
X71799954Y-68499141D01*
X71960858Y-68660045D01*
X71960861Y-68660047D01*
X72147266Y-68790568D01*
X72205275Y-68817618D01*
X72257714Y-68863791D01*
X72276866Y-68930984D01*
X72256650Y-68997865D01*
X72205275Y-69042382D01*
X72147267Y-69069431D01*
X72147265Y-69069432D01*
X71960858Y-69199954D01*
X71799954Y-69360858D01*
X71669432Y-69547265D01*
X71669431Y-69547267D01*
X71573261Y-69753502D01*
X71573258Y-69753511D01*
X71514366Y-69973302D01*
X71514364Y-69973313D01*
X71494532Y-70199998D01*
X71494532Y-70200001D01*
X71514364Y-70426686D01*
X71514366Y-70426697D01*
X71573258Y-70646488D01*
X71573261Y-70646497D01*
X71669431Y-70852732D01*
X71669432Y-70852734D01*
X71799954Y-71039141D01*
X71960858Y-71200045D01*
X71960861Y-71200047D01*
X72147266Y-71330568D01*
X72205275Y-71357618D01*
X72257714Y-71403791D01*
X72276866Y-71470984D01*
X72256650Y-71537865D01*
X72205275Y-71582382D01*
X72147267Y-71609431D01*
X72147265Y-71609432D01*
X71960858Y-71739954D01*
X71799954Y-71900858D01*
X71669432Y-72087265D01*
X71669431Y-72087267D01*
X71573261Y-72293502D01*
X71573258Y-72293511D01*
X71514366Y-72513302D01*
X71514364Y-72513313D01*
X71494532Y-72739998D01*
X71494532Y-72740001D01*
X71514364Y-72966686D01*
X71514366Y-72966697D01*
X71573258Y-73186488D01*
X71573261Y-73186497D01*
X71669431Y-73392732D01*
X71669432Y-73392734D01*
X71799954Y-73579141D01*
X71960858Y-73740045D01*
X71960861Y-73740047D01*
X72147266Y-73870568D01*
X72205275Y-73897618D01*
X72257714Y-73943791D01*
X72276866Y-74010984D01*
X72256650Y-74077865D01*
X72205275Y-74122382D01*
X72147267Y-74149431D01*
X72147265Y-74149432D01*
X71960858Y-74279954D01*
X71799954Y-74440858D01*
X71669432Y-74627265D01*
X71669431Y-74627267D01*
X71573261Y-74833502D01*
X71573258Y-74833511D01*
X71514366Y-75053302D01*
X71514364Y-75053313D01*
X71494532Y-75279998D01*
X71494532Y-75280001D01*
X71514364Y-75506686D01*
X71514366Y-75506697D01*
X71573258Y-75726488D01*
X71573261Y-75726497D01*
X71669431Y-75932732D01*
X71669432Y-75932734D01*
X71799954Y-76119141D01*
X71960858Y-76280045D01*
X71960861Y-76280047D01*
X72147266Y-76410568D01*
X72204681Y-76437341D01*
X72205275Y-76437618D01*
X72257714Y-76483791D01*
X72276866Y-76550984D01*
X72256650Y-76617865D01*
X72205275Y-76662382D01*
X72147267Y-76689431D01*
X72147265Y-76689432D01*
X71960858Y-76819954D01*
X71799954Y-76980858D01*
X71669432Y-77167265D01*
X71669431Y-77167267D01*
X71573261Y-77373502D01*
X71573258Y-77373511D01*
X71514366Y-77593302D01*
X71514364Y-77593313D01*
X71494532Y-77819998D01*
X71494532Y-77820001D01*
X71514364Y-78046686D01*
X71514366Y-78046697D01*
X71573258Y-78266488D01*
X71573261Y-78266497D01*
X71669431Y-78472732D01*
X71669432Y-78472734D01*
X71799954Y-78659141D01*
X71960858Y-78820045D01*
X71960861Y-78820047D01*
X72147266Y-78950568D01*
X72205275Y-78977618D01*
X72257714Y-79023791D01*
X72276866Y-79090984D01*
X72256650Y-79157865D01*
X72205275Y-79202382D01*
X72147267Y-79229431D01*
X72147265Y-79229432D01*
X71960858Y-79359954D01*
X71799954Y-79520858D01*
X71669432Y-79707265D01*
X71669431Y-79707267D01*
X71573261Y-79913502D01*
X71573258Y-79913511D01*
X71514366Y-80133302D01*
X71514364Y-80133313D01*
X71494532Y-80359998D01*
X71494532Y-80360001D01*
X71514364Y-80586686D01*
X71514366Y-80586697D01*
X71573258Y-80806488D01*
X71573261Y-80806497D01*
X71669431Y-81012732D01*
X71669432Y-81012734D01*
X71799954Y-81199141D01*
X71960858Y-81360045D01*
X71960861Y-81360047D01*
X72147266Y-81490568D01*
X72205275Y-81517618D01*
X72257714Y-81563791D01*
X72276866Y-81630984D01*
X72256650Y-81697865D01*
X72205275Y-81742382D01*
X72147267Y-81769431D01*
X72147265Y-81769432D01*
X71960858Y-81899954D01*
X71799954Y-82060858D01*
X71669432Y-82247265D01*
X71669431Y-82247267D01*
X71573261Y-82453502D01*
X71573258Y-82453511D01*
X71514366Y-82673302D01*
X71514364Y-82673313D01*
X71494532Y-82899998D01*
X71494532Y-82900001D01*
X71514364Y-83126686D01*
X71514366Y-83126697D01*
X71573258Y-83346488D01*
X71573261Y-83346497D01*
X71669431Y-83552732D01*
X71669432Y-83552734D01*
X71799954Y-83739141D01*
X71960858Y-83900045D01*
X71960861Y-83900047D01*
X72147266Y-84030568D01*
X72205275Y-84057618D01*
X72257714Y-84103791D01*
X72276866Y-84170984D01*
X72256650Y-84237865D01*
X72205275Y-84282382D01*
X72147267Y-84309431D01*
X72147265Y-84309432D01*
X71960858Y-84439954D01*
X71799954Y-84600858D01*
X71669432Y-84787265D01*
X71669431Y-84787267D01*
X71573261Y-84993502D01*
X71573258Y-84993511D01*
X71514366Y-85213302D01*
X71514364Y-85213313D01*
X71494532Y-85439998D01*
X71494532Y-85440001D01*
X71514364Y-85666686D01*
X71514366Y-85666697D01*
X71573258Y-85886488D01*
X71573261Y-85886497D01*
X71669431Y-86092732D01*
X71669432Y-86092734D01*
X71799954Y-86279141D01*
X71960858Y-86440045D01*
X71960861Y-86440047D01*
X72147266Y-86570568D01*
X72205275Y-86597618D01*
X72257714Y-86643791D01*
X72276866Y-86710984D01*
X72256650Y-86777865D01*
X72205275Y-86822382D01*
X72147267Y-86849431D01*
X72147265Y-86849432D01*
X71960858Y-86979954D01*
X71799954Y-87140858D01*
X71669432Y-87327265D01*
X71669431Y-87327267D01*
X71573261Y-87533502D01*
X71573258Y-87533511D01*
X71514366Y-87753302D01*
X71514364Y-87753313D01*
X71494532Y-87979998D01*
X71494532Y-87980001D01*
X71514364Y-88206686D01*
X71514366Y-88206697D01*
X71573258Y-88426488D01*
X71573261Y-88426497D01*
X71669431Y-88632732D01*
X71669432Y-88632734D01*
X71799954Y-88819141D01*
X71960858Y-88980045D01*
X71960861Y-88980047D01*
X72147266Y-89110568D01*
X72205275Y-89137618D01*
X72257714Y-89183791D01*
X72276866Y-89250984D01*
X72256650Y-89317865D01*
X72205275Y-89362382D01*
X72147267Y-89389431D01*
X72147265Y-89389432D01*
X71960858Y-89519954D01*
X71799954Y-89680858D01*
X71669432Y-89867265D01*
X71669431Y-89867267D01*
X71573261Y-90073502D01*
X71573258Y-90073511D01*
X71514366Y-90293302D01*
X71514364Y-90293313D01*
X71494532Y-90519998D01*
X71494532Y-90520001D01*
X71514364Y-90746686D01*
X71514366Y-90746697D01*
X71573258Y-90966488D01*
X71573261Y-90966497D01*
X71669431Y-91172732D01*
X71669432Y-91172734D01*
X71799954Y-91359141D01*
X71960858Y-91520045D01*
X71960861Y-91520047D01*
X72147266Y-91650568D01*
X72205275Y-91677618D01*
X72257714Y-91723791D01*
X72276866Y-91790984D01*
X72256650Y-91857865D01*
X72205275Y-91902382D01*
X72147267Y-91929431D01*
X72147265Y-91929432D01*
X71960858Y-92059954D01*
X71799954Y-92220858D01*
X71669432Y-92407265D01*
X71669431Y-92407267D01*
X71573261Y-92613502D01*
X71573258Y-92613511D01*
X71514366Y-92833302D01*
X71514364Y-92833313D01*
X71494532Y-93059998D01*
X71494532Y-93060001D01*
X71514364Y-93286686D01*
X71514366Y-93286697D01*
X71573258Y-93506488D01*
X71573261Y-93506497D01*
X71669431Y-93712732D01*
X71669432Y-93712734D01*
X71799954Y-93899141D01*
X71960858Y-94060045D01*
X71960861Y-94060047D01*
X72147266Y-94190568D01*
X72205275Y-94217618D01*
X72257714Y-94263791D01*
X72276866Y-94330984D01*
X72256650Y-94397865D01*
X72205275Y-94442382D01*
X72147267Y-94469431D01*
X72147265Y-94469432D01*
X71960858Y-94599954D01*
X71799954Y-94760858D01*
X71669432Y-94947265D01*
X71669431Y-94947267D01*
X71573261Y-95153502D01*
X71573258Y-95153511D01*
X71514366Y-95373302D01*
X71514364Y-95373313D01*
X71494532Y-95599998D01*
X71494532Y-95600001D01*
X71514364Y-95826686D01*
X71514366Y-95826697D01*
X71573258Y-96046488D01*
X71573261Y-96046497D01*
X71669431Y-96252732D01*
X71669432Y-96252734D01*
X71799954Y-96439141D01*
X71960858Y-96600045D01*
X71960861Y-96600047D01*
X72147266Y-96730568D01*
X72205275Y-96757618D01*
X72257714Y-96803791D01*
X72276866Y-96870984D01*
X72256650Y-96937865D01*
X72205275Y-96982382D01*
X72147267Y-97009431D01*
X72147265Y-97009432D01*
X71960858Y-97139954D01*
X71799954Y-97300858D01*
X71669432Y-97487265D01*
X71669431Y-97487267D01*
X71573261Y-97693502D01*
X71573258Y-97693511D01*
X71514366Y-97913302D01*
X71514364Y-97913313D01*
X71494532Y-98139998D01*
X71494532Y-98140001D01*
X71514364Y-98366686D01*
X71514366Y-98366697D01*
X71573258Y-98586488D01*
X71573261Y-98586497D01*
X71669431Y-98792732D01*
X71669432Y-98792734D01*
X71799954Y-98979141D01*
X71960858Y-99140045D01*
X71960861Y-99140047D01*
X72147266Y-99270568D01*
X72205275Y-99297618D01*
X72257714Y-99343791D01*
X72276866Y-99410984D01*
X72256650Y-99477865D01*
X72205275Y-99522382D01*
X72147267Y-99549431D01*
X72147265Y-99549432D01*
X71960858Y-99679954D01*
X71799954Y-99840858D01*
X71669432Y-100027265D01*
X71669431Y-100027267D01*
X71573261Y-100233502D01*
X71573258Y-100233511D01*
X71514366Y-100453302D01*
X71514364Y-100453313D01*
X71494532Y-100679998D01*
X71494532Y-100680001D01*
X71514364Y-100906686D01*
X71514366Y-100906697D01*
X71573258Y-101126488D01*
X71573261Y-101126497D01*
X71669431Y-101332732D01*
X71669432Y-101332734D01*
X71799954Y-101519141D01*
X71960858Y-101680045D01*
X71960861Y-101680047D01*
X72147266Y-101810568D01*
X72205275Y-101837618D01*
X72257714Y-101883791D01*
X72276866Y-101950984D01*
X72256650Y-102017865D01*
X72205275Y-102062382D01*
X72147267Y-102089431D01*
X72147265Y-102089432D01*
X71960858Y-102219954D01*
X71799954Y-102380858D01*
X71669432Y-102567265D01*
X71669431Y-102567267D01*
X71573261Y-102773502D01*
X71573258Y-102773511D01*
X71514366Y-102993302D01*
X71514364Y-102993313D01*
X71494532Y-103219998D01*
X71494532Y-103220001D01*
X71514364Y-103446686D01*
X71514366Y-103446697D01*
X71573258Y-103666488D01*
X71573261Y-103666497D01*
X71669431Y-103872732D01*
X71669432Y-103872734D01*
X71799954Y-104059141D01*
X71960858Y-104220045D01*
X71960861Y-104220047D01*
X72147266Y-104350568D01*
X72353504Y-104446739D01*
X72573308Y-104505635D01*
X72735230Y-104519801D01*
X72799998Y-104525468D01*
X72800000Y-104525468D01*
X72800002Y-104525468D01*
X72856673Y-104520509D01*
X73026692Y-104505635D01*
X73246496Y-104446739D01*
X73452734Y-104350568D01*
X73639139Y-104220047D01*
X73800047Y-104059139D01*
X73930568Y-103872734D01*
X74026739Y-103666496D01*
X74085635Y-103446692D01*
X74105468Y-103220000D01*
X74085635Y-102993308D01*
X74026739Y-102773504D01*
X73930568Y-102567266D01*
X73832839Y-102427693D01*
X73800045Y-102380858D01*
X73639141Y-102219954D01*
X73452734Y-102089432D01*
X73452728Y-102089429D01*
X73394725Y-102062382D01*
X73342285Y-102016210D01*
X73323133Y-101949017D01*
X73343348Y-101882135D01*
X73394725Y-101837618D01*
X73452734Y-101810568D01*
X73639139Y-101680047D01*
X73800047Y-101519139D01*
X73930568Y-101332734D01*
X74026739Y-101126496D01*
X74085635Y-100906692D01*
X74105468Y-100680000D01*
X74085635Y-100453308D01*
X74026739Y-100233504D01*
X73930568Y-100027266D01*
X73800047Y-99840861D01*
X73800045Y-99840858D01*
X73639141Y-99679954D01*
X73452734Y-99549432D01*
X73452728Y-99549429D01*
X73394725Y-99522382D01*
X73342285Y-99476210D01*
X73323133Y-99409017D01*
X73343348Y-99342135D01*
X73394725Y-99297618D01*
X73452734Y-99270568D01*
X73639139Y-99140047D01*
X73800047Y-98979139D01*
X73930568Y-98792734D01*
X74026739Y-98586496D01*
X74085635Y-98366692D01*
X74105468Y-98140000D01*
X74085635Y-97913308D01*
X74026739Y-97693504D01*
X73930568Y-97487266D01*
X73800047Y-97300861D01*
X73800045Y-97300858D01*
X73639141Y-97139954D01*
X73452734Y-97009432D01*
X73452728Y-97009429D01*
X73394725Y-96982382D01*
X73342285Y-96936210D01*
X73323133Y-96869017D01*
X73343348Y-96802135D01*
X73394725Y-96757618D01*
X73452734Y-96730568D01*
X73639139Y-96600047D01*
X73800047Y-96439139D01*
X73930568Y-96252734D01*
X74026739Y-96046496D01*
X74085635Y-95826692D01*
X74105468Y-95600000D01*
X74085635Y-95373308D01*
X74026739Y-95153504D01*
X73930568Y-94947266D01*
X73800047Y-94760861D01*
X73800045Y-94760858D01*
X73639141Y-94599954D01*
X73452734Y-94469432D01*
X73452728Y-94469429D01*
X73394725Y-94442382D01*
X73342285Y-94396210D01*
X73323133Y-94329017D01*
X73343348Y-94262135D01*
X73394725Y-94217618D01*
X73452734Y-94190568D01*
X73639139Y-94060047D01*
X73800047Y-93899139D01*
X73930568Y-93712734D01*
X74026739Y-93506496D01*
X74085635Y-93286692D01*
X74105468Y-93060000D01*
X74085635Y-92833308D01*
X74026739Y-92613504D01*
X73930568Y-92407266D01*
X73800047Y-92220861D01*
X73800045Y-92220858D01*
X73639141Y-92059954D01*
X73452734Y-91929432D01*
X73452728Y-91929429D01*
X73394725Y-91902382D01*
X73342285Y-91856210D01*
X73323133Y-91789017D01*
X73343348Y-91722135D01*
X73394725Y-91677618D01*
X73452734Y-91650568D01*
X73639139Y-91520047D01*
X73800047Y-91359139D01*
X73930568Y-91172734D01*
X74026739Y-90966496D01*
X74085635Y-90746692D01*
X74105468Y-90520000D01*
X74085635Y-90293308D01*
X74026739Y-90073504D01*
X73930568Y-89867266D01*
X73800047Y-89680861D01*
X73800045Y-89680858D01*
X73639141Y-89519954D01*
X73452734Y-89389432D01*
X73452728Y-89389429D01*
X73394725Y-89362382D01*
X73342285Y-89316210D01*
X73323133Y-89249017D01*
X73343348Y-89182135D01*
X73394725Y-89137618D01*
X73452734Y-89110568D01*
X73639139Y-88980047D01*
X73800047Y-88819139D01*
X73930568Y-88632734D01*
X74026739Y-88426496D01*
X74085635Y-88206692D01*
X74105468Y-87980000D01*
X74085635Y-87753308D01*
X74026739Y-87533504D01*
X73930568Y-87327266D01*
X73800047Y-87140861D01*
X73800045Y-87140858D01*
X73639141Y-86979954D01*
X73452734Y-86849432D01*
X73452728Y-86849429D01*
X73394725Y-86822382D01*
X73342285Y-86776210D01*
X73323133Y-86709017D01*
X73343348Y-86642135D01*
X73394725Y-86597618D01*
X73452734Y-86570568D01*
X73639139Y-86440047D01*
X73800047Y-86279139D01*
X73930568Y-86092734D01*
X74026739Y-85886496D01*
X74085635Y-85666692D01*
X74105468Y-85440000D01*
X74085635Y-85213308D01*
X74026739Y-84993504D01*
X73930568Y-84787266D01*
X73800047Y-84600861D01*
X73800045Y-84600858D01*
X73639141Y-84439954D01*
X73452734Y-84309432D01*
X73452728Y-84309429D01*
X73394725Y-84282382D01*
X73342285Y-84236210D01*
X73323133Y-84169017D01*
X73343348Y-84102135D01*
X73394725Y-84057618D01*
X73452734Y-84030568D01*
X73639139Y-83900047D01*
X73800047Y-83739139D01*
X73930568Y-83552734D01*
X74026739Y-83346496D01*
X74085635Y-83126692D01*
X74105468Y-82900000D01*
X74085635Y-82673308D01*
X74026739Y-82453504D01*
X73930568Y-82247266D01*
X73800047Y-82060861D01*
X73800045Y-82060858D01*
X73639141Y-81899954D01*
X73452734Y-81769432D01*
X73452728Y-81769429D01*
X73394725Y-81742382D01*
X73342285Y-81696210D01*
X73323133Y-81629017D01*
X73343348Y-81562135D01*
X73394725Y-81517618D01*
X73452734Y-81490568D01*
X73639139Y-81360047D01*
X73800047Y-81199139D01*
X73930568Y-81012734D01*
X74026739Y-80806496D01*
X74085635Y-80586692D01*
X74105468Y-80360000D01*
X74085635Y-80133308D01*
X74026739Y-79913504D01*
X73930568Y-79707266D01*
X73800047Y-79520861D01*
X73800045Y-79520858D01*
X73639141Y-79359954D01*
X73452734Y-79229432D01*
X73452728Y-79229429D01*
X73394725Y-79202382D01*
X73342285Y-79156210D01*
X73323133Y-79089017D01*
X73343348Y-79022135D01*
X73394725Y-78977618D01*
X73452734Y-78950568D01*
X73639139Y-78820047D01*
X73800047Y-78659139D01*
X73930568Y-78472734D01*
X74026739Y-78266496D01*
X74085635Y-78046692D01*
X74105468Y-77820000D01*
X74085635Y-77593308D01*
X74026739Y-77373504D01*
X73930568Y-77167266D01*
X73800047Y-76980861D01*
X73800045Y-76980858D01*
X73639141Y-76819954D01*
X73452734Y-76689432D01*
X73452728Y-76689429D01*
X73394725Y-76662382D01*
X73342285Y-76616210D01*
X73323133Y-76549017D01*
X73343348Y-76482135D01*
X73394725Y-76437618D01*
X73395319Y-76437341D01*
X73452734Y-76410568D01*
X73639139Y-76280047D01*
X73800047Y-76119139D01*
X73930568Y-75932734D01*
X74026739Y-75726496D01*
X74085635Y-75506692D01*
X74105468Y-75280000D01*
X74085635Y-75053308D01*
X74026739Y-74833504D01*
X73930568Y-74627266D01*
X73800047Y-74440861D01*
X73800045Y-74440858D01*
X73639141Y-74279954D01*
X73452734Y-74149432D01*
X73452728Y-74149429D01*
X73394725Y-74122382D01*
X73342285Y-74076210D01*
X73323133Y-74009017D01*
X73343348Y-73942135D01*
X73394725Y-73897618D01*
X73452734Y-73870568D01*
X73639139Y-73740047D01*
X73800047Y-73579139D01*
X73930568Y-73392734D01*
X74026739Y-73186496D01*
X74085635Y-72966692D01*
X74105468Y-72740000D01*
X74085635Y-72513308D01*
X74026739Y-72293504D01*
X73930568Y-72087266D01*
X73800047Y-71900861D01*
X73800045Y-71900858D01*
X73639141Y-71739954D01*
X73452734Y-71609432D01*
X73452728Y-71609429D01*
X73394725Y-71582382D01*
X73342285Y-71536210D01*
X73323133Y-71469017D01*
X73343348Y-71402135D01*
X73394725Y-71357618D01*
X73452734Y-71330568D01*
X73639139Y-71200047D01*
X73800047Y-71039139D01*
X73930568Y-70852734D01*
X74026739Y-70646496D01*
X74085635Y-70426692D01*
X74105468Y-70200000D01*
X74085635Y-69973308D01*
X74026739Y-69753504D01*
X73930568Y-69547266D01*
X73800047Y-69360861D01*
X73800045Y-69360858D01*
X73639141Y-69199954D01*
X73452734Y-69069432D01*
X73452728Y-69069429D01*
X73394725Y-69042382D01*
X73342285Y-68996210D01*
X73323133Y-68929017D01*
X73343348Y-68862135D01*
X73394725Y-68817618D01*
X73452734Y-68790568D01*
X73639139Y-68660047D01*
X73800047Y-68499139D01*
X73930568Y-68312734D01*
X74026739Y-68106496D01*
X74085635Y-67886692D01*
X74105468Y-67660000D01*
X74085635Y-67433308D01*
X74026739Y-67213504D01*
X73930568Y-67007266D01*
X73800047Y-66820861D01*
X73800045Y-66820858D01*
X73639141Y-66659954D01*
X73452734Y-66529432D01*
X73452732Y-66529431D01*
X73246497Y-66433261D01*
X73246488Y-66433258D01*
X73026697Y-66374366D01*
X73026693Y-66374365D01*
X73026692Y-66374365D01*
X73026691Y-66374364D01*
X73026686Y-66374364D01*
X72800002Y-66354532D01*
X72799998Y-66354532D01*
X72573313Y-66374364D01*
X72573302Y-66374366D01*
X72353511Y-66433258D01*
X72353502Y-66433261D01*
X72147267Y-66529431D01*
X72147265Y-66529432D01*
X71960858Y-66659954D01*
X71799954Y-66820858D01*
X71669432Y-67007265D01*
X71669431Y-67007267D01*
X71573261Y-67213502D01*
X71573258Y-67213511D01*
X71514366Y-67433302D01*
X71514364Y-67433313D01*
X71494532Y-67659998D01*
X58860499Y-67659998D01*
X58860499Y-66812128D01*
X58854091Y-66752517D01*
X58819567Y-66659954D01*
X58803797Y-66617671D01*
X58803793Y-66617664D01*
X58717547Y-66502455D01*
X58717544Y-66502452D01*
X58602335Y-66416206D01*
X58602328Y-66416202D01*
X58467482Y-66365908D01*
X58467483Y-66365908D01*
X58407883Y-66359501D01*
X58407881Y-66359500D01*
X58407873Y-66359500D01*
X58407864Y-66359500D01*
X56712129Y-66359500D01*
X56712123Y-66359501D01*
X56652516Y-66365908D01*
X56517671Y-66416202D01*
X56517664Y-66416206D01*
X56402455Y-66502452D01*
X56402452Y-66502455D01*
X56316206Y-66617664D01*
X56316202Y-66617671D01*
X56265908Y-66752517D01*
X56259501Y-66812116D01*
X56259501Y-66812123D01*
X56259500Y-66812135D01*
X56259500Y-68507870D01*
X56259501Y-68507876D01*
X56265908Y-68567483D01*
X56316202Y-68702328D01*
X56316206Y-68702335D01*
X56402452Y-68817544D01*
X56402455Y-68817547D01*
X56517664Y-68903793D01*
X56517671Y-68903797D01*
X56562618Y-68920561D01*
X56652517Y-68954091D01*
X56687596Y-68957862D01*
X56752144Y-68984599D01*
X56791993Y-69041991D01*
X56794488Y-69111816D01*
X56758836Y-69171905D01*
X56745464Y-69182725D01*
X56720858Y-69199954D01*
X56559954Y-69360858D01*
X56429432Y-69547265D01*
X56429431Y-69547267D01*
X56333261Y-69753502D01*
X56333258Y-69753511D01*
X56274366Y-69973302D01*
X56274364Y-69973313D01*
X56254532Y-70199998D01*
X50550500Y-70199998D01*
X50550500Y-63759998D01*
X51794532Y-63759998D01*
X51794532Y-63760001D01*
X51814364Y-63986686D01*
X51814366Y-63986697D01*
X51873258Y-64206488D01*
X51873261Y-64206497D01*
X51969431Y-64412732D01*
X51969432Y-64412734D01*
X52099954Y-64599141D01*
X52260858Y-64760045D01*
X52260861Y-64760047D01*
X52447266Y-64890568D01*
X52653504Y-64986739D01*
X52873308Y-65045635D01*
X53035230Y-65059801D01*
X53099998Y-65065468D01*
X53100000Y-65065468D01*
X53100002Y-65065468D01*
X53156673Y-65060509D01*
X53326692Y-65045635D01*
X53546496Y-64986739D01*
X53752734Y-64890568D01*
X53939139Y-64760047D01*
X54100047Y-64599139D01*
X54230568Y-64412734D01*
X54326739Y-64206496D01*
X54385635Y-63986692D01*
X54405468Y-63760000D01*
X54385635Y-63533308D01*
X54326739Y-63313504D01*
X54230568Y-63107266D01*
X54100047Y-62920861D01*
X54100045Y-62920858D01*
X53939141Y-62759954D01*
X53752734Y-62629432D01*
X53752732Y-62629431D01*
X53546497Y-62533261D01*
X53546488Y-62533258D01*
X53326697Y-62474366D01*
X53326693Y-62474365D01*
X53326692Y-62474365D01*
X53326691Y-62474364D01*
X53326686Y-62474364D01*
X53100002Y-62454532D01*
X53099998Y-62454532D01*
X52873313Y-62474364D01*
X52873302Y-62474366D01*
X52653511Y-62533258D01*
X52653502Y-62533261D01*
X52447267Y-62629431D01*
X52447265Y-62629432D01*
X52260858Y-62759954D01*
X52099954Y-62920858D01*
X51969432Y-63107265D01*
X51969431Y-63107267D01*
X51873261Y-63313502D01*
X51873258Y-63313511D01*
X51814366Y-63533302D01*
X51814364Y-63533313D01*
X51794532Y-63759998D01*
X50550500Y-63759998D01*
X50550500Y-51849999D01*
X59649494Y-51849999D01*
X59649495Y-51850000D01*
X60484314Y-51850000D01*
X60479920Y-51854394D01*
X60427259Y-51945606D01*
X60400000Y-52047339D01*
X60400000Y-52152661D01*
X60427259Y-52254394D01*
X60479920Y-52345606D01*
X60484314Y-52350000D01*
X59649495Y-52350000D01*
X59699651Y-52526280D01*
X59796715Y-52721208D01*
X59927945Y-52894986D01*
X60052315Y-53008363D01*
X60088597Y-53068074D01*
X60086836Y-53137921D01*
X60052315Y-53191637D01*
X59927945Y-53305013D01*
X59796715Y-53478791D01*
X59699651Y-53673719D01*
X59649494Y-53849999D01*
X59649495Y-53850000D01*
X60484314Y-53850000D01*
X60479920Y-53854394D01*
X60427259Y-53945606D01*
X60400000Y-54047339D01*
X60400000Y-54152661D01*
X60427259Y-54254394D01*
X60479920Y-54345606D01*
X60484314Y-54350000D01*
X59649495Y-54350000D01*
X59699651Y-54526280D01*
X59796715Y-54721208D01*
X59927945Y-54894985D01*
X60088868Y-55041685D01*
X60274012Y-55156322D01*
X60274023Y-55156327D01*
X60477060Y-55234984D01*
X60550000Y-55248619D01*
X60550000Y-54415686D01*
X60554394Y-54420080D01*
X60645606Y-54472741D01*
X60747339Y-54500000D01*
X60852661Y-54500000D01*
X60954394Y-54472741D01*
X61045606Y-54420080D01*
X61050000Y-54415686D01*
X61050000Y-55248619D01*
X61122939Y-55234984D01*
X61325976Y-55156327D01*
X61325987Y-55156322D01*
X61511130Y-55041685D01*
X61511131Y-55041685D01*
X61672055Y-54894984D01*
X61700730Y-54857012D01*
X61756838Y-54815374D01*
X61826550Y-54810681D01*
X61887733Y-54844422D01*
X61898640Y-54857009D01*
X61917512Y-54882000D01*
X61927573Y-54895322D01*
X62088568Y-55042088D01*
X62088575Y-55042092D01*
X62088576Y-55042093D01*
X62273786Y-55156770D01*
X62273792Y-55156773D01*
X62296664Y-55165633D01*
X62476931Y-55235470D01*
X62691074Y-55275500D01*
X62691076Y-55275500D01*
X62908924Y-55275500D01*
X62908926Y-55275500D01*
X63123069Y-55235470D01*
X63326210Y-55156772D01*
X63511432Y-55042088D01*
X63672427Y-54895322D01*
X63701047Y-54857422D01*
X63757153Y-54815787D01*
X63826865Y-54811094D01*
X63888048Y-54844836D01*
X63898946Y-54857414D01*
X63927573Y-54895322D01*
X64088568Y-55042088D01*
X64088575Y-55042092D01*
X64088576Y-55042093D01*
X64273786Y-55156770D01*
X64273792Y-55156773D01*
X64296664Y-55165633D01*
X64476931Y-55235470D01*
X64691074Y-55275500D01*
X64691076Y-55275500D01*
X64908924Y-55275500D01*
X64908926Y-55275500D01*
X65123069Y-55235470D01*
X65326210Y-55156772D01*
X65511432Y-55042088D01*
X65672427Y-54895322D01*
X65701047Y-54857422D01*
X65757153Y-54815787D01*
X65826865Y-54811094D01*
X65888048Y-54844836D01*
X65898946Y-54857414D01*
X65927573Y-54895322D01*
X66088568Y-55042088D01*
X66088575Y-55042092D01*
X66088576Y-55042093D01*
X66273786Y-55156770D01*
X66273792Y-55156773D01*
X66296664Y-55165633D01*
X66476931Y-55235470D01*
X66691074Y-55275500D01*
X66691076Y-55275500D01*
X66908924Y-55275500D01*
X66908926Y-55275500D01*
X67123069Y-55235470D01*
X67326210Y-55156772D01*
X67511432Y-55042088D01*
X67672427Y-54895322D01*
X67701047Y-54857422D01*
X67757153Y-54815787D01*
X67826865Y-54811094D01*
X67888048Y-54844836D01*
X67898946Y-54857414D01*
X67927573Y-54895322D01*
X68088568Y-55042088D01*
X68088575Y-55042092D01*
X68088576Y-55042093D01*
X68273786Y-55156770D01*
X68273792Y-55156773D01*
X68296664Y-55165633D01*
X68476931Y-55235470D01*
X68691074Y-55275500D01*
X68691076Y-55275500D01*
X68908924Y-55275500D01*
X68908926Y-55275500D01*
X69123069Y-55235470D01*
X69326210Y-55156772D01*
X69511432Y-55042088D01*
X69672427Y-54895322D01*
X69701047Y-54857422D01*
X69757153Y-54815787D01*
X69826865Y-54811094D01*
X69888048Y-54844836D01*
X69898946Y-54857414D01*
X69927573Y-54895322D01*
X70088568Y-55042088D01*
X70088575Y-55042092D01*
X70088576Y-55042093D01*
X70273786Y-55156770D01*
X70273792Y-55156773D01*
X70296664Y-55165633D01*
X70476931Y-55235470D01*
X70691074Y-55275500D01*
X70691076Y-55275500D01*
X70908924Y-55275500D01*
X70908926Y-55275500D01*
X71123069Y-55235470D01*
X71326210Y-55156772D01*
X71511432Y-55042088D01*
X71672427Y-54895322D01*
X71701047Y-54857422D01*
X71757153Y-54815787D01*
X71826865Y-54811094D01*
X71888048Y-54844836D01*
X71898946Y-54857414D01*
X71927573Y-54895322D01*
X72088568Y-55042088D01*
X72088575Y-55042092D01*
X72088576Y-55042093D01*
X72273786Y-55156770D01*
X72273792Y-55156773D01*
X72296664Y-55165633D01*
X72476931Y-55235470D01*
X72691074Y-55275500D01*
X72691076Y-55275500D01*
X72908924Y-55275500D01*
X72908926Y-55275500D01*
X73123069Y-55235470D01*
X73326210Y-55156772D01*
X73511432Y-55042088D01*
X73522779Y-55031743D01*
X73585579Y-55001125D01*
X73654966Y-55009319D01*
X73705585Y-55049067D01*
X73767809Y-55132187D01*
X73767812Y-55132190D01*
X73882906Y-55218350D01*
X73882913Y-55218354D01*
X74017620Y-55268596D01*
X74017627Y-55268598D01*
X74077155Y-55274999D01*
X74077172Y-55275000D01*
X74550000Y-55275000D01*
X74550000Y-54415686D01*
X74554394Y-54420080D01*
X74645606Y-54472741D01*
X74747339Y-54500000D01*
X74852661Y-54500000D01*
X74954394Y-54472741D01*
X75045606Y-54420080D01*
X75050000Y-54415686D01*
X75050000Y-55275000D01*
X75522828Y-55275000D01*
X75522844Y-55274999D01*
X75582372Y-55268598D01*
X75582379Y-55268596D01*
X75717086Y-55218354D01*
X75717093Y-55218350D01*
X75832187Y-55132190D01*
X75832190Y-55132187D01*
X75918350Y-55017093D01*
X75918354Y-55017086D01*
X75968596Y-54882379D01*
X75968598Y-54882372D01*
X75974999Y-54822844D01*
X75975000Y-54822827D01*
X75975000Y-54350000D01*
X75115686Y-54350000D01*
X75120080Y-54345606D01*
X75172741Y-54254394D01*
X75200000Y-54152661D01*
X75200000Y-54047339D01*
X75172741Y-53945606D01*
X75120080Y-53854394D01*
X75115686Y-53850000D01*
X75975000Y-53850000D01*
X75975000Y-53377172D01*
X75974999Y-53377155D01*
X75968598Y-53317627D01*
X75968596Y-53317620D01*
X75918354Y-53182913D01*
X75918350Y-53182906D01*
X75832190Y-53067812D01*
X75746193Y-53003434D01*
X75704323Y-52947500D01*
X75699339Y-52877808D01*
X75721551Y-52829441D01*
X75803284Y-52721208D01*
X75900348Y-52526280D01*
X75950505Y-52350000D01*
X75115686Y-52350000D01*
X75120080Y-52345606D01*
X75172741Y-52254394D01*
X75200000Y-52152661D01*
X75200000Y-52047339D01*
X75172741Y-51945606D01*
X75120080Y-51854394D01*
X75115686Y-51850000D01*
X75950505Y-51850000D01*
X75950505Y-51849999D01*
X75900348Y-51673719D01*
X75803284Y-51478791D01*
X75672054Y-51305014D01*
X75511131Y-51158314D01*
X75325987Y-51043677D01*
X75325985Y-51043676D01*
X75122931Y-50965013D01*
X75122921Y-50965010D01*
X75050001Y-50951378D01*
X75050000Y-50951379D01*
X75050000Y-51784314D01*
X75045606Y-51779920D01*
X74954394Y-51727259D01*
X74852661Y-51700000D01*
X74747339Y-51700000D01*
X74645606Y-51727259D01*
X74554394Y-51779920D01*
X74550000Y-51784314D01*
X74550000Y-50951379D01*
X74549998Y-50951378D01*
X74477078Y-50965010D01*
X74477068Y-50965013D01*
X74274014Y-51043676D01*
X74274012Y-51043677D01*
X74088869Y-51158314D01*
X74088868Y-51158314D01*
X73927945Y-51305014D01*
X73899267Y-51342990D01*
X73843157Y-51384626D01*
X73773445Y-51389317D01*
X73712264Y-51355575D01*
X73701359Y-51342990D01*
X73692547Y-51331321D01*
X73672427Y-51304678D01*
X73511432Y-51157912D01*
X73511428Y-51157909D01*
X73511423Y-51157906D01*
X73326213Y-51043229D01*
X73326207Y-51043226D01*
X73241113Y-51010260D01*
X73123069Y-50964530D01*
X72908926Y-50924500D01*
X72691074Y-50924500D01*
X72476931Y-50964530D01*
X72428130Y-50983435D01*
X72273792Y-51043226D01*
X72273786Y-51043229D01*
X72088576Y-51157906D01*
X72088566Y-51157913D01*
X71927573Y-51304676D01*
X71898953Y-51342576D01*
X71842844Y-51384211D01*
X71773132Y-51388902D01*
X71711950Y-51355159D01*
X71701047Y-51342576D01*
X71672426Y-51304676D01*
X71511433Y-51157913D01*
X71511423Y-51157906D01*
X71326213Y-51043229D01*
X71326207Y-51043226D01*
X71241113Y-51010260D01*
X71123069Y-50964530D01*
X70908926Y-50924500D01*
X70691074Y-50924500D01*
X70476931Y-50964530D01*
X70428130Y-50983435D01*
X70273792Y-51043226D01*
X70273786Y-51043229D01*
X70088576Y-51157906D01*
X70088566Y-51157913D01*
X69927573Y-51304676D01*
X69898953Y-51342576D01*
X69842844Y-51384211D01*
X69773132Y-51388902D01*
X69711950Y-51355159D01*
X69701047Y-51342576D01*
X69672426Y-51304676D01*
X69511433Y-51157913D01*
X69511423Y-51157906D01*
X69326213Y-51043229D01*
X69326207Y-51043226D01*
X69241113Y-51010260D01*
X69123069Y-50964530D01*
X68908926Y-50924500D01*
X68691074Y-50924500D01*
X68476931Y-50964530D01*
X68428130Y-50983435D01*
X68273792Y-51043226D01*
X68273786Y-51043229D01*
X68088576Y-51157906D01*
X68088566Y-51157913D01*
X67927573Y-51304676D01*
X67898953Y-51342576D01*
X67842844Y-51384211D01*
X67773132Y-51388902D01*
X67711950Y-51355159D01*
X67701047Y-51342576D01*
X67672426Y-51304676D01*
X67511433Y-51157913D01*
X67511423Y-51157906D01*
X67326213Y-51043229D01*
X67326207Y-51043226D01*
X67241113Y-51010260D01*
X67123069Y-50964530D01*
X66908926Y-50924500D01*
X66691074Y-50924500D01*
X66476931Y-50964530D01*
X66428130Y-50983435D01*
X66273792Y-51043226D01*
X66273786Y-51043229D01*
X66088576Y-51157906D01*
X66088566Y-51157913D01*
X65927573Y-51304676D01*
X65898953Y-51342576D01*
X65842844Y-51384211D01*
X65773132Y-51388902D01*
X65711950Y-51355159D01*
X65701047Y-51342576D01*
X65672426Y-51304676D01*
X65511433Y-51157913D01*
X65511423Y-51157906D01*
X65326213Y-51043229D01*
X65326207Y-51043226D01*
X65241113Y-51010260D01*
X65123069Y-50964530D01*
X64908926Y-50924500D01*
X64691074Y-50924500D01*
X64476931Y-50964530D01*
X64428130Y-50983435D01*
X64273792Y-51043226D01*
X64273786Y-51043229D01*
X64088576Y-51157906D01*
X64088566Y-51157913D01*
X63927573Y-51304676D01*
X63898953Y-51342576D01*
X63842844Y-51384211D01*
X63773132Y-51388902D01*
X63711950Y-51355159D01*
X63701047Y-51342576D01*
X63672426Y-51304676D01*
X63511433Y-51157913D01*
X63511423Y-51157906D01*
X63326213Y-51043229D01*
X63326207Y-51043226D01*
X63241113Y-51010260D01*
X63123069Y-50964530D01*
X62908926Y-50924500D01*
X62691074Y-50924500D01*
X62476931Y-50964530D01*
X62428130Y-50983435D01*
X62273792Y-51043226D01*
X62273786Y-51043229D01*
X62088576Y-51157906D01*
X62088566Y-51157913D01*
X61927574Y-51304676D01*
X61898640Y-51342991D01*
X61842530Y-51384627D01*
X61772818Y-51389318D01*
X61711637Y-51355576D01*
X61700731Y-51342990D01*
X61672051Y-51305011D01*
X61672050Y-51305010D01*
X61511131Y-51158314D01*
X61325987Y-51043677D01*
X61325985Y-51043676D01*
X61122931Y-50965013D01*
X61122921Y-50965010D01*
X61050001Y-50951378D01*
X61050000Y-50951379D01*
X61050000Y-51784314D01*
X61045606Y-51779920D01*
X60954394Y-51727259D01*
X60852661Y-51700000D01*
X60747339Y-51700000D01*
X60645606Y-51727259D01*
X60554394Y-51779920D01*
X60550000Y-51784314D01*
X60550000Y-50951379D01*
X60549998Y-50951378D01*
X60477078Y-50965010D01*
X60477068Y-50965013D01*
X60274014Y-51043676D01*
X60274012Y-51043677D01*
X60088869Y-51158314D01*
X60088868Y-51158314D01*
X59927945Y-51305014D01*
X59796715Y-51478791D01*
X59699651Y-51673719D01*
X59649494Y-51849999D01*
X50550500Y-51849999D01*
X50550500Y-50674500D01*
X50570185Y-50607461D01*
X50622989Y-50561706D01*
X50674500Y-50550500D01*
X84325500Y-50550500D01*
X84392539Y-50570185D01*
G37*
%TD.AperFunction*%
%TD*%
M02*
