%TF.GenerationSoftware,KiCad,Pcbnew,8.0.8*%
%TF.CreationDate,2025-01-20T00:36:11+01:00*%
%TF.ProjectId,NANO_MPU_SD,4e414e4f-5f4d-4505-955f-53442e6b6963,rev?*%
%TF.SameCoordinates,Original*%
%TF.FileFunction,Legend,Top*%
%TF.FilePolarity,Positive*%
%FSLAX46Y46*%
G04 Gerber Fmt 4.6, Leading zero omitted, Abs format (unit mm)*
G04 Created by KiCad (PCBNEW 8.0.8) date 2025-01-20 00:36:11*
%MOMM*%
%LPD*%
G01*
G04 APERTURE LIST*
%ADD10C,0.150000*%
%ADD11C,0.120000*%
G04 APERTURE END LIST*
D10*
X55924819Y-89246666D02*
X55448628Y-89579999D01*
X55924819Y-89818094D02*
X54924819Y-89818094D01*
X54924819Y-89818094D02*
X54924819Y-89437142D01*
X54924819Y-89437142D02*
X54972438Y-89341904D01*
X54972438Y-89341904D02*
X55020057Y-89294285D01*
X55020057Y-89294285D02*
X55115295Y-89246666D01*
X55115295Y-89246666D02*
X55258152Y-89246666D01*
X55258152Y-89246666D02*
X55353390Y-89294285D01*
X55353390Y-89294285D02*
X55401009Y-89341904D01*
X55401009Y-89341904D02*
X55448628Y-89437142D01*
X55448628Y-89437142D02*
X55448628Y-89818094D01*
X55020057Y-88865713D02*
X54972438Y-88818094D01*
X54972438Y-88818094D02*
X54924819Y-88722856D01*
X54924819Y-88722856D02*
X54924819Y-88484761D01*
X54924819Y-88484761D02*
X54972438Y-88389523D01*
X54972438Y-88389523D02*
X55020057Y-88341904D01*
X55020057Y-88341904D02*
X55115295Y-88294285D01*
X55115295Y-88294285D02*
X55210533Y-88294285D01*
X55210533Y-88294285D02*
X55353390Y-88341904D01*
X55353390Y-88341904D02*
X55924819Y-88913332D01*
X55924819Y-88913332D02*
X55924819Y-88294285D01*
X56514819Y-107538094D02*
X55514819Y-107538094D01*
X55514819Y-107538094D02*
X55514819Y-107299999D01*
X55514819Y-107299999D02*
X55562438Y-107157142D01*
X55562438Y-107157142D02*
X55657676Y-107061904D01*
X55657676Y-107061904D02*
X55752914Y-107014285D01*
X55752914Y-107014285D02*
X55943390Y-106966666D01*
X55943390Y-106966666D02*
X56086247Y-106966666D01*
X56086247Y-106966666D02*
X56276723Y-107014285D01*
X56276723Y-107014285D02*
X56371961Y-107061904D01*
X56371961Y-107061904D02*
X56467200Y-107157142D01*
X56467200Y-107157142D02*
X56514819Y-107299999D01*
X56514819Y-107299999D02*
X56514819Y-107538094D01*
X55610057Y-106585713D02*
X55562438Y-106538094D01*
X55562438Y-106538094D02*
X55514819Y-106442856D01*
X55514819Y-106442856D02*
X55514819Y-106204761D01*
X55514819Y-106204761D02*
X55562438Y-106109523D01*
X55562438Y-106109523D02*
X55610057Y-106061904D01*
X55610057Y-106061904D02*
X55705295Y-106014285D01*
X55705295Y-106014285D02*
X55800533Y-106014285D01*
X55800533Y-106014285D02*
X55943390Y-106061904D01*
X55943390Y-106061904D02*
X56514819Y-106633332D01*
X56514819Y-106633332D02*
X56514819Y-106014285D01*
X76754819Y-53433333D02*
X77469104Y-53433333D01*
X77469104Y-53433333D02*
X77611961Y-53480952D01*
X77611961Y-53480952D02*
X77707200Y-53576190D01*
X77707200Y-53576190D02*
X77754819Y-53719047D01*
X77754819Y-53719047D02*
X77754819Y-53814285D01*
X76850057Y-53004761D02*
X76802438Y-52957142D01*
X76802438Y-52957142D02*
X76754819Y-52861904D01*
X76754819Y-52861904D02*
X76754819Y-52623809D01*
X76754819Y-52623809D02*
X76802438Y-52528571D01*
X76802438Y-52528571D02*
X76850057Y-52480952D01*
X76850057Y-52480952D02*
X76945295Y-52433333D01*
X76945295Y-52433333D02*
X77040533Y-52433333D01*
X77040533Y-52433333D02*
X77183390Y-52480952D01*
X77183390Y-52480952D02*
X77754819Y-53052380D01*
X77754819Y-53052380D02*
X77754819Y-52433333D01*
X64465714Y-62749104D02*
X64941904Y-62749104D01*
X64370476Y-63034819D02*
X64703809Y-62034819D01*
X64703809Y-62034819D02*
X65037142Y-63034819D01*
X65894285Y-63034819D02*
X65322857Y-63034819D01*
X65608571Y-63034819D02*
X65608571Y-62034819D01*
X65608571Y-62034819D02*
X65513333Y-62177676D01*
X65513333Y-62177676D02*
X65418095Y-62272914D01*
X65418095Y-62272914D02*
X65322857Y-62320533D01*
X63918095Y-102674819D02*
X63918095Y-103484342D01*
X63918095Y-103484342D02*
X63965714Y-103579580D01*
X63965714Y-103579580D02*
X64013333Y-103627200D01*
X64013333Y-103627200D02*
X64108571Y-103674819D01*
X64108571Y-103674819D02*
X64299047Y-103674819D01*
X64299047Y-103674819D02*
X64394285Y-103627200D01*
X64394285Y-103627200D02*
X64441904Y-103579580D01*
X64441904Y-103579580D02*
X64489523Y-103484342D01*
X64489523Y-103484342D02*
X64489523Y-102674819D01*
X64918095Y-103627200D02*
X65060952Y-103674819D01*
X65060952Y-103674819D02*
X65299047Y-103674819D01*
X65299047Y-103674819D02*
X65394285Y-103627200D01*
X65394285Y-103627200D02*
X65441904Y-103579580D01*
X65441904Y-103579580D02*
X65489523Y-103484342D01*
X65489523Y-103484342D02*
X65489523Y-103389104D01*
X65489523Y-103389104D02*
X65441904Y-103293866D01*
X65441904Y-103293866D02*
X65394285Y-103246247D01*
X65394285Y-103246247D02*
X65299047Y-103198628D01*
X65299047Y-103198628D02*
X65108571Y-103151009D01*
X65108571Y-103151009D02*
X65013333Y-103103390D01*
X65013333Y-103103390D02*
X64965714Y-103055771D01*
X64965714Y-103055771D02*
X64918095Y-102960533D01*
X64918095Y-102960533D02*
X64918095Y-102865295D01*
X64918095Y-102865295D02*
X64965714Y-102770057D01*
X64965714Y-102770057D02*
X65013333Y-102722438D01*
X65013333Y-102722438D02*
X65108571Y-102674819D01*
X65108571Y-102674819D02*
X65346666Y-102674819D01*
X65346666Y-102674819D02*
X65489523Y-102722438D01*
X66251428Y-103151009D02*
X66394285Y-103198628D01*
X66394285Y-103198628D02*
X66441904Y-103246247D01*
X66441904Y-103246247D02*
X66489523Y-103341485D01*
X66489523Y-103341485D02*
X66489523Y-103484342D01*
X66489523Y-103484342D02*
X66441904Y-103579580D01*
X66441904Y-103579580D02*
X66394285Y-103627200D01*
X66394285Y-103627200D02*
X66299047Y-103674819D01*
X66299047Y-103674819D02*
X65918095Y-103674819D01*
X65918095Y-103674819D02*
X65918095Y-102674819D01*
X65918095Y-102674819D02*
X66251428Y-102674819D01*
X66251428Y-102674819D02*
X66346666Y-102722438D01*
X66346666Y-102722438D02*
X66394285Y-102770057D01*
X66394285Y-102770057D02*
X66441904Y-102865295D01*
X66441904Y-102865295D02*
X66441904Y-102960533D01*
X66441904Y-102960533D02*
X66394285Y-103055771D01*
X66394285Y-103055771D02*
X66346666Y-103103390D01*
X66346666Y-103103390D02*
X66251428Y-103151009D01*
X66251428Y-103151009D02*
X65918095Y-103151009D01*
X82766666Y-88354819D02*
X82766666Y-89069104D01*
X82766666Y-89069104D02*
X82719047Y-89211961D01*
X82719047Y-89211961D02*
X82623809Y-89307200D01*
X82623809Y-89307200D02*
X82480952Y-89354819D01*
X82480952Y-89354819D02*
X82385714Y-89354819D01*
X83147619Y-88354819D02*
X83766666Y-88354819D01*
X83766666Y-88354819D02*
X83433333Y-88735771D01*
X83433333Y-88735771D02*
X83576190Y-88735771D01*
X83576190Y-88735771D02*
X83671428Y-88783390D01*
X83671428Y-88783390D02*
X83719047Y-88831009D01*
X83719047Y-88831009D02*
X83766666Y-88926247D01*
X83766666Y-88926247D02*
X83766666Y-89164342D01*
X83766666Y-89164342D02*
X83719047Y-89259580D01*
X83719047Y-89259580D02*
X83671428Y-89307200D01*
X83671428Y-89307200D02*
X83576190Y-89354819D01*
X83576190Y-89354819D02*
X83290476Y-89354819D01*
X83290476Y-89354819D02*
X83195238Y-89307200D01*
X83195238Y-89307200D02*
X83147619Y-89259580D01*
X56514819Y-102468094D02*
X55514819Y-102468094D01*
X55514819Y-102468094D02*
X55514819Y-102229999D01*
X55514819Y-102229999D02*
X55562438Y-102087142D01*
X55562438Y-102087142D02*
X55657676Y-101991904D01*
X55657676Y-101991904D02*
X55752914Y-101944285D01*
X55752914Y-101944285D02*
X55943390Y-101896666D01*
X55943390Y-101896666D02*
X56086247Y-101896666D01*
X56086247Y-101896666D02*
X56276723Y-101944285D01*
X56276723Y-101944285D02*
X56371961Y-101991904D01*
X56371961Y-101991904D02*
X56467200Y-102087142D01*
X56467200Y-102087142D02*
X56514819Y-102229999D01*
X56514819Y-102229999D02*
X56514819Y-102468094D01*
X56514819Y-100944285D02*
X56514819Y-101515713D01*
X56514819Y-101229999D02*
X55514819Y-101229999D01*
X55514819Y-101229999D02*
X55657676Y-101325237D01*
X55657676Y-101325237D02*
X55752914Y-101420475D01*
X55752914Y-101420475D02*
X55800533Y-101515713D01*
X82766666Y-108554819D02*
X82766666Y-109269104D01*
X82766666Y-109269104D02*
X82719047Y-109411961D01*
X82719047Y-109411961D02*
X82623809Y-109507200D01*
X82623809Y-109507200D02*
X82480952Y-109554819D01*
X82480952Y-109554819D02*
X82385714Y-109554819D01*
X83766666Y-109554819D02*
X83195238Y-109554819D01*
X83480952Y-109554819D02*
X83480952Y-108554819D01*
X83480952Y-108554819D02*
X83385714Y-108697676D01*
X83385714Y-108697676D02*
X83290476Y-108792914D01*
X83290476Y-108792914D02*
X83195238Y-108840533D01*
X51184819Y-71546666D02*
X50708628Y-71879999D01*
X51184819Y-72118094D02*
X50184819Y-72118094D01*
X50184819Y-72118094D02*
X50184819Y-71737142D01*
X50184819Y-71737142D02*
X50232438Y-71641904D01*
X50232438Y-71641904D02*
X50280057Y-71594285D01*
X50280057Y-71594285D02*
X50375295Y-71546666D01*
X50375295Y-71546666D02*
X50518152Y-71546666D01*
X50518152Y-71546666D02*
X50613390Y-71594285D01*
X50613390Y-71594285D02*
X50661009Y-71641904D01*
X50661009Y-71641904D02*
X50708628Y-71737142D01*
X50708628Y-71737142D02*
X50708628Y-72118094D01*
X51184819Y-70594285D02*
X51184819Y-71165713D01*
X51184819Y-70879999D02*
X50184819Y-70879999D01*
X50184819Y-70879999D02*
X50327676Y-70975237D01*
X50327676Y-70975237D02*
X50422914Y-71070475D01*
X50422914Y-71070475D02*
X50470533Y-71165713D01*
D11*
%TO.C,R2*%
X51730000Y-85810000D02*
X51730000Y-92350000D01*
X51730000Y-92350000D02*
X54470000Y-92350000D01*
X53100000Y-82500000D02*
X53100000Y-85810000D01*
X53100000Y-95660000D02*
X53100000Y-92350000D01*
X54470000Y-85810000D02*
X51730000Y-85810000D01*
X54470000Y-92350000D02*
X54470000Y-85810000D01*
%TO.C,D2*%
X52020000Y-105240000D02*
X51864000Y-105240000D01*
X54336000Y-105240000D02*
X54180000Y-105240000D01*
X52019939Y-108471397D02*
G75*
G02*
X51864484Y-105240000I1080061J1671397D01*
G01*
X52019951Y-107840910D02*
G75*
G02*
X52020000Y-105759039I1080049J1040910D01*
G01*
X54180000Y-105759039D02*
G75*
G02*
X54180049Y-107840910I-1080000J-1040961D01*
G01*
X54335516Y-105240000D02*
G75*
G02*
X54180061Y-108471397I-1235516J-1560000D01*
G01*
%TO.C,J2*%
X59740000Y-51040000D02*
X59740000Y-55160000D01*
X73800000Y-53100000D02*
X73800000Y-55160000D01*
X73800000Y-55160000D02*
X59740000Y-55160000D01*
X75860000Y-51040000D02*
X59740000Y-51040000D01*
X75860000Y-51040000D02*
X75860000Y-53100000D01*
X75860000Y-53100000D02*
X73800000Y-53100000D01*
X75860000Y-54100000D02*
X75860000Y-55160000D01*
X75860000Y-55160000D02*
X74800000Y-55160000D01*
%TO.C,A1*%
X56160000Y-63720000D02*
X56160000Y-66390000D01*
X56160000Y-68930000D02*
X56160000Y-107160000D01*
X56160000Y-107160000D02*
X61240000Y-107160000D01*
X58830000Y-66390000D02*
X56160000Y-66390000D01*
X58830000Y-68930000D02*
X56160000Y-68930000D01*
X58830000Y-68930000D02*
X58830000Y-66390000D01*
X58830000Y-68930000D02*
X58830000Y-104490000D01*
X58830000Y-104490000D02*
X56160000Y-104490000D01*
X61240000Y-99280000D02*
X69120000Y-99280000D01*
X61240000Y-109700000D02*
X61240000Y-99280000D01*
X69120000Y-99280000D02*
X69120000Y-109700000D01*
X69120000Y-109700000D02*
X61240000Y-109700000D01*
X71530000Y-66390000D02*
X71530000Y-104490000D01*
X71530000Y-66390000D02*
X74200000Y-66390000D01*
X71530000Y-104490000D02*
X74200000Y-104490000D01*
X74200000Y-63720000D02*
X56160000Y-63720000D01*
X74200000Y-107160000D02*
X69120000Y-107160000D01*
X74200000Y-107160000D02*
X74200000Y-63720000D01*
%TO.C,J3*%
X82040000Y-85400000D02*
X82040000Y-79340000D01*
X82040000Y-87460000D02*
X82040000Y-86400000D01*
X83100000Y-87460000D02*
X82040000Y-87460000D01*
X84160000Y-79340000D02*
X82040000Y-79340000D01*
X84160000Y-85400000D02*
X82040000Y-85400000D01*
X84160000Y-85400000D02*
X84160000Y-79340000D01*
%TO.C,D1*%
X52020000Y-100170000D02*
X51864000Y-100170000D01*
X54336000Y-100170000D02*
X54180000Y-100170000D01*
X52019939Y-103401397D02*
G75*
G02*
X51864484Y-100170000I1080061J1671397D01*
G01*
X52019951Y-102770910D02*
G75*
G02*
X52020000Y-100689039I1080049J1040910D01*
G01*
X54180000Y-100689039D02*
G75*
G02*
X54180049Y-102770910I-1080000J-1040961D01*
G01*
X54335516Y-100170000D02*
G75*
G02*
X54180061Y-103401397I-1235516J-1560000D01*
G01*
%TO.C,J1*%
X82040000Y-105600000D02*
X82040000Y-91540000D01*
X82040000Y-107660000D02*
X82040000Y-106600000D01*
X83100000Y-107660000D02*
X82040000Y-107660000D01*
X84160000Y-91540000D02*
X82040000Y-91540000D01*
X84160000Y-105600000D02*
X82040000Y-105600000D01*
X84160000Y-105600000D02*
X84160000Y-91540000D01*
%TO.C,R1*%
X51730000Y-68110000D02*
X51730000Y-74650000D01*
X51730000Y-74650000D02*
X54470000Y-74650000D01*
X53100000Y-64800000D02*
X53100000Y-68110000D01*
X53100000Y-77960000D02*
X53100000Y-74650000D01*
X54470000Y-68110000D02*
X51730000Y-68110000D01*
X54470000Y-74650000D02*
X54470000Y-68110000D01*
%TD*%
M02*
