%TF.GenerationSoftware,KiCad,Pcbnew,8.0.8*%
%TF.CreationDate,2025-01-20T01:16:45+01:00*%
%TF.ProjectId,NANO_MPU_SD_2Layers,4e414e4f-5f4d-4505-955f-53445f324c61,rev?*%
%TF.SameCoordinates,Original*%
%TF.FileFunction,Copper,L1,Top*%
%TF.FilePolarity,Positive*%
%FSLAX46Y46*%
G04 Gerber Fmt 4.6, Leading zero omitted, Abs format (unit mm)*
G04 Created by KiCad (PCBNEW 8.0.8) date 2025-01-20 01:16:45*
%MOMM*%
%LPD*%
G01*
G04 APERTURE LIST*
%TA.AperFunction,ComponentPad*%
%ADD10R,1.800000X1.800000*%
%TD*%
%TA.AperFunction,ComponentPad*%
%ADD11C,1.800000*%
%TD*%
%TA.AperFunction,ComponentPad*%
%ADD12C,1.600000*%
%TD*%
%TA.AperFunction,ComponentPad*%
%ADD13O,1.600000X1.600000*%
%TD*%
%TA.AperFunction,ComponentPad*%
%ADD14R,1.350000X1.350000*%
%TD*%
%TA.AperFunction,ComponentPad*%
%ADD15O,1.350000X1.350000*%
%TD*%
%TA.AperFunction,ComponentPad*%
%ADD16R,1.600000X1.600000*%
%TD*%
%TA.AperFunction,ViaPad*%
%ADD17C,0.600000*%
%TD*%
%TA.AperFunction,Conductor*%
%ADD18C,0.200000*%
%TD*%
G04 APERTURE END LIST*
D10*
%TO.P,D2,1,K*%
%TO.N,GND*%
X53100000Y-105530000D03*
D11*
%TO.P,D2,2,A*%
%TO.N,Net-(D2-A)*%
X53100000Y-108070000D03*
%TD*%
%TO.P,D1,2,A*%
%TO.N,Net-(D1-A)*%
X53100000Y-103000000D03*
D10*
%TO.P,D1,1,K*%
%TO.N,GND*%
X53100000Y-100460000D03*
%TD*%
D12*
%TO.P,R2,1*%
%TO.N,Net-(A1-D5)*%
X53100000Y-81460000D03*
D13*
%TO.P,R2,2*%
%TO.N,Net-(D1-A)*%
X53100000Y-96700000D03*
%TD*%
D14*
%TO.P,J2,1,ePin_b2*%
%TO.N,GND*%
X74800000Y-54100000D03*
D15*
%TO.P,J2,2,ePin_a2*%
X74800000Y-52100000D03*
%TO.P,J2,3,eePin_b4*%
%TO.N,Net-(A1-D12)*%
X72800000Y-54100000D03*
%TO.P,J2,4,ePin_a4*%
X72800000Y-52100000D03*
%TO.P,J2,5,ePin_b6*%
%TO.N,Net-(A1-D13)*%
X70800000Y-54100000D03*
%TO.P,J2,6,ePin_a6*%
X70800000Y-52100000D03*
%TO.P,J2,7,ePin_b8*%
%TO.N,Net-(A1-D11)*%
X68800000Y-54100000D03*
%TO.P,J2,8,ePin_a8*%
X68800000Y-52100000D03*
%TO.P,J2,9,ePin_b10*%
%TO.N,Net-(A1-D10)*%
X66800000Y-54100000D03*
%TO.P,J2,10,ePin_a10*%
X66800000Y-52100000D03*
%TO.P,J2,11,ePin_b12*%
%TO.N,+5V*%
X64800000Y-54100000D03*
%TO.P,J2,12,ePin_a12*%
X64800000Y-52100000D03*
%TO.P,J2,13,Pin_b14*%
%TO.N,+3.3V*%
X62800000Y-54100000D03*
%TO.P,J2,14,ePin_a14*%
X62800000Y-52100000D03*
%TO.P,J2,15,ePin_b16*%
%TO.N,GND*%
X60800000Y-54100000D03*
%TO.P,J2,16,ePin_a16*%
X60800000Y-52100000D03*
%TD*%
D16*
%TO.P,A1,1,D1/TX*%
%TO.N,unconnected-(A1-D1{slash}TX-Pad1)*%
X57560000Y-67660000D03*
D13*
%TO.P,A1,2,D0/RX*%
%TO.N,unconnected-(A1-D0{slash}RX-Pad2)*%
X57560000Y-70200000D03*
%TO.P,A1,3,~{RESET}*%
%TO.N,unconnected-(A1-~{RESET}-Pad3)*%
X57560000Y-72740000D03*
%TO.P,A1,4,GND*%
%TO.N,GND*%
X57560000Y-75280000D03*
%TO.P,A1,5,D2*%
%TO.N,unconnected-(A1-D2-Pad5)*%
X57560000Y-77820000D03*
%TO.P,A1,6,D3*%
%TO.N,Net-(A1-D3)*%
X57560000Y-80360000D03*
%TO.P,A1,7,D4*%
%TO.N,unconnected-(A1-D4-Pad7)*%
X57560000Y-82900000D03*
%TO.P,A1,8,D5*%
%TO.N,Net-(A1-D5)*%
X57560000Y-85440000D03*
%TO.P,A1,9,D6*%
%TO.N,unconnected-(A1-D6-Pad9)*%
X57560000Y-87980000D03*
%TO.P,A1,10,D7*%
%TO.N,unconnected-(A1-D7-Pad10)*%
X57560000Y-90520000D03*
%TO.P,A1,11,D8*%
%TO.N,unconnected-(A1-D8-Pad11)*%
X57560000Y-93060000D03*
%TO.P,A1,12,D9*%
%TO.N,unconnected-(A1-D9-Pad12)*%
X57560000Y-95600000D03*
%TO.P,A1,13,D10*%
%TO.N,Net-(A1-D10)*%
X57560000Y-98140000D03*
%TO.P,A1,14,D11*%
%TO.N,Net-(A1-D11)*%
X57560000Y-100680000D03*
%TO.P,A1,15,D12*%
%TO.N,Net-(A1-D12)*%
X57560000Y-103220000D03*
%TO.P,A1,16,D13*%
%TO.N,Net-(A1-D13)*%
X72800000Y-103220000D03*
%TO.P,A1,17,3V3*%
%TO.N,+3.3V*%
X72800000Y-100680000D03*
%TO.P,A1,18,AREF*%
%TO.N,unconnected-(A1-AREF-Pad18)*%
X72800000Y-98140000D03*
%TO.P,A1,19,A0*%
%TO.N,unconnected-(A1-A0-Pad19)*%
X72800000Y-95600000D03*
%TO.P,A1,20,A1*%
%TO.N,unconnected-(A1-A1-Pad20)*%
X72800000Y-93060000D03*
%TO.P,A1,21,A2*%
%TO.N,unconnected-(A1-A2-Pad21)*%
X72800000Y-90520000D03*
%TO.P,A1,22,A3*%
%TO.N,unconnected-(A1-A3-Pad22)*%
X72800000Y-87980000D03*
%TO.P,A1,23,A4*%
%TO.N,Net-(A1-A4)*%
X72800000Y-85440000D03*
%TO.P,A1,24,A5*%
%TO.N,Net-(A1-A5)*%
X72800000Y-82900000D03*
%TO.P,A1,25,A6*%
%TO.N,unconnected-(A1-A6-Pad25)*%
X72800000Y-80360000D03*
%TO.P,A1,26,A7*%
%TO.N,unconnected-(A1-A7-Pad26)*%
X72800000Y-77820000D03*
%TO.P,A1,27,+5V*%
%TO.N,+5V*%
X72800000Y-75280000D03*
%TO.P,A1,28,~{RESET}*%
%TO.N,unconnected-(A1-~{RESET}-Pad28)*%
X72800000Y-72740000D03*
%TO.P,A1,29,GND*%
%TO.N,unconnected-(A1-GND-Pad29)*%
X72800000Y-70200000D03*
%TO.P,A1,30,VIN*%
%TO.N,unconnected-(A1-VIN-Pad30)*%
X72800000Y-67660000D03*
%TD*%
D14*
%TO.P,J3,1,Pin_1*%
%TO.N,+3.3V*%
X83100000Y-86400000D03*
D15*
%TO.P,J3,2,Pin_2*%
%TO.N,GND*%
X83100000Y-84400000D03*
%TO.P,J3,3,Pin_3*%
%TO.N,Net-(A1-A5)*%
X83100000Y-82400000D03*
%TO.P,J3,4,Pin_4*%
%TO.N,Net-(A1-A4)*%
X83100000Y-80400000D03*
%TD*%
D14*
%TO.P,J1,1,Pin_1*%
%TO.N,+3.3V*%
X83100000Y-106600000D03*
D15*
%TO.P,J1,2,Pin_2*%
%TO.N,GND*%
X83100000Y-104600000D03*
%TO.P,J1,3,Pin_3*%
%TO.N,Net-(A1-A5)*%
X83100000Y-102600000D03*
%TO.P,J1,4,Pin_4*%
%TO.N,Net-(A1-A4)*%
X83100000Y-100600000D03*
%TO.P,J1,5,Pin_5*%
%TO.N,unconnected-(J1-Pin_5-Pad5)*%
X83100000Y-98600000D03*
%TO.P,J1,6,Pin_6*%
%TO.N,unconnected-(J1-Pin_6-Pad6)*%
X83100000Y-96600000D03*
%TO.P,J1,7,Pin_7*%
%TO.N,unconnected-(J1-Pin_7-Pad7)*%
X83100000Y-94600000D03*
%TO.P,J1,8,Pin_8*%
%TO.N,unconnected-(J1-Pin_8-Pad8)*%
X83100000Y-92600000D03*
%TD*%
D12*
%TO.P,R1,1*%
%TO.N,Net-(D2-A)*%
X53100000Y-79000000D03*
D13*
%TO.P,R1,2*%
%TO.N,Net-(A1-D3)*%
X53100000Y-63760000D03*
%TD*%
D17*
%TO.N,Net-(A1-D12)*%
X69300000Y-57486930D03*
%TD*%
D18*
%TO.N,Net-(A1-D10)*%
X61300000Y-55900000D02*
X60000000Y-57200000D01*
X60000000Y-57200000D02*
X60000000Y-95700000D01*
X65000000Y-55900000D02*
X61300000Y-55900000D01*
X60000000Y-95700000D02*
X57560000Y-98140000D01*
X66800000Y-52100000D02*
X66800000Y-54100000D01*
X66800000Y-54100000D02*
X65000000Y-55900000D01*
%TO.N,Net-(A1-D11)*%
X62100000Y-56900000D02*
X61000000Y-58000000D01*
X68800000Y-54100000D02*
X66000000Y-56900000D01*
X61000000Y-97240000D02*
X61000000Y-58000000D01*
X68800000Y-52100000D02*
X68800000Y-54100000D01*
X57560000Y-100680000D02*
X61000000Y-97240000D01*
X66000000Y-56900000D02*
X62100000Y-56900000D01*
%TO.N,Net-(A1-D3)*%
X53100000Y-63760000D02*
X55400000Y-66060000D01*
X55400000Y-66060000D02*
X55400000Y-66800000D01*
X55400000Y-78200000D02*
X55400000Y-66800000D01*
X57560000Y-80360000D02*
X55400000Y-78200000D01*
%TO.N,+3.3V*%
X74200000Y-106100000D02*
X74700000Y-106600000D01*
X74200000Y-101000000D02*
X74200000Y-106100000D01*
X62800000Y-52100000D02*
X62800000Y-54100000D01*
X72800000Y-100680000D02*
X73880000Y-100680000D01*
X74700000Y-106600000D02*
X83100000Y-106600000D01*
X73880000Y-100680000D02*
X74200000Y-101000000D01*
%TO.N,Net-(A1-D13)*%
X70800000Y-102400000D02*
X71620000Y-103220000D01*
X70800000Y-54100000D02*
X70800000Y-102400000D01*
X70800000Y-52100000D02*
X70800000Y-54100000D01*
X72800000Y-103220000D02*
X71620000Y-103220000D01*
%TO.N,+5V*%
X64800000Y-52100000D02*
X64800000Y-54100000D01*
%TO.N,Net-(A1-A5)*%
X83100000Y-102600000D02*
X81000000Y-100500000D01*
X81000000Y-100500000D02*
X81000000Y-88000000D01*
X71400000Y-84300000D02*
X71400000Y-85800000D01*
X72264365Y-86800000D02*
X79800000Y-86800000D01*
X81000000Y-84500000D02*
X81000000Y-88000000D01*
X71400000Y-85935635D02*
X71400000Y-85800000D01*
X72264365Y-86800000D02*
X71400000Y-85935635D01*
X72800000Y-82900000D02*
X71700000Y-84000000D01*
X79800000Y-86800000D02*
X81000000Y-88000000D01*
X71700000Y-84000000D02*
X71400000Y-84300000D01*
X71700000Y-86235635D02*
X72264365Y-86800000D01*
X83100000Y-82400000D02*
X81000000Y-84500000D01*
%TO.N,Net-(A1-D5)*%
X53580000Y-81460000D02*
X53100000Y-81460000D01*
X57560000Y-85440000D02*
X53580000Y-81460000D01*
%TO.N,Net-(A1-A4)*%
X78060000Y-85440000D02*
X72800000Y-85440000D01*
X83100000Y-100600000D02*
X84350000Y-99350000D01*
X84350000Y-81650000D02*
X83100000Y-80400000D01*
X84350000Y-99350000D02*
X84350000Y-81650000D01*
X83100000Y-80400000D02*
X78060000Y-85440000D01*
%TO.N,Net-(A1-D12)*%
X61600000Y-99180000D02*
X61600000Y-58400000D01*
X62513070Y-57486930D02*
X69300000Y-57486930D01*
X57560000Y-103220000D02*
X61600000Y-99180000D01*
X61600000Y-58400000D02*
X62513070Y-57486930D01*
X72800000Y-52100000D02*
X72800000Y-54100000D01*
%TO.N,Net-(D1-A)*%
X54500000Y-101600000D02*
X54500000Y-100600000D01*
X53100000Y-103000000D02*
X54500000Y-101600000D01*
X53100000Y-96700000D02*
X54500000Y-98100000D01*
X54500000Y-98100000D02*
X54500000Y-100600000D01*
%TO.N,Net-(D2-A)*%
X50700000Y-105670000D02*
X50700000Y-104700000D01*
X52000000Y-99060000D02*
X50700000Y-100360000D01*
X50700000Y-100360000D02*
X50700000Y-104700000D01*
X53100000Y-79000000D02*
X52000000Y-80100000D01*
X52000000Y-80100000D02*
X52000000Y-99060000D01*
X53100000Y-108070000D02*
X50700000Y-105670000D01*
%TD*%
M02*
