M48
; DRILL file {KiCad 8.0.8} date 2025-01-20T01:17:00+0100
; FORMAT={-:-/ absolute / inch / decimal}
; #@! TF.CreationDate,2025-01-20T01:17:00+01:00
; #@! TF.GenerationSoftware,Kicad,Pcbnew,8.0.8
; #@! TF.FileFunction,Plated,1,2,PTH
FMAT,2
INCH
; #@! TA.AperFunction,Plated,PTH,ViaDrill
T1C0.0118
; #@! TA.AperFunction,Plated,PTH,ComponentDrill
T2C0.0315
; #@! TA.AperFunction,Plated,PTH,ComponentDrill
T3C0.0354
; #@! TA.AperFunction,Plated,PTH,ComponentDrill
T4C0.0394
%
G90
G05
T1
X2.7283Y-2.2633
T2
X2.0906Y-2.5102
X2.0906Y-3.1102
X2.0906Y-3.2071
X2.0906Y-3.8071
X2.3937Y-2.0512
X2.3937Y-2.1299
X2.4724Y-2.0512
X2.4724Y-2.1299
X2.5512Y-2.0512
X2.5512Y-2.1299
X2.6299Y-2.0512
X2.6299Y-2.1299
X2.7087Y-2.0512
X2.7087Y-2.1299
X2.7874Y-2.0512
X2.7874Y-2.1299
X2.8661Y-2.0512
X2.8661Y-2.1299
X2.9449Y-2.0512
X2.9449Y-2.1299
X3.2717Y-3.1654
X3.2717Y-3.2441
X3.2717Y-3.3228
X3.2717Y-3.4016
X3.2717Y-3.6457
X3.2717Y-3.7244
X3.2717Y-3.8031
X3.2717Y-3.8819
X3.2717Y-3.9606
X3.2717Y-4.0394
X3.2717Y-4.1181
X3.2717Y-4.1969
T3
X2.0906Y-3.9551
X2.0906Y-4.0551
X2.0906Y-4.1547
X2.0906Y-4.2547
T4
X2.2661Y-2.6638
X2.2661Y-2.7638
X2.2661Y-2.8638
X2.2661Y-2.9638
X2.2661Y-3.0638
X2.2661Y-3.1638
X2.2661Y-3.2638
X2.2661Y-3.3638
X2.2661Y-3.4638
X2.2661Y-3.5638
X2.2661Y-3.6638
X2.2661Y-3.7638
X2.2661Y-3.8638
X2.2661Y-3.9638
X2.2661Y-4.0638
X2.8661Y-2.6638
X2.8661Y-2.7638
X2.8661Y-2.8638
X2.8661Y-2.9638
X2.8661Y-3.0638
X2.8661Y-3.1638
X2.8661Y-3.2638
X2.8661Y-3.3638
X2.8661Y-3.4638
X2.8661Y-3.5638
X2.8661Y-3.6638
X2.8661Y-3.7638
X2.8661Y-3.8638
X2.8661Y-3.9638
X2.8661Y-4.0638
M30
